  0
SECTION
  2
HEADER
  9
$ACADVER
  1
AC1032
  9
$ACADMAINTVER
 90
4
  9
$DWGCODEPAGE
  3
ANSI_1252
  9
$LASTSAVEDBY
  1
ezdxf
  9
$REQUIREDVERSIONS
160
0
  9
$INSBASE
 10
0.0
 20
0.0
 30
0.0
  9
$EXTMIN
 10
1e+20
 20
1e+20
 30
1e+20
  9
$EXTMAX
 10
-1e+20
 20
-1e+20
 30
-1e+20
  9
$LIMMIN
 10
0.0
 20
0.0
  9
$LIMMAX
 10
420.0
 20
297.0
  9
$ORTHOMODE
 70
0
  9
$REGENMODE
 70
1
  9
$FILLMODE
 70
1
  9
$QTEXTMODE
 70
0
  9
$MIRRTEXT
 70
1
  9
$LTSCALE
 40
1.0
  9
$ATTMODE
 70
1
  9
$TEXTSIZE
 40
2.5
  9
$TRACEWID
 40
1.0
  9
$TEXTSTYLE
  7
Standard
  9
$CLAYER
  8
0
  9
$CELTYPE
  6
ByLayer
  9
$CECOLOR
 62
256
  9
$CELTSCALE
 40
1.0
  9
$DISPSILH
 70
0
  9
$DIMSCALE
 40
1.0
  9
$DIMASZ
 40
2.5
  9
$DIMEXO
 40
0.625
  9
$DIMDLI
 40
3.75
  9
$DIMRND
 40
0.0
  9
$DIMDLE
 40
0.0
  9
$DIMEXE
 40
1.25
  9
$DIMTP
 40
0.0
  9
$DIMTM
 40
0.0
  9
$DIMTXT
 40
2.5
  9
$DIMCEN
 40
2.5
  9
$DIMTSZ
 40
0.0
  9
$DIMTOL
 70
0
  9
$DIMLIM
 70
0
  9
$DIMTIH
 70
0
  9
$DIMTOH
 70
0
  9
$DIMSE1
 70
0
  9
$DIMSE2
 70
0
  9
$DIMTAD
 70
1
  9
$DIMZIN
 70
8
  9
$DIMBLK
  1

  9
$DIMASO
 70
1
  9
$DIMSHO
 70
1
  9
$DIMPOST
  1

  9
$DIMAPOST
  1

  9
$DIMALT
 70
0
  9
$DIMALTD
 70
3
  9
$DIMALTF
 40
0.03937007874
  9
$DIMLFAC
 40
1.0
  9
$DIMTOFL
 70
1
  9
$DIMTVP
 40
0.0
  9
$DIMTIX
 70
0
  9
$DIMSOXD
 70
0
  9
$DIMSAH
 70
0
  9
$DIMBLK1
  1

  9
$DIMBLK2
  1

  9
$DIMSTYLE
  2
ISO-25
  9
$DIMCLRD
 70
0
  9
$DIMCLRE
 70
0
  9
$DIMCLRT
 70
0
  9
$DIMTFAC
 40
1.0
  9
$DIMGAP
 40
0.625
  9
$DIMJUST
 70
0
  9
$DIMSD1
 70
0
  9
$DIMSD2
 70
0
  9
$DIMTOLJ
 70
0
  9
$DIMTZIN
 70
8
  9
$DIMALTZ
 70
0
  9
$DIMALTTZ
 70
0
  9
$DIMUPT
 70
0
  9
$DIMDEC
 70
2
  9
$DIMTDEC
 70
2
  9
$DIMALTU
 70
2
  9
$DIMALTTD
 70
3
  9
$DIMTXSTY
  7
Standard
  9
$DIMAUNIT
 70
0
  9
$DIMADEC
 70
0
  9
$DIMALTRND
 40
0.0
  9
$DIMAZIN
 70
0
  9
$DIMDSEP
 70
44
  9
$DIMATFIT
 70
3
  9
$DIMFRAC
 70
0
  9
$DIMLDRBLK
  1

  9
$DIMLUNIT
 70
2
  9
$DIMLWD
 70
-2
  9
$DIMLWE
 70
-2
  9
$DIMTMOVE
 70
0
  9
$DIMFXL
 40
1.0
  9
$DIMFXLON
 70
0
  9
$DIMJOGANG
 40
0.785398163397
  9
$DIMTFILL
 70
0
  9
$DIMTFILLCLR
 70
0
  9
$DIMARCSYM
 70
0
  9
$DIMLTYPE
  6

  9
$DIMLTEX1
  6

  9
$DIMLTEX2
  6

  9
$DIMTXTDIRECTION
 70
0
  9
$LUNITS
 70
2
  9
$LUPREC
 70
4
  9
$SKETCHINC
 40
1.0
  9
$FILLETRAD
 40
10.0
  9
$AUNITS
 70
0
  9
$AUPREC
 70
2
  9
$MENU
  1
.
  9
$ELEVATION
 40
0.0
  9
$PELEVATION
 40
0.0
  9
$THICKNESS
 40
0.0
  9
$LIMCHECK
 70
0
  9
$CHAMFERA
 40
0.0
  9
$CHAMFERB
 40
0.0
  9
$CHAMFERC
 40
0.0
  9
$CHAMFERD
 40
0.0
  9
$SKPOLY
 70
0
  9
$TDCREATE
 40
2461257.737615741
  9
$TDUCREATE
 40
2458532.153996898
  9
$TDUPDATE
 40
2461257.737615741
  9
$TDUUPDATE
 40
2458532.1544311
  9
$TDINDWG
 40
0.0
  9
$TDUSRTIMER
 40
0.0
  9
$USRTIMER
 70
1
  9
$ANGBASE
 50
0.0
  9
$ANGDIR
 70
0
  9
$PDMODE
 70
0
  9
$PDSIZE
 40
0.0
  9
$PLINEWID
 40
0.0
  9
$SPLFRAME
 70
0
  9
$SPLINETYPE
 70
6
  9
$SPLINESEGS
 70
8
  9
$HANDSEED
  5
52
  9
$SURFTAB1
 70
6
  9
$SURFTAB2
 70
6
  9
$SURFTYPE
 70
6
  9
$SURFU
 70
6
  9
$SURFV
 70
6
  9
$UCSBASE
  2

  9
$UCSNAME
  2

  9
$UCSORG
 10
0.0
 20
0.0
 30
0.0
  9
$UCSXDIR
 10
1.0
 20
0.0
 30
0.0
  9
$UCSYDIR
 10
0.0
 20
1.0
 30
0.0
  9
$UCSORTHOREF
  2

  9
$UCSORTHOVIEW
 70
0
  9
$UCSORGTOP
 10
0.0
 20
0.0
 30
0.0
  9
$UCSORGBOTTOM
 10
0.0
 20
0.0
 30
0.0
  9
$UCSORGLEFT
 10
0.0
 20
0.0
 30
0.0
  9
$UCSORGRIGHT
 10
0.0
 20
0.0
 30
0.0
  9
$UCSORGFRONT
 10
0.0
 20
0.0
 30
0.0
  9
$UCSORGBACK
 10
0.0
 20
0.0
 30
0.0
  9
$PUCSBASE
  2

  9
$PUCSNAME
  2

  9
$PUCSORG
 10
0.0
 20
0.0
 30
0.0
  9
$PUCSXDIR
 10
1.0
 20
0.0
 30
0.0
  9
$PUCSYDIR
 10
0.0
 20
1.0
 30
0.0
  9
$PUCSORTHOREF
  2

  9
$PUCSORTHOVIEW
 70
0
  9
$PUCSORGTOP
 10
0.0
 20
0.0
 30
0.0
  9
$PUCSORGBOTTOM
 10
0.0
 20
0.0
 30
0.0
  9
$PUCSORGLEFT
 10
0.0
 20
0.0
 30
0.0
  9
$PUCSORGRIGHT
 10
0.0
 20
0.0
 30
0.0
  9
$PUCSORGFRONT
 10
0.0
 20
0.0
 30
0.0
  9
$PUCSORGBACK
 10
0.0
 20
0.0
 30
0.0
  9
$USERI1
 70
0
  9
$USERI2
 70
0
  9
$USERI3
 70
0
  9
$USERI4
 70
0
  9
$USERI5
 70
0
  9
$USERR1
 40
0.0
  9
$USERR2
 40
0.0
  9
$USERR3
 40
0.0
  9
$USERR4
 40
0.0
  9
$USERR5
 40
0.0
  9
$WORLDVIEW
 70
1
  9
$SHADEDGE
 70
3
  9
$SHADEDIF
 70
70
  9
$TILEMODE
 70
1
  9
$MAXACTVP
 70
64
  9
$PINSBASE
 10
0.0
 20
0.0
 30
0.0
  9
$PLIMCHECK
 70
0
  9
$PEXTMIN
 10
1e+20
 20
1e+20
 30
1e+20
  9
$PEXTMAX
 10
-1e+20
 20
-1e+20
 30
-1e+20
  9
$PLIMMIN
 10
0.0
 20
0.0
  9
$PLIMMAX
 10
420.0
 20
297.0
  9
$UNITMODE
 70
0
  9
$VISRETAIN
 70
1
  9
$PLINEGEN
 70
0
  9
$PSLTSCALE
 70
1
  9
$TREEDEPTH
 70
3020
  9
$CMLSTYLE
  2
Standard
  9
$CMLJUST
 70
0
  9
$CMLSCALE
 40
20.0
  9
$PROXYGRAPHICS
 70
1
  9
$MEASUREMENT
 70
1
  9
$CELWEIGHT
370
-1
  9
$ENDCAPS
280
0
  9
$JOINSTYLE
280
0
  9
$LWDISPLAY
290
0
  9
$INSUNITS
 70
6
  9
$HYPERLINKBASE
  1

  9
$STYLESHEET
  1

  9
$XEDIT
290
1
  9
$CEPSNTYPE
380
0
  9
$PSTYLEMODE
290
1
  9
$FINGERPRINTGUID
  2
{76A02D13-AD15-48E3-BB49-0D6B564FA95E}
  9
$VERSIONGUID
  2
{1AC08260-4D20-4806-B1F9-A6E6A6CA42CD}
  9
$EXTNAMES
290
1
  9
$PSVPSCALE
 40
0.0
  9
$OLESTARTUP
290
0
  9
$SORTENTS
280
127
  9
$INDEXCTL
280
0
  9
$HIDETEXT
280
1
  9
$XCLIPFRAME
280
1
  9
$HALOGAP
280
0
  9
$OBSCOLOR
 70
257
  9
$OBSLTYPE
280
0
  9
$INTERSECTIONDISPLAY
280
0
  9
$INTERSECTIONCOLOR
 70
257
  9
$DIMASSOC
280
2
  9
$PROJECTNAME
  1

  9
$CAMERADISPLAY
290
0
  9
$LENSLENGTH
 40
50.0
  9
$CAMERAHEIGHT
 40
0.0
  9
$STEPSPERSEC
 40
24.0
  9
$STEPSIZE
 40
100.0
  9
$3DDWFPREC
 40
2.0
  9
$PSOLWIDTH
 40
0.005
  9
$PSOLHEIGHT
 40
0.08
  9
$LOFTANG1
 40
1.570796326795
  9
$LOFTANG2
 40
1.570796326795
  9
$LOFTMAG1
 40
0.0
  9
$LOFTMAG2
 40
0.0
  9
$LOFTPARAM
 70
7
  9
$LOFTNORMALS
280
1
  9
$LATITUDE
 40
37.795
  9
$LONGITUDE
 40
-122.394
  9
$NORTHDIRECTION
 40
0.0
  9
$TIMEZONE
 70
-8000
  9
$LIGHTGLYPHDISPLAY
280
1
  9
$TILEMODELIGHTSYNCH
280
1
  9
$CMATERIAL
347
20
  9
$SOLIDHIST
280
0
  9
$SHOWHIST
280
1
  9
$DWFFRAME
280
2
  9
$DGNFRAME
280
2
  9
$REALWORLDSCALE
290
1
  9
$INTERFERECOLOR
 62
256
  9
$CSHADOW
280
0
  9
$SHADOWPLANELOCATION
 40
0.0
  0
ENDSEC
  0
SECTION
  2
CLASSES
  0
CLASS
  1
ACDBDICTIONARYWDFLT
  2
AcDbDictionaryWithDefault
  3
ObjectDBX Classes
 90
0
 91
0
280
0
281
0
  0
CLASS
  1
SUN
  2
AcDbSun
  3
SCENEOE
 90
1153
 91
0
280
0
281
0
  0
CLASS
  1
VISUALSTYLE
  2
AcDbVisualStyle
  3
ObjectDBX Classes
 90
4095
 91
0
280
0
281
0
  0
CLASS
  1
MATERIAL
  2
AcDbMaterial
  3
ObjectDBX Classes
 90
1153
 91
0
280
0
281
0
  0
CLASS
  1
SCALE
  2
AcDbScale
  3
ObjectDBX Classes
 90
1153
 91
0
280
0
281
0
  0
CLASS
  1
TABLESTYLE
  2
AcDbTableStyle
  3
ObjectDBX Classes
 90
4095
 91
0
280
0
281
0
  0
CLASS
  1
MLEADERSTYLE
  2
AcDbMLeaderStyle
  3
ACDB_MLEADERSTYLE_CLASS
 90
4095
 91
0
280
0
281
0
  0
CLASS
  1
DICTIONARYVAR
  2
AcDbDictionaryVar
  3
ObjectDBX Classes
 90
0
 91
0
280
0
281
0
  0
CLASS
  1
CELLSTYLEMAP
  2
AcDbCellStyleMap
  3
ObjectDBX Classes
 90
1152
 91
0
280
0
281
0
  0
CLASS
  1
MENTALRAYRENDERSETTINGS
  2
AcDbMentalRayRenderSettings
  3
SCENEOE
 90
1024
 91
0
280
0
281
0
  0
CLASS
  1
ACDBDETAILVIEWSTYLE
  2
AcDbDetailViewStyle
  3
ObjectDBX Classes
 90
1025
 91
0
280
0
281
0
  0
CLASS
  1
ACDBSECTIONVIEWSTYLE
  2
AcDbSectionViewStyle
  3
ObjectDBX Classes
 90
1025
 91
0
280
0
281
0
  0
CLASS
  1
RASTERVARIABLES
  2
AcDbRasterVariables
  3
ISM
 90
0
 91
0
280
0
281
0
  0
CLASS
  1
LAYOUT
  2
AcDbLayout
  3
ObjectDBX Classes
 90
0
 91
0
280
0
281
0
  0
CLASS
  1
ACDBPLACEHOLDER
  2
AcDbPlaceHolder
  3
ObjectDBX Classes
 90
0
 91
0
280
0
281
0
  0
ENDSEC
  0
SECTION
  2
TABLES
  0
TABLE
  2
VPORT
  5
8
330
0
100
AcDbSymbolTable
 70
1
  0
VPORT
  5
23
330
8
100
AcDbSymbolTableRecord
100
AcDbViewportTableRecord
  2
*Active
 70
0
 10
0.0
 20
0.0
 11
1.0
 21
1.0
 12
0.0
 22
0.0
 13
0.0
 23
0.0
 14
0.5
 24
0.5
 15
0.5
 25
0.5
 16
0.0
 26
0.0
 36
1.0
 17
0.0
 27
0.0
 37
0.0
 40
1000.0
 41
1.34
 42
50.0
 43
0.0
 44
0.0
 50
0.0
 51
0.0
 71
0
 72
1000
 73
1
 74
3
 75
0
 76
0
 77
0
 78
0
281
0
 65
0
146
0.0
  0
ENDTAB
  0
TABLE
  2
LTYPE
  5
2
330
0
100
AcDbSymbolTable
 70
3
  0
LTYPE
  5
24
330
2
100
AcDbSymbolTableRecord
100
AcDbLinetypeTableRecord
  2
ByBlock
 70
0
  3

 72
65
 73
0
 40
0.0
  0
LTYPE
  5
25
330
2
100
AcDbSymbolTableRecord
100
AcDbLinetypeTableRecord
  2
ByLayer
 70
0
  3

 72
65
 73
0
 40
0.0
  0
LTYPE
  5
26
330
2
100
AcDbSymbolTableRecord
100
AcDbLinetypeTableRecord
  2
Continuous
 70
0
  3

 72
65
 73
0
 40
0.0
  0
ENDTAB
  0
TABLE
  2
LAYER
  5
1
330
0
100
AcDbSymbolTable
 70
2
  0
LAYER
  5
27
330
1
100
AcDbSymbolTableRecord
100
AcDbLayerTableRecord
  2
0
 70
0
 62
7
  6
Continuous
370
-3
390
13
347
21
  0
LAYER
  5
28
330
1
100
AcDbSymbolTableRecord
100
AcDbLayerTableRecord
  2
Defpoints
 70
0
 62
7
  6
Continuous
290
0
370
-3
390
13
347
21
  0
ENDTAB
  0
TABLE
  2
STYLE
  5
5
330
0
100
AcDbSymbolTable
 70
1
  0
STYLE
  5
29
330
5
100
AcDbSymbolTableRecord
100
AcDbTextStyleTableRecord
  2
Standard
 70
0
 40
0.0
 41
1.0
 50
0.0
 71
0
 42
2.5
  3
txt
  4

  0
ENDTAB
  0
TABLE
  2
VIEW
  5
7
330
0
100
AcDbSymbolTable
 70
0
  0
ENDTAB
  0
TABLE
  2
UCS
  5
6
330
0
100
AcDbSymbolTable
 70
0
  0
ENDTAB
  0
TABLE
  2
APPID
  5
3
330
0
100
AcDbSymbolTable
 70
3
  0
APPID
  5
2A
330
3
100
AcDbSymbolTableRecord
100
AcDbRegAppTableRecord
  2
ACAD
 70
0
  0
APPID
  5
4F
330
3
100
AcDbSymbolTableRecord
100
AcDbRegAppTableRecord
  2
HATCHBACKGROUNDCOLOR
 70
0
  0
APPID
  5
50
330
3
100
AcDbSymbolTableRecord
100
AcDbRegAppTableRecord
  2
EZDXF
 70
0
  0
ENDTAB
  0
TABLE
  2
DIMSTYLE
  5
4
330
0
100
AcDbSymbolTable
 70
1
100
AcDbDimStyleTable
  0
DIMSTYLE
105
2B
330
4
100
AcDbSymbolTableRecord
100
AcDbDimStyleTableRecord
  2
Standard
 70
0
 40
1.0
 41
2.5
 42
0.625
 43
3.75
 44
1.25
 45
0.0
 46
0.0
 47
0.0
 48
0.0
 49
2.5
140
2.5
141
2.5
142
0.0
143
0.03937007874
144
1.0
145
0.0
146
1.0
147
0.625
148
0.0
 69
0
 70
0
 71
0
 72
0
 73
0
 74
0
 75
0
 76
0
 77
1
 78
8
 79
3
170
0
171
3
172
1
173
0
174
0
175
0
176
0
177
0
178
0
179
2
271
2
272
2
273
2
274
3
275
0
276
0
277
2
278
44
279
0
280
0
281
0
282
0
283
0
284
8
285
0
286
0
288
0
289
3
290
0
371
-2
372
-2
  0
ENDTAB
  0
TABLE
  2
BLOCK_RECORD
  5
9
330
0
100
AcDbSymbolTable
 70
2
  0
BLOCK_RECORD
  5
17
330
9
100
AcDbSymbolTableRecord
100
AcDbBlockTableRecord
  2
*Model_Space
340
1A
 70
0
280
1
281
0
  0
BLOCK_RECORD
  5
1B
330
9
100
AcDbSymbolTableRecord
100
AcDbBlockTableRecord
  2
*Paper_Space
340
1E
 70
0
280
1
281
0
  0
ENDTAB
  0
ENDSEC
  0
SECTION
  2
BLOCKS
  0
BLOCK
  5
18
330
17
100
AcDbEntity
  8
0
100
AcDbBlockBegin
  2
*Model_Space
 70
0
 10
0.0
 20
0.0
 30
0.0
  3
*Model_Space
  1

  0
ENDBLK
  5
19
330
17
100
AcDbEntity
  8
0
100
AcDbBlockEnd
  0
BLOCK
  5
1C
330
1B
100
AcDbEntity
  8
0
100
AcDbBlockBegin
  2
*Paper_Space
 70
0
 10
0.0
 20
0.0
 30
0.0
  3
*Paper_Space
  1

  0
ENDBLK
  5
1D
330
1B
100
AcDbEntity
  8
0
100
AcDbBlockEnd
  0
ENDSEC
  0
SECTION
  2
ENTITIES
  0
LWPOLYLINE
  5
2F
330
17
100
AcDbEntity
  8
GENERATED_PROFILE
100
AcDbPolyline
 90
256
 70
0
 10
4.0
 20
0.0
 10
4.00784314
 20
0.0
 10
4.01568627
 20
0.0
 10
4.02352941
 20
0.0
 10
4.03137255
 20
0.0
 10
4.03921569
 20
0.0
 10
4.04705882
 20
0.0
 10
4.0549019600000005
 20
0.0
 10
4.0627451
 20
0.0
 10
4.07058824
 20
0.0
 10
4.07843137
 20
0.0
 10
4.08627451
 20
0.0
 10
4.09411765
 20
0.0
 10
4.10196078
 20
0.0
 10
4.10980392
 20
0.0
 10
4.11764706
 20
0.0
 10
4.1254902
 20
0.0
 10
4.13333333
 20
0.0
 10
4.1411764699999996
 20
0.0
 10
4.14901961
 20
0.0
 10
4.15686275
 20
0.0
 10
4.16470588
 20
0.0
 10
4.17254902
 20
0.0
 10
4.18039216
 20
0.0
 10
4.18823529
 20
0.0
 10
4.19607843
 20
0.0
 10
4.20392157
 20
0.0
 10
4.21176471
 20
0.0
 10
4.21960784
 20
0.0
 10
4.22745098
 20
0.0
 10
4.23529412
 20
0.0
 10
4.24313725
 20
0.0
 10
4.2509803900000005
 20
0.0
 10
4.25882353
 20
0.0
 10
4.26666667
 20
0.0
 10
4.2745098
 20
0.0
 10
4.28235294
 20
0.0
 10
4.29019608
 20
0.0
 10
4.29803922
 20
0.0
 10
4.30588235
 20
0.0
 10
4.31372549
 20
0.0
 10
4.32156863
 20
0.0
 10
4.32941176
 20
0.0
 10
4.3372549
 20
0.0
 10
4.34509804
 20
0.0
 10
4.35294118
 20
0.0
 10
4.36078431
 20
0.0
 10
4.36862745
 20
0.0
 10
4.37647059
 20
0.0
 10
4.38431373
 20
0.0
 10
4.39215686
 20
0.0
 10
4.4
 20
0.0
 10
4.40784314
 20
0.0
 10
4.41568627
 20
0.0
 10
4.42352941
 20
0.0
 10
4.43137255
 20
0.0
 10
4.43921569
 20
0.0
 10
4.44705882
 20
0.0
 10
4.45490196
 20
0.0
 10
4.4627451
 20
0.0
 10
4.47058824
 20
0.0
 10
4.47843137
 20
0.0
 10
4.48627451
 20
0.0
 10
4.49411765
 20
0.0
 10
4.50196078
 20
0.0
 10
4.50980392
 20
0.0
 10
4.51764706
 20
0.0
 10
4.5254902
 20
0.0
 10
4.53333333
 20
0.0
 10
4.54117647
 20
0.0
 10
4.54901961
 20
0.0
 10
4.55686275
 20
0.0
 10
4.56470588
 20
0.0
 10
4.57254902
 20
0.0
 10
4.58039216
 20
0.0
 10
4.58823529
 20
0.0
 10
4.59607843
 20
0.0
 10
4.60392157
 20
0.0
 10
4.61176471
 20
0.0
 10
4.6196078400000005
 20
0.0
 10
4.62745098
 20
0.0
 10
4.63529412
 20
0.0
 10
4.64313725
 20
0.0
 10
4.65098039
 20
0.0
 10
4.65882353
 20
0.0
 10
4.66666667
 20
0.0
 10
4.6745098
 20
0.0
 10
4.68235294
 20
0.0
 10
4.69019608
 20
0.0
 10
4.69803922
 20
0.0
 10
4.7058823499999995
 20
0.0
 10
4.71372549
 20
0.0
 10
4.72156863
 20
0.0
 10
4.72941176
 20
0.0
 10
4.7372549
 20
0.0
 10
4.74509804
 20
0.0
 10
4.75294118
 20
0.0
 10
4.76078431
 20
0.0
 10
4.76862745
 20
0.0
 10
4.77647059
 20
0.0
 10
4.78431373
 20
0.0
 10
4.79215686
 20
0.0
 10
4.8
 20
0.0
 10
4.80784314
 20
0.0
 10
4.81568627
 20
0.0
 10
4.82352941
 20
0.0
 10
4.83137255
 20
0.0
 10
4.83921569
 20
0.0
 10
4.84705882
 20
0.0
 10
4.85490196
 20
0.0
 10
4.8627451
 20
0.0
 10
4.87058824
 20
0.0
 10
4.87843137
 20
0.0
 10
4.88627451
 20
0.0
 10
4.89411765
 20
0.0
 10
4.90196078
 20
0.0
 10
4.90980392
 20
0.0
 10
4.91764706
 20
0.0
 10
4.9254902
 20
0.0
 10
4.93333333
 20
0.0
 10
4.94117647
 20
0.0
 10
4.94901961
 20
0.0
 10
4.95686275
 20
0.0
 10
4.96470588
 20
0.0
 10
4.97254902
 20
0.0
 10
4.98039216
 20
0.0
 10
4.98823529
 20
0.0
 10
4.99607843
 20
0.0
 10
5.00392157
 20
0.0
 10
5.01176471
 20
0.0
 10
5.01960784
 20
0.0
 10
5.02745098
 20
0.0
 10
5.03529412
 20
0.0
 10
5.04313725
 20
0.0
 10
5.05098039
 20
0.0
 10
5.05882353
 20
0.0
 10
5.06666667
 20
0.0
 10
5.0745098
 20
0.0
 10
5.08235294
 20
0.0
 10
5.09019608
 20
0.0
 10
5.09803922
 20
0.0
 10
5.10588235
 20
0.0
 10
5.11372549
 20
0.0
 10
5.12156863
 20
0.0
 10
5.12941176
 20
0.0
 10
5.1372549
 20
0.0
 10
5.14509804
 20
0.0
 10
5.15294118
 20
0.0
 10
5.16078431
 20
0.0
 10
5.16862745
 20
0.0
 10
5.17647059
 20
0.0
 10
5.18431373
 20
0.0
 10
5.19215686
 20
0.0
 10
5.2
 20
0.0
 10
5.20784314
 20
0.0
 10
5.21568627
 20
0.0
 10
5.22352941
 20
0.0
 10
5.23137255
 20
0.0
 10
5.23921569
 20
0.0
 10
5.24705882
 20
0.0
 10
5.25490196
 20
0.0
 10
5.2627451
 20
0.0
 10
5.27058824
 20
0.0
 10
5.27843137
 20
0.0
 10
5.28627451
 20
0.0
 10
5.2941176500000005
 20
0.0
 10
5.30196078
 20
0.0
 10
5.30980392
 20
0.0
 10
5.31764706
 20
0.0
 10
5.3254902
 20
0.0
 10
5.33333333
 20
0.0
 10
5.34117647
 20
0.0
 10
5.34901961
 20
0.0
 10
5.35686275
 20
0.0
 10
5.36470588
 20
0.0
 10
5.37254902
 20
0.0
 10
5.3803921599999995
 20
0.0
 10
5.38823529
 20
0.0
 10
5.39607843
 20
0.0
 10
5.40392157
 20
0.0
 10
5.41176471
 20
0.0
 10
5.41960784
 20
0.0
 10
5.42745098
 20
0.0
 10
5.43529412
 20
0.0
 10
5.44313725
 20
0.0
 10
5.45098039
 20
0.0
 10
5.45882353
 20
0.0
 10
5.46666667
 20
0.0
 10
5.4745098
 20
0.0
 10
5.48235294
 20
0.0
 10
5.49019608
 20
0.0
 10
5.49803922
 20
0.0
 10
5.50588235
 20
0.0
 10
5.51372549
 20
0.0
 10
5.52156863
 20
0.0
 10
5.52941176
 20
0.0
 10
5.5372549
 20
0.0
 10
5.54509804
 20
0.0
 10
5.55294118
 20
0.0
 10
5.56078431
 20
0.0
 10
5.56862745
 20
0.0
 10
5.57647059
 20
0.0
 10
5.58431373
 20
0.0
 10
5.59215686
 20
0.0
 10
5.6
 20
0.0
 10
5.60784314
 20
0.0
 10
5.61568627
 20
0.0
 10
5.62352941
 20
0.0
 10
5.63137255
 20
0.0
 10
5.63921569
 20
0.0
 10
5.64705882
 20
0.0
 10
5.65490196
 20
0.0
 10
5.6627451
 20
0.0
 10
5.67058824
 20
0.0
 10
5.67843137
 20
0.0
 10
5.68627451
 20
0.0
 10
5.69411765
 20
0.0
 10
5.70196078
 20
0.0
 10
5.70980392
 20
0.0
 10
5.71764706
 20
0.0
 10
5.7254902
 20
0.0
 10
5.73333333
 20
0.0
 10
5.74117647
 20
0.0
 10
5.7490196099999995
 20
0.0
 10
5.75686275
 20
0.0
 10
5.76470588
 20
0.0
 10
5.77254902
 20
0.0
 10
5.78039216
 20
0.0
 10
5.78823529
 20
0.0
 10
5.79607843
 20
0.0
 10
5.80392157
 20
0.0
 10
5.81176471
 20
0.0
 10
5.81960784
 20
0.0
 10
5.82745098
 20
0.0
 10
5.83529412
 20
0.0
 10
5.84313725
 20
0.0
 10
5.85098039
 20
0.0
 10
5.8588235300000004
 20
0.0
 10
5.86666667
 20
0.0
 10
5.8745098
 20
0.0
 10
5.88235294
 20
0.0
 10
5.89019608
 20
0.0
 10
5.89803922
 20
0.0
 10
5.90588235
 20
0.0
 10
5.91372549
 20
0.0
 10
5.92156863
 20
0.0
 10
5.92941176
 20
0.0
 10
5.9372549
 20
0.0
 10
5.9450980399999995
 20
0.0
 10
5.95294118
 20
0.0
 10
5.96078431
 20
0.0
 10
5.96862745
 20
0.0
 10
5.97647059
 20
0.0
 10
5.98431373
 20
0.0
 10
5.99215686
 20
0.0
 10
6.0
 20
0.0
  0
TEXT
  5
30
330
17
100
AcDbEntity
  8
STATION_LABEL
100
AcDbText
 10
5.0
 20
0.0
 30
0.0
 40
1.0
  1
Station 1
 11
5.0
 21
0.0
 31
0.0
100
AcDbText
  0
LWPOLYLINE
  5
31
330
17
100
AcDbEntity
  8
GENERATED_PROFILE
100
AcDbPolyline
 90
256
 70
0
 10
8.99100765
 20
-0.00326735
 10
8.9989541
 20
-0.00326735
 10
9.00690055
 20
-0.00326735
 10
9.014847
 20
-0.00326735
 10
9.02279345
 20
-0.00326735
 10
9.03073989
 20
-0.00326735
 10
9.03868634
 20
-0.00326735
 10
9.04663279
 20
-0.00326735
 10
9.05457924
 20
-0.00326735
 10
9.06252569
 20
-0.00326735
 10
9.07047213
 20
-0.00326735
 10
9.07841858
 20
-0.00326735
 10
9.08636503
 20
-0.00326735
 10
9.09431148
 20
-0.00326735
 10
9.10225793
 20
-0.00326735
 10
9.11020437
 20
-0.00326735
 10
9.11815082
 20
-0.00326735
 10
9.12609727
 20
-0.00326735
 10
9.13404372
 20
-0.00326735
 10
9.14199017
 20
-0.00326735
 10
9.14993662
 20
-0.00326735
 10
9.15788306
 20
-0.00326735
 10
9.16582951
 20
-0.00326735
 10
9.17377596
 20
-0.00326735
 10
9.18172241
 20
-0.00326735
 10
9.18966886
 20
-0.00326735
 10
9.1976153
 20
-0.00326735
 10
9.20556175
 20
-0.00326735
 10
9.2135082
 20
-0.00326735
 10
9.22145465
 20
-0.00326735
 10
9.2294011
 20
-0.00326735
 10
9.237347549999999
 20
-0.00326735
 10
9.24529399
 20
-0.00326735
 10
9.25324044
 20
-0.00326735
 10
9.26118689
 20
-0.00326735
 10
9.26913334
 20
-0.00326735
 10
9.27707979
 20
-0.00326735
 10
9.28502623
 20
-0.00326735
 10
9.29297268
 20
-0.00326735
 10
9.30091913
 20
-0.00326735
 10
9.308865579999999
 20
-0.00326735
 10
9.31681203
 20
-0.00326735
 10
9.32475847
 20
-0.00326735
 10
9.33270492
 20
-0.00326735
 10
9.34065137
 20
-0.00326735
 10
9.34854311
 20
-0.00318438
 10
9.35636638
 20
-0.00299758
 10
9.36418965
 20
-0.00281077
 10
9.37201292
 20
-0.00262396
 10
9.37983619
 20
-0.00243716
 10
9.38765946
 20
-0.00225035
 10
9.39548273
 20
-0.00206355
 10
9.40330599
 20
-0.00187674
 10
9.41112926
 20
-0.00168994
 10
9.41895253
 20
-0.00150313
 10
9.4267758
 20
-0.00131633
 10
9.43459907
 20
-0.00112952
 10
9.44242234
 20
-0.00094272
 10
9.45024561
 20
-0.00075591
 10
9.45806888
 20
-0.0005691
 10
9.46589215
 20
-0.0003823
 10
9.47371542
 20
-0.00019549
 10
9.48153869
 20
-8.69e-06
 10
9.48936196
 20
0.00017812
 10
9.49718523
 20
0.00036492
 10
9.5050085
 20
0.00055173
 10
9.51283177
 20
0.00073853
 10
9.52065503
 20
0.00092534
 10
9.5284783
 20
0.00111214
 10
9.53630157
 20
0.00129895
 10
9.54412484
 20
0.00148576
 10
9.55194811
 20
0.00167256
 10
9.55977138
 20
0.00185937
 10
9.56759465
 20
0.00204617
 10
9.57541792
 20
0.00223298
 10
9.58324119
 20
0.00241978
 10
9.59106446
 20
0.00260659
 10
9.59888773
 20
0.00279339
 10
9.606711
 20
0.0029802
 10
9.61459726
 20
0.00307147
 10
9.62254371
 20
0.00307147
 10
9.63049016
 20
0.00307147
 10
9.63843661
 20
0.00307147
 10
9.64638306
 20
0.00307147
 10
9.65432951
 20
0.00307147
 10
9.66227595
 20
0.00307147
 10
9.6702224
 20
0.00307147
 10
9.67816885
 20
0.00307147
 10
9.6861153
 20
0.00307147
 10
9.69406175
 20
0.00307147
 10
9.70200819
 20
0.00307147
 10
9.70995464
 20
0.00307147
 10
9.71790109
 20
0.00307147
 10
9.72584754
 20
0.00307147
 10
9.73379399
 20
0.00307147
 10
9.74174044
 20
0.00307147
 10
9.74968688
 20
0.00307147
 10
9.75763333
 20
0.00307147
 10
9.76557978
 20
0.00307147
 10
9.77352623
 20
0.00307147
 10
9.78147268
 20
0.00307147
 10
9.78941912
 20
0.00307147
 10
9.79736557
 20
0.00307147
 10
9.80531202
 20
0.00307147
 10
9.81325847
 20
0.00307147
 10
9.82120492
 20
0.00307147
 10
9.829151360000001
 20
0.00307147
 10
9.83709781
 20
0.00307147
 10
9.84504426
 20
0.00307147
 10
9.85299071
 20
0.00307147
 10
9.86093716
 20
0.00307147
 10
9.86888361
 20
0.00307147
 10
9.87683005
 20
0.00307147
 10
9.8847765
 20
0.00307147
 10
9.89272295
 20
0.00307147
 10
9.9006694
 20
0.00307147
 10
9.90861585
 20
0.00307147
 10
9.91656229
 20
0.00307147
 10
9.92450874
 20
0.00307147
 10
9.93245519
 20
0.00307147
 10
9.94040164
 20
0.00307147
 10
9.94834809
 20
0.00307147
 10
9.95629454
 20
0.00307147
 10
9.96424098
 20
0.00307147
 10
9.97218743
 20
0.00307147
 10
9.98013388
 20
0.00307147
 10
9.98808033
 20
0.00307147
 10
9.99602678
 20
0.00307147
 10
10.00397322
 20
0.00307147
 10
10.01191967
 20
0.00307147
 10
10.01986612
 20
0.00307147
 10
10.02781257
 20
0.00307147
 10
10.03575902
 20
0.00307147
 10
10.04370546
 20
0.00307147
 10
10.05165191
 20
0.00307147
 10
10.05959836
 20
0.00307147
 10
10.06754481
 20
0.00307147
 10
10.07549126
 20
0.00307147
 10
10.08343771
 20
0.00307147
 10
10.09138415
 20
0.00307147
 10
10.0993306
 20
0.00307147
 10
10.10727705
 20
0.00307147
 10
10.1152235
 20
0.00307147
 10
10.12316995
 20
0.00307147
 10
10.13111639
 20
0.00307147
 10
10.13906284
 20
0.00307147
 10
10.14700929
 20
0.00307147
 10
10.15495574
 20
0.00307147
 10
10.16290219
 20
0.00307147
 10
10.170848639999999
 20
0.00307147
 10
10.17879508
 20
0.00307147
 10
10.18674153
 20
0.00307147
 10
10.19468798
 20
0.00307147
 10
10.20263443
 20
0.00307147
 10
10.21058088
 20
0.00307147
 10
10.21852732
 20
0.00307147
 10
10.22647377
 20
0.00307147
 10
10.23442022
 20
0.00307147
 10
10.24236667
 20
0.00307147
 10
10.25031312
 20
0.00307147
 10
10.25825956
 20
0.00307147
 10
10.26620601
 20
0.00307147
 10
10.27415246
 20
0.00307147
 10
10.28209891
 20
0.00307147
 10
10.29004536
 20
0.00307147
 10
10.29799181
 20
0.00307147
 10
10.30593825
 20
0.00307147
 10
10.3138847
 20
0.00307147
 10
10.32183115
 20
0.00307147
 10
10.3297776
 20
0.00307147
 10
10.33772405
 20
0.00307147
 10
10.34567049
 20
0.00307147
 10
10.35361694
 20
0.00307147
 10
10.36156339
 20
0.00307147
 10
10.36950984
 20
0.00307147
 10
10.37745629
 20
0.00307147
 10
10.38540274
 20
0.00307147
 10
10.393289
 20
0.0029802
 10
10.40111227
 20
0.00279339
 10
10.40893554
 20
0.00260659
 10
10.41675881
 20
0.00241978
 10
10.42458208
 20
0.00223298
 10
10.43240535
 20
0.00204617
 10
10.44022862
 20
0.00185937
 10
10.44805189
 20
0.00167256
 10
10.45587516
 20
0.00148576
 10
10.46369843
 20
0.00129895
 10
10.4715217
 20
0.00111214
 10
10.47934497
 20
0.00092534
 10
10.48716823
 20
0.00073853
 10
10.4949915
 20
0.00055173
 10
10.50281477
 20
0.00036492
 10
10.51063804
 20
0.00017812
 10
10.51846131
 20
-8.69e-06
 10
10.52628458
 20
-0.00019549
 10
10.53410785
 20
-0.0003823
 10
10.54193112
 20
-0.0005691
 10
10.54975439
 20
-0.00075591
 10
10.55757766
 20
-0.00094272
 10
10.56540093
 20
-0.00112952
 10
10.5732242
 20
-0.00131633
 10
10.58104747
 20
-0.00150313
 10
10.58887074
 20
-0.00168994
 10
10.59669401
 20
-0.00187674
 10
10.60451727
 20
-0.00206355
 10
10.61234054
 20
-0.00225035
 10
10.62016381
 20
-0.00243716
 10
10.62798708
 20
-0.00262396
 10
10.63581035
 20
-0.00281077
 10
10.64363362
 20
-0.00299758
 10
10.65145689
 20
-0.00318438
 10
10.65934863
 20
-0.00326735
 10
10.66729508
 20
-0.00326735
 10
10.67524153
 20
-0.00326735
 10
10.68318797
 20
-0.00326735
 10
10.691134420000001
 20
-0.00326735
 10
10.69908087
 20
-0.00326735
 10
10.70702732
 20
-0.00326735
 10
10.71497377
 20
-0.00326735
 10
10.72292021
 20
-0.00326735
 10
10.73086666
 20
-0.00326735
 10
10.73881311
 20
-0.00326735
 10
10.74675956
 20
-0.00326735
 10
10.75470601
 20
-0.00326735
 10
10.762652450000001
 20
-0.00326735
 10
10.7705989
 20
-0.00326735
 10
10.77854535
 20
-0.00326735
 10
10.7864918
 20
-0.00326735
 10
10.79443825
 20
-0.00326735
 10
10.8023847
 20
-0.00326735
 10
10.81033114
 20
-0.00326735
 10
10.81827759
 20
-0.00326735
 10
10.82622404
 20
-0.00326735
 10
10.83417049
 20
-0.00326735
 10
10.84211694
 20
-0.00326735
 10
10.85006338
 20
-0.00326735
 10
10.85800983
 20
-0.00326735
 10
10.86595628
 20
-0.00326735
 10
10.87390273
 20
-0.00326735
 10
10.88184918
 20
-0.00326735
 10
10.88979563
 20
-0.00326735
 10
10.89774207
 20
-0.00326735
 10
10.90568852
 20
-0.00326735
 10
10.91363497
 20
-0.00326735
 10
10.92158142
 20
-0.00326735
 10
10.92952787
 20
-0.00326735
 10
10.93747431
 20
-0.00326735
 10
10.94542076
 20
-0.00326735
 10
10.95336721
 20
-0.00326735
 10
10.96131366
 20
-0.00326735
 10
10.96926011
 20
-0.00326735
 10
10.97720655
 20
-0.00326735
 10
10.985153
 20
-0.00326735
 10
10.99309945
 20
-0.00326735
 10
11.0010459
 20
-0.00326735
 10
11.00899235
 20
-0.00326735
  0
TEXT
  5
32
330
17
100
AcDbEntity
  8
STATION_LABEL
100
AcDbText
 10
10.0
 20
0.0
 30
0.0
 40
1.0
  1
Station 2
 11
10.0
 21
0.0
 31
0.0
100
AcDbText
  0
LWPOLYLINE
  5
33
330
17
100
AcDbEntity
  8
GENERATED_PROFILE
100
AcDbPolyline
 90
256
 70
0
 10
13.9657036
 20
-0.01246152
 10
13.97394076
 20
-0.01246152
 10
13.98217793
 20
-0.01246152
 10
13.990415089999999
 20
-0.01246152
 10
13.99865225
 20
-0.01246152
 10
14.00688941
 20
-0.01246152
 10
14.01512657
 20
-0.01246152
 10
14.02336373
 20
-0.01246152
 10
14.03160089
 20
-0.01246152
 10
14.03983805
 20
-0.01246152
 10
14.04807521
 20
-0.01246152
 10
14.05631237
 20
-0.01246152
 10
14.06454953
 20
-0.01246152
 10
14.072786690000001
 20
-0.01246152
 10
14.08102385
 20
-0.01246152
 10
14.08926101
 20
-0.01246152
 10
14.09749817
 20
-0.01246152
 10
14.10573533
 20
-0.01246152
 10
14.11397249
 20
-0.01246152
 10
14.12220965
 20
-0.01246152
 10
14.13044681
 20
-0.01246152
 10
14.13868397
 20
-0.01246152
 10
14.146921129999999
 20
-0.01246152
 10
14.15515829
 20
-0.01246152
 10
14.16339545
 20
-0.01246152
 10
14.17163261
 20
-0.01246152
 10
14.17986977
 20
-0.01246152
 10
14.18810693
 20
-0.01246152
 10
14.19634409
 20
-0.01246152
 10
14.20458125
 20
-0.01246152
 10
14.21281841
 20
-0.01246152
 10
14.22105557
 20
-0.01246152
 10
14.22929273
 20
-0.01246152
 10
14.23752989
 20
-0.01246152
 10
14.24576705
 20
-0.01246152
 10
14.25400421
 20
-0.01246152
 10
14.26224137
 20
-0.01246152
 10
14.27047853
 20
-0.01246152
 10
14.27871569
 20
-0.01246152
 10
14.28695285
 20
-0.01246152
 10
14.29519001
 20
-0.01246152
 10
14.303427169999999
 20
-0.01246152
 10
14.31166433
 20
-0.01246152
 10
14.31990149
 20
-0.01246152
 10
14.32813865
 20
-0.01246152
 10
14.33616715
 20
-0.01214508
 10
14.34393451
 20
-0.01143261
 10
14.35170188
 20
-0.01072014
 10
14.35946924
 20
-0.01000768
 10
14.3672366
 20
-0.00929521
 10
14.37500396
 20
-0.00858274
 10
14.38277132
 20
-0.00787028
 10
14.39053869
 20
-0.00715781
 10
14.39830605
 20
-0.00644534
 10
14.40607341
 20
-0.00573287
 10
14.41384077
 20
-0.00502041
 10
14.42160813
 20
-0.00430794
 10
14.4293755
 20
-0.00359547
 10
14.43714286
 20
-0.002883
 10
14.44491022
 20
-0.00217054
 10
14.45267758
 20
-0.00145807
 10
14.46044494
 20
-0.0007456
 10
14.46821231
 20
-3.314e-05
 10
14.47597967
 20
0.00067933
 10
14.48374703
 20
0.0013918
 10
14.49151439
 20
0.00210427
 10
14.49928175
 20
0.00281673
 10
14.50704912
 20
0.0035292
 10
14.51481648
 20
0.00424167
 10
14.52258384
 20
0.00495414
 10
14.5303512
 20
0.0056666
 10
14.538118560000001
 20
0.00637907
 10
14.54588593
 20
0.00709154
 10
14.55365329
 20
0.00780401
 10
14.56142065
 20
0.00851647
 10
14.56918801
 20
0.00922894
 10
14.57695537
 20
0.00994141
 10
14.58472274
 20
0.01065387
 10
14.5924901
 20
0.01136634
 10
14.60049773
 20
0.01171443
 10
14.60873489
 20
0.01171443
 10
14.61697205
 20
0.01171443
 10
14.62520921
 20
0.01171443
 10
14.63344637
 20
0.01171443
 10
14.64168353
 20
0.01171443
 10
14.64992069
 20
0.01171443
 10
14.65815785
 20
0.01171443
 10
14.66639501
 20
0.01171443
 10
14.67463217
 20
0.01171443
 10
14.68286933
 20
0.01171443
 10
14.69110649
 20
0.01171443
 10
14.69934365
 20
0.01171443
 10
14.70758081
 20
0.01171443
 10
14.71581797
 20
0.01171443
 10
14.72405513
 20
0.01171443
 10
14.73229229
 20
0.01171443
 10
14.74052945
 20
0.01171443
 10
14.74876661
 20
0.01171443
 10
14.75700377
 20
0.01171443
 10
14.76524093
 20
0.01171443
 10
14.77347809
 20
0.01171443
 10
14.78171525
 20
0.01171443
 10
14.78995241
 20
0.01171443
 10
14.79818958
 20
0.01171443
 10
14.80642674
 20
0.01171443
 10
14.8146639
 20
0.01171443
 10
14.82290106
 20
0.01171443
 10
14.83113822
 20
0.01171443
 10
14.83937538
 20
0.01171443
 10
14.84761254
 20
0.01171443
 10
14.8558497
 20
0.01171443
 10
14.86408686
 20
0.01171443
 10
14.87232402
 20
0.01171443
 10
14.88056118
 20
0.01171443
 10
14.88879834
 20
0.01171443
 10
14.8970355
 20
0.01171443
 10
14.90527266
 20
0.01171443
 10
14.91350982
 20
0.01171443
 10
14.92174698
 20
0.01171443
 10
14.92998414
 20
0.01171443
 10
14.9382213
 20
0.01171443
 10
14.94645846
 20
0.01171443
 10
14.95469562
 20
0.01171443
 10
14.96293278
 20
0.01171443
 10
14.97116994
 20
0.01171443
 10
14.9794071
 20
0.01171443
 10
14.98764426
 20
0.01171443
 10
14.99588142
 20
0.01171443
 10
15.00411858
 20
0.01171443
 10
15.01235574
 20
0.01171443
 10
15.0205929
 20
0.01171443
 10
15.02883006
 20
0.01171443
 10
15.03706722
 20
0.01171443
 10
15.04530438
 20
0.01171443
 10
15.05354154
 20
0.01171443
 10
15.0617787
 20
0.01171443
 10
15.07001586
 20
0.01171443
 10
15.07825302
 20
0.01171443
 10
15.08649018
 20
0.01171443
 10
15.09472734
 20
0.01171443
 10
15.1029645
 20
0.01171443
 10
15.11120166
 20
0.01171443
 10
15.11943882
 20
0.01171443
 10
15.12767598
 20
0.01171443
 10
15.13591314
 20
0.01171443
 10
15.1441503
 20
0.01171443
 10
15.15238746
 20
0.01171443
 10
15.16062462
 20
0.01171443
 10
15.16886178
 20
0.01171443
 10
15.17709894
 20
0.01171443
 10
15.1853361
 20
0.01171443
 10
15.19357326
 20
0.01171443
 10
15.20181042
 20
0.01171443
 10
15.21004759
 20
0.01171443
 10
15.21828475
 20
0.01171443
 10
15.22652191
 20
0.01171443
 10
15.23475907
 20
0.01171443
 10
15.24299623
 20
0.01171443
 10
15.25123339
 20
0.01171443
 10
15.25947055
 20
0.01171443
 10
15.26770771
 20
0.01171443
 10
15.27594487
 20
0.01171443
 10
15.28418203
 20
0.01171443
 10
15.29241919
 20
0.01171443
 10
15.30065635
 20
0.01171443
 10
15.30889351
 20
0.01171443
 10
15.31713067
 20
0.01171443
 10
15.32536783
 20
0.01171443
 10
15.33360499
 20
0.01171443
 10
15.34184215
 20
0.01171443
 10
15.35007931
 20
0.01171443
 10
15.35831647
 20
0.01171443
 10
15.36655363
 20
0.01171443
 10
15.37479079
 20
0.01171443
 10
15.38302795
 20
0.01171443
 10
15.39126511
 20
0.01171443
 10
15.39950227
 20
0.01171443
 10
15.4075099
 20
0.01136634
 10
15.41527726
 20
0.01065387
 10
15.42304463
 20
0.00994141
 10
15.43081199
 20
0.00922894
 10
15.43857935
 20
0.00851647
 10
15.44634671
 20
0.00780401
 10
15.45411407
 20
0.00709154
 10
15.461881439999999
 20
0.00637907
 10
15.4696488
 20
0.0056666
 10
15.47741616
 20
0.00495414
 10
15.48518352
 20
0.00424167
 10
15.49295088
 20
0.0035292
 10
15.50071825
 20
0.00281673
 10
15.50848561
 20
0.00210427
 10
15.51625297
 20
0.0013918
 10
15.52402033
 20
0.00067933
 10
15.53178769
 20
-3.314e-05
 10
15.53955506
 20
-0.0007456
 10
15.54732242
 20
-0.00145807
 10
15.55508978
 20
-0.00217054
 10
15.56285714
 20
-0.002883
 10
15.5706245
 20
-0.00359547
 10
15.57839187
 20
-0.00430794
 10
15.58615923
 20
-0.00502041
 10
15.59392659
 20
-0.00573287
 10
15.60169395
 20
-0.00644534
 10
15.60946131
 20
-0.00715781
 10
15.61722868
 20
-0.00787028
 10
15.62499604
 20
-0.00858274
 10
15.6327634
 20
-0.00929521
 10
15.64053076
 20
-0.01000768
 10
15.64829812
 20
-0.01072014
 10
15.65606549
 20
-0.01143261
 10
15.66383285
 20
-0.01214508
 10
15.67186135
 20
-0.01246152
 10
15.68009851
 20
-0.01246152
 10
15.68833567
 20
-0.01246152
 10
15.696572830000001
 20
-0.01246152
 10
15.70480999
 20
-0.01246152
 10
15.71304715
 20
-0.01246152
 10
15.72128431
 20
-0.01246152
 10
15.72952147
 20
-0.01246152
 10
15.73775863
 20
-0.01246152
 10
15.74599579
 20
-0.01246152
 10
15.75423295
 20
-0.01246152
 10
15.76247011
 20
-0.01246152
 10
15.77070727
 20
-0.01246152
 10
15.77894443
 20
-0.01246152
 10
15.78718159
 20
-0.01246152
 10
15.79541875
 20
-0.01246152
 10
15.80365591
 20
-0.01246152
 10
15.81189307
 20
-0.01246152
 10
15.82013023
 20
-0.01246152
 10
15.82836739
 20
-0.01246152
 10
15.83660455
 20
-0.01246152
 10
15.84484171
 20
-0.01246152
 10
15.853078870000001
 20
-0.01246152
 10
15.86131603
 20
-0.01246152
 10
15.86955319
 20
-0.01246152
 10
15.87779035
 20
-0.01246152
 10
15.88602751
 20
-0.01246152
 10
15.89426467
 20
-0.01246152
 10
15.90250183
 20
-0.01246152
 10
15.91073899
 20
-0.01246152
 10
15.91897615
 20
-0.01246152
 10
15.927213309999999
 20
-0.01246152
 10
15.93545047
 20
-0.01246152
 10
15.94368763
 20
-0.01246152
 10
15.95192479
 20
-0.01246152
 10
15.96016195
 20
-0.01246152
 10
15.96839911
 20
-0.01246152
 10
15.97663627
 20
-0.01246152
 10
15.98487343
 20
-0.01246152
 10
15.99311059
 20
-0.01246152
 10
16.00134775
 20
-0.01246152
 10
16.00958491
 20
-0.01246152
 10
16.01782207
 20
-0.01246152
 10
16.02605924
 20
-0.01246152
 10
16.0342964
 20
-0.01246152
  0
TEXT
  5
34
330
17
100
AcDbEntity
  8
STATION_LABEL
100
AcDbText
 10
15.0
 20
0.0
 30
0.0
 40
1.0
  1
Station 3
 11
15.0
 21
0.0
 31
0.0
100
AcDbText
  0
LWPOLYLINE
  5
35
330
17
100
AcDbEntity
  8
GENERATED_PROFILE
100
AcDbPolyline
 90
256
 70
0
 10
18.92659735
 20
-0.0266707
 10
18.93528379
 20
-0.0266707
 10
18.94397023
 20
-0.0266707
 10
18.95265668
 20
-0.0266707
 10
18.96134312
 20
-0.0266707
 10
18.97002956
 20
-0.0266707
 10
18.978716
 20
-0.0266707
 10
18.98740245
 20
-0.0266707
 10
18.99608889
 20
-0.0266707
 10
19.00477533
 20
-0.0266707
 10
19.01346177
 20
-0.0266707
 10
19.02214822
 20
-0.0266707
 10
19.03083466
 20
-0.0266707
 10
19.0395211
 20
-0.0266707
 10
19.04820754
 20
-0.0266707
 10
19.05689399
 20
-0.0266707
 10
19.06558043
 20
-0.0266707
 10
19.07426687
 20
-0.0266707
 10
19.08295331
 20
-0.0266707
 10
19.09163976
 20
-0.0266707
 10
19.1003262
 20
-0.0266707
 10
19.10901264
 20
-0.0266707
 10
19.11769908
 20
-0.0266707
 10
19.12638553
 20
-0.0266707
 10
19.13507197
 20
-0.0266707
 10
19.14375841
 20
-0.0266707
 10
19.15244485
 20
-0.0266707
 10
19.1611313
 20
-0.0266707
 10
19.16981774
 20
-0.0266707
 10
19.17850418
 20
-0.0266707
 10
19.18719062
 20
-0.0266707
 10
19.19587707
 20
-0.0266707
 10
19.20456351
 20
-0.0266707
 10
19.21324995
 20
-0.0266707
 10
19.22193639
 20
-0.0266707
 10
19.23062284
 20
-0.0266707
 10
19.23930928
 20
-0.0266707
 10
19.24799572
 20
-0.0266707
 10
19.25668216
 20
-0.0266707
 10
19.26536861
 20
-0.0266707
 10
19.27405505
 20
-0.0266707
 10
19.28274149
 20
-0.0266707
 10
19.29142793
 20
-0.0266707
 10
19.30011438
 20
-0.0266707
 10
19.30880082
 20
-0.0266707
 10
19.31704067
 20
-0.02599343
 10
19.32472163
 20
-0.02446858
 10
19.33240259
 20
-0.02294372
 10
19.34008355
 20
-0.02141887
 10
19.34776451
 20
-0.01989402
 10
19.35544547
 20
-0.01836916
 10
19.36312643
 20
-0.01684431
 10
19.37080739
 20
-0.01531945
 10
19.37848835
 20
-0.0137946
 10
19.38616931
 20
-0.01226975
 10
19.39385027
 20
-0.01074489
 10
19.40153123
 20
-0.00922004
 10
19.40921219
 20
-0.00769519
 10
19.41689315
 20
-0.00617033
 10
19.424574110000002
 20
-0.00464548
 10
19.43225507
 20
-0.00312063
 10
19.43993603
 20
-0.00159577
 10
19.44761699
 20
-7.092e-05
 10
19.45529795
 20
0.00145394
 10
19.46297891
 20
0.00297879
 10
19.47065987
 20
0.00450364
 10
19.47834083
 20
0.0060285
 10
19.48602179
 20
0.00755335
 10
19.49370275
 20
0.00907821
 10
19.50138371
 20
0.01060306
 10
19.50906467
 20
0.01212791
 10
19.51674563
 20
0.01365277
 10
19.52442659
 20
0.01517762
 10
19.53210755
 20
0.01670247
 10
19.53978851
 20
0.01822733
 10
19.54746947
 20
0.01975218
 10
19.55515043
 20
0.02127704
 10
19.56283139
 20
0.02280189
 10
19.57051234
 20
0.02432674
 10
19.57870754
 20
0.02507174
 10
19.58739398
 20
0.02507174
 10
19.59608042
 20
0.02507174
 10
19.60476687
 20
0.02507174
 10
19.61345331
 20
0.02507174
 10
19.62213975
 20
0.02507174
 10
19.63082619
 20
0.02507174
 10
19.63951264
 20
0.02507174
 10
19.64819908
 20
0.02507174
 10
19.65688552
 20
0.02507174
 10
19.66557196
 20
0.02507174
 10
19.67425841
 20
0.02507174
 10
19.68294485
 20
0.02507174
 10
19.69163129
 20
0.02507174
 10
19.70031773
 20
0.02507174
 10
19.70900418
 20
0.02507174
 10
19.71769062
 20
0.02507174
 10
19.72637706
 20
0.02507174
 10
19.7350635
 20
0.02507174
 10
19.74374995
 20
0.02507174
 10
19.75243639
 20
0.02507174
 10
19.76112283
 20
0.02507174
 10
19.76980927
 20
0.02507174
 10
19.77849572
 20
0.02507174
 10
19.78718216
 20
0.02507174
 10
19.7958686
 20
0.02507174
 10
19.80455504
 20
0.02507174
 10
19.81324149
 20
0.02507174
 10
19.82192793
 20
0.02507174
 10
19.83061437
 20
0.02507174
 10
19.83930081
 20
0.02507174
 10
19.84798726
 20
0.02507174
 10
19.8566737
 20
0.02507174
 10
19.86536014
 20
0.02507174
 10
19.87404658
 20
0.02507174
 10
19.88273303
 20
0.02507174
 10
19.89141947
 20
0.02507174
 10
19.90010591
 20
0.02507174
 10
19.90879235
 20
0.02507174
 10
19.9174788
 20
0.02507174
 10
19.92616524
 20
0.02507174
 10
19.93485168
 20
0.02507174
 10
19.94353812
 20
0.02507174
 10
19.95222457
 20
0.02507174
 10
19.96091101
 20
0.02507174
 10
19.96959745
 20
0.02507174
 10
19.97828389
 20
0.02507174
 10
19.98697034
 20
0.02507174
 10
19.99565678
 20
0.02507174
 10
20.00434322
 20
0.02507174
 10
20.01302966
 20
0.02507174
 10
20.02171611
 20
0.02507174
 10
20.03040255
 20
0.02507174
 10
20.03908899
 20
0.02507174
 10
20.04777543
 20
0.02507174
 10
20.05646188
 20
0.02507174
 10
20.06514832
 20
0.02507174
 10
20.07383476
 20
0.02507174
 10
20.0825212
 20
0.02507174
 10
20.09120765
 20
0.02507174
 10
20.09989409
 20
0.02507174
 10
20.10858053
 20
0.02507174
 10
20.11726697
 20
0.02507174
 10
20.12595342
 20
0.02507174
 10
20.13463986
 20
0.02507174
 10
20.1433263
 20
0.02507174
 10
20.15201274
 20
0.02507174
 10
20.16069919
 20
0.02507174
 10
20.16938563
 20
0.02507174
 10
20.17807207
 20
0.02507174
 10
20.18675851
 20
0.02507174
 10
20.19544496
 20
0.02507174
 10
20.2041314
 20
0.02507174
 10
20.21281784
 20
0.02507174
 10
20.22150428
 20
0.02507174
 10
20.23019073
 20
0.02507174
 10
20.23887717
 20
0.02507174
 10
20.24756361
 20
0.02507174
 10
20.25625005
 20
0.02507174
 10
20.2649365
 20
0.02507174
 10
20.27362294
 20
0.02507174
 10
20.28230938
 20
0.02507174
 10
20.29099582
 20
0.02507174
 10
20.29968227
 20
0.02507174
 10
20.30836871
 20
0.02507174
 10
20.31705515
 20
0.02507174
 10
20.32574159
 20
0.02507174
 10
20.33442804
 20
0.02507174
 10
20.34311448
 20
0.02507174
 10
20.35180092
 20
0.02507174
 10
20.36048736
 20
0.02507174
 10
20.36917381
 20
0.02507174
 10
20.37786025
 20
0.02507174
 10
20.38654669
 20
0.02507174
 10
20.39523313
 20
0.02507174
 10
20.40391958
 20
0.02507174
 10
20.41260602
 20
0.02507174
 10
20.42129246
 20
0.02507174
 10
20.42948766
 20
0.02432674
 10
20.43716861
 20
0.02280189
 10
20.44484957
 20
0.02127704
 10
20.45253053
 20
0.01975218
 10
20.46021149
 20
0.01822733
 10
20.46789245
 20
0.01670247
 10
20.47557341
 20
0.01517762
 10
20.48325437
 20
0.01365277
 10
20.49093533
 20
0.01212791
 10
20.49861629
 20
0.01060306
 10
20.50629725
 20
0.00907821
 10
20.51397821
 20
0.00755335
 10
20.52165917
 20
0.0060285
 10
20.52934013
 20
0.00450364
 10
20.53702109
 20
0.00297879
 10
20.54470205
 20
0.00145394
 10
20.55238301
 20
-7.092e-05
 10
20.56006397
 20
-0.00159577
 10
20.56774493
 20
-0.00312063
 10
20.575425889999998
 20
-0.00464548
 10
20.58310685
 20
-0.00617033
 10
20.59078781
 20
-0.00769519
 10
20.59846877
 20
-0.00922004
 10
20.60614973
 20
-0.01074489
 10
20.61383069
 20
-0.01226975
 10
20.62151165
 20
-0.0137946
 10
20.62919261
 20
-0.01531945
 10
20.63687357
 20
-0.01684431
 10
20.64455453
 20
-0.01836916
 10
20.65223549
 20
-0.01989402
 10
20.65991645
 20
-0.02141887
 10
20.66759741
 20
-0.02294372
 10
20.67527837
 20
-0.02446858
 10
20.68295933
 20
-0.02599343
 10
20.69119918
 20
-0.0266707
 10
20.69988562
 20
-0.0266707
 10
20.70857207
 20
-0.0266707
 10
20.71725851
 20
-0.0266707
 10
20.72594495
 20
-0.0266707
 10
20.73463139
 20
-0.0266707
 10
20.74331784
 20
-0.0266707
 10
20.75200428
 20
-0.0266707
 10
20.76069072
 20
-0.0266707
 10
20.76937716
 20
-0.0266707
 10
20.77806361
 20
-0.0266707
 10
20.78675005
 20
-0.0266707
 10
20.79543649
 20
-0.0266707
 10
20.80412293
 20
-0.0266707
 10
20.81280938
 20
-0.0266707
 10
20.82149582
 20
-0.0266707
 10
20.83018226
 20
-0.0266707
 10
20.8388687
 20
-0.0266707
 10
20.84755515
 20
-0.0266707
 10
20.85624159
 20
-0.0266707
 10
20.86492803
 20
-0.0266707
 10
20.87361447
 20
-0.0266707
 10
20.88230092
 20
-0.0266707
 10
20.89098736
 20
-0.0266707
 10
20.8996738
 20
-0.0266707
 10
20.90836024
 20
-0.0266707
 10
20.91704669
 20
-0.0266707
 10
20.92573313
 20
-0.0266707
 10
20.93441957
 20
-0.0266707
 10
20.94310601
 20
-0.0266707
 10
20.95179246
 20
-0.0266707
 10
20.9604789
 20
-0.0266707
 10
20.96916534
 20
-0.0266707
 10
20.97785178
 20
-0.0266707
 10
20.98653823
 20
-0.0266707
 10
20.99522467
 20
-0.0266707
 10
21.00391111
 20
-0.0266707
 10
21.01259755
 20
-0.0266707
 10
21.021284
 20
-0.0266707
 10
21.02997044
 20
-0.0266707
 10
21.03865688
 20
-0.0266707
 10
21.04734332
 20
-0.0266707
 10
21.05602977
 20
-0.0266707
 10
21.06471621
 20
-0.0266707
 10
21.07340265
 20
-0.0266707
  0
TEXT
  5
36
330
17
100
AcDbEntity
  8
STATION_LABEL
100
AcDbText
 10
20.0
 20
0.0
 30
0.0
 40
1.0
  1
Station 4
 11
20.0
 21
0.0
 31
0.0
100
AcDbText
  0
LWPOLYLINE
  5
37
330
17
100
AcDbEntity
  8
GENERATED_PROFILE
100
AcDbPolyline
 90
256
 70
0
 10
23.876198379999998
 20
-0.04498306
 10
23.88546384
 20
-0.04498306
 10
23.89472931
 20
-0.04498306
 10
23.90399477
 20
-0.04498306
 10
23.91326023
 20
-0.04498306
 10
23.9225257
 20
-0.04498306
 10
23.93179116
 20
-0.04498306
 10
23.94105663
 20
-0.04498306
 10
23.95032209
 20
-0.04498306
 10
23.95958756
 20
-0.04498306
 10
23.96885302
 20
-0.04498306
 10
23.97811848
 20
-0.04498306
 10
23.98738395
 20
-0.04498306
 10
23.99664941
 20
-0.04498306
 10
24.00591487
 20
-0.04498306
 10
24.01518034
 20
-0.04498306
 10
24.0244458
 20
-0.04498306
 10
24.03371127
 20
-0.04498306
 10
24.04297673
 20
-0.04498306
 10
24.0522422
 20
-0.04498306
 10
24.06150766
 20
-0.04498306
 10
24.07077312
 20
-0.04498306
 10
24.08003859
 20
-0.04498306
 10
24.08930405
 20
-0.04498306
 10
24.09856952
 20
-0.04498306
 10
24.10783498
 20
-0.04498306
 10
24.11710044
 20
-0.04498306
 10
24.12636591
 20
-0.04498306
 10
24.13563137
 20
-0.04498306
 10
24.14489683
 20
-0.04498306
 10
24.1541623
 20
-0.04498306
 10
24.16342776
 20
-0.04498306
 10
24.17269323
 20
-0.04498306
 10
24.18195869
 20
-0.04498306
 10
24.19122416
 20
-0.04498306
 10
24.20048962
 20
-0.04498306
 10
24.20975508
 20
-0.04498306
 10
24.21902055
 20
-0.04498306
 10
24.22828601
 20
-0.04498306
 10
24.23755148
 20
-0.04498306
 10
24.24681694
 20
-0.04498306
 10
24.2560824
 20
-0.04498306
 10
24.26534787
 20
-0.04498306
 10
24.27461333
 20
-0.04498306
 10
24.28387879
 20
-0.04498306
 10
24.29239104
 20
-0.04384077
 10
24.29996065
 20
-0.04126894
 10
24.30753025
 20
-0.03869711
 10
24.31509986
 20
-0.03612527
 10
24.32266947
 20
-0.03355344
 10
24.33023908
 20
-0.03098161
 10
24.33780868
 20
-0.02840977
 10
24.34537829
 20
-0.02583794
 10
24.3529479
 20
-0.02326611
 10
24.3605175
 20
-0.02069427
 10
24.36808711
 20
-0.01812244
 10
24.37565672
 20
-0.01555061
 10
24.38322632
 20
-0.01297877
 10
24.39079593
 20
-0.01040694
 10
24.39836554
 20
-0.00783511
 10
24.40593515
 20
-0.00526328
 10
24.41350475
 20
-0.00269144
 10
24.42107436
 20
-0.00011961
 10
24.42864397
 20
0.00245222
 10
24.43621357
 20
0.00502406
 10
24.44378318
 20
0.00759589
 10
24.45135279
 20
0.01016772
 10
24.45892239
 20
0.01273956
 10
24.466492
 20
0.01531139
 10
24.47406161
 20
0.01788322
 10
24.48163122
 20
0.02045506
 10
24.48920082
 20
0.02302689
 10
24.49677043
 20
0.02559872
 10
24.50434004
 20
0.02817056
 10
24.51190964
 20
0.03074239
 10
24.51947925
 20
0.03331422
 10
24.52704886
 20
0.03588605
 10
24.53461847
 20
0.03845789
 10
24.54218807
 20
0.04102972
 10
24.55062499
 20
0.04228624
 10
24.55989046
 20
0.04228624
 10
24.56915592
 20
0.04228624
 10
24.57842139
 20
0.04228624
 10
24.58768685
 20
0.04228624
 10
24.59695232
 20
0.04228624
 10
24.60621778
 20
0.04228624
 10
24.61548324
 20
0.04228624
 10
24.62474871
 20
0.04228624
 10
24.63401417
 20
0.04228624
 10
24.64327964
 20
0.04228624
 10
24.6525451
 20
0.04228624
 10
24.66181056
 20
0.04228624
 10
24.67107603
 20
0.04228624
 10
24.68034149
 20
0.04228624
 10
24.68960695
 20
0.04228624
 10
24.69887242
 20
0.04228624
 10
24.70813788
 20
0.04228624
 10
24.71740335
 20
0.04228624
 10
24.72666881
 20
0.04228624
 10
24.73593428
 20
0.04228624
 10
24.74519974
 20
0.04228624
 10
24.7544652
 20
0.04228624
 10
24.76373067
 20
0.04228624
 10
24.77299613
 20
0.04228624
 10
24.7822616
 20
0.04228624
 10
24.79152706
 20
0.04228624
 10
24.80079252
 20
0.04228624
 10
24.81005799
 20
0.04228624
 10
24.81932345
 20
0.04228624
 10
24.82858891
 20
0.04228624
 10
24.83785438
 20
0.04228624
 10
24.84711984
 20
0.04228624
 10
24.85638531
 20
0.04228624
 10
24.86565077
 20
0.04228624
 10
24.87491624
 20
0.04228624
 10
24.8841817
 20
0.04228624
 10
24.89344716
 20
0.04228624
 10
24.90271263
 20
0.04228624
 10
24.91197809
 20
0.04228624
 10
24.92124356
 20
0.04228624
 10
24.93050902
 20
0.04228624
 10
24.93977448
 20
0.04228624
 10
24.94903995
 20
0.04228624
 10
24.95830541
 20
0.04228624
 10
24.96757088
 20
0.04228624
 10
24.97683634
 20
0.04228624
 10
24.9861018
 20
0.04228624
 10
24.99536727
 20
0.04228624
 10
25.00463273
 20
0.04228624
 10
25.0138982
 20
0.04228624
 10
25.02316366
 20
0.04228624
 10
25.03242912
 20
0.04228624
 10
25.04169459
 20
0.04228624
 10
25.05096005
 20
0.04228624
 10
25.06022552
 20
0.04228624
 10
25.06949098
 20
0.04228624
 10
25.07875644
 20
0.04228624
 10
25.08802191
 20
0.04228624
 10
25.09728737
 20
0.04228624
 10
25.10655284
 20
0.04228624
 10
25.1158183
 20
0.04228624
 10
25.12508376
 20
0.04228624
 10
25.13434923
 20
0.04228624
 10
25.14361469
 20
0.04228624
 10
25.15288016
 20
0.04228624
 10
25.16214562
 20
0.04228624
 10
25.17141109
 20
0.04228624
 10
25.18067655
 20
0.04228624
 10
25.18994201
 20
0.04228624
 10
25.19920748
 20
0.04228624
 10
25.20847294
 20
0.04228624
 10
25.2177384
 20
0.04228624
 10
25.22700387
 20
0.04228624
 10
25.23626933
 20
0.04228624
 10
25.2455348
 20
0.04228624
 10
25.25480026
 20
0.04228624
 10
25.26406572
 20
0.04228624
 10
25.27333119
 20
0.04228624
 10
25.28259665
 20
0.04228624
 10
25.29186212
 20
0.04228624
 10
25.30112758
 20
0.04228624
 10
25.31039305
 20
0.04228624
 10
25.31965851
 20
0.04228624
 10
25.32892397
 20
0.04228624
 10
25.33818944
 20
0.04228624
 10
25.3474549
 20
0.04228624
 10
25.35672036
 20
0.04228624
 10
25.36598583
 20
0.04228624
 10
25.37525129
 20
0.04228624
 10
25.38451676
 20
0.04228624
 10
25.39378222
 20
0.04228624
 10
25.40304768
 20
0.04228624
 10
25.41231315
 20
0.04228624
 10
25.42157861
 20
0.04228624
 10
25.43084408
 20
0.04228624
 10
25.44010954
 20
0.04228624
 10
25.44937501
 20
0.04228624
 10
25.45781193
 20
0.04102972
 10
25.46538153
 20
0.03845789
 10
25.47295114
 20
0.03588605
 10
25.48052075
 20
0.03331422
 10
25.48809036
 20
0.03074239
 10
25.49565996
 20
0.02817056
 10
25.50322957
 20
0.02559872
 10
25.51079918
 20
0.02302689
 10
25.51836878
 20
0.02045506
 10
25.52593839
 20
0.01788322
 10
25.533508
 20
0.01531139
 10
25.54107761
 20
0.01273956
 10
25.54864721
 20
0.01016772
 10
25.55621682
 20
0.00759589
 10
25.56378643
 20
0.00502406
 10
25.57135603
 20
0.00245222
 10
25.57892564
 20
-0.00011961
 10
25.58649525
 20
-0.00269144
 10
25.59406485
 20
-0.00526328
 10
25.60163446
 20
-0.00783511
 10
25.60920407
 20
-0.01040694
 10
25.61677368
 20
-0.01297877
 10
25.62434328
 20
-0.01555061
 10
25.63191289
 20
-0.01812244
 10
25.6394825
 20
-0.02069427
 10
25.6470521
 20
-0.02326611
 10
25.65462171
 20
-0.02583794
 10
25.66219132
 20
-0.02840977
 10
25.66976092
 20
-0.03098161
 10
25.67733053
 20
-0.03355344
 10
25.68490014
 20
-0.03612527
 10
25.69246975
 20
-0.03869711
 10
25.70003935
 20
-0.04126894
 10
25.70760896
 20
-0.04384077
 10
25.71612121
 20
-0.04498306
 10
25.72538667
 20
-0.04498306
 10
25.73465213
 20
-0.04498306
 10
25.7439176
 20
-0.04498306
 10
25.75318306
 20
-0.04498306
 10
25.76244852
 20
-0.04498306
 10
25.77171399
 20
-0.04498306
 10
25.78097945
 20
-0.04498306
 10
25.79024492
 20
-0.04498306
 10
25.79951038
 20
-0.04498306
 10
25.80877584
 20
-0.04498306
 10
25.81804131
 20
-0.04498306
 10
25.82730677
 20
-0.04498306
 10
25.83657224
 20
-0.04498306
 10
25.8458377
 20
-0.04498306
 10
25.85510317
 20
-0.04498306
 10
25.86436863
 20
-0.04498306
 10
25.87363409
 20
-0.04498306
 10
25.88289956
 20
-0.04498306
 10
25.89216502
 20
-0.04498306
 10
25.90143048
 20
-0.04498306
 10
25.91069595
 20
-0.04498306
 10
25.91996141
 20
-0.04498306
 10
25.92922688
 20
-0.04498306
 10
25.93849234
 20
-0.04498306
 10
25.9477578
 20
-0.04498306
 10
25.95702327
 20
-0.04498306
 10
25.96628873
 20
-0.04498306
 10
25.9755542
 20
-0.04498306
 10
25.98481966
 20
-0.04498306
 10
25.99408513
 20
-0.04498306
 10
26.00335059
 20
-0.04498306
 10
26.01261605
 20
-0.04498306
 10
26.02188152
 20
-0.04498306
 10
26.03114698
 20
-0.04498306
 10
26.04041244
 20
-0.04498306
 10
26.04967791
 20
-0.04498306
 10
26.05894337
 20
-0.04498306
 10
26.06820884
 20
-0.04498306
 10
26.0774743
 20
-0.04498306
 10
26.08673977
 20
-0.04498306
 10
26.09600523
 20
-0.04498306
 10
26.10527069
 20
-0.04498306
 10
26.11453616
 20
-0.04498306
 10
26.123801620000002
 20
-0.04498306
  0
TEXT
  5
38
330
17
100
AcDbEntity
  8
STATION_LABEL
100
AcDbText
 10
25.0
 20
0.0
 30
0.0
 40
1.0
  1
Station 5
 11
25.0
 21
0.0
 31
0.0
100
AcDbText
  0
LWPOLYLINE
  5
39
330
17
100
AcDbEntity
  8
GENERATED_PROFILE
100
AcDbPolyline
 90
256
 70
0
 10
28.81701618
 20
-0.06648679
 10
28.82696158
 20
-0.06648679
 10
28.83690697
 20
-0.06648679
 10
28.84685237
 20
-0.06648679
 10
28.85679776
 20
-0.06648679
 10
28.86674315
 20
-0.06648679
 10
28.87668855
 20
-0.06648679
 10
28.88663394
 20
-0.06648679
 10
28.89657933
 20
-0.06648679
 10
28.90652473
 20
-0.06648679
 10
28.91647012
 20
-0.06648679
 10
28.92641552
 20
-0.06648679
 10
28.93636091
 20
-0.06648679
 10
28.9463063
 20
-0.06648679
 10
28.9562517
 20
-0.06648679
 10
28.96619709
 20
-0.06648679
 10
28.97614249
 20
-0.06648679
 10
28.98608788
 20
-0.06648679
 10
28.99603327
 20
-0.06648679
 10
29.00597867
 20
-0.06648679
 10
29.01592406
 20
-0.06648679
 10
29.02586946
 20
-0.06648679
 10
29.03581485
 20
-0.06648679
 10
29.04576024
 20
-0.06648679
 10
29.05570564
 20
-0.06648679
 10
29.06565103
 20
-0.06648679
 10
29.07559643
 20
-0.06648679
 10
29.08554182
 20
-0.06648679
 10
29.09548721
 20
-0.06648679
 10
29.10543261
 20
-0.06648679
 10
29.115378
 20
-0.06648679
 10
29.1253234
 20
-0.06648679
 10
29.13526879
 20
-0.06648679
 10
29.14521418
 20
-0.06648679
 10
29.15515958
 20
-0.06648679
 10
29.16510497
 20
-0.06648679
 10
29.17505036
 20
-0.06648679
 10
29.18499576
 20
-0.06648679
 10
29.19494115
 20
-0.06648679
 10
29.20488655
 20
-0.06648679
 10
29.21483194
 20
-0.06648679
 10
29.22477733
 20
-0.06648679
 10
29.23472273
 20
-0.06648679
 10
29.24466812
 20
-0.06648679
 10
29.25461351
 20
-0.06648679
 10
29.26344562
 20
-0.06479844
 10
29.27088447
 20
-0.06099717
 10
29.27832332
 20
-0.05719589
 10
29.28576216
 20
-0.05339462
 10
29.29320101
 20
-0.04959335
 10
29.30063986
 20
-0.04579207
 10
29.30807871
 20
-0.0419908
 10
29.31551756
 20
-0.03818952
 10
29.32295641
 20
-0.03438825
 10
29.33039526
 20
-0.03058698
 10
29.33783411
 20
-0.0267857
 10
29.345272950000002
 20
-0.02298443
 10
29.3527118
 20
-0.01918316
 10
29.36015065
 20
-0.01538188
 10
29.3675895
 20
-0.01158061
 10
29.37502835
 20
-0.00777934
 10
29.3824672
 20
-0.00397806
 10
29.38990604
 20
-0.00017679
 10
29.39734489
 20
0.00362449
 10
29.40478374
 20
0.00742576
 10
29.41222259
 20
0.01122703
 10
29.41966144
 20
0.01502831
 10
29.42710029
 20
0.01882958
 10
29.43453914
 20
0.02263085
 10
29.44197798
 20
0.02643213
 10
29.44941683
 20
0.0302334
 10
29.45685568
 20
0.03403468
 10
29.46429453
 20
0.03783595
 10
29.47173338
 20
0.04163722
 10
29.47917223
 20
0.0454385
 10
29.48661108
 20
0.04923977
 10
29.49404993
 20
0.05304104
 10
29.50148877
 20
0.05684232
 10
29.50892762
 20
0.06064359
 10
29.5176484
 20
0.06250078
 10
29.52759379
 20
0.06250078
 10
29.53753919
 20
0.06250078
 10
29.54748458
 20
0.06250078
 10
29.55742997
 20
0.06250078
 10
29.56737537
 20
0.06250078
 10
29.57732076
 20
0.06250078
 10
29.58726615
 20
0.06250078
 10
29.59721155
 20
0.06250078
 10
29.60715694
 20
0.06250078
 10
29.61710234
 20
0.06250078
 10
29.62704773
 20
0.06250078
 10
29.63699312
 20
0.06250078
 10
29.64693852
 20
0.06250078
 10
29.65688391
 20
0.06250078
 10
29.6668293
 20
0.06250078
 10
29.6767747
 20
0.06250078
 10
29.68672009
 20
0.06250078
 10
29.69666549
 20
0.06250078
 10
29.70661088
 20
0.06250078
 10
29.71655627
 20
0.06250078
 10
29.72650167
 20
0.06250078
 10
29.73644706
 20
0.06250078
 10
29.74639246
 20
0.06250078
 10
29.75633785
 20
0.06250078
 10
29.76628324
 20
0.06250078
 10
29.77622864
 20
0.06250078
 10
29.78617403
 20
0.06250078
 10
29.79611943
 20
0.06250078
 10
29.80606482
 20
0.06250078
 10
29.81601021
 20
0.06250078
 10
29.82595561
 20
0.06250078
 10
29.835901
 20
0.06250078
 10
29.8458464
 20
0.06250078
 10
29.85579179
 20
0.06250078
 10
29.86573718
 20
0.06250078
 10
29.87568258
 20
0.06250078
 10
29.88562797
 20
0.06250078
 10
29.89557337
 20
0.06250078
 10
29.90551876
 20
0.06250078
 10
29.91546415
 20
0.06250078
 10
29.92540955
 20
0.06250078
 10
29.93535494
 20
0.06250078
 10
29.94530033
 20
0.06250078
 10
29.95524573
 20
0.06250078
 10
29.96519112
 20
0.06250078
 10
29.97513652
 20
0.06250078
 10
29.98508191
 20
0.06250078
 10
29.9950273
 20
0.06250078
 10
30.0049727
 20
0.06250078
 10
30.01491809
 20
0.06250078
 10
30.02486348
 20
0.06250078
 10
30.03480888
 20
0.06250078
 10
30.04475427
 20
0.06250078
 10
30.05469967
 20
0.06250078
 10
30.06464506
 20
0.06250078
 10
30.07459045
 20
0.06250078
 10
30.08453585
 20
0.06250078
 10
30.09448124
 20
0.06250078
 10
30.10442663
 20
0.06250078
 10
30.11437203
 20
0.06250078
 10
30.12431742
 20
0.06250078
 10
30.13426282
 20
0.06250078
 10
30.14420821
 20
0.06250078
 10
30.1541536
 20
0.06250078
 10
30.164099
 20
0.06250078
 10
30.17404439
 20
0.06250078
 10
30.18398979
 20
0.06250078
 10
30.19393518
 20
0.06250078
 10
30.20388057
 20
0.06250078
 10
30.21382597
 20
0.06250078
 10
30.22377136
 20
0.06250078
 10
30.23371676
 20
0.06250078
 10
30.24366215
 20
0.06250078
 10
30.25360754
 20
0.06250078
 10
30.26355294
 20
0.06250078
 10
30.27349833
 20
0.06250078
 10
30.28344373
 20
0.06250078
 10
30.29338912
 20
0.06250078
 10
30.30333451
 20
0.06250078
 10
30.31327991
 20
0.06250078
 10
30.3232253
 20
0.06250078
 10
30.3331707
 20
0.06250078
 10
30.34311609
 20
0.06250078
 10
30.35306148
 20
0.06250078
 10
30.36300688
 20
0.06250078
 10
30.37295227
 20
0.06250078
 10
30.38289766
 20
0.06250078
 10
30.39284306
 20
0.06250078
 10
30.40278845
 20
0.06250078
 10
30.41273385
 20
0.06250078
 10
30.42267924
 20
0.06250078
 10
30.43262463
 20
0.06250078
 10
30.44257003
 20
0.06250078
 10
30.45251542
 20
0.06250078
 10
30.46246081
 20
0.06250078
 10
30.47240621
 20
0.06250078
 10
30.4823516
 20
0.06250078
 10
30.49107238
 20
0.06064359
 10
30.49851123
 20
0.05684232
 10
30.50595007
 20
0.05304104
 10
30.51338892
 20
0.04923977
 10
30.52082777
 20
0.0454385
 10
30.52826662
 20
0.04163722
 10
30.53570547
 20
0.03783595
 10
30.54314432
 20
0.03403468
 10
30.55058317
 20
0.0302334
 10
30.55802202
 20
0.02643213
 10
30.56546086
 20
0.02263085
 10
30.57289971
 20
0.01882958
 10
30.58033856
 20
0.01502831
 10
30.58777741
 20
0.01122703
 10
30.59521626
 20
0.00742576
 10
30.60265511
 20
0.00362449
 10
30.61009396
 20
-0.00017679
 10
30.6175328
 20
-0.00397806
 10
30.62497165
 20
-0.00777934
 10
30.6324105
 20
-0.01158061
 10
30.63984935
 20
-0.01538188
 10
30.6472882
 20
-0.01918316
 10
30.654727049999998
 20
-0.02298443
 10
30.66216589
 20
-0.0267857
 10
30.66960474
 20
-0.03058698
 10
30.67704359
 20
-0.03438825
 10
30.68448244
 20
-0.03818952
 10
30.69192129
 20
-0.0419908
 10
30.69936014
 20
-0.04579207
 10
30.70679899
 20
-0.04959335
 10
30.71423784
 20
-0.05339462
 10
30.72167668
 20
-0.05719589
 10
30.72911553
 20
-0.06099717
 10
30.73655438
 20
-0.06479844
 10
30.74538649
 20
-0.06648679
 10
30.75533188
 20
-0.06648679
 10
30.76527727
 20
-0.06648679
 10
30.77522267
 20
-0.06648679
 10
30.78516806
 20
-0.06648679
 10
30.79511345
 20
-0.06648679
 10
30.80505885
 20
-0.06648679
 10
30.81500424
 20
-0.06648679
 10
30.82494964
 20
-0.06648679
 10
30.83489503
 20
-0.06648679
 10
30.84484042
 20
-0.06648679
 10
30.85478582
 20
-0.06648679
 10
30.86473121
 20
-0.06648679
 10
30.8746766
 20
-0.06648679
 10
30.884622
 20
-0.06648679
 10
30.89456739
 20
-0.06648679
 10
30.90451279
 20
-0.06648679
 10
30.91445818
 20
-0.06648679
 10
30.92440357
 20
-0.06648679
 10
30.93434897
 20
-0.06648679
 10
30.94429436
 20
-0.06648679
 10
30.95423976
 20
-0.06648679
 10
30.96418515
 20
-0.06648679
 10
30.97413054
 20
-0.06648679
 10
30.98407594
 20
-0.06648679
 10
30.99402133
 20
-0.06648679
 10
31.00396673
 20
-0.06648679
 10
31.01391212
 20
-0.06648679
 10
31.02385751
 20
-0.06648679
 10
31.03380291
 20
-0.06648679
 10
31.0437483
 20
-0.06648679
 10
31.0536937
 20
-0.06648679
 10
31.06363909
 20
-0.06648679
 10
31.07358448
 20
-0.06648679
 10
31.08352988
 20
-0.06648679
 10
31.09347527
 20
-0.06648679
 10
31.10342067
 20
-0.06648679
 10
31.11336606
 20
-0.06648679
 10
31.12331145
 20
-0.06648679
 10
31.13325685
 20
-0.06648679
 10
31.14320224
 20
-0.06648679
 10
31.15314763
 20
-0.06648679
 10
31.16309303
 20
-0.06648679
 10
31.17303842
 20
-0.06648679
 10
31.18298382
 20
-0.06648679
  0
TEXT
  5
3A
330
17
100
AcDbEntity
  8
STATION_LABEL
100
AcDbText
 10
30.0
 20
0.0
 30
0.0
 40
1.0
  1
Station 6
 11
30.0
 21
0.0
 31
0.0
100
AcDbText
  0
LWPOLYLINE
  5
3B
330
17
100
AcDbEntity
  8
GENERATED_PROFILE
100
AcDbPolyline
 90
256
 70
0
 10
33.75156026
 20
-0.09027006
 10
33.76225766
 20
-0.09027006
 10
33.77295506
 20
-0.09027006
 10
33.78365246
 20
-0.09027006
 10
33.79434986
 20
-0.09027006
 10
33.80504727
 20
-0.09027006
 10
33.81574467
 20
-0.09027006
 10
33.82644207
 20
-0.09027006
 10
33.83713947
 20
-0.09027006
 10
33.84783687
 20
-0.09027006
 10
33.85853427
 20
-0.09027006
 10
33.86923167
 20
-0.09027006
 10
33.87992907
 20
-0.09027006
 10
33.89062647
 20
-0.09027006
 10
33.90132387
 20
-0.09027006
 10
33.91202127
 20
-0.09027006
 10
33.92271868
 20
-0.09027006
 10
33.93341608
 20
-0.09027006
 10
33.94411348
 20
-0.09027006
 10
33.95481088
 20
-0.09027006
 10
33.96550828
 20
-0.09027006
 10
33.97620568
 20
-0.09027006
 10
33.98690308
 20
-0.09027006
 10
33.99760048
 20
-0.09027006
 10
34.00829789
 20
-0.09027006
 10
34.01899529
 20
-0.09027006
 10
34.02969269
 20
-0.09027006
 10
34.04039009
 20
-0.09027006
 10
34.05108749
 20
-0.09027006
 10
34.06178489
 20
-0.09027006
 10
34.072482289999996
 20
-0.09027006
 10
34.0831797
 20
-0.09027006
 10
34.0938771
 20
-0.09027006
 10
34.1045745
 20
-0.09027006
 10
34.1152719
 20
-0.09027006
 10
34.1259693
 20
-0.09027006
 10
34.1366667
 20
-0.09027006
 10
34.1473641
 20
-0.09027006
 10
34.1580615
 20
-0.09027006
 10
34.1687589
 20
-0.09027006
 10
34.1794563
 20
-0.09027006
 10
34.19015371
 20
-0.09027006
 10
34.20085111
 20
-0.09027006
 10
34.21154851
 20
-0.09027006
 10
34.22224591
 20
-0.09027006
 10
34.23143178
 20
-0.08797777
 10
34.23872601
 20
-0.08281673
 10
34.24602024
 20
-0.07765568
 10
34.25331447
 20
-0.07249464
 10
34.2606087
 20
-0.06733359
 10
34.26790292
 20
-0.06217255
 10
34.27519715
 20
-0.05701151
 10
34.28249138
 20
-0.05185046
 10
34.28978561
 20
-0.04668942
 10
34.29707984
 20
-0.04152838
 10
34.30437407
 20
-0.03636733
 10
34.31166829
 20
-0.03120629
 10
34.31896252
 20
-0.02604524
 10
34.32625675
 20
-0.0208842
 10
34.33355098
 20
-0.01572316
 10
34.34084521
 20
-0.01056212
 10
34.34813944
 20
-0.00540107
 10
34.35543367
 20
-0.00024003
 10
34.3627279
 20
0.00492102
 10
34.37002213
 20
0.01008206
 10
34.37731636
 20
0.0152431
 10
34.38461058
 20
0.02040415
 10
34.39190481
 20
0.02556519
 10
34.39919904
 20
0.03072623
 10
34.40649327
 20
0.03588728
 10
34.4137875
 20
0.04104832
 10
34.42108173
 20
0.04620937
 10
34.42837596
 20
0.05137041
 10
34.43567018
 20
0.05653145
 10
34.44296441
 20
0.0616925
 10
34.45025864
 20
0.06685354
 10
34.45755287
 20
0.07201458
 10
34.4648471
 20
0.07717563
 10
34.47214133
 20
0.08233667
 10
34.48117605
 20
0.0848582
 10
34.49187345
 20
0.0848582
 10
34.50257085
 20
0.0848582
 10
34.51326825
 20
0.0848582
 10
34.52396565
 20
0.0848582
 10
34.53466305
 20
0.0848582
 10
34.54536045
 20
0.0848582
 10
34.55605785
 20
0.0848582
 10
34.56675525
 20
0.0848582
 10
34.57745266
 20
0.0848582
 10
34.58815006
 20
0.0848582
 10
34.59884746
 20
0.0848582
 10
34.60954486
 20
0.0848582
 10
34.62024226
 20
0.0848582
 10
34.63093966
 20
0.0848582
 10
34.64163706
 20
0.0848582
 10
34.65233447
 20
0.0848582
 10
34.66303187
 20
0.0848582
 10
34.67372927
 20
0.0848582
 10
34.68442667
 20
0.0848582
 10
34.69512407
 20
0.0848582
 10
34.70582147
 20
0.0848582
 10
34.71651887
 20
0.0848582
 10
34.72721627
 20
0.0848582
 10
34.73791367
 20
0.0848582
 10
34.74861107
 20
0.0848582
 10
34.75930848
 20
0.0848582
 10
34.77000588
 20
0.0848582
 10
34.78070328
 20
0.0848582
 10
34.79140068
 20
0.0848582
 10
34.80209808
 20
0.0848582
 10
34.81279548
 20
0.0848582
 10
34.82349288
 20
0.0848582
 10
34.83419028
 20
0.0848582
 10
34.84488768
 20
0.0848582
 10
34.85558508
 20
0.0848582
 10
34.86628249
 20
0.0848582
 10
34.87697989
 20
0.0848582
 10
34.88767729
 20
0.0848582
 10
34.89837469
 20
0.0848582
 10
34.90907209
 20
0.0848582
 10
34.91976949
 20
0.0848582
 10
34.93046689
 20
0.0848582
 10
34.94116429
 20
0.0848582
 10
34.95186169
 20
0.0848582
 10
34.9625591
 20
0.0848582
 10
34.9732565
 20
0.0848582
 10
34.9839539
 20
0.0848582
 10
34.9946513
 20
0.0848582
 10
35.0053487
 20
0.0848582
 10
35.0160461
 20
0.0848582
 10
35.0267435
 20
0.0848582
 10
35.0374409
 20
0.0848582
 10
35.04813831
 20
0.0848582
 10
35.05883571
 20
0.0848582
 10
35.06953311
 20
0.0848582
 10
35.08023051
 20
0.0848582
 10
35.09092791
 20
0.0848582
 10
35.10162531
 20
0.0848582
 10
35.11232271
 20
0.0848582
 10
35.12302011
 20
0.0848582
 10
35.13371751
 20
0.0848582
 10
35.14441492
 20
0.0848582
 10
35.15511232
 20
0.0848582
 10
35.16580972
 20
0.0848582
 10
35.17650712
 20
0.0848582
 10
35.18720452
 20
0.0848582
 10
35.19790192
 20
0.0848582
 10
35.20859932
 20
0.0848582
 10
35.21929672
 20
0.0848582
 10
35.22999412
 20
0.0848582
 10
35.24069152
 20
0.0848582
 10
35.25138893
 20
0.0848582
 10
35.26208633
 20
0.0848582
 10
35.27278373
 20
0.0848582
 10
35.28348113
 20
0.0848582
 10
35.29417853
 20
0.0848582
 10
35.30487593
 20
0.0848582
 10
35.31557333
 20
0.0848582
 10
35.32627073
 20
0.0848582
 10
35.33696813
 20
0.0848582
 10
35.34766553
 20
0.0848582
 10
35.35836294
 20
0.0848582
 10
35.36906034
 20
0.0848582
 10
35.37975774
 20
0.0848582
 10
35.39045514
 20
0.0848582
 10
35.40115254
 20
0.0848582
 10
35.41184994
 20
0.0848582
 10
35.42254734
 20
0.0848582
 10
35.43324475
 20
0.0848582
 10
35.44394215
 20
0.0848582
 10
35.45463955
 20
0.0848582
 10
35.46533695
 20
0.0848582
 10
35.47603435
 20
0.0848582
 10
35.48673175
 20
0.0848582
 10
35.49742915
 20
0.0848582
 10
35.50812655
 20
0.0848582
 10
35.51882395
 20
0.0848582
 10
35.52785867
 20
0.08233667
 10
35.5351529
 20
0.07717563
 10
35.54244713
 20
0.07201458
 10
35.54974136
 20
0.06685354
 10
35.55703559
 20
0.0616925
 10
35.56432982
 20
0.05653145
 10
35.57162404
 20
0.05137041
 10
35.57891827
 20
0.04620937
 10
35.5862125
 20
0.04104832
 10
35.59350673
 20
0.03588728
 10
35.60080096
 20
0.03072623
 10
35.60809519
 20
0.02556519
 10
35.61538942
 20
0.02040415
 10
35.62268364
 20
0.0152431
 10
35.62997787
 20
0.01008206
 10
35.6372721
 20
0.00492102
 10
35.64456633
 20
-0.00024003
 10
35.65186056
 20
-0.00540107
 10
35.65915479
 20
-0.01056212
 10
35.66644902
 20
-0.01572316
 10
35.67374325
 20
-0.0208842
 10
35.68103748
 20
-0.02604524
 10
35.68833171
 20
-0.03120629
 10
35.69562593
 20
-0.03636733
 10
35.70292016
 20
-0.04152838
 10
35.71021439
 20
-0.04668942
 10
35.71750862
 20
-0.05185046
 10
35.72480285
 20
-0.05701151
 10
35.73209708
 20
-0.06217255
 10
35.7393913
 20
-0.06733359
 10
35.74668553
 20
-0.07249464
 10
35.75397976
 20
-0.07765568
 10
35.76127399
 20
-0.08281673
 10
35.76856822
 20
-0.08797777
 10
35.77775409
 20
-0.09027006
 10
35.78845149
 20
-0.09027006
 10
35.79914889
 20
-0.09027006
 10
35.80984629
 20
-0.09027006
 10
35.8205437
 20
-0.09027006
 10
35.8312411
 20
-0.09027006
 10
35.8419385
 20
-0.09027006
 10
35.8526359
 20
-0.09027006
 10
35.8633333
 20
-0.09027006
 10
35.8740307
 20
-0.09027006
 10
35.8847281
 20
-0.09027006
 10
35.8954255
 20
-0.09027006
 10
35.9061229
 20
-0.09027006
 10
35.9168203
 20
-0.09027006
 10
35.927517710000004
 20
-0.09027006
 10
35.93821511
 20
-0.09027006
 10
35.94891251
 20
-0.09027006
 10
35.95960991
 20
-0.09027006
 10
35.97030731
 20
-0.09027006
 10
35.98100471
 20
-0.09027006
 10
35.99170211
 20
-0.09027006
 10
36.00239952
 20
-0.09027006
 10
36.01309692
 20
-0.09027006
 10
36.02379432
 20
-0.09027006
 10
36.03449172
 20
-0.09027006
 10
36.04518912
 20
-0.09027006
 10
36.05588652
 20
-0.09027006
 10
36.06658392
 20
-0.09027006
 10
36.07728132
 20
-0.09027006
 10
36.08797873
 20
-0.09027006
 10
36.09867613
 20
-0.09027006
 10
36.10937353
 20
-0.09027006
 10
36.12007093
 20
-0.09027006
 10
36.13076833
 20
-0.09027006
 10
36.14146573
 20
-0.09027006
 10
36.15216313
 20
-0.09027006
 10
36.16286053
 20
-0.09027006
 10
36.17355793
 20
-0.09027006
 10
36.18425533
 20
-0.09027006
 10
36.19495273
 20
-0.09027006
 10
36.20565014
 20
-0.09027006
 10
36.21634754
 20
-0.09027006
 10
36.22704494
 20
-0.09027006
 10
36.23774234
 20
-0.09027006
 10
36.24843974
 20
-0.09027006
  0
TEXT
  5
3C
330
17
100
AcDbEntity
  8
STATION_LABEL
100
AcDbText
 10
35.0
 20
0.0
 30
0.0
 40
1.0
  1
Station 7
 11
35.0
 21
0.0
 31
0.0
100
AcDbText
  0
LWPOLYLINE
  5
3D
330
17
100
AcDbEntity
  8
GENERATED_PROFILE
100
AcDbPolyline
 90
256
 70
0
 10
38.68234009
 20
-0.11542106
 10
38.69383275
 20
-0.11542106
 10
38.70532541
 20
-0.11542106
 10
38.71681806
 20
-0.11542106
 10
38.72831072
 20
-0.11542106
 10
38.73980337
 20
-0.11542106
 10
38.75129602
 20
-0.11542106
 10
38.76278868
 20
-0.11542106
 10
38.77428133
 20
-0.11542106
 10
38.78577399
 20
-0.11542106
 10
38.79726665
 20
-0.11542106
 10
38.8087593
 20
-0.11542106
 10
38.82025195
 20
-0.11542106
 10
38.83174461
 20
-0.11542106
 10
38.84323726
 20
-0.11542106
 10
38.85472992
 20
-0.11542106
 10
38.86622257
 20
-0.11542106
 10
38.87771523
 20
-0.11542106
 10
38.88920788
 20
-0.11542106
 10
38.90070054
 20
-0.11542106
 10
38.912193189999996
 20
-0.11542106
 10
38.92368585
 20
-0.11542106
 10
38.9351785
 20
-0.11542106
 10
38.94667115
 20
-0.11542106
 10
38.95816381
 20
-0.11542106
 10
38.96965647
 20
-0.11542106
 10
38.98114912
 20
-0.11542106
 10
38.99264177
 20
-0.11542106
 10
39.00413443
 20
-0.11542106
 10
39.01562708
 20
-0.11542106
 10
39.02711974
 20
-0.11542106
 10
39.0386124
 20
-0.11542106
 10
39.05010505
 20
-0.11542106
 10
39.0615977
 20
-0.11542106
 10
39.07309036
 20
-0.11542106
 10
39.08458301
 20
-0.11542106
 10
39.09607567
 20
-0.11542106
 10
39.10756832
 20
-0.11542106
 10
39.11906097
 20
-0.11542106
 10
39.13055363
 20
-0.11542106
 10
39.14204629
 20
-0.11542106
 10
39.15353894
 20
-0.11542106
 10
39.1650316
 20
-0.11542106
 10
39.17652425
 20
-0.11542106
 10
39.1880169
 20
-0.11542106
 10
39.19757689
 20
-0.11249009
 10
39.20471818
 20
-0.10589108
 10
39.21185947
 20
-0.09929207
 10
39.21900076
 20
-0.09269306
 10
39.22614206
 20
-0.08609405
 10
39.23328335
 20
-0.07949504
 10
39.24042464
 20
-0.07289603
 10
39.24756593
 20
-0.06629701
 10
39.25470723
 20
-0.05969801
 10
39.26184852
 20
-0.05309899
 10
39.26898981
 20
-0.04649998
 10
39.2761311
 20
-0.03990097
 10
39.28327239
 20
-0.03330196
 10
39.29041369
 20
-0.02670295
 10
39.29755498
 20
-0.02010394
 10
39.30469627
 20
-0.01350493
 10
39.31183756
 20
-0.00690591
 10
39.31897885
 20
-0.00030691
 10
39.32612015
 20
0.00629211
 10
39.33326144
 20
0.01289112
 10
39.34040273
 20
0.01949013
 10
39.34754402
 20
0.02608914
 10
39.35468531
 20
0.03268815
 10
39.36182661
 20
0.03928716
 10
39.3689679
 20
0.04588617
 10
39.37610919
 20
0.05248519
 10
39.38325049
 20
0.0590842
 10
39.39039178
 20
0.06568321
 10
39.39753307
 20
0.07228222
 10
39.40467436
 20
0.07888123
 10
39.41181565
 20
0.08548024
 10
39.41895695
 20
0.09207925
 10
39.42609824
 20
0.09867826
 10
39.43323953
 20
0.10527728
 10
39.44260624
 20
0.10850135
 10
39.4540989
 20
0.10850135
 10
39.46559156
 20
0.10850135
 10
39.47708421
 20
0.10850135
 10
39.48857686
 20
0.10850135
 10
39.50006952
 20
0.10850135
 10
39.51156217
 20
0.10850135
 10
39.52305483
 20
0.10850135
 10
39.53454748
 20
0.10850135
 10
39.54604014
 20
0.10850135
 10
39.55753279
 20
0.10850135
 10
39.56902545
 20
0.10850135
 10
39.5805181
 20
0.10850135
 10
39.59201076
 20
0.10850135
 10
39.60350341
 20
0.10850135
 10
39.61499606
 20
0.10850135
 10
39.62648872
 20
0.10850135
 10
39.63798138
 20
0.10850135
 10
39.64947403
 20
0.10850135
 10
39.66096669
 20
0.10850135
 10
39.67245934
 20
0.10850135
 10
39.68395199
 20
0.10850135
 10
39.69544465
 20
0.10850135
 10
39.70693731
 20
0.10850135
 10
39.71842996
 20
0.10850135
 10
39.72992261
 20
0.10850135
 10
39.74141527
 20
0.10850135
 10
39.75290792
 20
0.10850135
 10
39.76440058
 20
0.10850135
 10
39.77589323
 20
0.10850135
 10
39.78738589
 20
0.10850135
 10
39.79887854
 20
0.10850135
 10
39.8103712
 20
0.10850135
 10
39.82186385
 20
0.10850135
 10
39.83335651
 20
0.10850135
 10
39.84484916
 20
0.10850135
 10
39.85634181
 20
0.10850135
 10
39.86783447
 20
0.10850135
 10
39.87932713
 20
0.10850135
 10
39.89081978
 20
0.10850135
 10
39.90231244
 20
0.10850135
 10
39.91380509
 20
0.10850135
 10
39.92529774
 20
0.10850135
 10
39.9367904
 20
0.10850135
 10
39.94828305
 20
0.10850135
 10
39.95977571
 20
0.10850135
 10
39.97126836
 20
0.10850135
 10
39.98276102
 20
0.10850135
 10
39.99425367
 20
0.10850135
 10
40.00574633
 20
0.10850135
 10
40.01723898
 20
0.10850135
 10
40.02873164
 20
0.10850135
 10
40.04022429
 20
0.10850135
 10
40.05171695
 20
0.10850135
 10
40.0632096
 20
0.10850135
 10
40.07470226
 20
0.10850135
 10
40.08619491
 20
0.10850135
 10
40.09768756
 20
0.10850135
 10
40.10918022
 20
0.10850135
 10
40.12067287
 20
0.10850135
 10
40.13216553
 20
0.10850135
 10
40.14365819
 20
0.10850135
 10
40.15515084
 20
0.10850135
 10
40.16664349
 20
0.10850135
 10
40.17813615
 20
0.10850135
 10
40.1896288
 20
0.10850135
 10
40.20112146
 20
0.10850135
 10
40.21261411
 20
0.10850135
 10
40.22410677
 20
0.10850135
 10
40.23559942
 20
0.10850135
 10
40.24709208
 20
0.10850135
 10
40.25858473
 20
0.10850135
 10
40.27007739
 20
0.10850135
 10
40.28157004
 20
0.10850135
 10
40.29306269
 20
0.10850135
 10
40.30455535
 20
0.10850135
 10
40.31604801
 20
0.10850135
 10
40.32754066
 20
0.10850135
 10
40.33903331
 20
0.10850135
 10
40.35052597
 20
0.10850135
 10
40.36201862
 20
0.10850135
 10
40.37351128
 20
0.10850135
 10
40.38500394
 20
0.10850135
 10
40.39649659
 20
0.10850135
 10
40.40798924
 20
0.10850135
 10
40.4194819
 20
0.10850135
 10
40.43097455
 20
0.10850135
 10
40.44246721
 20
0.10850135
 10
40.45395986
 20
0.10850135
 10
40.46545252
 20
0.10850135
 10
40.47694517
 20
0.10850135
 10
40.48843783
 20
0.10850135
 10
40.49993048
 20
0.10850135
 10
40.51142314
 20
0.10850135
 10
40.52291579
 20
0.10850135
 10
40.53440844
 20
0.10850135
 10
40.5459011
 20
0.10850135
 10
40.55739376
 20
0.10850135
 10
40.56676047
 20
0.10527728
 10
40.57390176
 20
0.09867826
 10
40.58104305
 20
0.09207925
 10
40.58818435
 20
0.08548024
 10
40.59532564
 20
0.07888123
 10
40.60246693
 20
0.07228222
 10
40.60960822
 20
0.06568321
 10
40.61674951
 20
0.0590842
 10
40.62389081
 20
0.05248519
 10
40.6310321
 20
0.04588617
 10
40.63817339
 20
0.03928716
 10
40.64531469
 20
0.03268815
 10
40.65245598
 20
0.02608914
 10
40.65959727
 20
0.01949013
 10
40.66673856
 20
0.01289112
 10
40.67387985
 20
0.00629211
 10
40.68102115
 20
-0.00030691
 10
40.68816244
 20
-0.00690591
 10
40.69530373
 20
-0.01350493
 10
40.70244502
 20
-0.02010394
 10
40.70958631
 20
-0.02670295
 10
40.71672761
 20
-0.03330196
 10
40.7238689
 20
-0.03990097
 10
40.73101019
 20
-0.04649998
 10
40.73815148
 20
-0.05309899
 10
40.74529277
 20
-0.05969801
 10
40.75243407
 20
-0.06629701
 10
40.75957536
 20
-0.07289603
 10
40.76671665
 20
-0.07949504
 10
40.77385794
 20
-0.08609405
 10
40.78099924
 20
-0.09269306
 10
40.78814053
 20
-0.09929207
 10
40.79528182
 20
-0.10589108
 10
40.80242311
 20
-0.11249009
 10
40.8119831
 20
-0.11542106
 10
40.82347575
 20
-0.11542106
 10
40.8349684
 20
-0.11542106
 10
40.84646106
 20
-0.11542106
 10
40.85795371
 20
-0.11542106
 10
40.86944637
 20
-0.11542106
 10
40.88093903
 20
-0.11542106
 10
40.89243168
 20
-0.11542106
 10
40.90392433
 20
-0.11542106
 10
40.91541699
 20
-0.11542106
 10
40.92690964
 20
-0.11542106
 10
40.9384023
 20
-0.11542106
 10
40.94989495
 20
-0.11542106
 10
40.9613876
 20
-0.11542106
 10
40.97288026
 20
-0.11542106
 10
40.98437292
 20
-0.11542106
 10
40.99586557
 20
-0.11542106
 10
41.00735823
 20
-0.11542106
 10
41.01885088
 20
-0.11542106
 10
41.03034353
 20
-0.11542106
 10
41.04183619
 20
-0.11542106
 10
41.05332885
 20
-0.11542106
 10
41.0648215
 20
-0.11542106
 10
41.07631415
 20
-0.11542106
 10
41.087806810000004
 20
-0.11542106
 10
41.09929946
 20
-0.11542106
 10
41.11079212
 20
-0.11542106
 10
41.12228477
 20
-0.11542106
 10
41.13377743
 20
-0.11542106
 10
41.14527008
 20
-0.11542106
 10
41.15676274
 20
-0.11542106
 10
41.16825539
 20
-0.11542106
 10
41.17974805
 20
-0.11542106
 10
41.1912407
 20
-0.11542106
 10
41.20273335
 20
-0.11542106
 10
41.21422601
 20
-0.11542106
 10
41.22571867
 20
-0.11542106
 10
41.23721132
 20
-0.11542106
 10
41.24870398
 20
-0.11542106
 10
41.26019663
 20
-0.11542106
 10
41.27168928
 20
-0.11542106
 10
41.28318194
 20
-0.11542106
 10
41.29467459
 20
-0.11542106
 10
41.30616725
 20
-0.11542106
 10
41.31765991
 20
-0.11542106
  0
TEXT
  5
3E
330
17
100
AcDbEntity
  8
STATION_LABEL
100
AcDbText
 10
40.0
 20
0.0
 30
0.0
 40
1.0
  1
Station 8
 11
40.0
 21
0.0
 31
0.0
100
AcDbText
  0
LWPOLYLINE
  5
3F
330
17
100
AcDbEntity
  8
GENERATED_PROFILE
100
AcDbPolyline
 90
256
 70
0
 10
43.61186519
 20
-0.14102798
 10
43.62416751
 20
-0.14102798
 10
43.63646984
 20
-0.14102798
 10
43.64877216
 20
-0.14102798
 10
43.661074479999996
 20
-0.14102798
 10
43.67337681
 20
-0.14102798
 10
43.68567913
 20
-0.14102798
 10
43.69798145
 20
-0.14102798
 10
43.71028378
 20
-0.14102798
 10
43.7225861
 20
-0.14102798
 10
43.73488843
 20
-0.14102798
 10
43.74719075
 20
-0.14102798
 10
43.75949307
 20
-0.14102798
 10
43.7717954
 20
-0.14102798
 10
43.78409772
 20
-0.14102798
 10
43.79640004
 20
-0.14102798
 10
43.80870237
 20
-0.14102798
 10
43.82100469
 20
-0.14102798
 10
43.83330702
 20
-0.14102798
 10
43.84560934
 20
-0.14102798
 10
43.85791166
 20
-0.14102798
 10
43.87021399
 20
-0.14102798
 10
43.88251631
 20
-0.14102798
 10
43.89481863
 20
-0.14102798
 10
43.90712096
 20
-0.14102798
 10
43.91942329
 20
-0.14102798
 10
43.93172561
 20
-0.14102798
 10
43.94402793
 20
-0.14102798
 10
43.95633025
 20
-0.14102798
 10
43.96863258
 20
-0.14102798
 10
43.9809349
 20
-0.14102798
 10
43.99323723
 20
-0.14102798
 10
44.00553955
 20
-0.14102798
 10
44.01784188
 20
-0.14102798
 10
44.0301442
 20
-0.14102798
 10
44.04244652
 20
-0.14102798
 10
44.05474884
 20
-0.14102798
 10
44.06705117
 20
-0.14102798
 10
44.07935349
 20
-0.14102798
 10
44.09165582
 20
-0.14102798
 10
44.10395814
 20
-0.14102798
 10
44.11626047
 20
-0.14102798
 10
44.12856279
 20
-0.14102798
 10
44.14086511
 20
-0.14102798
 10
44.15316744
 20
-0.14102798
 10
44.16310831
 20
-0.13744675
 10
44.17009389
 20
-0.12938371
 10
44.17707948
 20
-0.12132066
 10
44.18406506
 20
-0.11325762
 10
44.19105065
 20
-0.10519457
 10
44.19803623
 20
-0.09713152
 10
44.20502181
 20
-0.08906848
 10
44.2120074
 20
-0.08100544
 10
44.21899298
 20
-0.07294239
 10
44.22597856
 20
-0.06487935
 10
44.23296415
 20
-0.05681631
 10
44.23994973
 20
-0.04875326
 10
44.24693531
 20
-0.04069021
 10
44.2539209
 20
-0.03262717
 10
44.26090648
 20
-0.02456412
 10
44.26789206
 20
-0.01650108
 10
44.27487765
 20
-0.00843804
 10
44.28186323
 20
-0.00037499
 10
44.28884881
 20
0.00768805
 10
44.2958344
 20
0.0157511
 10
44.30281998
 20
0.02381414
 10
44.30980556
 20
0.03187719
 10
44.31679114
 20
0.03994023
 10
44.32377673
 20
0.04800328
 10
44.33076231
 20
0.05606632
 10
44.3377479
 20
0.06412936
 10
44.34473348
 20
0.07219241
 10
44.35171906
 20
0.08025545
 10
44.35870464
 20
0.0883185
 10
44.36569023
 20
0.09638154
 10
44.37267581
 20
0.10444459
 10
44.3796614
 20
0.11250763
 10
44.38664698
 20
0.12057068
 10
44.39363256
 20
0.12863372
 10
44.40333729
 20
0.13257307
 10
44.41563961
 20
0.13257307
 10
44.42794194
 20
0.13257307
 10
44.44024427
 20
0.13257307
 10
44.45254659
 20
0.13257307
 10
44.46484891
 20
0.13257307
 10
44.47715123
 20
0.13257307
 10
44.48945356
 20
0.13257307
 10
44.50175588
 20
0.13257307
 10
44.51405821
 20
0.13257307
 10
44.52636053
 20
0.13257307
 10
44.53866286
 20
0.13257307
 10
44.55096518
 20
0.13257307
 10
44.5632675
 20
0.13257307
 10
44.57556982
 20
0.13257307
 10
44.58787215
 20
0.13257307
 10
44.60017448
 20
0.13257307
 10
44.6124768
 20
0.13257307
 10
44.62477912
 20
0.13257307
 10
44.63708145
 20
0.13257307
 10
44.64938377
 20
0.13257307
 10
44.66168609
 20
0.13257307
 10
44.67398842
 20
0.13257307
 10
44.68629074
 20
0.13257307
 10
44.69859307
 20
0.13257307
 10
44.71089539
 20
0.13257307
 10
44.72319771
 20
0.13257307
 10
44.73550004
 20
0.13257307
 10
44.74780236
 20
0.13257307
 10
44.76010468
 20
0.13257307
 10
44.77240701
 20
0.13257307
 10
44.78470933
 20
0.13257307
 10
44.79701166
 20
0.13257307
 10
44.80931398
 20
0.13257307
 10
44.8216163
 20
0.13257307
 10
44.83391863
 20
0.13257307
 10
44.84622095
 20
0.13257307
 10
44.85852327
 20
0.13257307
 10
44.8708256
 20
0.13257307
 10
44.88312792
 20
0.13257307
 10
44.89543025
 20
0.13257307
 10
44.90773257
 20
0.13257307
 10
44.92003489
 20
0.13257307
 10
44.93233722
 20
0.13257307
 10
44.94463954
 20
0.13257307
 10
44.95694187
 20
0.13257307
 10
44.96924419
 20
0.13257307
 10
44.98154652
 20
0.13257307
 10
44.99384884
 20
0.13257307
 10
45.00615116
 20
0.13257307
 10
45.01845348
 20
0.13257307
 10
45.03075581
 20
0.13257307
 10
45.04305813
 20
0.13257307
 10
45.05536046
 20
0.13257307
 10
45.06766278
 20
0.13257307
 10
45.07996511
 20
0.13257307
 10
45.09226743
 20
0.13257307
 10
45.10456975
 20
0.13257307
 10
45.11687208
 20
0.13257307
 10
45.1291744
 20
0.13257307
 10
45.14147673
 20
0.13257307
 10
45.15377905
 20
0.13257307
 10
45.16608137
 20
0.13257307
 10
45.1783837
 20
0.13257307
 10
45.19068602
 20
0.13257307
 10
45.20298834
 20
0.13257307
 10
45.21529067
 20
0.13257307
 10
45.22759299
 20
0.13257307
 10
45.23989532
 20
0.13257307
 10
45.25219764
 20
0.13257307
 10
45.26449996
 20
0.13257307
 10
45.27680229
 20
0.13257307
 10
45.28910461
 20
0.13257307
 10
45.30140693
 20
0.13257307
 10
45.31370926
 20
0.13257307
 10
45.32601158
 20
0.13257307
 10
45.33831391
 20
0.13257307
 10
45.35061623
 20
0.13257307
 10
45.36291855
 20
0.13257307
 10
45.37522088
 20
0.13257307
 10
45.3875232
 20
0.13257307
 10
45.39982552
 20
0.13257307
 10
45.41212785
 20
0.13257307
 10
45.42443018
 20
0.13257307
 10
45.4367325
 20
0.13257307
 10
45.44903482
 20
0.13257307
 10
45.46133714
 20
0.13257307
 10
45.47363947
 20
0.13257307
 10
45.48594179
 20
0.13257307
 10
45.49824412
 20
0.13257307
 10
45.51054644
 20
0.13257307
 10
45.52284877
 20
0.13257307
 10
45.53515109
 20
0.13257307
 10
45.54745341
 20
0.13257307
 10
45.55975573
 20
0.13257307
 10
45.57205806
 20
0.13257307
 10
45.58436039
 20
0.13257307
 10
45.59666271
 20
0.13257307
 10
45.60636744
 20
0.12863372
 10
45.61335302
 20
0.12057068
 10
45.6203386
 20
0.11250763
 10
45.62732419
 20
0.10444459
 10
45.63430977
 20
0.09638154
 10
45.64129536
 20
0.0883185
 10
45.64828094
 20
0.08025545
 10
45.65526652
 20
0.07219241
 10
45.6622521
 20
0.06412936
 10
45.66923769
 20
0.05606632
 10
45.67622327
 20
0.04800328
 10
45.68320886
 20
0.03994023
 10
45.69019444
 20
0.03187719
 10
45.69718002
 20
0.02381414
 10
45.7041656
 20
0.0157511
 10
45.71115119
 20
0.00768805
 10
45.71813677
 20
-0.00037499
 10
45.72512235
 20
-0.00843804
 10
45.73210794
 20
-0.01650108
 10
45.73909352
 20
-0.02456412
 10
45.7460791
 20
-0.03262717
 10
45.75306469
 20
-0.04069021
 10
45.76005027
 20
-0.04875326
 10
45.76703585
 20
-0.05681631
 10
45.77402144
 20
-0.06487935
 10
45.78100702
 20
-0.07294239
 10
45.7879926
 20
-0.08100544
 10
45.79497819
 20
-0.08906848
 10
45.80196377
 20
-0.09713152
 10
45.80894935
 20
-0.10519457
 10
45.81593494
 20
-0.11325762
 10
45.82292052
 20
-0.12132066
 10
45.82990611
 20
-0.12938371
 10
45.83689169
 20
-0.13744675
 10
45.84683256
 20
-0.14102798
 10
45.85913489
 20
-0.14102798
 10
45.87143721
 20
-0.14102798
 10
45.88373953
 20
-0.14102798
 10
45.89604186
 20
-0.14102798
 10
45.90834418
 20
-0.14102798
 10
45.92064651
 20
-0.14102798
 10
45.93294883
 20
-0.14102798
 10
45.94525116
 20
-0.14102798
 10
45.95755348
 20
-0.14102798
 10
45.9698558
 20
-0.14102798
 10
45.98215812
 20
-0.14102798
 10
45.99446045
 20
-0.14102798
 10
46.00676277
 20
-0.14102798
 10
46.0190651
 20
-0.14102798
 10
46.03136742
 20
-0.14102798
 10
46.04366975
 20
-0.14102798
 10
46.05597207
 20
-0.14102798
 10
46.06827439
 20
-0.14102798
 10
46.08057671
 20
-0.14102798
 10
46.09287904
 20
-0.14102798
 10
46.10518137
 20
-0.14102798
 10
46.11748369
 20
-0.14102798
 10
46.12978601
 20
-0.14102798
 10
46.14208834
 20
-0.14102798
 10
46.15439066
 20
-0.14102798
 10
46.16669298
 20
-0.14102798
 10
46.17899531
 20
-0.14102798
 10
46.19129763
 20
-0.14102798
 10
46.20359996
 20
-0.14102798
 10
46.21590228
 20
-0.14102798
 10
46.2282046
 20
-0.14102798
 10
46.24050693
 20
-0.14102798
 10
46.25280925
 20
-0.14102798
 10
46.26511157
 20
-0.14102798
 10
46.2774139
 20
-0.14102798
 10
46.28971622
 20
-0.14102798
 10
46.30201855
 20
-0.14102798
 10
46.31432087
 20
-0.14102798
 10
46.32662319
 20
-0.14102798
 10
46.338925520000004
 20
-0.14102798
 10
46.35122784
 20
-0.14102798
 10
46.36353016
 20
-0.14102798
 10
46.37583249
 20
-0.14102798
 10
46.38813481
 20
-0.14102798
  0
TEXT
  5
40
330
17
100
AcDbEntity
  8
STATION_LABEL
100
AcDbText
 10
45.0
 20
0.0
 30
0.0
 40
1.0
  1
Station 9
 11
45.0
 21
0.0
 31
0.0
100
AcDbText
  0
LWPOLYLINE
  5
41
330
17
100
AcDbEntity
  8
GENERATED_PROFILE
100
AcDbPolyline
 90
256
 70
0
 10
48.54264502
 20
-0.16617898
 10
48.5557426
 20
-0.16617898
 10
48.56884018
 20
-0.16617898
 10
48.58193776
 20
-0.16617898
 10
48.59503533
 20
-0.16617898
 10
48.60813291
 20
-0.16617898
 10
48.62123049
 20
-0.16617898
 10
48.63432806
 20
-0.16617898
 10
48.64742564
 20
-0.16617898
 10
48.66052322
 20
-0.16617898
 10
48.6736208
 20
-0.16617898
 10
48.68671838
 20
-0.16617898
 10
48.69981595
 20
-0.16617898
 10
48.71291353
 20
-0.16617898
 10
48.72601111
 20
-0.16617898
 10
48.73910868
 20
-0.16617898
 10
48.75220626
 20
-0.16617898
 10
48.76530384
 20
-0.16617898
 10
48.77840142
 20
-0.16617898
 10
48.791499
 20
-0.16617898
 10
48.80459657
 20
-0.16617898
 10
48.81769415
 20
-0.16617898
 10
48.83079173
 20
-0.16617898
 10
48.8438893
 20
-0.16617898
 10
48.85698689
 20
-0.16617898
 10
48.87008446
 20
-0.16617898
 10
48.88318204
 20
-0.16617898
 10
48.89627962
 20
-0.16617898
 10
48.90937719
 20
-0.16617898
 10
48.92247477
 20
-0.16617898
 10
48.93557235
 20
-0.16617898
 10
48.94866993
 20
-0.16617898
 10
48.96176751
 20
-0.16617898
 10
48.97486508
 20
-0.16617898
 10
48.98796266
 20
-0.16617898
 10
49.00106024
 20
-0.16617898
 10
49.01415781
 20
-0.16617898
 10
49.02725539
 20
-0.16617898
 10
49.04035297
 20
-0.16617898
 10
49.05345055
 20
-0.16617898
 10
49.06654813
 20
-0.16617898
 10
49.0796457
 20
-0.16617898
 10
49.09274328
 20
-0.16617898
 10
49.10584086
 20
-0.16617898
 10
49.11893843
 20
-0.16617898
 10
49.12925342
 20
-0.16195907
 10
49.13608607
 20
-0.15245806
 10
49.142918710000004
 20
-0.14295705
 10
49.14975136
 20
-0.13345604
 10
49.15658401
 20
-0.12395503
 10
49.16341666
 20
-0.11445401
 10
49.1702493
 20
-0.104953
 10
49.17708195
 20
-0.09545199
 10
49.1839146
 20
-0.08595098
 10
49.19074724
 20
-0.07644996
 10
49.19757989
 20
-0.06694896
 10
49.20441253
 20
-0.05744794
 10
49.21124518
 20
-0.04794693
 10
49.21807783
 20
-0.03844592
 10
49.22491048
 20
-0.0289449
 10
49.23174312
 20
-0.01944389
 10
49.23857577
 20
-0.00994288
 10
49.24540841
 20
-0.00044187
 10
49.25224106
 20
0.00905914
 10
49.25907371
 20
0.01856016
 10
49.26590636
 20
0.02806117
 10
49.272739
 20
0.03756218
 10
49.27957165
 20
0.04706319
 10
49.28640429
 20
0.05656421
 10
49.29323694
 20
0.06606521
 10
49.30006959
 20
0.07556623
 10
49.30690224
 20
0.08506724
 10
49.31373488
 20
0.09456825
 10
49.32056753
 20
0.10406927
 10
49.32740017
 20
0.11357027
 10
49.33423282
 20
0.12307129
 10
49.34106547
 20
0.1325723
 10
49.347898119999996
 20
0.14207331
 10
49.35473076
 20
0.15157433
 10
49.36476749
 20
0.15621622
 10
49.37786506
 20
0.15621622
 10
49.39096265
 20
0.15621622
 10
49.40406022
 20
0.15621622
 10
49.4171578
 20
0.15621622
 10
49.43025538
 20
0.15621622
 10
49.44335295
 20
0.15621622
 10
49.45645053
 20
0.15621622
 10
49.46954811
 20
0.15621622
 10
49.48264569
 20
0.15621622
 10
49.49574327
 20
0.15621622
 10
49.50884084
 20
0.15621622
 10
49.52193842
 20
0.15621622
 10
49.535036
 20
0.15621622
 10
49.54813357
 20
0.15621622
 10
49.56123115
 20
0.15621622
 10
49.57432873
 20
0.15621622
 10
49.58742631
 20
0.15621622
 10
49.60052389
 20
0.15621622
 10
49.61362146
 20
0.15621622
 10
49.62671904
 20
0.15621622
 10
49.63981662
 20
0.15621622
 10
49.65291419
 20
0.15621622
 10
49.66601178
 20
0.15621622
 10
49.67910935
 20
0.15621622
 10
49.69220693
 20
0.15621622
 10
49.70530451
 20
0.15621622
 10
49.71840208
 20
0.15621622
 10
49.73149966
 20
0.15621622
 10
49.74459724
 20
0.15621622
 10
49.75769481
 20
0.15621622
 10
49.7707924
 20
0.15621622
 10
49.78388997
 20
0.15621622
 10
49.79698755
 20
0.15621622
 10
49.81008513
 20
0.15621622
 10
49.8231827
 20
0.15621622
 10
49.83628028
 20
0.15621622
 10
49.84937786
 20
0.15621622
 10
49.86247544
 20
0.15621622
 10
49.87557302
 20
0.15621622
 10
49.88867059
 20
0.15621622
 10
49.90176817
 20
0.15621622
 10
49.91486575
 20
0.15621622
 10
49.92796332
 20
0.15621622
 10
49.9410609
 20
0.15621622
 10
49.95415848
 20
0.15621622
 10
49.96725606
 20
0.15621622
 10
49.98035364
 20
0.15621622
 10
49.99345121
 20
0.15621622
 10
50.00654879
 20
0.15621622
 10
50.01964636
 20
0.15621622
 10
50.03274394
 20
0.15621622
 10
50.04584152
 20
0.15621622
 10
50.0589391
 20
0.15621622
 10
50.07203668
 20
0.15621622
 10
50.08513425
 20
0.15621622
 10
50.09823183
 20
0.15621622
 10
50.11132941
 20
0.15621622
 10
50.12442698
 20
0.15621622
 10
50.13752456
 20
0.15621622
 10
50.15062214
 20
0.15621622
 10
50.16371972
 20
0.15621622
 10
50.1768173
 20
0.15621622
 10
50.18991487
 20
0.15621622
 10
50.20301245
 20
0.15621622
 10
50.21611003
 20
0.15621622
 10
50.2292076
 20
0.15621622
 10
50.24230519
 20
0.15621622
 10
50.25540276
 20
0.15621622
 10
50.26850034
 20
0.15621622
 10
50.28159792
 20
0.15621622
 10
50.29469549
 20
0.15621622
 10
50.30779307
 20
0.15621622
 10
50.32089065
 20
0.15621622
 10
50.33398822
 20
0.15621622
 10
50.34708581
 20
0.15621622
 10
50.36018338
 20
0.15621622
 10
50.37328096
 20
0.15621622
 10
50.38637854
 20
0.15621622
 10
50.39947611
 20
0.15621622
 10
50.41257369
 20
0.15621622
 10
50.42567127
 20
0.15621622
 10
50.43876885
 20
0.15621622
 10
50.45186643
 20
0.15621622
 10
50.464964
 20
0.15621622
 10
50.47806158
 20
0.15621622
 10
50.49115916
 20
0.15621622
 10
50.50425673
 20
0.15621622
 10
50.51735431
 20
0.15621622
 10
50.53045189
 20
0.15621622
 10
50.54354947
 20
0.15621622
 10
50.55664705
 20
0.15621622
 10
50.56974462
 20
0.15621622
 10
50.5828422
 20
0.15621622
 10
50.59593978
 20
0.15621622
 10
50.60903735
 20
0.15621622
 10
50.62213494
 20
0.15621622
 10
50.63523251
 20
0.15621622
 10
50.64526924
 20
0.15157433
 10
50.652101880000004
 20
0.14207331
 10
50.65893453
 20
0.1325723
 10
50.66576718
 20
0.12307129
 10
50.67259983
 20
0.11357027
 10
50.67943247
 20
0.10406927
 10
50.68626512
 20
0.09456825
 10
50.69309776
 20
0.08506724
 10
50.69993041
 20
0.07556623
 10
50.70676306
 20
0.06606521
 10
50.71359571
 20
0.05656421
 10
50.72042835
 20
0.04706319
 10
50.727261
 20
0.03756218
 10
50.73409364
 20
0.02806117
 10
50.74092629
 20
0.01856016
 10
50.74775894
 20
0.00905914
 10
50.75459159
 20
-0.00044187
 10
50.76142423
 20
-0.00994288
 10
50.76825688
 20
-0.01944389
 10
50.77508952
 20
-0.0289449
 10
50.78192217
 20
-0.03844592
 10
50.78875482
 20
-0.04794693
 10
50.79558747
 20
-0.05744794
 10
50.80242011
 20
-0.06694896
 10
50.80925276
 20
-0.07644996
 10
50.8160854
 20
-0.08595098
 10
50.82291805
 20
-0.09545199
 10
50.8297507
 20
-0.104953
 10
50.83658334
 20
-0.11445401
 10
50.84341599
 20
-0.12395503
 10
50.85024864
 20
-0.13345604
 10
50.857081289999996
 20
-0.14295705
 10
50.86391393
 20
-0.15245806
 10
50.87074658
 20
-0.16195907
 10
50.88106157
 20
-0.16617898
 10
50.89415914
 20
-0.16617898
 10
50.90725672
 20
-0.16617898
 10
50.9203543
 20
-0.16617898
 10
50.93345187
 20
-0.16617898
 10
50.94654945
 20
-0.16617898
 10
50.95964703
 20
-0.16617898
 10
50.97274461
 20
-0.16617898
 10
50.98584219
 20
-0.16617898
 10
50.99893976
 20
-0.16617898
 10
51.01203734
 20
-0.16617898
 10
51.02513492
 20
-0.16617898
 10
51.03823249
 20
-0.16617898
 10
51.05133007
 20
-0.16617898
 10
51.06442765
 20
-0.16617898
 10
51.07752523
 20
-0.16617898
 10
51.09062281
 20
-0.16617898
 10
51.10372038
 20
-0.16617898
 10
51.11681796
 20
-0.16617898
 10
51.12991554
 20
-0.16617898
 10
51.14301311
 20
-0.16617898
 10
51.1561107
 20
-0.16617898
 10
51.16920827
 20
-0.16617898
 10
51.18230585
 20
-0.16617898
 10
51.19540343
 20
-0.16617898
 10
51.208501
 20
-0.16617898
 10
51.22159858
 20
-0.16617898
 10
51.23469616
 20
-0.16617898
 10
51.24779374
 20
-0.16617898
 10
51.26089132
 20
-0.16617898
 10
51.27398889
 20
-0.16617898
 10
51.28708647
 20
-0.16617898
 10
51.30018405
 20
-0.16617898
 10
51.31328162
 20
-0.16617898
 10
51.3263792
 20
-0.16617898
 10
51.33947678
 20
-0.16617898
 10
51.35257436
 20
-0.16617898
 10
51.36567194
 20
-0.16617898
 10
51.37876951
 20
-0.16617898
 10
51.39186709
 20
-0.16617898
 10
51.40496467
 20
-0.16617898
 10
51.41806224
 20
-0.16617898
 10
51.43115982
 20
-0.16617898
 10
51.4442574
 20
-0.16617898
 10
51.45735498
 20
-0.16617898
  0
TEXT
  5
42
330
17
100
AcDbEntity
  8
STATION_LABEL
100
AcDbText
 10
50.0
 20
0.0
 30
0.0
 40
1.0
  1
Station 10
 11
50.0
 21
0.0
 31
0.0
100
AcDbText
  0
LWPOLYLINE
  5
43
330
17
100
AcDbEntity
  8
GENERATED_PROFILE
100
AcDbPolyline
 90
256
 70
0
 10
53.4771891
 20
-0.18996225
 10
53.49103868
 20
-0.18996225
 10
53.50488827
 20
-0.18996225
 10
53.51873785
 20
-0.18996225
 10
53.53258744
 20
-0.18996225
 10
53.54643702
 20
-0.18996225
 10
53.56028661
 20
-0.18996225
 10
53.57413619
 20
-0.18996225
 10
53.58798577
 20
-0.18996225
 10
53.60183536
 20
-0.18996225
 10
53.61568495
 20
-0.18996225
 10
53.62953453
 20
-0.18996225
 10
53.64338412
 20
-0.18996225
 10
53.6572337
 20
-0.18996225
 10
53.67108328
 20
-0.18996225
 10
53.68493287
 20
-0.18996225
 10
53.69878245
 20
-0.18996225
 10
53.71263204
 20
-0.18996225
 10
53.72648163
 20
-0.18996225
 10
53.74033121
 20
-0.18996225
 10
53.75418079
 20
-0.18996225
 10
53.76803038
 20
-0.18996225
 10
53.78187996
 20
-0.18996225
 10
53.795729539999996
 20
-0.18996225
 10
53.80957914
 20
-0.18996225
 10
53.82342872
 20
-0.18996225
 10
53.8372783
 20
-0.18996225
 10
53.85112789
 20
-0.18996225
 10
53.86497747
 20
-0.18996225
 10
53.87882705
 20
-0.18996225
 10
53.89267664
 20
-0.18996225
 10
53.90652623
 20
-0.18996225
 10
53.92037581
 20
-0.18996225
 10
53.9342254
 20
-0.18996225
 10
53.94807498
 20
-0.18996225
 10
53.96192456
 20
-0.18996225
 10
53.97577415
 20
-0.18996225
 10
53.98962373
 20
-0.18996225
 10
54.00347332
 20
-0.18996225
 10
54.01732291
 20
-0.18996225
 10
54.03117249
 20
-0.18996225
 10
54.04502207
 20
-0.18996225
 10
54.05887166
 20
-0.18996225
 10
54.07272124
 20
-0.18996225
 10
54.08657082
 20
-0.18996225
 10
54.09723958
 20
-0.1851384
 10
54.10392761
 20
-0.17427762
 10
54.11061564
 20
-0.16341684
 10
54.11730366
 20
-0.15255606
 10
54.12399169
 20
-0.14169527
 10
54.13067972
 20
-0.13083449
 10
54.13736774
 20
-0.11997371
 10
54.14405577
 20
-0.10911293
 10
54.1507438
 20
-0.09825215
 10
54.15743183
 20
-0.08739136
 10
54.16411985
 20
-0.07653059
 10
54.17080787
 20
-0.0656698
 10
54.1774959
 20
-0.05480901
 10
54.18418393
 20
-0.04394824
 10
54.19087196
 20
-0.03308745
 10
54.19755999
 20
-0.02222667
 10
54.20424802
 20
-0.01136589
 10
54.21093604
 20
-0.00050511
 10
54.21762406
 20
0.01035567
 10
54.22431209
 20
0.02121646
 10
54.23100012
 20
0.03207724
 10
54.23768815
 20
0.04293802
 10
54.24437617
 20
0.0537988
 10
54.2510642
 20
0.06465959
 10
54.25775223
 20
0.07552036
 10
54.26444025
 20
0.08638115
 10
54.27112828
 20
0.09724193
 10
54.27781631
 20
0.10810271
 10
54.28450433
 20
0.1189635
 10
54.29119236
 20
0.12982427
 10
54.29788039
 20
0.14068506
 10
54.30456842
 20
0.15154584
 10
54.31125644
 20
0.16240662
 10
54.31794446
 20
0.17326741
 10
54.32829514
 20
0.17857364
 10
54.34214472
 20
0.17857364
 10
54.35599431
 20
0.17857364
 10
54.3698439
 20
0.17857364
 10
54.38369348
 20
0.17857364
 10
54.39754306
 20
0.17857364
 10
54.41139265
 20
0.17857364
 10
54.42524223
 20
0.17857364
 10
54.43909181
 20
0.17857364
 10
54.45294141
 20
0.17857364
 10
54.46679099
 20
0.17857364
 10
54.48064057
 20
0.17857364
 10
54.49449016
 20
0.17857364
 10
54.50833974
 20
0.17857364
 10
54.52218932
 20
0.17857364
 10
54.53603891
 20
0.17857364
 10
54.5498885
 20
0.17857364
 10
54.56373808
 20
0.17857364
 10
54.57758767
 20
0.17857364
 10
54.59143725
 20
0.17857364
 10
54.60528683
 20
0.17857364
 10
54.61913642
 20
0.17857364
 10
54.632986
 20
0.17857364
 10
54.64683559
 20
0.17857364
 10
54.66068518
 20
0.17857364
 10
54.67453476
 20
0.17857364
 10
54.68838434
 20
0.17857364
 10
54.70223393
 20
0.17857364
 10
54.71608351
 20
0.17857364
 10
54.72993309
 20
0.17857364
 10
54.74378268
 20
0.17857364
 10
54.75763227
 20
0.17857364
 10
54.77148185
 20
0.17857364
 10
54.78533144
 20
0.17857364
 10
54.79918102
 20
0.17857364
 10
54.8130306
 20
0.17857364
 10
54.82688019
 20
0.17857364
 10
54.84072977
 20
0.17857364
 10
54.85457936
 20
0.17857364
 10
54.86842895
 20
0.17857364
 10
54.88227853
 20
0.17857364
 10
54.89612811
 20
0.17857364
 10
54.9099777
 20
0.17857364
 10
54.92382728
 20
0.17857364
 10
54.93767687
 20
0.17857364
 10
54.95152646
 20
0.17857364
 10
54.96537604
 20
0.17857364
 10
54.97922562
 20
0.17857364
 10
54.99307521
 20
0.17857364
 10
55.00692479
 20
0.17857364
 10
55.02077438
 20
0.17857364
 10
55.03462396
 20
0.17857364
 10
55.04847354
 20
0.17857364
 10
55.06232313
 20
0.17857364
 10
55.07617272
 20
0.17857364
 10
55.0900223
 20
0.17857364
 10
55.10387189
 20
0.17857364
 10
55.11772147
 20
0.17857364
 10
55.13157105
 20
0.17857364
 10
55.14542064
 20
0.17857364
 10
55.15927023
 20
0.17857364
 10
55.17311981
 20
0.17857364
 10
55.1869694
 20
0.17857364
 10
55.20081898
 20
0.17857364
 10
55.21466856
 20
0.17857364
 10
55.22851815
 20
0.17857364
 10
55.24236773
 20
0.17857364
 10
55.25621732
 20
0.17857364
 10
55.27006691
 20
0.17857364
 10
55.28391649
 20
0.17857364
 10
55.29776607
 20
0.17857364
 10
55.31161566
 20
0.17857364
 10
55.32546524
 20
0.17857364
 10
55.33931482
 20
0.17857364
 10
55.35316441
 20
0.17857364
 10
55.367014
 20
0.17857364
 10
55.38086358
 20
0.17857364
 10
55.39471317
 20
0.17857364
 10
55.40856275
 20
0.17857364
 10
55.42241233
 20
0.17857364
 10
55.43626192
 20
0.17857364
 10
55.4501115
 20
0.17857364
 10
55.46396109
 20
0.17857364
 10
55.47781068
 20
0.17857364
 10
55.49166026
 20
0.17857364
 10
55.50550984
 20
0.17857364
 10
55.51935943
 20
0.17857364
 10
55.53320901
 20
0.17857364
 10
55.54705859
 20
0.17857364
 10
55.56090819
 20
0.17857364
 10
55.57475777
 20
0.17857364
 10
55.58860735
 20
0.17857364
 10
55.60245694
 20
0.17857364
 10
55.61630652
 20
0.17857364
 10
55.6301561
 20
0.17857364
 10
55.64400569
 20
0.17857364
 10
55.65785528
 20
0.17857364
 10
55.67170486
 20
0.17857364
 10
55.68205554
 20
0.17326741
 10
55.68874356
 20
0.16240662
 10
55.69543158
 20
0.15154584
 10
55.70211961
 20
0.14068506
 10
55.70880764
 20
0.12982427
 10
55.71549567
 20
0.1189635
 10
55.72218369
 20
0.10810271
 10
55.72887172
 20
0.09724193
 10
55.73555975
 20
0.08638115
 10
55.74224777
 20
0.07552036
 10
55.7489358
 20
0.06465959
 10
55.75562383
 20
0.0537988
 10
55.76231185
 20
0.04293802
 10
55.76899988
 20
0.03207724
 10
55.77568791
 20
0.02121646
 10
55.78237594
 20
0.01035567
 10
55.78906396
 20
-0.00050511
 10
55.79575198
 20
-0.01136589
 10
55.80244001
 20
-0.02222667
 10
55.80912804
 20
-0.03308745
 10
55.81581607
 20
-0.04394824
 10
55.8225041
 20
-0.05480901
 10
55.82919213
 20
-0.0656698
 10
55.83588015
 20
-0.07653059
 10
55.84256817
 20
-0.08739136
 10
55.8492562
 20
-0.09825215
 10
55.85594423
 20
-0.10911293
 10
55.86263226
 20
-0.11997371
 10
55.86932028
 20
-0.13083449
 10
55.87600831
 20
-0.14169527
 10
55.88269634
 20
-0.15255606
 10
55.88938436
 20
-0.16341684
 10
55.89607239
 20
-0.17427762
 10
55.90276042
 20
-0.1851384
 10
55.91342918
 20
-0.18996225
 10
55.92727876
 20
-0.18996225
 10
55.94112834
 20
-0.18996225
 10
55.95497793
 20
-0.18996225
 10
55.96882751
 20
-0.18996225
 10
55.98267709
 20
-0.18996225
 10
55.99652668
 20
-0.18996225
 10
56.01037627
 20
-0.18996225
 10
56.02422585
 20
-0.18996225
 10
56.03807544
 20
-0.18996225
 10
56.05192502
 20
-0.18996225
 10
56.0657746
 20
-0.18996225
 10
56.07962419
 20
-0.18996225
 10
56.09347377
 20
-0.18996225
 10
56.10732336
 20
-0.18996225
 10
56.12117295
 20
-0.18996225
 10
56.13502253
 20
-0.18996225
 10
56.14887211
 20
-0.18996225
 10
56.1627217
 20
-0.18996225
 10
56.17657128
 20
-0.18996225
 10
56.19042086
 20
-0.18996225
 10
56.204270460000004
 20
-0.18996225
 10
56.21812004
 20
-0.18996225
 10
56.23196962
 20
-0.18996225
 10
56.24581921
 20
-0.18996225
 10
56.25966879
 20
-0.18996225
 10
56.27351837
 20
-0.18996225
 10
56.28736796
 20
-0.18996225
 10
56.30121755
 20
-0.18996225
 10
56.31506713
 20
-0.18996225
 10
56.32891672
 20
-0.18996225
 10
56.3427663
 20
-0.18996225
 10
56.35661588
 20
-0.18996225
 10
56.37046547
 20
-0.18996225
 10
56.38431505
 20
-0.18996225
 10
56.39816464
 20
-0.18996225
 10
56.41201423
 20
-0.18996225
 10
56.42586381
 20
-0.18996225
 10
56.43971339
 20
-0.18996225
 10
56.45356298
 20
-0.18996225
 10
56.46741256
 20
-0.18996225
 10
56.48126215
 20
-0.18996225
 10
56.49511173
 20
-0.18996225
 10
56.50896132
 20
-0.18996225
 10
56.5228109
 20
-0.18996225
  0
TEXT
  5
44
330
17
100
AcDbEntity
  8
STATION_LABEL
100
AcDbText
 10
55.0
 20
0.0
 30
0.0
 40
1.0
  1
Station 11
 11
55.0
 21
0.0
 31
0.0
100
AcDbText
  0
LWPOLYLINE
  5
45
330
17
100
AcDbEntity
  8
GENERATED_PROFILE
100
AcDbPolyline
 90
256
 70
0
 10
58.4180069
 20
-0.21146598
 10
58.43253642
 20
-0.21146598
 10
58.44706594
 20
-0.21146598
 10
58.46159545
 20
-0.21146598
 10
58.47612496
 20
-0.21146598
 10
58.49065448
 20
-0.21146598
 10
58.50518399
 20
-0.21146598
 10
58.5197135
 20
-0.21146598
 10
58.53424302
 20
-0.21146598
 10
58.54877254
 20
-0.21146598
 10
58.56330205
 20
-0.21146598
 10
58.57783157
 20
-0.21146598
 10
58.59236108
 20
-0.21146598
 10
58.60689059
 20
-0.21146598
 10
58.62142011
 20
-0.21146598
 10
58.63594962
 20
-0.21146598
 10
58.65047913
 20
-0.21146598
 10
58.66500866
 20
-0.21146598
 10
58.67953817
 20
-0.21146598
 10
58.69406768
 20
-0.21146598
 10
58.7085972
 20
-0.21146598
 10
58.72312671
 20
-0.21146598
 10
58.73765622
 20
-0.21146598
 10
58.75218574
 20
-0.21146598
 10
58.76671526
 20
-0.21146598
 10
58.78124477
 20
-0.21146598
 10
58.79577429
 20
-0.21146598
 10
58.8103038
 20
-0.21146598
 10
58.82483331
 20
-0.21146598
 10
58.83936283
 20
-0.21146598
 10
58.85389234
 20
-0.21146598
 10
58.86842186
 20
-0.21146598
 10
58.88295137
 20
-0.21146598
 10
58.89748089
 20
-0.21146598
 10
58.9120104
 20
-0.21146598
 10
58.92653991
 20
-0.21146598
 10
58.94106943
 20
-0.21146598
 10
58.95559894
 20
-0.21146598
 10
58.97012846
 20
-0.21146598
 10
58.98465798
 20
-0.21146598
 10
58.99918749
 20
-0.21146598
 10
59.013717
 20
-0.21146598
 10
59.02824652
 20
-0.21146598
 10
59.04277603
 20
-0.21146598
 10
59.05730554
 20
-0.21146598
 10
59.06829416
 20
-0.20609607
 10
59.07485143
 20
-0.19400585
 10
59.0814087
 20
-0.18191562
 10
59.08796597
 20
-0.16982541
 10
59.09452324
 20
-0.15773518
 10
59.10108051
 20
-0.14564495
 10
59.10763777
 20
-0.13355474
 10
59.11419504
 20
-0.12146451
 10
59.12075231
 20
-0.10937429
 10
59.12730958
 20
-0.09728407
 10
59.13386685
 20
-0.08519385
 10
59.14042411
 20
-0.07310362
 10
59.14698138
 20
-0.0610134
 10
59.15353865
 20
-0.04892318
 10
59.16009592
 20
-0.03683295
 10
59.16665319
 20
-0.02474273
 10
59.17321046
 20
-0.01265251
 10
59.17976772
 20
-0.00056229
 10
59.18632499
 20
0.01152794
 10
59.19288226
 20
0.02361816
 10
59.19943953
 20
0.03570838
 10
59.2059968
 20
0.04779861
 10
59.21255406
 20
0.05988882
 10
59.21911133
 20
0.07197905
 10
59.2256686
 20
0.08406927
 10
59.23222587
 20
0.09615949
 10
59.23878314
 20
0.10824972
 10
59.24534041
 20
0.12033994
 10
59.25189767
 20
0.13243016
 10
59.25845494
 20
0.14452038
 10
59.26501221
 20
0.15661061
 10
59.27156948
 20
0.16870083
 10
59.27812675
 20
0.18079105
 10
59.28468401
 20
0.19288128
 10
59.29531854
 20
0.19878818
 10
59.30984805
 20
0.19878818
 10
59.32437757
 20
0.19878818
 10
59.33890709
 20
0.19878818
 10
59.3534366
 20
0.19878818
 10
59.36796611
 20
0.19878818
 10
59.38249563
 20
0.19878818
 10
59.39702514
 20
0.19878818
 10
59.41155465
 20
0.19878818
 10
59.42608418
 20
0.19878818
 10
59.44061369
 20
0.19878818
 10
59.4551432
 20
0.19878818
 10
59.46967272
 20
0.19878818
 10
59.48420223
 20
0.19878818
 10
59.49873174
 20
0.19878818
 10
59.51326126
 20
0.19878818
 10
59.52779078
 20
0.19878818
 10
59.54232029
 20
0.19878818
 10
59.55684981
 20
0.19878818
 10
59.57137932
 20
0.19878818
 10
59.58590883
 20
0.19878818
 10
59.60043835
 20
0.19878818
 10
59.61496786
 20
0.19878818
 10
59.62949738
 20
0.19878818
 10
59.6440269
 20
0.19878818
 10
59.65855641
 20
0.19878818
 10
59.67308592
 20
0.19878818
 10
59.68761544
 20
0.19878818
 10
59.70214495
 20
0.19878818
 10
59.71667446
 20
0.19878818
 10
59.73120398
 20
0.19878818
 10
59.7457335
 20
0.19878818
 10
59.76026301
 20
0.19878818
 10
59.77479252
 20
0.19878818
 10
59.78932204
 20
0.19878818
 10
59.80385155
 20
0.19878818
 10
59.81838107
 20
0.19878818
 10
59.83291058
 20
0.19878818
 10
59.8474401
 20
0.19878818
 10
59.86196961
 20
0.19878818
 10
59.87649913
 20
0.19878818
 10
59.89102864
 20
0.19878818
 10
59.90555815
 20
0.19878818
 10
59.92008767
 20
0.19878818
 10
59.93461718
 20
0.19878818
 10
59.9491467
 20
0.19878818
 10
59.96367622
 20
0.19878818
 10
59.97820573
 20
0.19878818
 10
59.99273524
 20
0.19878818
 10
60.00726476
 20
0.19878818
 10
60.02179427
 20
0.19878818
 10
60.03632378
 20
0.19878818
 10
60.0508533
 20
0.19878818
 10
60.06538282
 20
0.19878818
 10
60.07991233
 20
0.19878818
 10
60.09444185
 20
0.19878818
 10
60.10897136
 20
0.19878818
 10
60.12350087
 20
0.19878818
 10
60.13803039
 20
0.19878818
 10
60.1525599
 20
0.19878818
 10
60.16708942
 20
0.19878818
 10
60.18161893
 20
0.19878818
 10
60.19614845
 20
0.19878818
 10
60.21067796
 20
0.19878818
 10
60.22520748
 20
0.19878818
 10
60.23973699
 20
0.19878818
 10
60.2542665
 20
0.19878818
 10
60.26879602
 20
0.19878818
 10
60.28332554
 20
0.19878818
 10
60.29785505
 20
0.19878818
 10
60.31238456
 20
0.19878818
 10
60.32691408
 20
0.19878818
 10
60.34144359
 20
0.19878818
 10
60.3559731
 20
0.19878818
 10
60.37050262
 20
0.19878818
 10
60.38503214
 20
0.19878818
 10
60.39956165
 20
0.19878818
 10
60.41409117
 20
0.19878818
 10
60.42862068
 20
0.19878818
 10
60.44315019
 20
0.19878818
 10
60.45767971
 20
0.19878818
 10
60.47220922
 20
0.19878818
 10
60.48673874
 20
0.19878818
 10
60.50126826
 20
0.19878818
 10
60.51579777
 20
0.19878818
 10
60.53032728
 20
0.19878818
 10
60.5448568
 20
0.19878818
 10
60.55938631
 20
0.19878818
 10
60.57391582
 20
0.19878818
 10
60.58844535
 20
0.19878818
 10
60.60297486
 20
0.19878818
 10
60.61750437
 20
0.19878818
 10
60.63203389
 20
0.19878818
 10
60.6465634
 20
0.19878818
 10
60.66109291
 20
0.19878818
 10
60.67562243
 20
0.19878818
 10
60.69015195
 20
0.19878818
 10
60.70468146
 20
0.19878818
 10
60.71531599
 20
0.19288128
 10
60.72187325
 20
0.18079105
 10
60.72843052
 20
0.16870083
 10
60.73498779
 20
0.15661061
 10
60.74154506
 20
0.14452038
 10
60.74810233
 20
0.13243016
 10
60.75465959
 20
0.12033994
 10
60.76121686
 20
0.10824972
 10
60.76777413
 20
0.09615949
 10
60.7743314
 20
0.08406927
 10
60.78088867
 20
0.07197905
 10
60.78744594
 20
0.05988882
 10
60.7940032
 20
0.04779861
 10
60.80056047
 20
0.03570838
 10
60.80711774
 20
0.02361816
 10
60.81367501
 20
0.01152794
 10
60.82023228
 20
-0.00056229
 10
60.82678954
 20
-0.01265251
 10
60.83334681
 20
-0.02474273
 10
60.83990408
 20
-0.03683295
 10
60.84646135
 20
-0.04892318
 10
60.85301862
 20
-0.0610134
 10
60.85957589
 20
-0.07310362
 10
60.86613315
 20
-0.08519385
 10
60.87269042
 20
-0.09728407
 10
60.87924769
 20
-0.10937429
 10
60.88580496
 20
-0.12146451
 10
60.89236223
 20
-0.13355474
 10
60.89891949
 20
-0.14564495
 10
60.90547676
 20
-0.15773518
 10
60.91203403
 20
-0.16982541
 10
60.9185913
 20
-0.18191562
 10
60.92514857
 20
-0.19400585
 10
60.93170584
 20
-0.20609607
 10
60.94269446
 20
-0.21146598
 10
60.95722397
 20
-0.21146598
 10
60.97175348
 20
-0.21146598
 10
60.986283
 20
-0.21146598
 10
61.00081251
 20
-0.21146598
 10
61.01534202
 20
-0.21146598
 10
61.02987154
 20
-0.21146598
 10
61.04440106
 20
-0.21146598
 10
61.05893057
 20
-0.21146598
 10
61.07346009
 20
-0.21146598
 10
61.0879896
 20
-0.21146598
 10
61.10251911
 20
-0.21146598
 10
61.11704863
 20
-0.21146598
 10
61.13157814
 20
-0.21146598
 10
61.14610766
 20
-0.21146598
 10
61.16063717
 20
-0.21146598
 10
61.17516669
 20
-0.21146598
 10
61.1896962
 20
-0.21146598
 10
61.20422571
 20
-0.21146598
 10
61.21875523
 20
-0.21146598
 10
61.23328474
 20
-0.21146598
 10
61.24781426
 20
-0.21146598
 10
61.26234378
 20
-0.21146598
 10
61.27687329
 20
-0.21146598
 10
61.2914028
 20
-0.21146598
 10
61.30593232
 20
-0.21146598
 10
61.32046183
 20
-0.21146598
 10
61.33499134
 20
-0.21146598
 10
61.34952087
 20
-0.21146598
 10
61.36405038
 20
-0.21146598
 10
61.37857989
 20
-0.21146598
 10
61.39310941
 20
-0.21146598
 10
61.40763892
 20
-0.21146598
 10
61.42216843
 20
-0.21146598
 10
61.43669795
 20
-0.21146598
 10
61.45122746
 20
-0.21146598
 10
61.46575698
 20
-0.21146598
 10
61.4802865
 20
-0.21146598
 10
61.49481601
 20
-0.21146598
 10
61.50934552
 20
-0.21146598
 10
61.52387504
 20
-0.21146598
 10
61.53840455
 20
-0.21146598
 10
61.55293406
 20
-0.21146598
 10
61.56746358
 20
-0.21146598
 10
61.5819931
 20
-0.21146598
  0
TEXT
  5
46
330
17
100
AcDbEntity
  8
STATION_LABEL
100
AcDbText
 10
60.0
 20
0.0
 30
0.0
 40
1.0
  1
Station 12
 11
60.0
 21
0.0
 31
0.0
100
AcDbText
  0
LWPOLYLINE
  5
47
330
17
100
AcDbEntity
  8
GENERATED_PROFILE
100
AcDbPolyline
 90
256
 70
0
 10
63.36760793
 20
-0.22977834
 10
63.38271647
 20
-0.22977834
 10
63.39782501
 20
-0.22977834
 10
63.41293354
 20
-0.22977834
 10
63.42804208
 20
-0.22977834
 10
63.443150610000004
 20
-0.22977834
 10
63.45825915
 20
-0.22977834
 10
63.47336768
 20
-0.22977834
 10
63.48847622
 20
-0.22977834
 10
63.50358476
 20
-0.22977834
 10
63.5186933
 20
-0.22977834
 10
63.53380183
 20
-0.22977834
 10
63.54891037
 20
-0.22977834
 10
63.5640189
 20
-0.22977834
 10
63.57912744
 20
-0.22977834
 10
63.59423597
 20
-0.22977834
 10
63.60934451
 20
-0.22977834
 10
63.62445305
 20
-0.22977834
 10
63.63956159
 20
-0.22977834
 10
63.65467012
 20
-0.22977834
 10
63.66977866
 20
-0.22977834
 10
63.68488719
 20
-0.22977834
 10
63.69999573
 20
-0.22977834
 10
63.71510426
 20
-0.22977834
 10
63.7302128
 20
-0.22977834
 10
63.74532134
 20
-0.22977834
 10
63.76042987
 20
-0.22977834
 10
63.77553841
 20
-0.22977834
 10
63.79064694
 20
-0.22977834
 10
63.80575548
 20
-0.22977834
 10
63.82086401
 20
-0.22977834
 10
63.83597256
 20
-0.22977834
 10
63.85108109
 20
-0.22977834
 10
63.86618963
 20
-0.22977834
 10
63.88129816
 20
-0.22977834
 10
63.8964067
 20
-0.22977834
 10
63.91151523
 20
-0.22977834
 10
63.92662377
 20
-0.22977834
 10
63.9417323
 20
-0.22977834
 10
63.95684085
 20
-0.22977834
 10
63.97194938
 20
-0.22977834
 10
63.98705792
 20
-0.22977834
 10
64.00216645
 20
-0.22977834
 10
64.01727499
 20
-0.22977834
 10
64.03238352
 20
-0.22977834
 10
64.04364452
 20
-0.22394341
 10
64.05009044
 20
-0.21080621
 10
64.05653636
 20
-0.19766901
 10
64.06298228
 20
-0.18453181
 10
64.06942819
 20
-0.1713946
 10
64.07587411
 20
-0.1582574
 10
64.08232002
 20
-0.1451202
 10
64.08876594
 20
-0.131983
 10
64.09521185
 20
-0.1188458
 10
64.10165777
 20
-0.10570859
 10
64.10810369
 20
-0.0925714
 10
64.1145496
 20
-0.07943419
 10
64.12099551
 20
-0.06629698
 10
64.12744143
 20
-0.05315979
 10
64.13388735
 20
-0.04002258
 10
64.14033327
 20
-0.02688538
 10
64.14677918
 20
-0.01374818
 10
64.15322509
 20
-0.00061098
 10
64.15967101
 20
0.01252622
 10
64.16611693
 20
0.02566343
 10
64.17256284
 20
0.03880063
 10
64.17900876
 20
0.05193783
 10
64.18545467
 20
0.06507503
 10
64.19190059
 20
0.07821223
 10
64.1983465
 20
0.09134943
 10
64.20479242
 20
0.10448664
 10
64.21123834
 20
0.11762384
 10
64.21768426
 20
0.13076104
 10
64.22413016
 20
0.14389825
 10
64.23057608
 20
0.15703544
 10
64.237022
 20
0.17017265
 10
64.24346792
 20
0.18330984
 10
64.24991383
 20
0.19644705
 10
64.25635974
 20
0.20958426
 10
64.26723599
 20
0.21600268
 10
64.28234453
 20
0.21600268
 10
64.29745307
 20
0.21600268
 10
64.31256161
 20
0.21600268
 10
64.32767014
 20
0.21600268
 10
64.34277868
 20
0.21600268
 10
64.35788721
 20
0.21600268
 10
64.37299575
 20
0.21600268
 10
64.38810428
 20
0.21600268
 10
64.40321283
 20
0.21600268
 10
64.41832136
 20
0.21600268
 10
64.4334299
 20
0.21600268
 10
64.44853843
 20
0.21600268
 10
64.46364697
 20
0.21600268
 10
64.4787555
 20
0.21600268
 10
64.49386404
 20
0.21600268
 10
64.50897258
 20
0.21600268
 10
64.52408111
 20
0.21600268
 10
64.53918965
 20
0.21600268
 10
64.55429818
 20
0.21600268
 10
64.56940672
 20
0.21600268
 10
64.58451525
 20
0.21600268
 10
64.59962379
 20
0.21600268
 10
64.61473233
 20
0.21600268
 10
64.62984087
 20
0.21600268
 10
64.6449494
 20
0.21600268
 10
64.66005794
 20
0.21600268
 10
64.67516647
 20
0.21600268
 10
64.69027501
 20
0.21600268
 10
64.70538354
 20
0.21600268
 10
64.72049208
 20
0.21600268
 10
64.73560062
 20
0.21600268
 10
64.75070916
 20
0.21600268
 10
64.76581769
 20
0.21600268
 10
64.78092623
 20
0.21600268
 10
64.79603476
 20
0.21600268
 10
64.8111433
 20
0.21600268
 10
64.82625183
 20
0.21600268
 10
64.84136037
 20
0.21600268
 10
64.85646891
 20
0.21600268
 10
64.87157744
 20
0.21600268
 10
64.88668598
 20
0.21600268
 10
64.90179451
 20
0.21600268
 10
64.91690305
 20
0.21600268
 10
64.93201158
 20
0.21600268
 10
64.94712013
 20
0.21600268
 10
64.96222866
 20
0.21600268
 10
64.9773372
 20
0.21600268
 10
64.99244573
 20
0.21600268
 10
65.00755427
 20
0.21600268
 10
65.0226628
 20
0.21600268
 10
65.03777134
 20
0.21600268
 10
65.05287987
 20
0.21600268
 10
65.06798842
 20
0.21600268
 10
65.08309695
 20
0.21600268
 10
65.09820549
 20
0.21600268
 10
65.11331402
 20
0.21600268
 10
65.12842256
 20
0.21600268
 10
65.14353109
 20
0.21600268
 10
65.15863963
 20
0.21600268
 10
65.17374817
 20
0.21600268
 10
65.1888567
 20
0.21600268
 10
65.20396524
 20
0.21600268
 10
65.21907377
 20
0.21600268
 10
65.23418231
 20
0.21600268
 10
65.24929084
 20
0.21600268
 10
65.26439938
 20
0.21600268
 10
65.27950792
 20
0.21600268
 10
65.29461646
 20
0.21600268
 10
65.30972499
 20
0.21600268
 10
65.32483353
 20
0.21600268
 10
65.33994206
 20
0.21600268
 10
65.3550506
 20
0.21600268
 10
65.37015913
 20
0.21600268
 10
65.38526767
 20
0.21600268
 10
65.40037621
 20
0.21600268
 10
65.41548475
 20
0.21600268
 10
65.43059328
 20
0.21600268
 10
65.44570182
 20
0.21600268
 10
65.46081035
 20
0.21600268
 10
65.47591889
 20
0.21600268
 10
65.49102742
 20
0.21600268
 10
65.50613596
 20
0.21600268
 10
65.5212445
 20
0.21600268
 10
65.53635303
 20
0.21600268
 10
65.55146157
 20
0.21600268
 10
65.5665701
 20
0.21600268
 10
65.58167864
 20
0.21600268
 10
65.59678717
 20
0.21600268
 10
65.61189572
 20
0.21600268
 10
65.62700425
 20
0.21600268
 10
65.64211279
 20
0.21600268
 10
65.65722132
 20
0.21600268
 10
65.67232986
 20
0.21600268
 10
65.68743839
 20
0.21600268
 10
65.70254693
 20
0.21600268
 10
65.71765547
 20
0.21600268
 10
65.73276401
 20
0.21600268
 10
65.74364026
 20
0.20958426
 10
65.75008617
 20
0.19644705
 10
65.75653208
 20
0.18330984
 10
65.762978
 20
0.17017265
 10
65.76942392
 20
0.15703544
 10
65.77586984
 20
0.14389825
 10
65.78231574
 20
0.13076104
 10
65.78876166
 20
0.11762384
 10
65.79520758
 20
0.10448664
 10
65.8016535
 20
0.09134943
 10
65.80809941
 20
0.07821223
 10
65.81454533
 20
0.06507503
 10
65.82099124
 20
0.05193783
 10
65.82743716
 20
0.03880063
 10
65.83388307
 20
0.02566343
 10
65.84032899
 20
0.01252622
 10
65.84677491
 20
-0.00061098
 10
65.85322082
 20
-0.01374818
 10
65.85966673
 20
-0.02688538
 10
65.86611265
 20
-0.04002258
 10
65.87255857
 20
-0.05315979
 10
65.87900449
 20
-0.06629698
 10
65.8854504
 20
-0.07943419
 10
65.89189631
 20
-0.0925714
 10
65.89834223
 20
-0.10570859
 10
65.90478815
 20
-0.1188458
 10
65.91123406
 20
-0.131983
 10
65.91767998
 20
-0.1451202
 10
65.92412589
 20
-0.1582574
 10
65.93057181
 20
-0.1713946
 10
65.93701772
 20
-0.18453181
 10
65.94346364
 20
-0.19766901
 10
65.94990956
 20
-0.21080621
 10
65.95635548
 20
-0.22394341
 10
65.96761648
 20
-0.22977834
 10
65.98272501
 20
-0.22977834
 10
65.99783355
 20
-0.22977834
 10
66.01294208
 20
-0.22977834
 10
66.02805062
 20
-0.22977834
 10
66.04315915
 20
-0.22977834
 10
66.0582677
 20
-0.22977834
 10
66.07337623
 20
-0.22977834
 10
66.08848477
 20
-0.22977834
 10
66.1035933
 20
-0.22977834
 10
66.11870184
 20
-0.22977834
 10
66.13381037
 20
-0.22977834
 10
66.14891891
 20
-0.22977834
 10
66.16402744
 20
-0.22977834
 10
66.17913599
 20
-0.22977834
 10
66.19424452
 20
-0.22977834
 10
66.20935306
 20
-0.22977834
 10
66.22446159
 20
-0.22977834
 10
66.23957013
 20
-0.22977834
 10
66.25467866
 20
-0.22977834
 10
66.2697872
 20
-0.22977834
 10
66.28489574
 20
-0.22977834
 10
66.30000427
 20
-0.22977834
 10
66.31511281
 20
-0.22977834
 10
66.33022134
 20
-0.22977834
 10
66.34532988
 20
-0.22977834
 10
66.36043841
 20
-0.22977834
 10
66.37554695
 20
-0.22977834
 10
66.39065549
 20
-0.22977834
 10
66.40576403
 20
-0.22977834
 10
66.42087256
 20
-0.22977834
 10
66.4359811
 20
-0.22977834
 10
66.45108963
 20
-0.22977834
 10
66.46619817
 20
-0.22977834
 10
66.4813067
 20
-0.22977834
 10
66.49641524
 20
-0.22977834
 10
66.51152378
 20
-0.22977834
 10
66.52663232
 20
-0.22977834
 10
66.54174085
 20
-0.22977834
 10
66.55684939
 20
-0.22977834
 10
66.57195792
 20
-0.22977834
 10
66.58706646
 20
-0.22977834
 10
66.60217499
 20
-0.22977834
 10
66.61728353
 20
-0.22977834
 10
66.63239207
 20
-0.22977834
  0
TEXT
  5
48
330
17
100
AcDbEntity
  8
STATION_LABEL
100
AcDbText
 10
65.0
 20
0.0
 30
0.0
 40
1.0
  1
Station 13
 11
65.0
 21
0.0
 31
0.0
100
AcDbText
  0
LWPOLYLINE
  5
49
330
17
100
AcDbEntity
  8
GENERATED_PROFILE
100
AcDbPolyline
 90
256
 70
0
 10
68.32850168
 20
-0.24398752
 10
68.34405949
 20
-0.24398752
 10
68.35961732
 20
-0.24398752
 10
68.37517514
 20
-0.24398752
 10
68.39073295
 20
-0.24398752
 10
68.40629077
 20
-0.24398752
 10
68.42184859
 20
-0.24398752
 10
68.4374064
 20
-0.24398752
 10
68.45296422
 20
-0.24398752
 10
68.46852205
 20
-0.24398752
 10
68.48407987
 20
-0.24398752
 10
68.49963768
 20
-0.24398752
 10
68.5151955
 20
-0.24398752
 10
68.53075332
 20
-0.24398752
 10
68.54631113
 20
-0.24398752
 10
68.56186895
 20
-0.24398752
 10
68.57742677
 20
-0.24398752
 10
68.59298459
 20
-0.24398752
 10
68.60854241
 20
-0.24398752
 10
68.62410023
 20
-0.24398752
 10
68.63965805
 20
-0.24398752
 10
68.65521586
 20
-0.24398752
 10
68.67077368
 20
-0.24398752
 10
68.6863315
 20
-0.24398752
 10
68.70188932
 20
-0.24398752
 10
68.71744714
 20
-0.24398752
 10
68.73300496
 20
-0.24398752
 10
68.74856278
 20
-0.24398752
 10
68.76412059
 20
-0.24398752
 10
68.77967841
 20
-0.24398752
 10
68.79523623
 20
-0.24398752
 10
68.81079405
 20
-0.24398752
 10
68.82635187
 20
-0.24398752
 10
68.84190969
 20
-0.24398752
 10
68.8574675
 20
-0.24398752
 10
68.87302532
 20
-0.24398752
 10
68.88858314
 20
-0.24398752
 10
68.90414096
 20
-0.24398752
 10
68.91969877
 20
-0.24398752
 10
68.9352566
 20
-0.24398752
 10
68.95081442
 20
-0.24398752
 10
68.96637223
 20
-0.24398752
 10
68.98193005
 20
-0.24398752
 10
68.99748787
 20
-0.24398752
 10
69.01304569
 20
-0.24398752
 10
69.02451804
 20
-0.23779176
 10
69.03087756
 20
-0.22384218
 10
69.03723708
 20
-0.20989259
 10
69.04359659
 20
-0.195943
 10
69.04995611
 20
-0.18199341
 10
69.05631562
 20
-0.16804382
 10
69.06267513
 20
-0.15409423
 10
69.06903464
 20
-0.14014464
 10
69.07539416
 20
-0.12619506
 10
69.08175367
 20
-0.11224547
 10
69.08811319
 20
-0.09829588
 10
69.09447269
 20
-0.08434629
 10
69.10083221
 20
-0.0703967
 10
69.10719172
 20
-0.05644712
 10
69.11355124
 20
-0.04249752
 10
69.11991075
 20
-0.02854794
 10
69.12627027
 20
-0.01459835
 10
69.13262977
 20
-0.00064876
 10
69.13898929
 20
0.01330083
 10
69.1453488
 20
0.02725042
 10
69.15170832
 20
0.0412
 10
69.15806783
 20
0.0551496
 10
69.16442734
 20
0.06909918
 10
69.17078686
 20
0.08304877
 10
69.17714637
 20
0.09699835
 10
69.18350589
 20
0.11094795
 10
69.1898654
 20
0.12489754
 10
69.19622492
 20
0.13884712
 10
69.20258442
 20
0.15279671
 10
69.20894394
 20
0.1667463
 10
69.21530345
 20
0.18069589
 10
69.22166297
 20
0.19464547
 10
69.22802248
 20
0.20859507
 10
69.23438199
 20
0.22254466
 10
69.2454458
 20
0.22935999
 10
69.26100362
 20
0.22935999
 10
69.27656145
 20
0.22935999
 10
69.29211926
 20
0.22935999
 10
69.30767708
 20
0.22935999
 10
69.3232349
 20
0.22935999
 10
69.33879272
 20
0.22935999
 10
69.35435053
 20
0.22935999
 10
69.36990835
 20
0.22935999
 10
69.38546618
 20
0.22935999
 10
69.40102399
 20
0.22935999
 10
69.41658181
 20
0.22935999
 10
69.43213963
 20
0.22935999
 10
69.44769744
 20
0.22935999
 10
69.46325526
 20
0.22935999
 10
69.47881308
 20
0.22935999
 10
69.49437091
 20
0.22935999
 10
69.50992872
 20
0.22935999
 10
69.52548654
 20
0.22935999
 10
69.54104436
 20
0.22935999
 10
69.55660217
 20
0.22935999
 10
69.57215999
 20
0.22935999
 10
69.58771781
 20
0.22935999
 10
69.60327564
 20
0.22935999
 10
69.61883345
 20
0.22935999
 10
69.63439127
 20
0.22935999
 10
69.64994909
 20
0.22935999
 10
69.6655069
 20
0.22935999
 10
69.68106472
 20
0.22935999
 10
69.69662254
 20
0.22935999
 10
69.71218035
 20
0.22935999
 10
69.72773818
 20
0.22935999
 10
69.743296
 20
0.22935999
 10
69.75885382
 20
0.22935999
 10
69.77441163
 20
0.22935999
 10
69.78996945
 20
0.22935999
 10
69.80552727
 20
0.22935999
 10
69.82108508
 20
0.22935999
 10
69.83664291
 20
0.22935999
 10
69.85220073
 20
0.22935999
 10
69.86775855
 20
0.22935999
 10
69.88331636
 20
0.22935999
 10
69.89887418
 20
0.22935999
 10
69.914432
 20
0.22935999
 10
69.92998981
 20
0.22935999
 10
69.94554764
 20
0.22935999
 10
69.96110546
 20
0.22935999
 10
69.97666327
 20
0.22935999
 10
69.99222109
 20
0.22935999
 10
70.00777891
 20
0.22935999
 10
70.02333673
 20
0.22935999
 10
70.03889454
 20
0.22935999
 10
70.05445236
 20
0.22935999
 10
70.07001019
 20
0.22935999
 10
70.085568
 20
0.22935999
 10
70.10112582
 20
0.22935999
 10
70.11668364
 20
0.22935999
 10
70.13224145
 20
0.22935999
 10
70.14779927
 20
0.22935999
 10
70.16335709
 20
0.22935999
 10
70.17891492
 20
0.22935999
 10
70.19447273
 20
0.22935999
 10
70.21003055
 20
0.22935999
 10
70.22558837
 20
0.22935999
 10
70.24114618
 20
0.22935999
 10
70.256704
 20
0.22935999
 10
70.27226182
 20
0.22935999
 10
70.28781965
 20
0.22935999
 10
70.30337746
 20
0.22935999
 10
70.31893528
 20
0.22935999
 10
70.3344931
 20
0.22935999
 10
70.35005091
 20
0.22935999
 10
70.36560873
 20
0.22935999
 10
70.38116655
 20
0.22935999
 10
70.39672436
 20
0.22935999
 10
70.41228219
 20
0.22935999
 10
70.42784001
 20
0.22935999
 10
70.44339783
 20
0.22935999
 10
70.45895564
 20
0.22935999
 10
70.47451346
 20
0.22935999
 10
70.49007128
 20
0.22935999
 10
70.50562909
 20
0.22935999
 10
70.52118692
 20
0.22935999
 10
70.53674474
 20
0.22935999
 10
70.55230256
 20
0.22935999
 10
70.56786037
 20
0.22935999
 10
70.58341819
 20
0.22935999
 10
70.59897601
 20
0.22935999
 10
70.61453382
 20
0.22935999
 10
70.63009165
 20
0.22935999
 10
70.64564947
 20
0.22935999
 10
70.66120728
 20
0.22935999
 10
70.6767651
 20
0.22935999
 10
70.69232292
 20
0.22935999
 10
70.70788074
 20
0.22935999
 10
70.72343855
 20
0.22935999
 10
70.73899638
 20
0.22935999
 10
70.7545542
 20
0.22935999
 10
70.76561801
 20
0.22254466
 10
70.77197752
 20
0.20859507
 10
70.77833703
 20
0.19464547
 10
70.78469655
 20
0.18069589
 10
70.79105606
 20
0.1667463
 10
70.79741558
 20
0.15279671
 10
70.80377508
 20
0.13884712
 10
70.8101346
 20
0.12489754
 10
70.81649411
 20
0.11094795
 10
70.82285363
 20
0.09699835
 10
70.82921314
 20
0.08304877
 10
70.83557266
 20
0.06909918
 10
70.84193217
 20
0.0551496
 10
70.84829168
 20
0.0412
 10
70.8546512
 20
0.02725042
 10
70.86101071
 20
0.01330083
 10
70.86737023
 20
-0.00064876
 10
70.87372973
 20
-0.01459835
 10
70.88008925
 20
-0.02854794
 10
70.88644876
 20
-0.04249752
 10
70.89280828
 20
-0.05644712
 10
70.89916779
 20
-0.0703967
 10
70.90552731
 20
-0.08434629
 10
70.91188681
 20
-0.09829588
 10
70.91824633
 20
-0.11224547
 10
70.92460584
 20
-0.12619506
 10
70.93096536
 20
-0.14014464
 10
70.93732487
 20
-0.15409423
 10
70.94368438
 20
-0.16804382
 10
70.95004389
 20
-0.18199341
 10
70.95640341
 20
-0.195943
 10
70.96276292
 20
-0.20989259
 10
70.96912244
 20
-0.22384218
 10
70.97548196
 20
-0.23779176
 10
70.98695431
 20
-0.24398752
 10
71.00251213
 20
-0.24398752
 10
71.01806995
 20
-0.24398752
 10
71.03362777
 20
-0.24398752
 10
71.04918558
 20
-0.24398752
 10
71.0647434
 20
-0.24398752
 10
71.08030123
 20
-0.24398752
 10
71.09585904
 20
-0.24398752
 10
71.11141686
 20
-0.24398752
 10
71.12697468
 20
-0.24398752
 10
71.1425325
 20
-0.24398752
 10
71.15809031
 20
-0.24398752
 10
71.17364813
 20
-0.24398752
 10
71.18920595
 20
-0.24398752
 10
71.20476377
 20
-0.24398752
 10
71.22032159
 20
-0.24398752
 10
71.23587941
 20
-0.24398752
 10
71.25143722
 20
-0.24398752
 10
71.26699504
 20
-0.24398752
 10
71.28255286
 20
-0.24398752
 10
71.29811068
 20
-0.24398752
 10
71.3136685
 20
-0.24398752
 10
71.32922632
 20
-0.24398752
 10
71.34478414
 20
-0.24398752
 10
71.36034195
 20
-0.24398752
 10
71.37589977
 20
-0.24398752
 10
71.39145759
 20
-0.24398752
 10
71.40701541
 20
-0.24398752
 10
71.42257323
 20
-0.24398752
 10
71.43813105
 20
-0.24398752
 10
71.45368887
 20
-0.24398752
 10
71.46924668
 20
-0.24398752
 10
71.4848045
 20
-0.24398752
 10
71.50036232
 20
-0.24398752
 10
71.51592013
 20
-0.24398752
 10
71.53147795
 20
-0.24398752
 10
71.54703578
 20
-0.24398752
 10
71.5625936
 20
-0.24398752
 10
71.57815141
 20
-0.24398752
 10
71.59370923
 20
-0.24398752
 10
71.60926705
 20
-0.24398752
 10
71.62482486
 20
-0.24398752
 10
71.64038268
 20
-0.24398752
 10
71.65594051
 20
-0.24398752
 10
71.67149832
 20
-0.24398752
  0
TEXT
  5
4A
330
17
100
AcDbEntity
  8
STATION_LABEL
100
AcDbText
 10
70.0
 20
0.0
 30
0.0
 40
1.0
  1
Station 14
 11
70.0
 21
0.0
 31
0.0
100
AcDbText
  0
LWPOLYLINE
  5
4B
330
17
100
AcDbEntity
  8
GENERATED_PROFILE
100
AcDbPolyline
 90
256
 70
0
 10
73.30319763
 20
-0.25318169
 10
73.31904616
 20
-0.25318169
 10
73.3348947
 20
-0.25318169
 10
73.35074322
 20
-0.25318169
 10
73.36659175
 20
-0.25318169
 10
73.38244028
 20
-0.25318169
 10
73.39828881
 20
-0.25318169
 10
73.41413734
 20
-0.25318169
 10
73.42998587
 20
-0.25318169
 10
73.44583441
 20
-0.25318169
 10
73.46168294
 20
-0.25318169
 10
73.47753147
 20
-0.25318169
 10
73.49338
 20
-0.25318169
 10
73.50922853
 20
-0.25318169
 10
73.52507705
 20
-0.25318169
 10
73.54092558
 20
-0.25318169
 10
73.55677411
 20
-0.25318169
 10
73.57262265
 20
-0.25318169
 10
73.58847118
 20
-0.25318169
 10
73.60431971
 20
-0.25318169
 10
73.62016824
 20
-0.25318169
 10
73.63601677
 20
-0.25318169
 10
73.6518653
 20
-0.25318169
 10
73.66771383
 20
-0.25318169
 10
73.68356237
 20
-0.25318169
 10
73.6994109
 20
-0.25318169
 10
73.71525942
 20
-0.25318169
 10
73.73110795
 20
-0.25318169
 10
73.74695648
 20
-0.25318169
 10
73.76280501
 20
-0.25318169
 10
73.77865354
 20
-0.25318169
 10
73.79450208
 20
-0.25318169
 10
73.81035061
 20
-0.25318169
 10
73.82619914
 20
-0.25318169
 10
73.84204767
 20
-0.25318169
 10
73.8578962
 20
-0.25318169
 10
73.87374473
 20
-0.25318169
 10
73.88959325
 20
-0.25318169
 10
73.90544178
 20
-0.25318169
 10
73.92129032
 20
-0.25318169
 10
73.93713885
 20
-0.25318169
 10
73.95298738
 20
-0.25318169
 10
73.96883591
 20
-0.25318169
 10
73.98468444
 20
-0.25318169
 10
74.00053297
 20
-0.25318169
 10
74.01214209
 20
-0.24675246
 10
74.0184457
 20
-0.23227721
 10
74.0247493
 20
-0.21780196
 10
74.03105291
 20
-0.20332672
 10
74.03735652
 20
-0.18885146
 10
74.04366013
 20
-0.17437621
 10
74.04996372
 20
-0.15990096
 10
74.05626733
 20
-0.14542571
 10
74.06257094
 20
-0.13095046
 10
74.06887455
 20
-0.11647521
 10
74.07517816
 20
-0.10199996
 10
74.08148175
 20
-0.08752471
 10
74.08778536
 20
-0.07304945
 10
74.09408897
 20
-0.05857421
 10
74.10039258
 20
-0.04409896
 10
74.10669619
 20
-0.02962371
 10
74.11299979
 20
-0.01514846
 10
74.11930339
 20
-0.00067321
 10
74.125607
 20
0.01380204
 10
74.13191061
 20
0.0282773
 10
74.13821422
 20
0.04275254
 10
74.14451782
 20
0.0572278
 10
74.15082142
 20
0.07170304
 10
74.15712503
 20
0.0861783
 10
74.16342864
 20
0.10065354
 10
74.16973224
 20
0.11512879
 10
74.17603585
 20
0.12960405
 10
74.18233946
 20
0.14407929
 10
74.18864306
 20
0.15855455
 10
74.19494667
 20
0.17302979
 10
74.20125027
 20
0.18750505
 10
74.20755388
 20
0.20198029
 10
74.21385749
 20
0.21645555
 10
74.22016109
 20
0.2309308
 10
74.23134627
 20
0.23800295
 10
74.2471948
 20
0.23800295
 10
74.26304334
 20
0.23800295
 10
74.27889187
 20
0.23800295
 10
74.29474039
 20
0.23800295
 10
74.31058892
 20
0.23800295
 10
74.32643745
 20
0.23800295
 10
74.34228598
 20
0.23800295
 10
74.35813451
 20
0.23800295
 10
74.37398305
 20
0.23800295
 10
74.38983158
 20
0.23800295
 10
74.40568011
 20
0.23800295
 10
74.42152864
 20
0.23800295
 10
74.43737717
 20
0.23800295
 10
74.4532257
 20
0.23800295
 10
74.46907423
 20
0.23800295
 10
74.48492276
 20
0.23800295
 10
74.50077129
 20
0.23800295
 10
74.51661982
 20
0.23800295
 10
74.53246835
 20
0.23800295
 10
74.54831688
 20
0.23800295
 10
74.56416541
 20
0.23800295
 10
74.58001394
 20
0.23800295
 10
74.59586248
 20
0.23800295
 10
74.61171101
 20
0.23800295
 10
74.62755954
 20
0.23800295
 10
74.64340807
 20
0.23800295
 10
74.65925659
 20
0.23800295
 10
74.67510512
 20
0.23800295
 10
74.69095365
 20
0.23800295
 10
74.70680218
 20
0.23800295
 10
74.72265072
 20
0.23800295
 10
74.73849925
 20
0.23800295
 10
74.75434778
 20
0.23800295
 10
74.77019631
 20
0.23800295
 10
74.78604484
 20
0.23800295
 10
74.80189337
 20
0.23800295
 10
74.8177419
 20
0.23800295
 10
74.83359043
 20
0.23800295
 10
74.84943896
 20
0.23800295
 10
74.86528749
 20
0.23800295
 10
74.88113602
 20
0.23800295
 10
74.89698455
 20
0.23800295
 10
74.91283308
 20
0.23800295
 10
74.92868161
 20
0.23800295
 10
74.94453015
 20
0.23800295
 10
74.96037868
 20
0.23800295
 10
74.97622721
 20
0.23800295
 10
74.99207574
 20
0.23800295
 10
75.00792426
 20
0.23800295
 10
75.02377279
 20
0.23800295
 10
75.03962132
 20
0.23800295
 10
75.05546985
 20
0.23800295
 10
75.07131839
 20
0.23800295
 10
75.08716692
 20
0.23800295
 10
75.10301545
 20
0.23800295
 10
75.11886398
 20
0.23800295
 10
75.13471251
 20
0.23800295
 10
75.15056104
 20
0.23800295
 10
75.16640957
 20
0.23800295
 10
75.1822581
 20
0.23800295
 10
75.19810663
 20
0.23800295
 10
75.21395516
 20
0.23800295
 10
75.22980369
 20
0.23800295
 10
75.24565222
 20
0.23800295
 10
75.26150075
 20
0.23800295
 10
75.27734928
 20
0.23800295
 10
75.29319782
 20
0.23800295
 10
75.30904635
 20
0.23800295
 10
75.32489488
 20
0.23800295
 10
75.34074341
 20
0.23800295
 10
75.35659193
 20
0.23800295
 10
75.37244046
 20
0.23800295
 10
75.38828899
 20
0.23800295
 10
75.40413752
 20
0.23800295
 10
75.41998606
 20
0.23800295
 10
75.43583459
 20
0.23800295
 10
75.45168312
 20
0.23800295
 10
75.46753165
 20
0.23800295
 10
75.48338018
 20
0.23800295
 10
75.49922871
 20
0.23800295
 10
75.51507724
 20
0.23800295
 10
75.53092577
 20
0.23800295
 10
75.5467743
 20
0.23800295
 10
75.56262283
 20
0.23800295
 10
75.57847136
 20
0.23800295
 10
75.59431989
 20
0.23800295
 10
75.61016842
 20
0.23800295
 10
75.62601695
 20
0.23800295
 10
75.64186549
 20
0.23800295
 10
75.65771402
 20
0.23800295
 10
75.67356255
 20
0.23800295
 10
75.68941108
 20
0.23800295
 10
75.70525961
 20
0.23800295
 10
75.72110813
 20
0.23800295
 10
75.73695666
 20
0.23800295
 10
75.7528052
 20
0.23800295
 10
75.76865373
 20
0.23800295
 10
75.77983891
 20
0.2309308
 10
75.78614251
 20
0.21645555
 10
75.79244612
 20
0.20198029
 10
75.79874973
 20
0.18750505
 10
75.80505333
 20
0.17302979
 10
75.81135694
 20
0.15855455
 10
75.81766054
 20
0.14407929
 10
75.82396415
 20
0.12960405
 10
75.83026776
 20
0.11512879
 10
75.83657136
 20
0.10065354
 10
75.84287497
 20
0.0861783
 10
75.84917858
 20
0.07170304
 10
75.85548218
 20
0.0572278
 10
75.86178578
 20
0.04275254
 10
75.86808939
 20
0.0282773
 10
75.874393
 20
0.01380204
 10
75.88069661
 20
-0.00067321
 10
75.88700021
 20
-0.01514846
 10
75.89330381
 20
-0.02962371
 10
75.89960742
 20
-0.04409896
 10
75.90591103
 20
-0.05857421
 10
75.91221464
 20
-0.07304945
 10
75.91851825
 20
-0.08752471
 10
75.92482184
 20
-0.10199996
 10
75.93112545
 20
-0.11647521
 10
75.93742906
 20
-0.13095046
 10
75.94373267
 20
-0.14542571
 10
75.95003628
 20
-0.15990096
 10
75.95633987
 20
-0.17437621
 10
75.96264348
 20
-0.18885146
 10
75.96894709
 20
-0.20332672
 10
75.9752507
 20
-0.21780196
 10
75.9815543
 20
-0.23227721
 10
75.98785791
 20
-0.24675246
 10
75.99946703
 20
-0.25318169
 10
76.01531556
 20
-0.25318169
 10
76.03116409
 20
-0.25318169
 10
76.04701262
 20
-0.25318169
 10
76.06286115
 20
-0.25318169
 10
76.07870968
 20
-0.25318169
 10
76.09455822
 20
-0.25318169
 10
76.11040675
 20
-0.25318169
 10
76.12625527
 20
-0.25318169
 10
76.1421038
 20
-0.25318169
 10
76.15795233
 20
-0.25318169
 10
76.17380086
 20
-0.25318169
 10
76.18964939
 20
-0.25318169
 10
76.20549792
 20
-0.25318169
 10
76.22134646
 20
-0.25318169
 10
76.23719499
 20
-0.25318169
 10
76.25304352
 20
-0.25318169
 10
76.26889205
 20
-0.25318169
 10
76.28474058
 20
-0.25318169
 10
76.3005891
 20
-0.25318169
 10
76.31643763
 20
-0.25318169
 10
76.33228617
 20
-0.25318169
 10
76.3481347
 20
-0.25318169
 10
76.36398323
 20
-0.25318169
 10
76.37983176
 20
-0.25318169
 10
76.39568029
 20
-0.25318169
 10
76.41152882
 20
-0.25318169
 10
76.42737735
 20
-0.25318169
 10
76.44322589
 20
-0.25318169
 10
76.45907442
 20
-0.25318169
 10
76.47492295
 20
-0.25318169
 10
76.49077147
 20
-0.25318169
 10
76.50662
 20
-0.25318169
 10
76.52246853
 20
-0.25318169
 10
76.53831706
 20
-0.25318169
 10
76.55416559
 20
-0.25318169
 10
76.57001413
 20
-0.25318169
 10
76.58586266
 20
-0.25318169
 10
76.60171119
 20
-0.25318169
 10
76.61755972
 20
-0.25318169
 10
76.63340825
 20
-0.25318169
 10
76.64925678
 20
-0.25318169
 10
76.6651053
 20
-0.25318169
 10
76.68095384
 20
-0.25318169
 10
76.69680237
 20
-0.25318169
  0
TEXT
  5
4C
330
17
100
AcDbEntity
  8
STATION_LABEL
100
AcDbText
 10
75.0
 20
0.0
 30
0.0
 40
1.0
  1
Station 15
 11
75.0
 21
0.0
 31
0.0
100
AcDbText
  0
LWPOLYLINE
  5
4D
330
17
100
AcDbEntity
  8
GENERATED_PROFILE
100
AcDbPolyline
 90
256
 70
0
 10
78.29420528
 20
-0.25644904
 10
78.31015712
 20
-0.25644904
 10
78.32610897
 20
-0.25644904
 10
78.34206081
 20
-0.25644904
 10
78.35801265
 20
-0.25644904
 10
78.37396449
 20
-0.25644904
 10
78.38991633
 20
-0.25644904
 10
78.40586817
 20
-0.25644904
 10
78.42182001
 20
-0.25644904
 10
78.43777186
 20
-0.25644904
 10
78.4537237
 20
-0.25644904
 10
78.46967554
 20
-0.25644904
 10
78.48562738
 20
-0.25644904
 10
78.50157922
 20
-0.25644904
 10
78.51753106
 20
-0.25644904
 10
78.5334829
 20
-0.25644904
 10
78.54943474
 20
-0.25644904
 10
78.56538659
 20
-0.25644904
 10
78.58133843
 20
-0.25644904
 10
78.59729027
 20
-0.25644904
 10
78.61324211
 20
-0.25644904
 10
78.62919395
 20
-0.25644904
 10
78.64514579
 20
-0.25644904
 10
78.66109763
 20
-0.25644904
 10
78.67704948
 20
-0.25644904
 10
78.69300132
 20
-0.25644904
 10
78.70895316
 20
-0.25644904
 10
78.724905
 20
-0.25644904
 10
78.74085684
 20
-0.25644904
 10
78.75680868
 20
-0.25644904
 10
78.77276052
 20
-0.25644904
 10
78.78871237
 20
-0.25644904
 10
78.80466421
 20
-0.25644904
 10
78.82061605
 20
-0.25644904
 10
78.83656789
 20
-0.25644904
 10
78.85251973
 20
-0.25644904
 10
78.86847157
 20
-0.25644904
 10
78.88442341
 20
-0.25644904
 10
78.90037525
 20
-0.25644904
 10
78.9163271
 20
-0.25644904
 10
78.93227894
 20
-0.25644904
 10
78.94823078
 20
-0.25644904
 10
78.96418262
 20
-0.25644904
 10
78.98013446
 20
-0.25644904
 10
78.9960863
 20
-0.25644904
 10
79.00774402
 20
-0.24993684
 10
79.01402776
 20
-0.23527479
 10
79.0203115
 20
-0.22061273
 10
79.02659524
 20
-0.20595068
 10
79.03287898
 20
-0.19128862
 10
79.03916272
 20
-0.17662656
 10
79.04544645
 20
-0.16196451
 10
79.05173019
 20
-0.14730245
 10
79.05801393
 20
-0.1326404
 10
79.06429767
 20
-0.11797834
 10
79.07058141
 20
-0.10331629
 10
79.07686514
 20
-0.08865423
 10
79.08314888
 20
-0.07399217
 10
79.08943262
 20
-0.05933012
 10
79.09571636
 20
-0.04466806
 10
79.1020001
 20
-0.03000601
 10
79.10828384
 20
-0.01534395
 10
79.11456757
 20
-0.0006819
 10
79.12085131
 20
0.01398016
 10
79.12713505
 20
0.02864222
 10
79.13341879
 20
0.04330427
 10
79.13970253
 20
0.05796633
 10
79.14598626
 20
0.07262838
 10
79.15227
 20
0.08729044
 10
79.15855374
 20
0.10195249
 10
79.16483748
 20
0.11661455
 10
79.17112122
 20
0.13127661
 10
79.17740496
 20
0.14593866
 10
79.18368869
 20
0.16060072
 10
79.18997243
 20
0.17526277
 10
79.19625617
 20
0.18992483
 10
79.20253991
 20
0.20458688
 10
79.20882365
 20
0.21924894
 10
79.21510738
 20
0.233911
 10
79.22633569
 20
0.24107442
 10
79.24228753
 20
0.24107442
 10
79.25823938
 20
0.24107442
 10
79.27419122
 20
0.24107442
 10
79.29014306
 20
0.24107442
 10
79.3060949
 20
0.24107442
 10
79.32204674
 20
0.24107442
 10
79.33799858
 20
0.24107442
 10
79.35395042
 20
0.24107442
 10
79.36990227
 20
0.24107442
 10
79.38585411
 20
0.24107442
 10
79.40180595
 20
0.24107442
 10
79.41775779
 20
0.24107442
 10
79.43370963
 20
0.24107442
 10
79.44966147
 20
0.24107442
 10
79.46561331
 20
0.24107442
 10
79.48156516
 20
0.24107442
 10
79.497517
 20
0.24107442
 10
79.51346884
 20
0.24107442
 10
79.52942068
 20
0.24107442
 10
79.54537252
 20
0.24107442
 10
79.56132436
 20
0.24107442
 10
79.5772762
 20
0.24107442
 10
79.59322805
 20
0.24107442
 10
79.60917989
 20
0.24107442
 10
79.62513173
 20
0.24107442
 10
79.64108357
 20
0.24107442
 10
79.65703541
 20
0.24107442
 10
79.67298725
 20
0.24107442
 10
79.68893909
 20
0.24107442
 10
79.70489093
 20
0.24107442
 10
79.72084278
 20
0.24107442
 10
79.73679462
 20
0.24107442
 10
79.75274646
 20
0.24107442
 10
79.7686983
 20
0.24107442
 10
79.78465014
 20
0.24107442
 10
79.80060198
 20
0.24107442
 10
79.81655382
 20
0.24107442
 10
79.83250567
 20
0.24107442
 10
79.84845751
 20
0.24107442
 10
79.86440935
 20
0.24107442
 10
79.88036119
 20
0.24107442
 10
79.89631303
 20
0.24107442
 10
79.91226487
 20
0.24107442
 10
79.92821671
 20
0.24107442
 10
79.94416856
 20
0.24107442
 10
79.9601204
 20
0.24107442
 10
79.97607224
 20
0.24107442
 10
79.99202408
 20
0.24107442
 10
80.00797592
 20
0.24107442
 10
80.02392776
 20
0.24107442
 10
80.0398796
 20
0.24107442
 10
80.05583144
 20
0.24107442
 10
80.07178329
 20
0.24107442
 10
80.08773513
 20
0.24107442
 10
80.10368697
 20
0.24107442
 10
80.11963881
 20
0.24107442
 10
80.13559065
 20
0.24107442
 10
80.15154249
 20
0.24107442
 10
80.16749433
 20
0.24107442
 10
80.18344618
 20
0.24107442
 10
80.19939802
 20
0.24107442
 10
80.21534986
 20
0.24107442
 10
80.2313017
 20
0.24107442
 10
80.24725354
 20
0.24107442
 10
80.26320538
 20
0.24107442
 10
80.27915722
 20
0.24107442
 10
80.29510907
 20
0.24107442
 10
80.31106091
 20
0.24107442
 10
80.32701275
 20
0.24107442
 10
80.34296459
 20
0.24107442
 10
80.35891643
 20
0.24107442
 10
80.37486827
 20
0.24107442
 10
80.39082011
 20
0.24107442
 10
80.40677195
 20
0.24107442
 10
80.4227238
 20
0.24107442
 10
80.43867564
 20
0.24107442
 10
80.45462748
 20
0.24107442
 10
80.47057932
 20
0.24107442
 10
80.48653116
 20
0.24107442
 10
80.502483
 20
0.24107442
 10
80.51843484
 20
0.24107442
 10
80.53438669
 20
0.24107442
 10
80.55033853
 20
0.24107442
 10
80.56629037
 20
0.24107442
 10
80.58224221
 20
0.24107442
 10
80.59819405
 20
0.24107442
 10
80.61414589
 20
0.24107442
 10
80.63009773
 20
0.24107442
 10
80.64604958
 20
0.24107442
 10
80.66200142
 20
0.24107442
 10
80.67795326
 20
0.24107442
 10
80.6939051
 20
0.24107442
 10
80.70985694
 20
0.24107442
 10
80.72580878
 20
0.24107442
 10
80.74176062
 20
0.24107442
 10
80.75771247
 20
0.24107442
 10
80.77366431
 20
0.24107442
 10
80.78489262
 20
0.233911
 10
80.79117635
 20
0.21924894
 10
80.79746009
 20
0.20458688
 10
80.80374383
 20
0.18992483
 10
80.81002757
 20
0.17526277
 10
80.81631131
 20
0.16060072
 10
80.82259504
 20
0.14593866
 10
80.82887878
 20
0.13127661
 10
80.83516252
 20
0.11661455
 10
80.84144626
 20
0.10195249
 10
80.84773
 20
0.08729044
 10
80.85401374
 20
0.07262838
 10
80.86029747
 20
0.05796633
 10
80.86658121
 20
0.04330427
 10
80.87286495
 20
0.02864222
 10
80.87914869
 20
0.01398016
 10
80.88543243
 20
-0.0006819
 10
80.89171616
 20
-0.01534395
 10
80.8979999
 20
-0.03000601
 10
80.90428364
 20
-0.04466806
 10
80.91056738
 20
-0.05933012
 10
80.91685112
 20
-0.07399217
 10
80.92313486
 20
-0.08865423
 10
80.92941859
 20
-0.10331629
 10
80.93570233
 20
-0.11797834
 10
80.94198607
 20
-0.1326404
 10
80.94826981
 20
-0.14730245
 10
80.95455355
 20
-0.16196451
 10
80.96083728
 20
-0.17662656
 10
80.96712102
 20
-0.19128862
 10
80.97340476
 20
-0.20595068
 10
80.9796885
 20
-0.22061273
 10
80.98597224
 20
-0.23527479
 10
80.99225598
 20
-0.24993684
 10
81.0039137
 20
-0.25644904
 10
81.01986554
 20
-0.25644904
 10
81.03581738
 20
-0.25644904
 10
81.05176922
 20
-0.25644904
 10
81.06772106
 20
-0.25644904
 10
81.0836729
 20
-0.25644904
 10
81.09962475
 20
-0.25644904
 10
81.11557659
 20
-0.25644904
 10
81.13152843
 20
-0.25644904
 10
81.14748027
 20
-0.25644904
 10
81.16343211
 20
-0.25644904
 10
81.17938395
 20
-0.25644904
 10
81.19533579
 20
-0.25644904
 10
81.21128763
 20
-0.25644904
 10
81.22723948
 20
-0.25644904
 10
81.24319132
 20
-0.25644904
 10
81.25914316
 20
-0.25644904
 10
81.275095
 20
-0.25644904
 10
81.29104684
 20
-0.25644904
 10
81.30699868
 20
-0.25644904
 10
81.32295052
 20
-0.25644904
 10
81.33890237
 20
-0.25644904
 10
81.35485421
 20
-0.25644904
 10
81.37080605
 20
-0.25644904
 10
81.38675789
 20
-0.25644904
 10
81.40270973
 20
-0.25644904
 10
81.41866157
 20
-0.25644904
 10
81.43461341
 20
-0.25644904
 10
81.45056526
 20
-0.25644904
 10
81.4665171
 20
-0.25644904
 10
81.48246894
 20
-0.25644904
 10
81.49842078
 20
-0.25644904
 10
81.51437262
 20
-0.25644904
 10
81.53032446
 20
-0.25644904
 10
81.5462763
 20
-0.25644904
 10
81.56222814
 20
-0.25644904
 10
81.57817999
 20
-0.25644904
 10
81.59413183
 20
-0.25644904
 10
81.61008367
 20
-0.25644904
 10
81.62603551
 20
-0.25644904
 10
81.64198735
 20
-0.25644904
 10
81.65793919
 20
-0.25644904
 10
81.67389103
 20
-0.25644904
 10
81.68984288
 20
-0.25644904
 10
81.70579472
 20
-0.25644904
  0
TEXT
  5
4E
330
17
100
AcDbEntity
  8
STATION_LABEL
100
AcDbText
 10
80.0
 20
0.0
 30
0.0
 40
1.0
  1
Station 16
 11
80.0
 21
0.0
 31
0.0
100
AcDbText
  0
ENDSEC
  0
SECTION
  2
OBJECTS
  0
DICTIONARY
  5
A
330
0
100
AcDbDictionary
281
1
  3
ACAD_COLOR
350
B
  3
ACAD_GROUP
350
C
  3
ACAD_LAYOUT
350
D
  3
ACAD_MATERIAL
350
E
  3
ACAD_MLEADERSTYLE
350
F
  3
ACAD_MLINESTYLE
350
10
  3
ACAD_PLOTSETTINGS
350
11
  3
ACAD_PLOTSTYLENAME
350
12
  3
ACAD_SCALELIST
350
14
  3
ACAD_TABLESTYLE
350
15
  3
ACAD_VISUALSTYLE
350
16
  3
EZDXF_META
350
2D
  0
DICTIONARY
  5
B
330
A
100
AcDbDictionary
281
1
  0
DICTIONARY
  5
C
330
A
100
AcDbDictionary
281
1
  0
DICTIONARY
  5
D
330
A
100
AcDbDictionary
281
1
  3
Model
350
1A
  3
Layout1
350
1E
  0
DICTIONARY
  5
E
330
A
100
AcDbDictionary
281
1
  3
ByBlock
350
1F
  3
ByLayer
350
20
  3
Global
350
21
  0
DICTIONARY
  5
F
330
A
100
AcDbDictionary
281
1
  3
Standard
350
2C
  0
DICTIONARY
  5
10
330
A
100
AcDbDictionary
281
1
  3
Standard
350
22
  0
DICTIONARY
  5
11
330
A
100
AcDbDictionary
281
1
  0
ACDBDICTIONARYWDFLT
  5
12
330
A
100
AcDbDictionary
281
1
  3
Normal
350
13
100
AcDbDictionaryWithDefault
340
13
  0
ACDBPLACEHOLDER
  5
13
330
12
  0
DICTIONARY
  5
14
330
A
100
AcDbDictionary
281
1
  0
DICTIONARY
  5
15
330
A
100
AcDbDictionary
281
1
  0
DICTIONARY
  5
16
330
A
100
AcDbDictionary
281
1
  0
LAYOUT
  5
1A
330
D
100
AcDbPlotSettings
  1

  4
A3
  6

 40
7.5
 41
20.0
 42
7.5
 43
20.0
 44
420.0
 45
297.0
 46
0.0
 47
0.0
 48
0.0
 49
0.0
140
0.0
141
0.0
142
1.0
143
1.0
 70
1024
 72
1
 73
0
 74
5
  7

 75
16
 76
0
 77
2
 78
300
147
1.0
148
0.0
149
0.0
100
AcDbLayout
  1
Model
 70
1
 71
0
 10
0.0
 20
0.0
 11
420.0
 21
297.0
 12
0.0
 22
0.0
 32
0.0
 14
1e+20
 24
1e+20
 34
1e+20
 15
-1e+20
 25
-1e+20
 35
-1e+20
146
0.0
 13
0.0
 23
0.0
 33
0.0
 16
1.0
 26
0.0
 36
0.0
 17
0.0
 27
1.0
 37
0.0
 76
1
330
17
  0
LAYOUT
  5
1E
330
D
100
AcDbPlotSettings
  1

  4
A3
  6

 40
7.5
 41
20.0
 42
7.5
 43
20.0
 44
420.0
 45
297.0
 46
0.0
 47
0.0
 48
0.0
 49
0.0
140
0.0
141
0.0
142
1.0
143
1.0
 70
0
 72
1
 73
0
 74
5
  7

 75
16
 76
0
 77
2
 78
300
147
1.0
148
0.0
149
0.0
100
AcDbLayout
  1
Layout1
 70
1
 71
1
 10
0.0
 20
0.0
 11
420.0
 21
297.0
 12
0.0
 22
0.0
 32
0.0
 14
1e+20
 24
1e+20
 34
1e+20
 15
-1e+20
 25
-1e+20
 35
-1e+20
146
0.0
 13
0.0
 23
0.0
 33
0.0
 16
1.0
 26
0.0
 36
0.0
 17
0.0
 27
1.0
 37
0.0
 76
1
330
1B
  0
MATERIAL
  5
1F
102
{ACAD_REACTORS
330
E
102
}
330
E
100
AcDbMaterial
  1
ByBlock
  2

 70
0
 40
1.0
 71
1
 41
1.0
 91
-1023410177
 42
1.0
 72
1
  3

 73
1
 74
1
 75
1
 44
0.5
 73
0
 45
1.0
 46
1.0
 77
1
  4

 78
1
 79
1
170
1
 48
1.0
171
1
  6

172
1
173
1
174
1
140
1.0
141
1.0
175
1
  7

176
1
177
1
178
1
143
1.0
179
1
  8

270
1
271
1
272
1
145
1.0
146
1.0
273
1
  9

274
1
275
1
276
1
 42
1.0
 72
1
  3

 73
1
 74
1
 75
1
 94
63
  0
MATERIAL
  5
20
102
{ACAD_REACTORS
330
E
102
}
330
E
100
AcDbMaterial
  1
ByLayer
  2

 70
0
 40
1.0
 71
1
 41
1.0
 91
-1023410177
 42
1.0
 72
1
  3

 73
1
 74
1
 75
1
 44
0.5
 73
0
 45
1.0
 46
1.0
 77
1
  4

 78
1
 79
1
170
1
 48
1.0
171
1
  6

172
1
173
1
174
1
140
1.0
141
1.0
175
1
  7

176
1
177
1
178
1
143
1.0
179
1
  8

270
1
271
1
272
1
145
1.0
146
1.0
273
1
  9

274
1
275
1
276
1
 42
1.0
 72
1
  3

 73
1
 74
1
 75
1
 94
63
  0
MATERIAL
  5
21
102
{ACAD_REACTORS
330
E
102
}
330
E
100
AcDbMaterial
  1
Global
  2

 70
0
 40
1.0
 71
1
 41
1.0
 91
-1023410177
 42
1.0
 72
1
  3

 73
1
 74
1
 75
1
 44
0.5
 73
0
 45
1.0
 46
1.0
 77
1
  4

 78
1
 79
1
170
1
 48
1.0
171
1
  6

172
1
173
1
174
1
140
1.0
141
1.0
175
1
  7

176
1
177
1
178
1
143
1.0
179
1
  8

270
1
271
1
272
1
145
1.0
146
1.0
273
1
  9

274
1
275
1
276
1
 42
1.0
 72
1
  3

 73
1
 74
1
 75
1
 94
63
  0
MLINESTYLE
  5
22
102
{ACAD_REACTORS
330
10
102
}
330
10
100
AcDbMlineStyle
  2
Standard
 70
0
  3

 62
256
 51
90.0
 52
90.0
 71
2
 49
0.5
 62
256
  6
BYLAYER
 49
-0.5
 62
256
  6
BYLAYER
  0
MLEADERSTYLE
  5
2C
102
{ACAD_REACTORS
330
F
102
}
330
F
100
AcDbMLeaderStyle
179
2
170
2
171
1
172
0
 90
2
 40
0.0
 41
0.0
173
1
 91
-1056964608
 92
-2
290
1
 42
2.0
291
1
 43
8.0
  3
Standard
 44
4.0
300

342
29
174
1
175
1
176
0
178
1
 93
-1056964608
 45
4.0
292
0
297
0
 46
4.0
 94
-1056964608
 47
1.0
 49
1.0
140
1.0
294
1
141
0.0
177
0
142
1.0
295
0
296
0
143
3.75
271
0
272
9
273
9
  0
DICTIONARY
  5
2D
330
A
100
AcDbDictionary
280
1
281
1
  3
CREATED_BY_EZDXF
350
2E
  3
WRITTEN_BY_EZDXF
350
51
  0
DICTIONARYVAR
  5
2E
330
2D
100
DictionaryVariables
280
0
  1
1.4.4 @ 2026-08-04T12:12:10.140272+00:00
  0
DICTIONARYVAR
  5
51
330
2D
100
DictionaryVariables
280
0
  1
1.4.4 @ 2026-08-04T12:12:10.173565+00:00
  0
ENDSEC
  0
EOF
