  0
SECTION
  2
HEADER
  9
$ACADVER
  1
AC1032
  9
$ACADMAINTVER
 90
4
  9
$DWGCODEPAGE
  3
ANSI_1252
  9
$LASTSAVEDBY
  1
ezdxf
  9
$REQUIREDVERSIONS
160
0
  9
$INSBASE
 10
0.0
 20
0.0
 30
0.0
  9
$EXTMIN
 10
1e+20
 20
1e+20
 30
1e+20
  9
$EXTMAX
 10
-1e+20
 20
-1e+20
 30
-1e+20
  9
$LIMMIN
 10
0.0
 20
0.0
  9
$LIMMAX
 10
420.0
 20
297.0
  9
$ORTHOMODE
 70
0
  9
$REGENMODE
 70
1
  9
$FILLMODE
 70
1
  9
$QTEXTMODE
 70
0
  9
$MIRRTEXT
 70
1
  9
$LTSCALE
 40
1.0
  9
$ATTMODE
 70
1
  9
$TEXTSIZE
 40
2.5
  9
$TRACEWID
 40
1.0
  9
$TEXTSTYLE
  7
Standard
  9
$CLAYER
  8
0
  9
$CELTYPE
  6
ByLayer
  9
$CECOLOR
 62
256
  9
$CELTSCALE
 40
1.0
  9
$DISPSILH
 70
0
  9
$DIMSCALE
 40
1.0
  9
$DIMASZ
 40
2.5
  9
$DIMEXO
 40
0.625
  9
$DIMDLI
 40
3.75
  9
$DIMRND
 40
0.0
  9
$DIMDLE
 40
0.0
  9
$DIMEXE
 40
1.25
  9
$DIMTP
 40
0.0
  9
$DIMTM
 40
0.0
  9
$DIMTXT
 40
2.5
  9
$DIMCEN
 40
2.5
  9
$DIMTSZ
 40
0.0
  9
$DIMTOL
 70
0
  9
$DIMLIM
 70
0
  9
$DIMTIH
 70
0
  9
$DIMTOH
 70
0
  9
$DIMSE1
 70
0
  9
$DIMSE2
 70
0
  9
$DIMTAD
 70
1
  9
$DIMZIN
 70
8
  9
$DIMBLK
  1

  9
$DIMASO
 70
1
  9
$DIMSHO
 70
1
  9
$DIMPOST
  1

  9
$DIMAPOST
  1

  9
$DIMALT
 70
0
  9
$DIMALTD
 70
3
  9
$DIMALTF
 40
0.03937007874
  9
$DIMLFAC
 40
1.0
  9
$DIMTOFL
 70
1
  9
$DIMTVP
 40
0.0
  9
$DIMTIX
 70
0
  9
$DIMSOXD
 70
0
  9
$DIMSAH
 70
0
  9
$DIMBLK1
  1

  9
$DIMBLK2
  1

  9
$DIMSTYLE
  2
ISO-25
  9
$DIMCLRD
 70
0
  9
$DIMCLRE
 70
0
  9
$DIMCLRT
 70
0
  9
$DIMTFAC
 40
1.0
  9
$DIMGAP
 40
0.625
  9
$DIMJUST
 70
0
  9
$DIMSD1
 70
0
  9
$DIMSD2
 70
0
  9
$DIMTOLJ
 70
0
  9
$DIMTZIN
 70
8
  9
$DIMALTZ
 70
0
  9
$DIMALTTZ
 70
0
  9
$DIMUPT
 70
0
  9
$DIMDEC
 70
2
  9
$DIMTDEC
 70
2
  9
$DIMALTU
 70
2
  9
$DIMALTTD
 70
3
  9
$DIMTXSTY
  7
Standard
  9
$DIMAUNIT
 70
0
  9
$DIMADEC
 70
0
  9
$DIMALTRND
 40
0.0
  9
$DIMAZIN
 70
0
  9
$DIMDSEP
 70
44
  9
$DIMATFIT
 70
3
  9
$DIMFRAC
 70
0
  9
$DIMLDRBLK
  1

  9
$DIMLUNIT
 70
2
  9
$DIMLWD
 70
-2
  9
$DIMLWE
 70
-2
  9
$DIMTMOVE
 70
0
  9
$DIMFXL
 40
1.0
  9
$DIMFXLON
 70
0
  9
$DIMJOGANG
 40
0.785398163397
  9
$DIMTFILL
 70
0
  9
$DIMTFILLCLR
 70
0
  9
$DIMARCSYM
 70
0
  9
$DIMLTYPE
  6

  9
$DIMLTEX1
  6

  9
$DIMLTEX2
  6

  9
$DIMTXTDIRECTION
 70
0
  9
$LUNITS
 70
2
  9
$LUPREC
 70
4
  9
$SKETCHINC
 40
1.0
  9
$FILLETRAD
 40
10.0
  9
$AUNITS
 70
0
  9
$AUPREC
 70
2
  9
$MENU
  1
.
  9
$ELEVATION
 40
0.0
  9
$PELEVATION
 40
0.0
  9
$THICKNESS
 40
0.0
  9
$LIMCHECK
 70
0
  9
$CHAMFERA
 40
0.0
  9
$CHAMFERB
 40
0.0
  9
$CHAMFERC
 40
0.0
  9
$CHAMFERD
 40
0.0
  9
$SKPOLY
 70
0
  9
$TDCREATE
 40
2461257.737615741
  9
$TDUCREATE
 40
2458532.153996898
  9
$TDUPDATE
 40
2461257.737615741
  9
$TDUUPDATE
 40
2458532.1544311
  9
$TDINDWG
 40
0.0
  9
$TDUSRTIMER
 40
0.0
  9
$USRTIMER
 70
1
  9
$ANGBASE
 50
0.0
  9
$ANGDIR
 70
0
  9
$PDMODE
 70
0
  9
$PDSIZE
 40
0.0
  9
$PLINEWID
 40
0.0
  9
$SPLFRAME
 70
0
  9
$SPLINETYPE
 70
6
  9
$SPLINESEGS
 70
8
  9
$HANDSEED
  5
52
  9
$SURFTAB1
 70
6
  9
$SURFTAB2
 70
6
  9
$SURFTYPE
 70
6
  9
$SURFU
 70
6
  9
$SURFV
 70
6
  9
$UCSBASE
  2

  9
$UCSNAME
  2

  9
$UCSORG
 10
0.0
 20
0.0
 30
0.0
  9
$UCSXDIR
 10
1.0
 20
0.0
 30
0.0
  9
$UCSYDIR
 10
0.0
 20
1.0
 30
0.0
  9
$UCSORTHOREF
  2

  9
$UCSORTHOVIEW
 70
0
  9
$UCSORGTOP
 10
0.0
 20
0.0
 30
0.0
  9
$UCSORGBOTTOM
 10
0.0
 20
0.0
 30
0.0
  9
$UCSORGLEFT
 10
0.0
 20
0.0
 30
0.0
  9
$UCSORGRIGHT
 10
0.0
 20
0.0
 30
0.0
  9
$UCSORGFRONT
 10
0.0
 20
0.0
 30
0.0
  9
$UCSORGBACK
 10
0.0
 20
0.0
 30
0.0
  9
$PUCSBASE
  2

  9
$PUCSNAME
  2

  9
$PUCSORG
 10
0.0
 20
0.0
 30
0.0
  9
$PUCSXDIR
 10
1.0
 20
0.0
 30
0.0
  9
$PUCSYDIR
 10
0.0
 20
1.0
 30
0.0
  9
$PUCSORTHOREF
  2

  9
$PUCSORTHOVIEW
 70
0
  9
$PUCSORGTOP
 10
0.0
 20
0.0
 30
0.0
  9
$PUCSORGBOTTOM
 10
0.0
 20
0.0
 30
0.0
  9
$PUCSORGLEFT
 10
0.0
 20
0.0
 30
0.0
  9
$PUCSORGRIGHT
 10
0.0
 20
0.0
 30
0.0
  9
$PUCSORGFRONT
 10
0.0
 20
0.0
 30
0.0
  9
$PUCSORGBACK
 10
0.0
 20
0.0
 30
0.0
  9
$USERI1
 70
0
  9
$USERI2
 70
0
  9
$USERI3
 70
0
  9
$USERI4
 70
0
  9
$USERI5
 70
0
  9
$USERR1
 40
0.0
  9
$USERR2
 40
0.0
  9
$USERR3
 40
0.0
  9
$USERR4
 40
0.0
  9
$USERR5
 40
0.0
  9
$WORLDVIEW
 70
1
  9
$SHADEDGE
 70
3
  9
$SHADEDIF
 70
70
  9
$TILEMODE
 70
1
  9
$MAXACTVP
 70
64
  9
$PINSBASE
 10
0.0
 20
0.0
 30
0.0
  9
$PLIMCHECK
 70
0
  9
$PEXTMIN
 10
1e+20
 20
1e+20
 30
1e+20
  9
$PEXTMAX
 10
-1e+20
 20
-1e+20
 30
-1e+20
  9
$PLIMMIN
 10
0.0
 20
0.0
  9
$PLIMMAX
 10
420.0
 20
297.0
  9
$UNITMODE
 70
0
  9
$VISRETAIN
 70
1
  9
$PLINEGEN
 70
0
  9
$PSLTSCALE
 70
1
  9
$TREEDEPTH
 70
3020
  9
$CMLSTYLE
  2
Standard
  9
$CMLJUST
 70
0
  9
$CMLSCALE
 40
20.0
  9
$PROXYGRAPHICS
 70
1
  9
$MEASUREMENT
 70
1
  9
$CELWEIGHT
370
-1
  9
$ENDCAPS
280
0
  9
$JOINSTYLE
280
0
  9
$LWDISPLAY
290
0
  9
$INSUNITS
 70
6
  9
$HYPERLINKBASE
  1

  9
$STYLESHEET
  1

  9
$XEDIT
290
1
  9
$CEPSNTYPE
380
0
  9
$PSTYLEMODE
290
1
  9
$FINGERPRINTGUID
  2
{9D5E03F6-A0C2-45E1-9781-A36C7015A77B}
  9
$VERSIONGUID
  2
{EB314106-4282-465C-B23E-DA0FB78984C5}
  9
$EXTNAMES
290
1
  9
$PSVPSCALE
 40
0.0
  9
$OLESTARTUP
290
0
  9
$SORTENTS
280
127
  9
$INDEXCTL
280
0
  9
$HIDETEXT
280
1
  9
$XCLIPFRAME
280
1
  9
$HALOGAP
280
0
  9
$OBSCOLOR
 70
257
  9
$OBSLTYPE
280
0
  9
$INTERSECTIONDISPLAY
280
0
  9
$INTERSECTIONCOLOR
 70
257
  9
$DIMASSOC
280
2
  9
$PROJECTNAME
  1

  9
$CAMERADISPLAY
290
0
  9
$LENSLENGTH
 40
50.0
  9
$CAMERAHEIGHT
 40
0.0
  9
$STEPSPERSEC
 40
24.0
  9
$STEPSIZE
 40
100.0
  9
$3DDWFPREC
 40
2.0
  9
$PSOLWIDTH
 40
0.005
  9
$PSOLHEIGHT
 40
0.08
  9
$LOFTANG1
 40
1.570796326795
  9
$LOFTANG2
 40
1.570796326795
  9
$LOFTMAG1
 40
0.0
  9
$LOFTMAG2
 40
0.0
  9
$LOFTPARAM
 70
7
  9
$LOFTNORMALS
280
1
  9
$LATITUDE
 40
37.795
  9
$LONGITUDE
 40
-122.394
  9
$NORTHDIRECTION
 40
0.0
  9
$TIMEZONE
 70
-8000
  9
$LIGHTGLYPHDISPLAY
280
1
  9
$TILEMODELIGHTSYNCH
280
1
  9
$CMATERIAL
347
20
  9
$SOLIDHIST
280
0
  9
$SHOWHIST
280
1
  9
$DWFFRAME
280
2
  9
$DGNFRAME
280
2
  9
$REALWORLDSCALE
290
1
  9
$INTERFERECOLOR
 62
256
  9
$CSHADOW
280
0
  9
$SHADOWPLANELOCATION
 40
0.0
  0
ENDSEC
  0
SECTION
  2
CLASSES
  0
CLASS
  1
ACDBDICTIONARYWDFLT
  2
AcDbDictionaryWithDefault
  3
ObjectDBX Classes
 90
0
 91
0
280
0
281
0
  0
CLASS
  1
SUN
  2
AcDbSun
  3
SCENEOE
 90
1153
 91
0
280
0
281
0
  0
CLASS
  1
VISUALSTYLE
  2
AcDbVisualStyle
  3
ObjectDBX Classes
 90
4095
 91
0
280
0
281
0
  0
CLASS
  1
MATERIAL
  2
AcDbMaterial
  3
ObjectDBX Classes
 90
1153
 91
0
280
0
281
0
  0
CLASS
  1
SCALE
  2
AcDbScale
  3
ObjectDBX Classes
 90
1153
 91
0
280
0
281
0
  0
CLASS
  1
TABLESTYLE
  2
AcDbTableStyle
  3
ObjectDBX Classes
 90
4095
 91
0
280
0
281
0
  0
CLASS
  1
MLEADERSTYLE
  2
AcDbMLeaderStyle
  3
ACDB_MLEADERSTYLE_CLASS
 90
4095
 91
0
280
0
281
0
  0
CLASS
  1
DICTIONARYVAR
  2
AcDbDictionaryVar
  3
ObjectDBX Classes
 90
0
 91
0
280
0
281
0
  0
CLASS
  1
CELLSTYLEMAP
  2
AcDbCellStyleMap
  3
ObjectDBX Classes
 90
1152
 91
0
280
0
281
0
  0
CLASS
  1
MENTALRAYRENDERSETTINGS
  2
AcDbMentalRayRenderSettings
  3
SCENEOE
 90
1024
 91
0
280
0
281
0
  0
CLASS
  1
ACDBDETAILVIEWSTYLE
  2
AcDbDetailViewStyle
  3
ObjectDBX Classes
 90
1025
 91
0
280
0
281
0
  0
CLASS
  1
ACDBSECTIONVIEWSTYLE
  2
AcDbSectionViewStyle
  3
ObjectDBX Classes
 90
1025
 91
0
280
0
281
0
  0
CLASS
  1
RASTERVARIABLES
  2
AcDbRasterVariables
  3
ISM
 90
0
 91
0
280
0
281
0
  0
CLASS
  1
LAYOUT
  2
AcDbLayout
  3
ObjectDBX Classes
 90
0
 91
0
280
0
281
0
  0
CLASS
  1
ACDBPLACEHOLDER
  2
AcDbPlaceHolder
  3
ObjectDBX Classes
 90
0
 91
0
280
0
281
0
  0
ENDSEC
  0
SECTION
  2
TABLES
  0
TABLE
  2
VPORT
  5
8
330
0
100
AcDbSymbolTable
 70
1
  0
VPORT
  5
23
330
8
100
AcDbSymbolTableRecord
100
AcDbViewportTableRecord
  2
*Active
 70
0
 10
0.0
 20
0.0
 11
1.0
 21
1.0
 12
0.0
 22
0.0
 13
0.0
 23
0.0
 14
0.5
 24
0.5
 15
0.5
 25
0.5
 16
0.0
 26
0.0
 36
1.0
 17
0.0
 27
0.0
 37
0.0
 40
1000.0
 41
1.34
 42
50.0
 43
0.0
 44
0.0
 50
0.0
 51
0.0
 71
0
 72
1000
 73
1
 74
3
 75
0
 76
0
 77
0
 78
0
281
0
 65
0
146
0.0
  0
ENDTAB
  0
TABLE
  2
LTYPE
  5
2
330
0
100
AcDbSymbolTable
 70
3
  0
LTYPE
  5
24
330
2
100
AcDbSymbolTableRecord
100
AcDbLinetypeTableRecord
  2
ByBlock
 70
0
  3

 72
65
 73
0
 40
0.0
  0
LTYPE
  5
25
330
2
100
AcDbSymbolTableRecord
100
AcDbLinetypeTableRecord
  2
ByLayer
 70
0
  3

 72
65
 73
0
 40
0.0
  0
LTYPE
  5
26
330
2
100
AcDbSymbolTableRecord
100
AcDbLinetypeTableRecord
  2
Continuous
 70
0
  3

 72
65
 73
0
 40
0.0
  0
ENDTAB
  0
TABLE
  2
LAYER
  5
1
330
0
100
AcDbSymbolTable
 70
2
  0
LAYER
  5
27
330
1
100
AcDbSymbolTableRecord
100
AcDbLayerTableRecord
  2
0
 70
0
 62
7
  6
Continuous
370
-3
390
13
347
21
  0
LAYER
  5
28
330
1
100
AcDbSymbolTableRecord
100
AcDbLayerTableRecord
  2
Defpoints
 70
0
 62
7
  6
Continuous
290
0
370
-3
390
13
347
21
  0
ENDTAB
  0
TABLE
  2
STYLE
  5
5
330
0
100
AcDbSymbolTable
 70
1
  0
STYLE
  5
29
330
5
100
AcDbSymbolTableRecord
100
AcDbTextStyleTableRecord
  2
Standard
 70
0
 40
0.0
 41
1.0
 50
0.0
 71
0
 42
2.5
  3
txt
  4

  0
ENDTAB
  0
TABLE
  2
VIEW
  5
7
330
0
100
AcDbSymbolTable
 70
0
  0
ENDTAB
  0
TABLE
  2
UCS
  5
6
330
0
100
AcDbSymbolTable
 70
0
  0
ENDTAB
  0
TABLE
  2
APPID
  5
3
330
0
100
AcDbSymbolTable
 70
3
  0
APPID
  5
2A
330
3
100
AcDbSymbolTableRecord
100
AcDbRegAppTableRecord
  2
ACAD
 70
0
  0
APPID
  5
4F
330
3
100
AcDbSymbolTableRecord
100
AcDbRegAppTableRecord
  2
HATCHBACKGROUNDCOLOR
 70
0
  0
APPID
  5
50
330
3
100
AcDbSymbolTableRecord
100
AcDbRegAppTableRecord
  2
EZDXF
 70
0
  0
ENDTAB
  0
TABLE
  2
DIMSTYLE
  5
4
330
0
100
AcDbSymbolTable
 70
1
100
AcDbDimStyleTable
  0
DIMSTYLE
105
2B
330
4
100
AcDbSymbolTableRecord
100
AcDbDimStyleTableRecord
  2
Standard
 70
0
 40
1.0
 41
2.5
 42
0.625
 43
3.75
 44
1.25
 45
0.0
 46
0.0
 47
0.0
 48
0.0
 49
2.5
140
2.5
141
2.5
142
0.0
143
0.03937007874
144
1.0
145
0.0
146
1.0
147
0.625
148
0.0
 69
0
 70
0
 71
0
 72
0
 73
0
 74
0
 75
0
 76
0
 77
1
 78
8
 79
3
170
0
171
3
172
1
173
0
174
0
175
0
176
0
177
0
178
0
179
2
271
2
272
2
273
2
274
3
275
0
276
0
277
2
278
44
279
0
280
0
281
0
282
0
283
0
284
8
285
0
286
0
288
0
289
3
290
0
371
-2
372
-2
  0
ENDTAB
  0
TABLE
  2
BLOCK_RECORD
  5
9
330
0
100
AcDbSymbolTable
 70
2
  0
BLOCK_RECORD
  5
17
330
9
100
AcDbSymbolTableRecord
100
AcDbBlockTableRecord
  2
*Model_Space
340
1A
 70
0
280
1
281
0
  0
BLOCK_RECORD
  5
1B
330
9
100
AcDbSymbolTableRecord
100
AcDbBlockTableRecord
  2
*Paper_Space
340
1E
 70
0
280
1
281
0
  0
ENDTAB
  0
ENDSEC
  0
SECTION
  2
BLOCKS
  0
BLOCK
  5
18
330
17
100
AcDbEntity
  8
0
100
AcDbBlockBegin
  2
*Model_Space
 70
0
 10
0.0
 20
0.0
 30
0.0
  3
*Model_Space
  1

  0
ENDBLK
  5
19
330
17
100
AcDbEntity
  8
0
100
AcDbBlockEnd
  0
BLOCK
  5
1C
330
1B
100
AcDbEntity
  8
0
100
AcDbBlockBegin
  2
*Paper_Space
 70
0
 10
0.0
 20
0.0
 30
0.0
  3
*Paper_Space
  1

  0
ENDBLK
  5
1D
330
1B
100
AcDbEntity
  8
0
100
AcDbBlockEnd
  0
ENDSEC
  0
SECTION
  2
ENTITIES
  0
LWPOLYLINE
  5
2F
330
17
100
AcDbEntity
  8
GENERATED_PROFILE
100
AcDbPolyline
 90
256
 70
0
 10
4.0
 20
0.0
 10
4.00784314
 20
0.0
 10
4.01568627
 20
0.0
 10
4.02352941
 20
0.0
 10
4.03137255
 20
0.0
 10
4.03921569
 20
0.0
 10
4.04705882
 20
0.0
 10
4.0549019600000005
 20
0.0
 10
4.0627451
 20
0.0
 10
4.07058824
 20
0.0
 10
4.07843137
 20
0.0
 10
4.08627451
 20
0.0
 10
4.09411765
 20
0.0
 10
4.10196078
 20
0.0
 10
4.10980392
 20
0.0
 10
4.11764706
 20
0.0
 10
4.1254902
 20
0.0
 10
4.13333333
 20
0.0
 10
4.1411764699999996
 20
0.0
 10
4.14901961
 20
0.0
 10
4.15686275
 20
0.0
 10
4.16470588
 20
0.0
 10
4.17254902
 20
0.0
 10
4.18039216
 20
0.0
 10
4.18823529
 20
0.0
 10
4.19607843
 20
0.0
 10
4.20392157
 20
0.0
 10
4.21176471
 20
0.0
 10
4.21960784
 20
0.0
 10
4.22745098
 20
0.0
 10
4.23529412
 20
0.0
 10
4.24313725
 20
0.0
 10
4.2509803900000005
 20
0.0
 10
4.25882353
 20
0.0
 10
4.26666667
 20
0.0
 10
4.2745098
 20
0.0
 10
4.28235294
 20
0.0
 10
4.29019608
 20
0.0
 10
4.29803922
 20
0.0
 10
4.30588235
 20
0.0
 10
4.31372549
 20
0.0
 10
4.32156863
 20
0.0
 10
4.32941176
 20
0.0
 10
4.3372549
 20
0.0
 10
4.34509804
 20
0.0
 10
4.35294118
 20
0.0
 10
4.36078431
 20
0.0
 10
4.36862745
 20
0.0
 10
4.37647059
 20
0.0
 10
4.38431373
 20
0.0
 10
4.39215686
 20
0.0
 10
4.4
 20
0.0
 10
4.40784314
 20
0.0
 10
4.41568627
 20
0.0
 10
4.42352941
 20
0.0
 10
4.43137255
 20
0.0
 10
4.43921569
 20
0.0
 10
4.44705882
 20
0.0
 10
4.45490196
 20
0.0
 10
4.4627451
 20
0.0
 10
4.47058824
 20
0.0
 10
4.47843137
 20
0.0
 10
4.48627451
 20
0.0
 10
4.49411765
 20
0.0
 10
4.50196078
 20
0.0
 10
4.50980392
 20
0.0
 10
4.51764706
 20
0.0
 10
4.5254902
 20
0.0
 10
4.53333333
 20
0.0
 10
4.54117647
 20
0.0
 10
4.54901961
 20
0.0
 10
4.55686275
 20
0.0
 10
4.56470588
 20
0.0
 10
4.57254902
 20
0.0
 10
4.58039216
 20
0.0
 10
4.58823529
 20
0.0
 10
4.59607843
 20
0.0
 10
4.60392157
 20
0.0
 10
4.61176471
 20
0.0
 10
4.6196078400000005
 20
0.0
 10
4.62745098
 20
0.0
 10
4.63529412
 20
0.0
 10
4.64313725
 20
0.0
 10
4.65098039
 20
0.0
 10
4.65882353
 20
0.0
 10
4.66666667
 20
0.0
 10
4.6745098
 20
0.0
 10
4.68235294
 20
0.0
 10
4.69019608
 20
0.0
 10
4.69803922
 20
0.0
 10
4.7058823499999995
 20
0.0
 10
4.71372549
 20
0.0
 10
4.72156863
 20
0.0
 10
4.72941176
 20
0.0
 10
4.7372549
 20
0.0
 10
4.74509804
 20
0.0
 10
4.75294118
 20
0.0
 10
4.76078431
 20
0.0
 10
4.76862745
 20
0.0
 10
4.77647059
 20
0.0
 10
4.78431373
 20
0.0
 10
4.79215686
 20
0.0
 10
4.8
 20
0.0
 10
4.80784314
 20
0.0
 10
4.81568627
 20
0.0
 10
4.82352941
 20
0.0
 10
4.83137255
 20
0.0
 10
4.83921569
 20
0.0
 10
4.84705882
 20
0.0
 10
4.85490196
 20
0.0
 10
4.8627451
 20
0.0
 10
4.87058824
 20
0.0
 10
4.87843137
 20
0.0
 10
4.88627451
 20
0.0
 10
4.89411765
 20
0.0
 10
4.90196078
 20
0.0
 10
4.90980392
 20
0.0
 10
4.91764706
 20
0.0
 10
4.9254902
 20
0.0
 10
4.93333333
 20
0.0
 10
4.94117647
 20
0.0
 10
4.94901961
 20
0.0
 10
4.95686275
 20
0.0
 10
4.96470588
 20
0.0
 10
4.97254902
 20
0.0
 10
4.98039216
 20
0.0
 10
4.98823529
 20
0.0
 10
4.99607843
 20
0.0
 10
5.00392157
 20
0.0
 10
5.01176471
 20
0.0
 10
5.01960784
 20
0.0
 10
5.02745098
 20
0.0
 10
5.03529412
 20
0.0
 10
5.04313725
 20
0.0
 10
5.05098039
 20
0.0
 10
5.05882353
 20
0.0
 10
5.06666667
 20
0.0
 10
5.0745098
 20
0.0
 10
5.08235294
 20
0.0
 10
5.09019608
 20
0.0
 10
5.09803922
 20
0.0
 10
5.10588235
 20
0.0
 10
5.11372549
 20
0.0
 10
5.12156863
 20
0.0
 10
5.12941176
 20
0.0
 10
5.1372549
 20
0.0
 10
5.14509804
 20
0.0
 10
5.15294118
 20
0.0
 10
5.16078431
 20
0.0
 10
5.16862745
 20
0.0
 10
5.17647059
 20
0.0
 10
5.18431373
 20
0.0
 10
5.19215686
 20
0.0
 10
5.2
 20
0.0
 10
5.20784314
 20
0.0
 10
5.21568627
 20
0.0
 10
5.22352941
 20
0.0
 10
5.23137255
 20
0.0
 10
5.23921569
 20
0.0
 10
5.24705882
 20
0.0
 10
5.25490196
 20
0.0
 10
5.2627451
 20
0.0
 10
5.27058824
 20
0.0
 10
5.27843137
 20
0.0
 10
5.28627451
 20
0.0
 10
5.2941176500000005
 20
0.0
 10
5.30196078
 20
0.0
 10
5.30980392
 20
0.0
 10
5.31764706
 20
0.0
 10
5.3254902
 20
0.0
 10
5.33333333
 20
0.0
 10
5.34117647
 20
0.0
 10
5.34901961
 20
0.0
 10
5.35686275
 20
0.0
 10
5.36470588
 20
0.0
 10
5.37254902
 20
0.0
 10
5.3803921599999995
 20
0.0
 10
5.38823529
 20
0.0
 10
5.39607843
 20
0.0
 10
5.40392157
 20
0.0
 10
5.41176471
 20
0.0
 10
5.41960784
 20
0.0
 10
5.42745098
 20
0.0
 10
5.43529412
 20
0.0
 10
5.44313725
 20
0.0
 10
5.45098039
 20
0.0
 10
5.45882353
 20
0.0
 10
5.46666667
 20
0.0
 10
5.4745098
 20
0.0
 10
5.48235294
 20
0.0
 10
5.49019608
 20
0.0
 10
5.49803922
 20
0.0
 10
5.50588235
 20
0.0
 10
5.51372549
 20
0.0
 10
5.52156863
 20
0.0
 10
5.52941176
 20
0.0
 10
5.5372549
 20
0.0
 10
5.54509804
 20
0.0
 10
5.55294118
 20
0.0
 10
5.56078431
 20
0.0
 10
5.56862745
 20
0.0
 10
5.57647059
 20
0.0
 10
5.58431373
 20
0.0
 10
5.59215686
 20
0.0
 10
5.6
 20
0.0
 10
5.60784314
 20
0.0
 10
5.61568627
 20
0.0
 10
5.62352941
 20
0.0
 10
5.63137255
 20
0.0
 10
5.63921569
 20
0.0
 10
5.64705882
 20
0.0
 10
5.65490196
 20
0.0
 10
5.6627451
 20
0.0
 10
5.67058824
 20
0.0
 10
5.67843137
 20
0.0
 10
5.68627451
 20
0.0
 10
5.69411765
 20
0.0
 10
5.70196078
 20
0.0
 10
5.70980392
 20
0.0
 10
5.71764706
 20
0.0
 10
5.7254902
 20
0.0
 10
5.73333333
 20
0.0
 10
5.74117647
 20
0.0
 10
5.7490196099999995
 20
0.0
 10
5.75686275
 20
0.0
 10
5.76470588
 20
0.0
 10
5.77254902
 20
0.0
 10
5.78039216
 20
0.0
 10
5.78823529
 20
0.0
 10
5.79607843
 20
0.0
 10
5.80392157
 20
0.0
 10
5.81176471
 20
0.0
 10
5.81960784
 20
0.0
 10
5.82745098
 20
0.0
 10
5.83529412
 20
0.0
 10
5.84313725
 20
0.0
 10
5.85098039
 20
0.0
 10
5.8588235300000004
 20
0.0
 10
5.86666667
 20
0.0
 10
5.8745098
 20
0.0
 10
5.88235294
 20
0.0
 10
5.89019608
 20
0.0
 10
5.89803922
 20
0.0
 10
5.90588235
 20
0.0
 10
5.91372549
 20
0.0
 10
5.92156863
 20
0.0
 10
5.92941176
 20
0.0
 10
5.9372549
 20
0.0
 10
5.9450980399999995
 20
0.0
 10
5.95294118
 20
0.0
 10
5.96078431
 20
0.0
 10
5.96862745
 20
0.0
 10
5.97647059
 20
0.0
 10
5.98431373
 20
0.0
 10
5.99215686
 20
0.0
 10
6.0
 20
0.0
  0
TEXT
  5
30
330
17
100
AcDbEntity
  8
STATION_LABEL
100
AcDbText
 10
5.0
 20
0.0
 30
0.0
 40
1.0
  1
Station 1
 11
5.0
 21
0.0
 31
0.0
100
AcDbText
  0
LWPOLYLINE
  5
31
330
17
100
AcDbEntity
  8
GENERATED_PROFILE
100
AcDbPolyline
 90
256
 70
0
 10
8.95294702
 20
-0.0170966
 10
8.96133074
 20
-0.0170966
 10
8.96971445
 20
-0.0170966
 10
8.978098169999999
 20
-0.0170966
 10
8.98648189
 20
-0.0170966
 10
8.99486561
 20
-0.0170966
 10
9.00324932
 20
-0.0170966
 10
9.01163304
 20
-0.0170966
 10
9.02001676
 20
-0.0170966
 10
9.02840048
 20
-0.0170966
 10
9.03678419
 20
-0.0170966
 10
9.04516791
 20
-0.0170966
 10
9.05355163
 20
-0.0170966
 10
9.06193535
 20
-0.0170966
 10
9.07031906
 20
-0.0170966
 10
9.07870278
 20
-0.0170966
 10
9.0870865
 20
-0.0170966
 10
9.09547022
 20
-0.0170966
 10
9.10385393
 20
-0.0170966
 10
9.11223765
 20
-0.0170966
 10
9.12062137
 20
-0.0170966
 10
9.12900509
 20
-0.0170966
 10
9.1373888
 20
-0.0170966
 10
9.14577252
 20
-0.0170966
 10
9.15415624
 20
-0.0170966
 10
9.16253996
 20
-0.0170966
 10
9.17092367
 20
-0.0170966
 10
9.17930739
 20
-0.0170966
 10
9.18769111
 20
-0.0170966
 10
9.19607483
 20
-0.0170966
 10
9.20445854
 20
-0.0170966
 10
9.21284226
 20
-0.0170966
 10
9.22122598
 20
-0.0170966
 10
9.2296097
 20
-0.0170966
 10
9.23799341
 20
-0.0170966
 10
9.24637713
 20
-0.0170966
 10
9.25476085
 20
-0.0170966
 10
9.26314457
 20
-0.0170966
 10
9.27152828
 20
-0.0170966
 10
9.279912
 20
-0.0170966
 10
9.28829572
 20
-0.0170966
 10
9.29667944
 20
-0.0170966
 10
9.30506316
 20
-0.0170966
 10
9.31344687
 20
-0.0170966
 10
9.32183059
 20
-0.0170966
 10
9.32992803
 20
-0.01666246
 10
9.33766721
 20
-0.01568499
 10
9.34540639
 20
-0.01470752
 10
9.35314557
 20
-0.01373005
 10
9.36088474
 20
-0.01275257
 10
9.36862392
 20
-0.0117751
 10
9.3763631
 20
-0.01079763
 10
9.38410227
 20
-0.00982016
 10
9.39184145
 20
-0.00884269
 10
9.399580629999999
 20
-0.00786522
 10
9.40731981
 20
-0.00688775
 10
9.41505898
 20
-0.00591028
 10
9.42279816
 20
-0.00493281
 10
9.43053734
 20
-0.00395534
 10
9.43827652
 20
-0.00297787
 10
9.44601569
 20
-0.0020004
 10
9.453754870000001
 20
-0.00102293
 10
9.46149405
 20
-4.546e-05
 10
9.46923322
 20
0.00093201
 10
9.4769724
 20
0.00190948
 10
9.48471158
 20
0.00288695
 10
9.49245076
 20
0.00386442
 10
9.50018993
 20
0.00484189
 10
9.50792911
 20
0.00581936
 10
9.51566829
 20
0.00679683
 10
9.52340747
 20
0.0077743
 10
9.53114664
 20
0.00875177
 10
9.53888582
 20
0.00972924
 10
9.546625
 20
0.01070671
 10
9.55436418
 20
0.01168418
 10
9.56210335
 20
0.01266166
 10
9.56984253
 20
0.01363913
 10
9.57758171
 20
0.0146166
 10
9.58532088
 20
0.01559407
 10
9.5933897
 20
0.01607163
 10
9.60177342
 20
0.01607163
 10
9.61015714
 20
0.01607163
 10
9.61854085
 20
0.01607163
 10
9.62692457
 20
0.01607163
 10
9.63530829
 20
0.01607163
 10
9.643692
 20
0.01607163
 10
9.65207572
 20
0.01607163
 10
9.66045944
 20
0.01607163
 10
9.66884316
 20
0.01607163
 10
9.67722688
 20
0.01607163
 10
9.68561059
 20
0.01607163
 10
9.69399431
 20
0.01607163
 10
9.70237803
 20
0.01607163
 10
9.71076175
 20
0.01607163
 10
9.71914546
 20
0.01607163
 10
9.72752918
 20
0.01607163
 10
9.7359129
 20
0.01607163
 10
9.74429662
 20
0.01607163
 10
9.75268033
 20
0.01607163
 10
9.76106405
 20
0.01607163
 10
9.76944777
 20
0.01607163
 10
9.77783149
 20
0.01607163
 10
9.786215200000001
 20
0.01607163
 10
9.79459892
 20
0.01607163
 10
9.80298264
 20
0.01607163
 10
9.81136636
 20
0.01607163
 10
9.81975007
 20
0.01607163
 10
9.82813379
 20
0.01607163
 10
9.83651751
 20
0.01607163
 10
9.84490123
 20
0.01607163
 10
9.85328494
 20
0.01607163
 10
9.86166866
 20
0.01607163
 10
9.87005238
 20
0.01607163
 10
9.8784361
 20
0.01607163
 10
9.88681981
 20
0.01607163
 10
9.89520353
 20
0.01607163
 10
9.90358725
 20
0.01607163
 10
9.91197097
 20
0.01607163
 10
9.92035468
 20
0.01607163
 10
9.9287384
 20
0.01607163
 10
9.93712212
 20
0.01607163
 10
9.94550584
 20
0.01607163
 10
9.95388955
 20
0.01607163
 10
9.96227327
 20
0.01607163
 10
9.97065699
 20
0.01607163
 10
9.97904071
 20
0.01607163
 10
9.98742442
 20
0.01607163
 10
9.99580814
 20
0.01607163
 10
10.00419186
 20
0.01607163
 10
10.01257558
 20
0.01607163
 10
10.02095929
 20
0.01607163
 10
10.02934301
 20
0.01607163
 10
10.03772673
 20
0.01607163
 10
10.04611045
 20
0.01607163
 10
10.05449416
 20
0.01607163
 10
10.06287788
 20
0.01607163
 10
10.0712616
 20
0.01607163
 10
10.07964532
 20
0.01607163
 10
10.08802903
 20
0.01607163
 10
10.09641275
 20
0.01607163
 10
10.10479647
 20
0.01607163
 10
10.11318019
 20
0.01607163
 10
10.1215639
 20
0.01607163
 10
10.12994762
 20
0.01607163
 10
10.13833134
 20
0.01607163
 10
10.14671506
 20
0.01607163
 10
10.15509877
 20
0.01607163
 10
10.16348249
 20
0.01607163
 10
10.17186621
 20
0.01607163
 10
10.18024993
 20
0.01607163
 10
10.18863364
 20
0.01607163
 10
10.19701736
 20
0.01607163
 10
10.20540108
 20
0.01607163
 10
10.213784799999999
 20
0.01607163
 10
10.22216851
 20
0.01607163
 10
10.23055223
 20
0.01607163
 10
10.23893595
 20
0.01607163
 10
10.24731967
 20
0.01607163
 10
10.25570338
 20
0.01607163
 10
10.2640871
 20
0.01607163
 10
10.27247082
 20
0.01607163
 10
10.28085454
 20
0.01607163
 10
10.28923825
 20
0.01607163
 10
10.29762197
 20
0.01607163
 10
10.30600569
 20
0.01607163
 10
10.31438941
 20
0.01607163
 10
10.32277312
 20
0.01607163
 10
10.33115684
 20
0.01607163
 10
10.33954056
 20
0.01607163
 10
10.34792428
 20
0.01607163
 10
10.356308
 20
0.01607163
 10
10.36469171
 20
0.01607163
 10
10.37307543
 20
0.01607163
 10
10.38145915
 20
0.01607163
 10
10.38984286
 20
0.01607163
 10
10.39822658
 20
0.01607163
 10
10.4066103
 20
0.01607163
 10
10.41467912
 20
0.01559407
 10
10.42241829
 20
0.0146166
 10
10.43015747
 20
0.01363913
 10
10.43789665
 20
0.01266166
 10
10.44563582
 20
0.01168418
 10
10.453375
 20
0.01070671
 10
10.46111418
 20
0.00972924
 10
10.46885336
 20
0.00875177
 10
10.47659253
 20
0.0077743
 10
10.48433171
 20
0.00679683
 10
10.49207089
 20
0.00581936
 10
10.49981007
 20
0.00484189
 10
10.50754924
 20
0.00386442
 10
10.51528842
 20
0.00288695
 10
10.5230276
 20
0.00190948
 10
10.53076678
 20
0.00093201
 10
10.53850595
 20
-4.546e-05
 10
10.546245129999999
 20
-0.00102293
 10
10.55398431
 20
-0.0020004
 10
10.56172348
 20
-0.00297787
 10
10.56946266
 20
-0.00395534
 10
10.57720184
 20
-0.00493281
 10
10.58494102
 20
-0.00591028
 10
10.59268019
 20
-0.00688775
 10
10.600419370000001
 20
-0.00786522
 10
10.60815855
 20
-0.00884269
 10
10.61589773
 20
-0.00982016
 10
10.6236369
 20
-0.01079763
 10
10.63137608
 20
-0.0117751
 10
10.63911526
 20
-0.01275257
 10
10.64685443
 20
-0.01373005
 10
10.65459361
 20
-0.01470752
 10
10.66233279
 20
-0.01568499
 10
10.67007197
 20
-0.01666246
 10
10.67816941
 20
-0.0170966
 10
10.68655313
 20
-0.0170966
 10
10.69493684
 20
-0.0170966
 10
10.70332056
 20
-0.0170966
 10
10.71170428
 20
-0.0170966
 10
10.720088
 20
-0.0170966
 10
10.72847172
 20
-0.0170966
 10
10.73685543
 20
-0.0170966
 10
10.74523915
 20
-0.0170966
 10
10.75362287
 20
-0.0170966
 10
10.76200659
 20
-0.0170966
 10
10.7703903
 20
-0.0170966
 10
10.77877402
 20
-0.0170966
 10
10.78715774
 20
-0.0170966
 10
10.79554146
 20
-0.0170966
 10
10.80392517
 20
-0.0170966
 10
10.81230889
 20
-0.0170966
 10
10.82069261
 20
-0.0170966
 10
10.82907633
 20
-0.0170966
 10
10.83746004
 20
-0.0170966
 10
10.84584376
 20
-0.0170966
 10
10.85422748
 20
-0.0170966
 10
10.8626112
 20
-0.0170966
 10
10.87099491
 20
-0.0170966
 10
10.87937863
 20
-0.0170966
 10
10.88776235
 20
-0.0170966
 10
10.89614607
 20
-0.0170966
 10
10.90452978
 20
-0.0170966
 10
10.9129135
 20
-0.0170966
 10
10.92129722
 20
-0.0170966
 10
10.92968094
 20
-0.0170966
 10
10.93806465
 20
-0.0170966
 10
10.94644837
 20
-0.0170966
 10
10.95483209
 20
-0.0170966
 10
10.96321581
 20
-0.0170966
 10
10.97159952
 20
-0.0170966
 10
10.97998324
 20
-0.0170966
 10
10.98836696
 20
-0.0170966
 10
10.99675068
 20
-0.0170966
 10
11.00513439
 20
-0.0170966
 10
11.01351811
 20
-0.0170966
 10
11.021901830000001
 20
-0.0170966
 10
11.03028555
 20
-0.0170966
 10
11.03866926
 20
-0.0170966
 10
11.04705298
 20
-0.0170966
  0
TEXT
  5
32
330
17
100
AcDbEntity
  8
STATION_LABEL
100
AcDbText
 10
10.0
 20
0.0
 30
0.0
 40
1.0
  1
Station 2
 11
10.0
 21
0.0
 31
0.0
100
AcDbText
  0
LWPOLYLINE
  5
33
330
17
100
AcDbEntity
  8
GENERATED_PROFILE
100
AcDbPolyline
 90
256
 70
0
 10
13.90589404
 20
-0.03419321
 10
13.91481833
 20
-0.03419321
 10
13.92374263
 20
-0.03419321
 10
13.93266693
 20
-0.03419321
 10
13.94159123
 20
-0.03419321
 10
13.95051553
 20
-0.03419321
 10
13.95943982
 20
-0.03419321
 10
13.96836412
 20
-0.03419321
 10
13.97728842
 20
-0.03419321
 10
13.98621272
 20
-0.03419321
 10
13.99513702
 20
-0.03419321
 10
14.00406131
 20
-0.03419321
 10
14.01298561
 20
-0.03419321
 10
14.02190991
 20
-0.03419321
 10
14.03083421
 20
-0.03419321
 10
14.0397585
 20
-0.03419321
 10
14.0486828
 20
-0.03419321
 10
14.0576071
 20
-0.03419321
 10
14.0665314
 20
-0.03419321
 10
14.0754557
 20
-0.03419321
 10
14.08437999
 20
-0.03419321
 10
14.09330429
 20
-0.03419321
 10
14.10222859
 20
-0.03419321
 10
14.11115289
 20
-0.03419321
 10
14.12007719
 20
-0.03419321
 10
14.12900148
 20
-0.03419321
 10
14.13792578
 20
-0.03419321
 10
14.14685008
 20
-0.03419321
 10
14.15577438
 20
-0.03419321
 10
14.16469867
 20
-0.03419321
 10
14.17362297
 20
-0.03419321
 10
14.18254727
 20
-0.03419321
 10
14.191471570000001
 20
-0.03419321
 10
14.20039587
 20
-0.03419321
 10
14.20932016
 20
-0.03419321
 10
14.21824446
 20
-0.03419321
 10
14.22716876
 20
-0.03419321
 10
14.23609306
 20
-0.03419321
 10
14.24501735
 20
-0.03419321
 10
14.25394165
 20
-0.03419321
 10
14.26286595
 20
-0.03419321
 10
14.27179025
 20
-0.03419321
 10
14.28071455
 20
-0.03419321
 10
14.28963884
 20
-0.03419321
 10
14.29856314
 20
-0.03419321
 10
14.30691489
 20
-0.03332491
 10
14.31455011
 20
-0.03136997
 10
14.322185319999999
 20
-0.02941503
 10
14.32982054
 20
-0.02746009
 10
14.33745576
 20
-0.02550515
 10
14.34509098
 20
-0.02355021
 10
14.35272619
 20
-0.02159527
 10
14.36036141
 20
-0.01964033
 10
14.36799663
 20
-0.01768539
 10
14.37563185
 20
-0.01573045
 10
14.38326706
 20
-0.01377551
 10
14.39090228
 20
-0.01182056
 10
14.3985375
 20
-0.00986562
 10
14.40617272
 20
-0.00791068
 10
14.41380793
 20
-0.00595574
 10
14.42144315
 20
-0.0040008
 10
14.42907837
 20
-0.00204586
 10
14.43671358
 20
-9.092e-05
 10
14.4443488
 20
0.00186402
 10
14.45198402
 20
0.00381896
 10
14.45961924
 20
0.0057739
 10
14.46725445
 20
0.00772884
 10
14.47488967
 20
0.00968378
 10
14.48252489
 20
0.01163873
 10
14.49016011
 20
0.01359367
 10
14.49779532
 20
0.01554861
 10
14.50543054
 20
0.01750355
 10
14.51306576
 20
0.01945849
 10
14.52070098
 20
0.02141343
 10
14.52833619
 20
0.02336837
 10
14.53597141
 20
0.02532331
 10
14.54360663
 20
0.02727825
 10
14.55124185
 20
0.02923319
 10
14.55887706
 20
0.03118813
 10
14.56717156
 20
0.03214326
 10
14.57609585
 20
0.03214326
 10
14.58502015
 20
0.03214326
 10
14.59394445
 20
0.03214326
 10
14.60286875
 20
0.03214326
 10
14.61179305
 20
0.03214326
 10
14.62071734
 20
0.03214326
 10
14.62964164
 20
0.03214326
 10
14.63856594
 20
0.03214326
 10
14.64749024
 20
0.03214326
 10
14.65641453
 20
0.03214326
 10
14.66533883
 20
0.03214326
 10
14.67426313
 20
0.03214326
 10
14.68318743
 20
0.03214326
 10
14.69211173
 20
0.03214326
 10
14.70103602
 20
0.03214326
 10
14.70996032
 20
0.03214326
 10
14.71888462
 20
0.03214326
 10
14.72780892
 20
0.03214326
 10
14.73673321
 20
0.03214326
 10
14.745657510000001
 20
0.03214326
 10
14.75458181
 20
0.03214326
 10
14.76350611
 20
0.03214326
 10
14.77243041
 20
0.03214326
 10
14.7813547
 20
0.03214326
 10
14.790279
 20
0.03214326
 10
14.7992033
 20
0.03214326
 10
14.8081276
 20
0.03214326
 10
14.81705189
 20
0.03214326
 10
14.82597619
 20
0.03214326
 10
14.83490049
 20
0.03214326
 10
14.84382479
 20
0.03214326
 10
14.85274909
 20
0.03214326
 10
14.86167338
 20
0.03214326
 10
14.87059768
 20
0.03214326
 10
14.87952198
 20
0.03214326
 10
14.88844628
 20
0.03214326
 10
14.89737057
 20
0.03214326
 10
14.90629487
 20
0.03214326
 10
14.91521917
 20
0.03214326
 10
14.92414347
 20
0.03214326
 10
14.93306777
 20
0.03214326
 10
14.94199206
 20
0.03214326
 10
14.95091636
 20
0.03214326
 10
14.95984066
 20
0.03214326
 10
14.96876496
 20
0.03214326
 10
14.97768926
 20
0.03214326
 10
14.98661355
 20
0.03214326
 10
14.99553785
 20
0.03214326
 10
15.00446215
 20
0.03214326
 10
15.01338645
 20
0.03214326
 10
15.02231074
 20
0.03214326
 10
15.03123504
 20
0.03214326
 10
15.04015934
 20
0.03214326
 10
15.04908364
 20
0.03214326
 10
15.05800794
 20
0.03214326
 10
15.06693223
 20
0.03214326
 10
15.07585653
 20
0.03214326
 10
15.08478083
 20
0.03214326
 10
15.09370513
 20
0.03214326
 10
15.10262943
 20
0.03214326
 10
15.11155372
 20
0.03214326
 10
15.12047802
 20
0.03214326
 10
15.12940232
 20
0.03214326
 10
15.13832662
 20
0.03214326
 10
15.14725091
 20
0.03214326
 10
15.15617521
 20
0.03214326
 10
15.16509951
 20
0.03214326
 10
15.17402381
 20
0.03214326
 10
15.18294811
 20
0.03214326
 10
15.1918724
 20
0.03214326
 10
15.2007967
 20
0.03214326
 10
15.209721
 20
0.03214326
 10
15.2186453
 20
0.03214326
 10
15.22756959
 20
0.03214326
 10
15.23649389
 20
0.03214326
 10
15.24541819
 20
0.03214326
 10
15.254342489999999
 20
0.03214326
 10
15.26326679
 20
0.03214326
 10
15.27219108
 20
0.03214326
 10
15.28111538
 20
0.03214326
 10
15.29003968
 20
0.03214326
 10
15.29896398
 20
0.03214326
 10
15.30788827
 20
0.03214326
 10
15.31681257
 20
0.03214326
 10
15.32573687
 20
0.03214326
 10
15.33466117
 20
0.03214326
 10
15.34358547
 20
0.03214326
 10
15.35250976
 20
0.03214326
 10
15.36143406
 20
0.03214326
 10
15.37035836
 20
0.03214326
 10
15.37928266
 20
0.03214326
 10
15.38820695
 20
0.03214326
 10
15.39713125
 20
0.03214326
 10
15.40605555
 20
0.03214326
 10
15.41497985
 20
0.03214326
 10
15.42390415
 20
0.03214326
 10
15.43282844
 20
0.03214326
 10
15.44112294
 20
0.03118813
 10
15.44875815
 20
0.02923319
 10
15.45639337
 20
0.02727825
 10
15.46402859
 20
0.02532331
 10
15.47166381
 20
0.02336837
 10
15.47929902
 20
0.02141343
 10
15.48693424
 20
0.01945849
 10
15.49456946
 20
0.01750355
 10
15.50220468
 20
0.01554861
 10
15.50983989
 20
0.01359367
 10
15.51747511
 20
0.01163873
 10
15.52511033
 20
0.00968378
 10
15.53274555
 20
0.00772884
 10
15.54038076
 20
0.0057739
 10
15.54801598
 20
0.00381896
 10
15.5556512
 20
0.00186402
 10
15.56328642
 20
-9.092e-05
 10
15.57092163
 20
-0.00204586
 10
15.57855685
 20
-0.0040008
 10
15.58619207
 20
-0.00595574
 10
15.59382728
 20
-0.00791068
 10
15.6014625
 20
-0.00986562
 10
15.60909772
 20
-0.01182056
 10
15.61673294
 20
-0.01377551
 10
15.62436815
 20
-0.01573045
 10
15.63200337
 20
-0.01768539
 10
15.63963859
 20
-0.01964033
 10
15.64727381
 20
-0.02159527
 10
15.65490902
 20
-0.02355021
 10
15.66254424
 20
-0.02550515
 10
15.67017946
 20
-0.02746009
 10
15.677814680000001
 20
-0.02941503
 10
15.68544989
 20
-0.03136997
 10
15.69308511
 20
-0.03332491
 10
15.70143686
 20
-0.03419321
 10
15.71036116
 20
-0.03419321
 10
15.71928545
 20
-0.03419321
 10
15.72820975
 20
-0.03419321
 10
15.73713405
 20
-0.03419321
 10
15.74605835
 20
-0.03419321
 10
15.75498265
 20
-0.03419321
 10
15.76390694
 20
-0.03419321
 10
15.77283124
 20
-0.03419321
 10
15.78175554
 20
-0.03419321
 10
15.79067984
 20
-0.03419321
 10
15.79960413
 20
-0.03419321
 10
15.808528429999999
 20
-0.03419321
 10
15.81745273
 20
-0.03419321
 10
15.82637703
 20
-0.03419321
 10
15.83530133
 20
-0.03419321
 10
15.84422562
 20
-0.03419321
 10
15.85314992
 20
-0.03419321
 10
15.86207422
 20
-0.03419321
 10
15.87099852
 20
-0.03419321
 10
15.87992281
 20
-0.03419321
 10
15.88884711
 20
-0.03419321
 10
15.89777141
 20
-0.03419321
 10
15.90669571
 20
-0.03419321
 10
15.91562001
 20
-0.03419321
 10
15.9245443
 20
-0.03419321
 10
15.9334686
 20
-0.03419321
 10
15.9423929
 20
-0.03419321
 10
15.9513172
 20
-0.03419321
 10
15.9602415
 20
-0.03419321
 10
15.96916579
 20
-0.03419321
 10
15.97809009
 20
-0.03419321
 10
15.98701439
 20
-0.03419321
 10
15.99593869
 20
-0.03419321
 10
16.00486298
 20
-0.03419321
 10
16.01378728
 20
-0.03419321
 10
16.02271158
 20
-0.03419321
 10
16.03163588
 20
-0.03419321
 10
16.04056018
 20
-0.03419321
 10
16.04948447
 20
-0.03419321
 10
16.05840877
 20
-0.03419321
 10
16.06733307
 20
-0.03419321
 10
16.07625737
 20
-0.03419321
 10
16.08518167
 20
-0.03419321
 10
16.09410596
 20
-0.03419321
  0
TEXT
  5
34
330
17
100
AcDbEntity
  8
STATION_LABEL
100
AcDbText
 10
15.0
 20
0.0
 30
0.0
 40
1.0
  1
Station 3
 11
15.0
 21
0.0
 31
0.0
100
AcDbText
  0
LWPOLYLINE
  5
35
330
17
100
AcDbEntity
  8
GENERATED_PROFILE
100
AcDbPolyline
 90
256
 70
0
 10
18.85884106
 20
-0.05128981
 10
18.86830593
 20
-0.05128981
 10
18.87777081
 20
-0.05128981
 10
18.88723569
 20
-0.05128981
 10
18.89670057
 20
-0.05128981
 10
18.90616545
 20
-0.05128981
 10
18.915630319999998
 20
-0.05128981
 10
18.9250952
 20
-0.05128981
 10
18.93456008
 20
-0.05128981
 10
18.94402496
 20
-0.05128981
 10
18.95348984
 20
-0.05128981
 10
18.96295472
 20
-0.05128981
 10
18.97241959
 20
-0.05128981
 10
18.98188447
 20
-0.05128981
 10
18.99134935
 20
-0.05128981
 10
19.00081423
 20
-0.05128981
 10
19.010279099999998
 20
-0.05128981
 10
19.01974398
 20
-0.05128981
 10
19.02920886
 20
-0.05128981
 10
19.03867374
 20
-0.05128981
 10
19.04813862
 20
-0.05128981
 10
19.0576035
 20
-0.05128981
 10
19.06706837
 20
-0.05128981
 10
19.07653325
 20
-0.05128981
 10
19.08599813
 20
-0.05128981
 10
19.09546301
 20
-0.05128981
 10
19.10492789
 20
-0.05128981
 10
19.11439276
 20
-0.05128981
 10
19.12385764
 20
-0.05128981
 10
19.13332252
 20
-0.05128981
 10
19.1427874
 20
-0.05128981
 10
19.15225228
 20
-0.05128981
 10
19.16171716
 20
-0.05128981
 10
19.17118203
 20
-0.05128981
 10
19.18064691
 20
-0.05128981
 10
19.19011179
 20
-0.05128981
 10
19.19957667
 20
-0.05128981
 10
19.20904154
 20
-0.05128981
 10
19.21850642
 20
-0.05128981
 10
19.2279713
 20
-0.05128981
 10
19.23743618
 20
-0.05128981
 10
19.24690106
 20
-0.05128981
 10
19.25636594
 20
-0.05128981
 10
19.26583081
 20
-0.05128981
 10
19.27529569
 20
-0.05128981
 10
19.28390175
 20
-0.04998737
 10
19.291433
 20
-0.04705496
 10
19.298964259999998
 20
-0.04412255
 10
19.30649552
 20
-0.04119014
 10
19.31402678
 20
-0.03825772
 10
19.32155803
 20
-0.03532531
 10
19.32908929
 20
-0.0323929
 10
19.33662055
 20
-0.02946049
 10
19.34415181
 20
-0.02652808
 10
19.35168306
 20
-0.02359567
 10
19.35921432
 20
-0.02066326
 10
19.36674558
 20
-0.01773085
 10
19.37427683
 20
-0.01479843
 10
19.38180809
 20
-0.01186602
 10
19.38933935
 20
-0.00893361
 10
19.39687061
 20
-0.0060012
 10
19.40440187
 20
-0.00306879
 10
19.41193312
 20
-0.00013638
 10
19.41946438
 20
0.00279603
 10
19.42699564
 20
0.00572844
 10
19.4345269
 20
0.00866085
 10
19.44205815
 20
0.01159327
 10
19.44958941
 20
0.01452568
 10
19.45712067
 20
0.01745809
 10
19.46465192
 20
0.0203905
 10
19.472183180000002
 20
0.02332291
 10
19.47971444
 20
0.02625532
 10
19.4872457
 20
0.02918773
 10
19.49477695
 20
0.03212014
 10
19.50230821
 20
0.03505255
 10
19.50983947
 20
0.03798497
 10
19.51737073
 20
0.04091738
 10
19.52490198
 20
0.04384979
 10
19.53243324
 20
0.0467822
 10
19.54095341
 20
0.04821488
 10
19.55041829
 20
0.04821488
 10
19.55988317
 20
0.04821488
 10
19.56934805
 20
0.04821488
 10
19.57881293
 20
0.04821488
 10
19.5882778
 20
0.04821488
 10
19.59774268
 20
0.04821488
 10
19.60720756
 20
0.04821488
 10
19.61667244
 20
0.04821488
 10
19.62613732
 20
0.04821488
 10
19.63560219
 20
0.04821488
 10
19.64506707
 20
0.04821488
 10
19.65453195
 20
0.04821488
 10
19.66399683
 20
0.04821488
 10
19.67346171
 20
0.04821488
 10
19.68292658
 20
0.04821488
 10
19.69239146
 20
0.04821488
 10
19.70185634
 20
0.04821488
 10
19.71132122
 20
0.04821488
 10
19.7207861
 20
0.04821488
 10
19.73025097
 20
0.04821488
 10
19.73971585
 20
0.04821488
 10
19.74918073
 20
0.04821488
 10
19.75864561
 20
0.04821488
 10
19.76811049
 20
0.04821488
 10
19.77757537
 20
0.04821488
 10
19.78704024
 20
0.04821488
 10
19.79650512
 20
0.04821488
 10
19.80597
 20
0.04821488
 10
19.81543488
 20
0.04821488
 10
19.82489975
 20
0.04821488
 10
19.83436463
 20
0.04821488
 10
19.84382951
 20
0.04821488
 10
19.85329439
 20
0.04821488
 10
19.86275927
 20
0.04821488
 10
19.87222415
 20
0.04821488
 10
19.88168902
 20
0.04821488
 10
19.8911539
 20
0.04821488
 10
19.90061878
 20
0.04821488
 10
19.91008366
 20
0.04821488
 10
19.91954854
 20
0.04821488
 10
19.92901341
 20
0.04821488
 10
19.93847829
 20
0.04821488
 10
19.94794317
 20
0.04821488
 10
19.95740805
 20
0.04821488
 10
19.96687293
 20
0.04821488
 10
19.97633781
 20
0.04821488
 10
19.98580268
 20
0.04821488
 10
19.99526756
 20
0.04821488
 10
20.00473244
 20
0.04821488
 10
20.01419732
 20
0.04821488
 10
20.02366219
 20
0.04821488
 10
20.03312707
 20
0.04821488
 10
20.04259195
 20
0.04821488
 10
20.05205683
 20
0.04821488
 10
20.06152171
 20
0.04821488
 10
20.07098659
 20
0.04821488
 10
20.08045146
 20
0.04821488
 10
20.08991634
 20
0.04821488
 10
20.09938122
 20
0.04821488
 10
20.1088461
 20
0.04821488
 10
20.11831098
 20
0.04821488
 10
20.12777585
 20
0.04821488
 10
20.13724073
 20
0.04821488
 10
20.14670561
 20
0.04821488
 10
20.15617049
 20
0.04821488
 10
20.16563537
 20
0.04821488
 10
20.17510025
 20
0.04821488
 10
20.18456512
 20
0.04821488
 10
20.19403
 20
0.04821488
 10
20.20349488
 20
0.04821488
 10
20.21295976
 20
0.04821488
 10
20.22242463
 20
0.04821488
 10
20.23188951
 20
0.04821488
 10
20.24135439
 20
0.04821488
 10
20.25081927
 20
0.04821488
 10
20.26028415
 20
0.04821488
 10
20.26974903
 20
0.04821488
 10
20.2792139
 20
0.04821488
 10
20.28867878
 20
0.04821488
 10
20.29814366
 20
0.04821488
 10
20.30760854
 20
0.04821488
 10
20.31707342
 20
0.04821488
 10
20.32653829
 20
0.04821488
 10
20.33600317
 20
0.04821488
 10
20.34546805
 20
0.04821488
 10
20.35493293
 20
0.04821488
 10
20.36439781
 20
0.04821488
 10
20.37386268
 20
0.04821488
 10
20.38332756
 20
0.04821488
 10
20.39279244
 20
0.04821488
 10
20.40225732
 20
0.04821488
 10
20.4117222
 20
0.04821488
 10
20.42118707
 20
0.04821488
 10
20.43065195
 20
0.04821488
 10
20.44011683
 20
0.04821488
 10
20.44958171
 20
0.04821488
 10
20.45904659
 20
0.04821488
 10
20.46756676
 20
0.0467822
 10
20.47509802
 20
0.04384979
 10
20.48262927
 20
0.04091738
 10
20.49016053
 20
0.03798497
 10
20.49769179
 20
0.03505255
 10
20.50522305
 20
0.03212014
 10
20.5127543
 20
0.02918773
 10
20.52028556
 20
0.02625532
 10
20.527816819999998
 20
0.02332291
 10
20.53534808
 20
0.0203905
 10
20.54287933
 20
0.01745809
 10
20.55041059
 20
0.01452568
 10
20.55794185
 20
0.01159327
 10
20.5654731
 20
0.00866085
 10
20.57300436
 20
0.00572844
 10
20.58053562
 20
0.00279603
 10
20.58806688
 20
-0.00013638
 10
20.59559813
 20
-0.00306879
 10
20.60312939
 20
-0.0060012
 10
20.61066065
 20
-0.00893361
 10
20.61819191
 20
-0.01186602
 10
20.62572317
 20
-0.01479843
 10
20.63325442
 20
-0.01773085
 10
20.64078568
 20
-0.02066326
 10
20.64831694
 20
-0.02359567
 10
20.65584819
 20
-0.02652808
 10
20.66337945
 20
-0.02946049
 10
20.67091071
 20
-0.0323929
 10
20.67844197
 20
-0.03532531
 10
20.68597322
 20
-0.03825772
 10
20.69350448
 20
-0.04119014
 10
20.701035740000002
 20
-0.04412255
 10
20.708567
 20
-0.04705496
 10
20.71609825
 20
-0.04998737
 10
20.72470431
 20
-0.05128981
 10
20.73416919
 20
-0.05128981
 10
20.74363406
 20
-0.05128981
 10
20.75309894
 20
-0.05128981
 10
20.76256382
 20
-0.05128981
 10
20.7720287
 20
-0.05128981
 10
20.78149358
 20
-0.05128981
 10
20.79095846
 20
-0.05128981
 10
20.80042333
 20
-0.05128981
 10
20.80988821
 20
-0.05128981
 10
20.81935309
 20
-0.05128981
 10
20.82881797
 20
-0.05128981
 10
20.83828284
 20
-0.05128981
 10
20.84774772
 20
-0.05128981
 10
20.8572126
 20
-0.05128981
 10
20.86667748
 20
-0.05128981
 10
20.87614236
 20
-0.05128981
 10
20.88560724
 20
-0.05128981
 10
20.89507211
 20
-0.05128981
 10
20.90453699
 20
-0.05128981
 10
20.91400187
 20
-0.05128981
 10
20.92346675
 20
-0.05128981
 10
20.93293163
 20
-0.05128981
 10
20.9423965
 20
-0.05128981
 10
20.95186138
 20
-0.05128981
 10
20.96132626
 20
-0.05128981
 10
20.97079114
 20
-0.05128981
 10
20.98025602
 20
-0.05128981
 10
20.989720900000002
 20
-0.05128981
 10
20.99918577
 20
-0.05128981
 10
21.00865065
 20
-0.05128981
 10
21.01811553
 20
-0.05128981
 10
21.02758041
 20
-0.05128981
 10
21.03704528
 20
-0.05128981
 10
21.04651016
 20
-0.05128981
 10
21.05597504
 20
-0.05128981
 10
21.06543992
 20
-0.05128981
 10
21.0749048
 20
-0.05128981
 10
21.084369680000002
 20
-0.05128981
 10
21.09383455
 20
-0.05128981
 10
21.10329943
 20
-0.05128981
 10
21.11276431
 20
-0.05128981
 10
21.12222919
 20
-0.05128981
 10
21.13169407
 20
-0.05128981
 10
21.14115894
 20
-0.05128981
  0
TEXT
  5
36
330
17
100
AcDbEntity
  8
STATION_LABEL
100
AcDbText
 10
20.0
 20
0.0
 30
0.0
 40
1.0
  1
Station 4
 11
20.0
 21
0.0
 31
0.0
100
AcDbText
  0
LWPOLYLINE
  5
37
330
17
100
AcDbEntity
  8
GENERATED_PROFILE
100
AcDbPolyline
 90
256
 70
0
 10
23.81178807
 20
-0.06838641
 10
23.82179353
 20
-0.06838641
 10
23.83179899
 20
-0.06838641
 10
23.84180445
 20
-0.06838641
 10
23.85180991
 20
-0.06838641
 10
23.86181537
 20
-0.06838641
 10
23.87182083
 20
-0.06838641
 10
23.88182628
 20
-0.06838641
 10
23.89183174
 20
-0.06838641
 10
23.9018372
 20
-0.06838641
 10
23.91184266
 20
-0.06838641
 10
23.92184812
 20
-0.06838641
 10
23.93185358
 20
-0.06838641
 10
23.94185903
 20
-0.06838641
 10
23.95186449
 20
-0.06838641
 10
23.96186995
 20
-0.06838641
 10
23.97187541
 20
-0.06838641
 10
23.98188087
 20
-0.06838641
 10
23.99188633
 20
-0.06838641
 10
24.00189178
 20
-0.06838641
 10
24.01189724
 20
-0.06838641
 10
24.0219027
 20
-0.06838641
 10
24.03190816
 20
-0.06838641
 10
24.04191362
 20
-0.06838641
 10
24.05191908
 20
-0.06838641
 10
24.06192454
 20
-0.06838641
 10
24.07192999
 20
-0.06838641
 10
24.08193545
 20
-0.06838641
 10
24.09194091
 20
-0.06838641
 10
24.10194637
 20
-0.06838641
 10
24.11195182
 20
-0.06838641
 10
24.12195729
 20
-0.06838641
 10
24.13196274
 20
-0.06838641
 10
24.1419682
 20
-0.06838641
 10
24.15197366
 20
-0.06838641
 10
24.16197912
 20
-0.06838641
 10
24.17198458
 20
-0.06838641
 10
24.18199003
 20
-0.06838641
 10
24.19199549
 20
-0.06838641
 10
24.20200095
 20
-0.06838641
 10
24.21200641
 20
-0.06838641
 10
24.22201187
 20
-0.06838641
 10
24.23201733
 20
-0.06838641
 10
24.24202278
 20
-0.06838641
 10
24.25202824
 20
-0.06838641
 10
24.2608886
 20
-0.06664982
 10
24.2683159
 20
-0.06273994
 10
24.2757432
 20
-0.05883006
 10
24.2831705
 20
-0.05492018
 10
24.29059779
 20
-0.0510103
 10
24.29802509
 20
-0.04710042
 10
24.30545239
 20
-0.04319054
 10
24.31287968
 20
-0.03928065
 10
24.32030698
 20
-0.03537077
 10
24.32773428
 20
-0.03146089
 10
24.33516158
 20
-0.02755101
 10
24.34258887
 20
-0.02364113
 10
24.35001617
 20
-0.01973125
 10
24.35744347
 20
-0.01582137
 10
24.36487077
 20
-0.01191148
 10
24.37229807
 20
-0.0080016
 10
24.37972536
 20
-0.00409172
 10
24.38715266
 20
-0.00018184
 10
24.39457996
 20
0.00372804
 10
24.40200726
 20
0.00763793
 10
24.40943455
 20
0.01154781
 10
24.41686185
 20
0.01545769
 10
24.42428915
 20
0.01936757
 10
24.43171644
 20
0.02327745
 10
24.43914374
 20
0.02718733
 10
24.44657104
 20
0.03109721
 10
24.45399834
 20
0.0350071
 10
24.46142564
 20
0.03891698
 10
24.46885293
 20
0.04282686
 10
24.47628023
 20
0.04673674
 10
24.48370753
 20
0.05064662
 10
24.49113483
 20
0.0545565
 10
24.49856212
 20
0.05846638
 10
24.50598942
 20
0.06237627
 10
24.51473527
 20
0.06428651
 10
24.52474073
 20
0.06428651
 10
24.53474619
 20
0.06428651
 10
24.54475165
 20
0.06428651
 10
24.5547571
 20
0.06428651
 10
24.56476256
 20
0.06428651
 10
24.57476802
 20
0.06428651
 10
24.58477348
 20
0.06428651
 10
24.59477894
 20
0.06428651
 10
24.6047844
 20
0.06428651
 10
24.61478985
 20
0.06428651
 10
24.62479531
 20
0.06428651
 10
24.63480077
 20
0.06428651
 10
24.64480623
 20
0.06428651
 10
24.65481169
 20
0.06428651
 10
24.66481714
 20
0.06428651
 10
24.6748226
 20
0.06428651
 10
24.68482806
 20
0.06428651
 10
24.69483352
 20
0.06428651
 10
24.70483898
 20
0.06428651
 10
24.71484444
 20
0.06428651
 10
24.72484989
 20
0.06428651
 10
24.73485535
 20
0.06428651
 10
24.74486081
 20
0.06428651
 10
24.75486627
 20
0.06428651
 10
24.76487173
 20
0.06428651
 10
24.77487719
 20
0.06428651
 10
24.78488265
 20
0.06428651
 10
24.7948881
 20
0.06428651
 10
24.80489356
 20
0.06428651
 10
24.81489902
 20
0.06428651
 10
24.82490448
 20
0.06428651
 10
24.83490994
 20
0.06428651
 10
24.8449154
 20
0.06428651
 10
24.85492085
 20
0.06428651
 10
24.86492631
 20
0.06428651
 10
24.87493177
 20
0.06428651
 10
24.88493723
 20
0.06428651
 10
24.89494269
 20
0.06428651
 10
24.90494815
 20
0.06428651
 10
24.9149536
 20
0.06428651
 10
24.92495906
 20
0.06428651
 10
24.93496452
 20
0.06428651
 10
24.94496998
 20
0.06428651
 10
24.95497544
 20
0.06428651
 10
24.9649809
 20
0.06428651
 10
24.97498636
 20
0.06428651
 10
24.98499181
 20
0.06428651
 10
24.99499727
 20
0.06428651
 10
25.00500273
 20
0.06428651
 10
25.01500819
 20
0.06428651
 10
25.02501364
 20
0.06428651
 10
25.0350191
 20
0.06428651
 10
25.04502456
 20
0.06428651
 10
25.05503002
 20
0.06428651
 10
25.06503548
 20
0.06428651
 10
25.07504094
 20
0.06428651
 10
25.0850464
 20
0.06428651
 10
25.09505185
 20
0.06428651
 10
25.10505731
 20
0.06428651
 10
25.11506277
 20
0.06428651
 10
25.12506823
 20
0.06428651
 10
25.13507369
 20
0.06428651
 10
25.14507915
 20
0.06428651
 10
25.1550846
 20
0.06428651
 10
25.16509006
 20
0.06428651
 10
25.17509552
 20
0.06428651
 10
25.18510098
 20
0.06428651
 10
25.19510644
 20
0.06428651
 10
25.2051119
 20
0.06428651
 10
25.21511735
 20
0.06428651
 10
25.22512281
 20
0.06428651
 10
25.23512827
 20
0.06428651
 10
25.24513373
 20
0.06428651
 10
25.25513919
 20
0.06428651
 10
25.26514465
 20
0.06428651
 10
25.27515011
 20
0.06428651
 10
25.28515556
 20
0.06428651
 10
25.29516102
 20
0.06428651
 10
25.30516648
 20
0.06428651
 10
25.31517194
 20
0.06428651
 10
25.3251774
 20
0.06428651
 10
25.33518286
 20
0.06428651
 10
25.34518831
 20
0.06428651
 10
25.35519377
 20
0.06428651
 10
25.36519923
 20
0.06428651
 10
25.37520469
 20
0.06428651
 10
25.38521015
 20
0.06428651
 10
25.3952156
 20
0.06428651
 10
25.40522106
 20
0.06428651
 10
25.41522652
 20
0.06428651
 10
25.42523198
 20
0.06428651
 10
25.43523744
 20
0.06428651
 10
25.4452429
 20
0.06428651
 10
25.45524835
 20
0.06428651
 10
25.46525381
 20
0.06428651
 10
25.47525927
 20
0.06428651
 10
25.48526473
 20
0.06428651
 10
25.49401058
 20
0.06237627
 10
25.50143788
 20
0.05846638
 10
25.50886517
 20
0.0545565
 10
25.51629247
 20
0.05064662
 10
25.52371977
 20
0.04673674
 10
25.53114707
 20
0.04282686
 10
25.53857436
 20
0.03891698
 10
25.54600166
 20
0.0350071
 10
25.55342896
 20
0.03109721
 10
25.56085626
 20
0.02718733
 10
25.56828356
 20
0.02327745
 10
25.57571085
 20
0.01936757
 10
25.58313815
 20
0.01545769
 10
25.59056545
 20
0.01154781
 10
25.59799274
 20
0.00763793
 10
25.60542004
 20
0.00372804
 10
25.61284734
 20
-0.00018184
 10
25.62027464
 20
-0.00409172
 10
25.62770193
 20
-0.0080016
 10
25.63512923
 20
-0.01191148
 10
25.64255653
 20
-0.01582137
 10
25.64998383
 20
-0.01973125
 10
25.65741113
 20
-0.02364113
 10
25.66483842
 20
-0.02755101
 10
25.67226572
 20
-0.03146089
 10
25.67969302
 20
-0.03537077
 10
25.68712032
 20
-0.03928065
 10
25.69454761
 20
-0.04319054
 10
25.70197491
 20
-0.04710042
 10
25.70940221
 20
-0.0510103
 10
25.7168295
 20
-0.05492018
 10
25.7242568
 20
-0.05883006
 10
25.7316841
 20
-0.06273994
 10
25.7391114
 20
-0.06664982
 10
25.74797176
 20
-0.06838641
 10
25.75797722
 20
-0.06838641
 10
25.76798267
 20
-0.06838641
 10
25.77798813
 20
-0.06838641
 10
25.78799359
 20
-0.06838641
 10
25.79799905
 20
-0.06838641
 10
25.80800451
 20
-0.06838641
 10
25.81800997
 20
-0.06838641
 10
25.82801542
 20
-0.06838641
 10
25.83802088
 20
-0.06838641
 10
25.84802634
 20
-0.06838641
 10
25.8580318
 20
-0.06838641
 10
25.86803726
 20
-0.06838641
 10
25.87804271
 20
-0.06838641
 10
25.88804818
 20
-0.06838641
 10
25.89805363
 20
-0.06838641
 10
25.90805909
 20
-0.06838641
 10
25.91806455
 20
-0.06838641
 10
25.92807001
 20
-0.06838641
 10
25.93807546
 20
-0.06838641
 10
25.94808092
 20
-0.06838641
 10
25.95808638
 20
-0.06838641
 10
25.96809184
 20
-0.06838641
 10
25.9780973
 20
-0.06838641
 10
25.98810276
 20
-0.06838641
 10
25.99810822
 20
-0.06838641
 10
26.00811367
 20
-0.06838641
 10
26.01811913
 20
-0.06838641
 10
26.02812459
 20
-0.06838641
 10
26.03813005
 20
-0.06838641
 10
26.04813551
 20
-0.06838641
 10
26.05814097
 20
-0.06838641
 10
26.06814642
 20
-0.06838641
 10
26.07815188
 20
-0.06838641
 10
26.08815734
 20
-0.06838641
 10
26.0981628
 20
-0.06838641
 10
26.10816826
 20
-0.06838641
 10
26.11817372
 20
-0.06838641
 10
26.12817917
 20
-0.06838641
 10
26.13818463
 20
-0.06838641
 10
26.14819009
 20
-0.06838641
 10
26.15819555
 20
-0.06838641
 10
26.16820101
 20
-0.06838641
 10
26.17820647
 20
-0.06838641
 10
26.18821193
 20
-0.06838641
  0
TEXT
  5
38
330
17
100
AcDbEntity
  8
STATION_LABEL
100
AcDbText
 10
25.0
 20
0.0
 30
0.0
 40
1.0
  1
Station 5
 11
25.0
 21
0.0
 31
0.0
100
AcDbText
  0
LWPOLYLINE
  5
39
330
17
100
AcDbEntity
  8
GENERATED_PROFILE
100
AcDbPolyline
 90
256
 70
0
 10
28.76473509
 20
-0.08548301
 10
28.77528113
 20
-0.08548301
 10
28.78582717
 20
-0.08548301
 10
28.79637321
 20
-0.08548301
 10
28.80691925
 20
-0.08548301
 10
28.81746529
 20
-0.08548301
 10
28.82801133
 20
-0.08548301
 10
28.83855736
 20
-0.08548301
 10
28.8491034
 20
-0.08548301
 10
28.85964944
 20
-0.08548301
 10
28.87019548
 20
-0.08548301
 10
28.88074152
 20
-0.08548301
 10
28.89128756
 20
-0.08548301
 10
28.9018336
 20
-0.08548301
 10
28.91237963
 20
-0.08548301
 10
28.92292567
 20
-0.08548301
 10
28.93347171
 20
-0.08548301
 10
28.94401775
 20
-0.08548301
 10
28.95456379
 20
-0.08548301
 10
28.96510983
 20
-0.08548301
 10
28.97565587
 20
-0.08548301
 10
28.9862019
 20
-0.08548301
 10
28.99674794
 20
-0.08548301
 10
29.00729398
 20
-0.08548301
 10
29.01784002
 20
-0.08548301
 10
29.02838606
 20
-0.08548301
 10
29.0389321
 20
-0.08548301
 10
29.04947814
 20
-0.08548301
 10
29.06002418
 20
-0.08548301
 10
29.07057021
 20
-0.08548301
 10
29.08111625
 20
-0.08548301
 10
29.09166229
 20
-0.08548301
 10
29.10220833
 20
-0.08548301
 10
29.11275437
 20
-0.08548301
 10
29.12330041
 20
-0.08548301
 10
29.13384645
 20
-0.08548301
 10
29.14439248
 20
-0.08548301
 10
29.15493852
 20
-0.08548301
 10
29.16548456
 20
-0.08548301
 10
29.1760306
 20
-0.08548301
 10
29.18657664
 20
-0.08548301
 10
29.19712268
 20
-0.08548301
 10
29.20766872
 20
-0.08548301
 10
29.21821475
 20
-0.08548301
 10
29.22876079
 20
-0.08548301
 10
29.23787546
 20
-0.08331228
 10
29.2451988
 20
-0.07842493
 10
29.25252213
 20
-0.07353758
 10
29.25984547
 20
-0.06865023
 10
29.26716881
 20
-0.06376287
 10
29.27449215
 20
-0.05887552
 10
29.28181548
 20
-0.05398817
 10
29.28913882
 20
-0.04910082
 10
29.29646216
 20
-0.04421347
 10
29.3037855
 20
-0.03932611
 10
29.31110884
 20
-0.03443876
 10
29.31843217
 20
-0.02955141
 10
29.32575551
 20
-0.02466406
 10
29.33307885
 20
-0.01977671
 10
29.34040219
 20
-0.01488935
 10
29.34772552
 20
-0.010002
 10
29.35504886
 20
-0.00511465
 10
29.3623722
 20
-0.0002273
 10
29.36969553
 20
0.00466005
 10
29.37701887
 20
0.00954741
 10
29.38434221
 20
0.01443476
 10
29.39166555
 20
0.01932211
 10
29.39898888
 20
0.02420946
 10
29.40631222
 20
0.02909681
 10
29.41363556
 20
0.03398416
 10
29.4209589
 20
0.03887152
 10
29.42828224
 20
0.04375887
 10
29.43560557
 20
0.04864622
 10
29.44292891
 20
0.05353357
 10
29.45025225
 20
0.05842092
 10
29.45757559
 20
0.06330828
 10
29.46489892
 20
0.06819563
 10
29.47222226
 20
0.07308298
 10
29.4795456
 20
0.07797033
 10
29.488517129999998
 20
0.08035814
 10
29.49906316
 20
0.08035814
 10
29.50960921
 20
0.08035814
 10
29.52015524
 20
0.08035814
 10
29.53070128
 20
0.08035814
 10
29.54124732
 20
0.08035814
 10
29.55179336
 20
0.08035814
 10
29.5623394
 20
0.08035814
 10
29.57288543
 20
0.08035814
 10
29.58343148
 20
0.08035814
 10
29.59397751
 20
0.08035814
 10
29.60452355
 20
0.08035814
 10
29.61506959
 20
0.08035814
 10
29.62561563
 20
0.08035814
 10
29.63616167
 20
0.08035814
 10
29.6467077
 20
0.08035814
 10
29.65725375
 20
0.08035814
 10
29.66779978
 20
0.08035814
 10
29.67834582
 20
0.08035814
 10
29.68889186
 20
0.08035814
 10
29.6994379
 20
0.08035814
 10
29.70998394
 20
0.08035814
 10
29.72052998
 20
0.08035814
 10
29.73107602
 20
0.08035814
 10
29.74162205
 20
0.08035814
 10
29.75216809
 20
0.08035814
 10
29.76271413
 20
0.08035814
 10
29.77326017
 20
0.08035814
 10
29.78380621
 20
0.08035814
 10
29.79435225
 20
0.08035814
 10
29.80489828
 20
0.08035814
 10
29.81544433
 20
0.08035814
 10
29.82599036
 20
0.08035814
 10
29.8365364
 20
0.08035814
 10
29.84708244
 20
0.08035814
 10
29.85762848
 20
0.08035814
 10
29.86817452
 20
0.08035814
 10
29.87872055
 20
0.08035814
 10
29.8892666
 20
0.08035814
 10
29.89981263
 20
0.08035814
 10
29.91035867
 20
0.08035814
 10
29.92090471
 20
0.08035814
 10
29.93145075
 20
0.08035814
 10
29.94199679
 20
0.08035814
 10
29.95254282
 20
0.08035814
 10
29.96308887
 20
0.08035814
 10
29.9736349
 20
0.08035814
 10
29.98418094
 20
0.08035814
 10
29.99472698
 20
0.08035814
 10
30.00527302
 20
0.08035814
 10
30.01581906
 20
0.08035814
 10
30.0263651
 20
0.08035814
 10
30.03691113
 20
0.08035814
 10
30.04745718
 20
0.08035814
 10
30.05800321
 20
0.08035814
 10
30.06854925
 20
0.08035814
 10
30.07909529
 20
0.08035814
 10
30.08964133
 20
0.08035814
 10
30.10018737
 20
0.08035814
 10
30.1107334
 20
0.08035814
 10
30.12127945
 20
0.08035814
 10
30.13182548
 20
0.08035814
 10
30.14237152
 20
0.08035814
 10
30.15291756
 20
0.08035814
 10
30.1634636
 20
0.08035814
 10
30.17400964
 20
0.08035814
 10
30.18455567
 20
0.08035814
 10
30.19510172
 20
0.08035814
 10
30.20564775
 20
0.08035814
 10
30.21619379
 20
0.08035814
 10
30.22673983
 20
0.08035814
 10
30.23728587
 20
0.08035814
 10
30.24783191
 20
0.08035814
 10
30.25837795
 20
0.08035814
 10
30.26892398
 20
0.08035814
 10
30.27947002
 20
0.08035814
 10
30.29001606
 20
0.08035814
 10
30.3005621
 20
0.08035814
 10
30.31110814
 20
0.08035814
 10
30.32165418
 20
0.08035814
 10
30.33220022
 20
0.08035814
 10
30.34274625
 20
0.08035814
 10
30.3532923
 20
0.08035814
 10
30.36383833
 20
0.08035814
 10
30.37438437
 20
0.08035814
 10
30.38493041
 20
0.08035814
 10
30.39547645
 20
0.08035814
 10
30.40602249
 20
0.08035814
 10
30.41656852
 20
0.08035814
 10
30.42711457
 20
0.08035814
 10
30.4376606
 20
0.08035814
 10
30.44820664
 20
0.08035814
 10
30.45875268
 20
0.08035814
 10
30.46929872
 20
0.08035814
 10
30.47984476
 20
0.08035814
 10
30.49039079
 20
0.08035814
 10
30.50093684
 20
0.08035814
 10
30.511482870000002
 20
0.08035814
 10
30.5204544
 20
0.07797033
 10
30.52777774
 20
0.07308298
 10
30.53510108
 20
0.06819563
 10
30.54242441
 20
0.06330828
 10
30.54974775
 20
0.05842092
 10
30.55707109
 20
0.05353357
 10
30.56439443
 20
0.04864622
 10
30.57171776
 20
0.04375887
 10
30.5790411
 20
0.03887152
 10
30.58636444
 20
0.03398416
 10
30.59368778
 20
0.02909681
 10
30.60101112
 20
0.02420946
 10
30.60833445
 20
0.01932211
 10
30.61565779
 20
0.01443476
 10
30.62298113
 20
0.00954741
 10
30.63030447
 20
0.00466005
 10
30.6376278
 20
-0.0002273
 10
30.64495114
 20
-0.00511465
 10
30.65227448
 20
-0.010002
 10
30.65959781
 20
-0.01488935
 10
30.66692115
 20
-0.01977671
 10
30.67424449
 20
-0.02466406
 10
30.68156783
 20
-0.02955141
 10
30.68889116
 20
-0.03443876
 10
30.6962145
 20
-0.03932611
 10
30.70353784
 20
-0.04421347
 10
30.71086118
 20
-0.04910082
 10
30.71818452
 20
-0.05398817
 10
30.72550785
 20
-0.05887552
 10
30.73283119
 20
-0.06376287
 10
30.74015453
 20
-0.06865023
 10
30.74747787
 20
-0.07353758
 10
30.7548012
 20
-0.07842493
 10
30.76212454
 20
-0.08331228
 10
30.77123921
 20
-0.08548301
 10
30.78178525
 20
-0.08548301
 10
30.79233128
 20
-0.08548301
 10
30.80287732
 20
-0.08548301
 10
30.81342336
 20
-0.08548301
 10
30.8239694
 20
-0.08548301
 10
30.83451544
 20
-0.08548301
 10
30.84506148
 20
-0.08548301
 10
30.85560752
 20
-0.08548301
 10
30.86615355
 20
-0.08548301
 10
30.87669959
 20
-0.08548301
 10
30.88724563
 20
-0.08548301
 10
30.89779167
 20
-0.08548301
 10
30.90833771
 20
-0.08548301
 10
30.91888375
 20
-0.08548301
 10
30.92942979
 20
-0.08548301
 10
30.93997582
 20
-0.08548301
 10
30.95052186
 20
-0.08548301
 10
30.9610679
 20
-0.08548301
 10
30.97161394
 20
-0.08548301
 10
30.98215998
 20
-0.08548301
 10
30.99270602
 20
-0.08548301
 10
31.00325206
 20
-0.08548301
 10
31.0137981
 20
-0.08548301
 10
31.02434413
 20
-0.08548301
 10
31.03489017
 20
-0.08548301
 10
31.04543621
 20
-0.08548301
 10
31.05598225
 20
-0.08548301
 10
31.06652829
 20
-0.08548301
 10
31.07707433
 20
-0.08548301
 10
31.08762037
 20
-0.08548301
 10
31.0981664
 20
-0.08548301
 10
31.10871244
 20
-0.08548301
 10
31.11925848
 20
-0.08548301
 10
31.12980452
 20
-0.08548301
 10
31.14035056
 20
-0.08548301
 10
31.1508966
 20
-0.08548301
 10
31.16144264
 20
-0.08548301
 10
31.17198867
 20
-0.08548301
 10
31.18253471
 20
-0.08548301
 10
31.19308075
 20
-0.08548301
 10
31.20362679
 20
-0.08548301
 10
31.21417283
 20
-0.08548301
 10
31.22471887
 20
-0.08548301
 10
31.23526491
 20
-0.08548301
  0
TEXT
  5
3A
330
17
100
AcDbEntity
  8
STATION_LABEL
100
AcDbText
 10
30.0
 20
0.0
 30
0.0
 40
1.0
  1
Station 6
 11
30.0
 21
0.0
 31
0.0
100
AcDbText
  0
LWPOLYLINE
  5
3B
330
17
100
AcDbEntity
  8
GENERATED_PROFILE
100
AcDbPolyline
 90
256
 70
0
 10
33.71768211
 20
-0.10257962
 10
33.72876873
 20
-0.10257962
 10
33.73985535
 20
-0.10257962
 10
33.75094197
 20
-0.10257962
 10
33.76202859
 20
-0.10257962
 10
33.77311521
 20
-0.10257962
 10
33.78420183
 20
-0.10257962
 10
33.79528844
 20
-0.10257962
 10
33.80637506
 20
-0.10257962
 10
33.81746169
 20
-0.10257962
 10
33.8285483
 20
-0.10257962
 10
33.83963492
 20
-0.10257962
 10
33.85072154
 20
-0.10257962
 10
33.86180816
 20
-0.10257962
 10
33.87289478
 20
-0.10257962
 10
33.8839814
 20
-0.10257962
 10
33.89506801
 20
-0.10257962
 10
33.90615464
 20
-0.10257962
 10
33.917241250000004
 20
-0.10257962
 10
33.92832787
 20
-0.10257962
 10
33.93941449
 20
-0.10257962
 10
33.95050111
 20
-0.10257962
 10
33.96158773
 20
-0.10257962
 10
33.97267435
 20
-0.10257962
 10
33.98376097
 20
-0.10257962
 10
33.99484759
 20
-0.10257962
 10
34.00593421
 20
-0.10257962
 10
34.01702082
 20
-0.10257962
 10
34.02810744
 20
-0.10257962
 10
34.03919406
 20
-0.10257962
 10
34.05028068
 20
-0.10257962
 10
34.0613673
 20
-0.10257962
 10
34.07245392
 20
-0.10257962
 10
34.08354054
 20
-0.10257962
 10
34.09462716
 20
-0.10257962
 10
34.10571377
 20
-0.10257962
 10
34.11680039
 20
-0.10257962
 10
34.12788701
 20
-0.10257962
 10
34.13897363
 20
-0.10257962
 10
34.15006025
 20
-0.10257962
 10
34.16114687
 20
-0.10257962
 10
34.172233489999996
 20
-0.10257962
 10
34.18332011
 20
-0.10257962
 10
34.19440673
 20
-0.10257962
 10
34.20549334
 20
-0.10257962
 10
34.21486231
 20
-0.09997474
 10
34.22208169
 20
-0.09410992
 10
34.22930107
 20
-0.08824509
 10
34.23652045
 20
-0.08238027
 10
34.24373983
 20
-0.07651545
 10
34.25095921
 20
-0.07065062
 10
34.25817858
 20
-0.0647858
 10
34.26539796
 20
-0.05892098
 10
34.27261734
 20
-0.05305616
 10
34.27983672
 20
-0.04719134
 10
34.28705609
 20
-0.04132652
 10
34.29427547
 20
-0.03546169
 10
34.30149485
 20
-0.02959687
 10
34.30871422
 20
-0.02373205
 10
34.3159336
 20
-0.01786722
 10
34.32315298
 20
-0.0120024
 10
34.33037236
 20
-0.00613758
 10
34.33759173
 20
-0.00027276
 10
34.34481111
 20
0.00559206
 10
34.35203049
 20
0.01145689
 10
34.35924987
 20
0.01732171
 10
34.36646925
 20
0.02318653
 10
34.37368862
 20
0.02905135
 10
34.380908
 20
0.03491618
 10
34.38812738
 20
0.040781
 10
34.39534676
 20
0.04664582
 10
34.40256614
 20
0.05251064
 10
34.40978551
 20
0.05837546
 10
34.41700489
 20
0.06424029
 10
34.42422427
 20
0.07010511
 10
34.43144364
 20
0.07596993
 10
34.43866302
 20
0.08183475
 10
34.4458824
 20
0.08769958
 10
34.45310178
 20
0.0935644
 10
34.46229898
 20
0.09642977
 10
34.4733856
 20
0.09642977
 10
34.48447222
 20
0.09642977
 10
34.49555884
 20
0.09642977
 10
34.50664546
 20
0.09642977
 10
34.51773208
 20
0.09642977
 10
34.5288187
 20
0.09642977
 10
34.53990531
 20
0.09642977
 10
34.55099193
 20
0.09642977
 10
34.56207856
 20
0.09642977
 10
34.57316517
 20
0.09642977
 10
34.58425179
 20
0.09642977
 10
34.59533841
 20
0.09642977
 10
34.60642503
 20
0.09642977
 10
34.61751165
 20
0.09642977
 10
34.62859827
 20
0.09642977
 10
34.63968489
 20
0.09642977
 10
34.65077151
 20
0.09642977
 10
34.66185812
 20
0.09642977
 10
34.67294474
 20
0.09642977
 10
34.68403136
 20
0.09642977
 10
34.69511798
 20
0.09642977
 10
34.7062046
 20
0.09642977
 10
34.71729122
 20
0.09642977
 10
34.72837784
 20
0.09642977
 10
34.73946446
 20
0.09642977
 10
34.75055108
 20
0.09642977
 10
34.76163769
 20
0.09642977
 10
34.77272431
 20
0.09642977
 10
34.78381093
 20
0.09642977
 10
34.79489755
 20
0.09642977
 10
34.80598417
 20
0.09642977
 10
34.81707079
 20
0.09642977
 10
34.82815741
 20
0.09642977
 10
34.83924403
 20
0.09642977
 10
34.85033064
 20
0.09642977
 10
34.86141726
 20
0.09642977
 10
34.87250388
 20
0.09642977
 10
34.8835905
 20
0.09642977
 10
34.89467712
 20
0.09642977
 10
34.90576374
 20
0.09642977
 10
34.91685036
 20
0.09642977
 10
34.92793698
 20
0.09642977
 10
34.9390236
 20
0.09642977
 10
34.95011021
 20
0.09642977
 10
34.96119684
 20
0.09642977
 10
34.97228345
 20
0.09642977
 10
34.98337007
 20
0.09642977
 10
34.99445669
 20
0.09642977
 10
35.00554331
 20
0.09642977
 10
35.01662993
 20
0.09642977
 10
35.02771655
 20
0.09642977
 10
35.03880316
 20
0.09642977
 10
35.04988979
 20
0.09642977
 10
35.0609764
 20
0.09642977
 10
35.07206302
 20
0.09642977
 10
35.08314964
 20
0.09642977
 10
35.09423626
 20
0.09642977
 10
35.10532288
 20
0.09642977
 10
35.1164095
 20
0.09642977
 10
35.12749612
 20
0.09642977
 10
35.13858274
 20
0.09642977
 10
35.14966936
 20
0.09642977
 10
35.16075597
 20
0.09642977
 10
35.17184259
 20
0.09642977
 10
35.18292921
 20
0.09642977
 10
35.19401583
 20
0.09642977
 10
35.20510245
 20
0.09642977
 10
35.21618907
 20
0.09642977
 10
35.22727569
 20
0.09642977
 10
35.23836231
 20
0.09642977
 10
35.24944892
 20
0.09642977
 10
35.26053554
 20
0.09642977
 10
35.27162216
 20
0.09642977
 10
35.28270878
 20
0.09642977
 10
35.2937954
 20
0.09642977
 10
35.30488202
 20
0.09642977
 10
35.31596864
 20
0.09642977
 10
35.32705526
 20
0.09642977
 10
35.33814188
 20
0.09642977
 10
35.34922849
 20
0.09642977
 10
35.36031511
 20
0.09642977
 10
35.37140173
 20
0.09642977
 10
35.38248835
 20
0.09642977
 10
35.39357497
 20
0.09642977
 10
35.40466159
 20
0.09642977
 10
35.41574821
 20
0.09642977
 10
35.42683483
 20
0.09642977
 10
35.43792144
 20
0.09642977
 10
35.44900807
 20
0.09642977
 10
35.46009469
 20
0.09642977
 10
35.4711813
 20
0.09642977
 10
35.48226792
 20
0.09642977
 10
35.49335454
 20
0.09642977
 10
35.50444116
 20
0.09642977
 10
35.51552778
 20
0.09642977
 10
35.5266144
 20
0.09642977
 10
35.53770102
 20
0.09642977
 10
35.54689822
 20
0.0935644
 10
35.5541176
 20
0.08769958
 10
35.56133698
 20
0.08183475
 10
35.56855636
 20
0.07596993
 10
35.57577573
 20
0.07010511
 10
35.58299511
 20
0.06424029
 10
35.59021449
 20
0.05837546
 10
35.59743386
 20
0.05251064
 10
35.60465324
 20
0.04664582
 10
35.61187262
 20
0.040781
 10
35.619092
 20
0.03491618
 10
35.62631138
 20
0.02905135
 10
35.63353075
 20
0.02318653
 10
35.64075013
 20
0.01732171
 10
35.64796951
 20
0.01145689
 10
35.65518889
 20
0.00559206
 10
35.66240827
 20
-0.00027276
 10
35.66962764
 20
-0.00613758
 10
35.67684702
 20
-0.0120024
 10
35.6840664
 20
-0.01786722
 10
35.69128578
 20
-0.02373205
 10
35.69850515
 20
-0.02959687
 10
35.70572453
 20
-0.03546169
 10
35.71294391
 20
-0.04132652
 10
35.72016328
 20
-0.04719134
 10
35.72738266
 20
-0.05305616
 10
35.73460204
 20
-0.05892098
 10
35.74182142
 20
-0.0647858
 10
35.74904079
 20
-0.07065062
 10
35.75626017
 20
-0.07651545
 10
35.76347955
 20
-0.08238027
 10
35.77069893
 20
-0.08824509
 10
35.77791831
 20
-0.09410992
 10
35.78513769
 20
-0.09997474
 10
35.79450666
 20
-0.10257962
 10
35.80559327
 20
-0.10257962
 10
35.81667989
 20
-0.10257962
 10
35.827766510000004
 20
-0.10257962
 10
35.83885313
 20
-0.10257962
 10
35.84993975
 20
-0.10257962
 10
35.86102637
 20
-0.10257962
 10
35.87211299
 20
-0.10257962
 10
35.88319961
 20
-0.10257962
 10
35.89428623
 20
-0.10257962
 10
35.90537284
 20
-0.10257962
 10
35.91645946
 20
-0.10257962
 10
35.92754608
 20
-0.10257962
 10
35.9386327
 20
-0.10257962
 10
35.94971932
 20
-0.10257962
 10
35.96080594
 20
-0.10257962
 10
35.97189256
 20
-0.10257962
 10
35.98297918
 20
-0.10257962
 10
35.99406579
 20
-0.10257962
 10
36.00515241
 20
-0.10257962
 10
36.01623903
 20
-0.10257962
 10
36.02732565
 20
-0.10257962
 10
36.03841227
 20
-0.10257962
 10
36.04949889
 20
-0.10257962
 10
36.06058551
 20
-0.10257962
 10
36.07167213
 20
-0.10257962
 10
36.082758749999996
 20
-0.10257962
 10
36.09384536
 20
-0.10257962
 10
36.10493199
 20
-0.10257962
 10
36.1160186
 20
-0.10257962
 10
36.12710522
 20
-0.10257962
 10
36.13819184
 20
-0.10257962
 10
36.14927846
 20
-0.10257962
 10
36.16036508
 20
-0.10257962
 10
36.1714517
 20
-0.10257962
 10
36.18253831
 20
-0.10257962
 10
36.19362494
 20
-0.10257962
 10
36.20471156
 20
-0.10257962
 10
36.21579817
 20
-0.10257962
 10
36.22688479
 20
-0.10257962
 10
36.23797141
 20
-0.10257962
 10
36.24905803
 20
-0.10257962
 10
36.26014465
 20
-0.10257962
 10
36.27123127
 20
-0.10257962
 10
36.28231789
 20
-0.10257962
  0
TEXT
  5
3C
330
17
100
AcDbEntity
  8
STATION_LABEL
100
AcDbText
 10
35.0
 20
0.0
 30
0.0
 40
1.0
  1
Station 7
 11
35.0
 21
0.0
 31
0.0
100
AcDbText
  0
LWPOLYLINE
  5
3D
330
17
100
AcDbEntity
  8
GENERATED_PROFILE
100
AcDbPolyline
 90
256
 70
0
 10
38.67062913
 20
-0.11967622
 10
38.68225633
 20
-0.11967622
 10
38.69388353
 20
-0.11967622
 10
38.70551073
 20
-0.11967622
 10
38.71713793
 20
-0.11967622
 10
38.72876513
 20
-0.11967622
 10
38.74039233
 20
-0.11967622
 10
38.75201953
 20
-0.11967622
 10
38.76364672
 20
-0.11967622
 10
38.77527393
 20
-0.11967622
 10
38.78690113
 20
-0.11967622
 10
38.79852832
 20
-0.11967622
 10
38.81015552
 20
-0.11967622
 10
38.82178272
 20
-0.11967622
 10
38.83340992
 20
-0.11967622
 10
38.84503712
 20
-0.11967622
 10
38.85666432
 20
-0.11967622
 10
38.86829152
 20
-0.11967622
 10
38.87991872
 20
-0.11967622
 10
38.89154592
 20
-0.11967622
 10
38.90317312
 20
-0.11967622
 10
38.91480031
 20
-0.11967622
 10
38.926427509999996
 20
-0.11967622
 10
38.93805471
 20
-0.11967622
 10
38.94968191
 20
-0.11967622
 10
38.96130911
 20
-0.11967622
 10
38.97293631
 20
-0.11967622
 10
38.98456351
 20
-0.11967622
 10
38.99619071
 20
-0.11967622
 10
39.00781791
 20
-0.11967622
 10
39.01944511
 20
-0.11967622
 10
39.03107231
 20
-0.11967622
 10
39.04269951
 20
-0.11967622
 10
39.05432671
 20
-0.11967622
 10
39.0659539
 20
-0.11967622
 10
39.0775811
 20
-0.11967622
 10
39.0892083
 20
-0.11967622
 10
39.1008355
 20
-0.11967622
 10
39.1124627
 20
-0.11967622
 10
39.1240899
 20
-0.11967622
 10
39.1357171
 20
-0.11967622
 10
39.1473443
 20
-0.11967622
 10
39.1589715
 20
-0.11967622
 10
39.1705987
 20
-0.11967622
 10
39.18222589
 20
-0.11967622
 10
39.19184917
 20
-0.11663719
 10
39.19896459
 20
-0.1097949
 10
39.20608001
 20
-0.10295261
 10
39.21319543
 20
-0.09611032
 10
39.22031084
 20
-0.08926802
 10
39.22742626
 20
-0.08242573
 10
39.23454168
 20
-0.07558344
 10
39.2416571
 20
-0.06874114
 10
39.24877251
 20
-0.06189885
 10
39.25588793
 20
-0.05505656
 10
39.26300335
 20
-0.04821427
 10
39.27011876
 20
-0.04137197
 10
39.27723418
 20
-0.03452968
 10
39.2843496
 20
-0.02768739
 10
39.29146502
 20
-0.02084509
 10
39.29858044
 20
-0.0140028
 10
39.30569586
 20
-0.00716051
 10
39.31281127
 20
-0.00031822
 10
39.31992669
 20
0.00652407
 10
39.32704211
 20
0.01336637
 10
39.33415753
 20
0.02020866
 10
39.34127295
 20
0.02705095
 10
39.34838836
 20
0.03389324
 10
39.35550378
 20
0.04073554
 10
39.3626192
 20
0.04757783
 10
39.36973461
 20
0.05442012
 10
39.37685003
 20
0.06126242
 10
39.38396545
 20
0.06810471
 10
39.39108087
 20
0.074947
 10
39.39819628
 20
0.08178929
 10
39.4053117
 20
0.08863159
 10
39.41242712
 20
0.09547388
 10
39.41954254
 20
0.10231617
 10
39.42665795
 20
0.10915847
 10
39.43608084
 20
0.1125014
 10
39.44770804
 20
0.1125014
 10
39.45933524
 20
0.1125014
 10
39.47096244
 20
0.1125014
 10
39.48258964
 20
0.1125014
 10
39.49421684
 20
0.1125014
 10
39.50584403
 20
0.1125014
 10
39.51747123
 20
0.1125014
 10
39.52909843
 20
0.1125014
 10
39.54072563
 20
0.1125014
 10
39.55235283
 20
0.1125014
 10
39.56398003
 20
0.1125014
 10
39.57560723
 20
0.1125014
 10
39.58723443
 20
0.1125014
 10
39.59886163
 20
0.1125014
 10
39.61048883
 20
0.1125014
 10
39.62211603
 20
0.1125014
 10
39.63374323
 20
0.1125014
 10
39.64537043
 20
0.1125014
 10
39.65699762
 20
0.1125014
 10
39.66862482
 20
0.1125014
 10
39.68025202
 20
0.1125014
 10
39.69187922
 20
0.1125014
 10
39.70350642
 20
0.1125014
 10
39.71513362
 20
0.1125014
 10
39.72676082
 20
0.1125014
 10
39.73838802
 20
0.1125014
 10
39.75001522
 20
0.1125014
 10
39.76164242
 20
0.1125014
 10
39.77326961
 20
0.1125014
 10
39.78489681
 20
0.1125014
 10
39.79652402
 20
0.1125014
 10
39.80815121
 20
0.1125014
 10
39.81977841
 20
0.1125014
 10
39.83140561
 20
0.1125014
 10
39.84303281
 20
0.1125014
 10
39.85466001
 20
0.1125014
 10
39.86628721
 20
0.1125014
 10
39.87791441
 20
0.1125014
 10
39.88954161
 20
0.1125014
 10
39.90116881
 20
0.1125014
 10
39.91279601
 20
0.1125014
 10
39.9244232
 20
0.1125014
 10
39.9360504
 20
0.1125014
 10
39.9476776
 20
0.1125014
 10
39.95930481
 20
0.1125014
 10
39.970932
 20
0.1125014
 10
39.9825592
 20
0.1125014
 10
39.9941864
 20
0.1125014
 10
40.0058136
 20
0.1125014
 10
40.0174408
 20
0.1125014
 10
40.029068
 20
0.1125014
 10
40.04069519
 20
0.1125014
 10
40.0523224
 20
0.1125014
 10
40.0639496
 20
0.1125014
 10
40.0755768
 20
0.1125014
 10
40.08720399
 20
0.1125014
 10
40.09883119
 20
0.1125014
 10
40.11045839
 20
0.1125014
 10
40.12208559
 20
0.1125014
 10
40.13371279
 20
0.1125014
 10
40.14533999
 20
0.1125014
 10
40.15696719
 20
0.1125014
 10
40.16859439
 20
0.1125014
 10
40.18022159
 20
0.1125014
 10
40.19184879
 20
0.1125014
 10
40.20347598
 20
0.1125014
 10
40.21510319
 20
0.1125014
 10
40.22673039
 20
0.1125014
 10
40.23835758
 20
0.1125014
 10
40.24998478
 20
0.1125014
 10
40.26161198
 20
0.1125014
 10
40.27323918
 20
0.1125014
 10
40.28486638
 20
0.1125014
 10
40.29649358
 20
0.1125014
 10
40.30812078
 20
0.1125014
 10
40.31974798
 20
0.1125014
 10
40.33137518
 20
0.1125014
 10
40.34300238
 20
0.1125014
 10
40.35462957
 20
0.1125014
 10
40.36625677
 20
0.1125014
 10
40.37788397
 20
0.1125014
 10
40.38951117
 20
0.1125014
 10
40.40113837
 20
0.1125014
 10
40.41276557
 20
0.1125014
 10
40.42439277
 20
0.1125014
 10
40.43601997
 20
0.1125014
 10
40.44764717
 20
0.1125014
 10
40.45927437
 20
0.1125014
 10
40.47090157
 20
0.1125014
 10
40.48252877
 20
0.1125014
 10
40.49415597
 20
0.1125014
 10
40.50578316
 20
0.1125014
 10
40.51741036
 20
0.1125014
 10
40.52903756
 20
0.1125014
 10
40.54066476
 20
0.1125014
 10
40.55229196
 20
0.1125014
 10
40.56391916
 20
0.1125014
 10
40.57334205
 20
0.10915847
 10
40.58045746
 20
0.10231617
 10
40.58757288
 20
0.09547388
 10
40.5946883
 20
0.08863159
 10
40.60180372
 20
0.08178929
 10
40.60891913
 20
0.074947
 10
40.61603455
 20
0.06810471
 10
40.62314997
 20
0.06126242
 10
40.63026539
 20
0.05442012
 10
40.6373808
 20
0.04757783
 10
40.64449622
 20
0.04073554
 10
40.65161164
 20
0.03389324
 10
40.65872705
 20
0.02705095
 10
40.66584247
 20
0.02020866
 10
40.67295789
 20
0.01336637
 10
40.68007331
 20
0.00652407
 10
40.68718873
 20
-0.00031822
 10
40.69430414
 20
-0.00716051
 10
40.70141956
 20
-0.0140028
 10
40.70853498
 20
-0.02084509
 10
40.7156504
 20
-0.02768739
 10
40.72276582
 20
-0.03452968
 10
40.72988124
 20
-0.04137197
 10
40.73699665
 20
-0.04821427
 10
40.74411207
 20
-0.05505656
 10
40.75122749
 20
-0.06189885
 10
40.7583429
 20
-0.06874114
 10
40.76545832
 20
-0.07558344
 10
40.77257374
 20
-0.08242573
 10
40.77968916
 20
-0.08926802
 10
40.78680457
 20
-0.09611032
 10
40.79391999
 20
-0.10295261
 10
40.80103541
 20
-0.1097949
 10
40.80815083
 20
-0.11663719
 10
40.81777411
 20
-0.11967622
 10
40.8294013
 20
-0.11967622
 10
40.8410285
 20
-0.11967622
 10
40.8526557
 20
-0.11967622
 10
40.8642829
 20
-0.11967622
 10
40.8759101
 20
-0.11967622
 10
40.8875373
 20
-0.11967622
 10
40.8991645
 20
-0.11967622
 10
40.9107917
 20
-0.11967622
 10
40.9224189
 20
-0.11967622
 10
40.9340461
 20
-0.11967622
 10
40.94567329
 20
-0.11967622
 10
40.95730049
 20
-0.11967622
 10
40.96892769
 20
-0.11967622
 10
40.98055489
 20
-0.11967622
 10
40.99218209
 20
-0.11967622
 10
41.00380929
 20
-0.11967622
 10
41.01543649
 20
-0.11967622
 10
41.02706369
 20
-0.11967622
 10
41.03869089
 20
-0.11967622
 10
41.05031809
 20
-0.11967622
 10
41.06194529
 20
-0.11967622
 10
41.073572490000004
 20
-0.11967622
 10
41.08519969
 20
-0.11967622
 10
41.09682688
 20
-0.11967622
 10
41.10845408
 20
-0.11967622
 10
41.12008128
 20
-0.11967622
 10
41.13170848
 20
-0.11967622
 10
41.14333568
 20
-0.11967622
 10
41.15496288
 20
-0.11967622
 10
41.16659008
 20
-0.11967622
 10
41.17821728
 20
-0.11967622
 10
41.18984448
 20
-0.11967622
 10
41.20147168
 20
-0.11967622
 10
41.21309887
 20
-0.11967622
 10
41.22472607
 20
-0.11967622
 10
41.23635328
 20
-0.11967622
 10
41.24798047
 20
-0.11967622
 10
41.25960767
 20
-0.11967622
 10
41.27123487
 20
-0.11967622
 10
41.28286207
 20
-0.11967622
 10
41.29448927
 20
-0.11967622
 10
41.30611647
 20
-0.11967622
 10
41.31774367
 20
-0.11967622
 10
41.32937087
 20
-0.11967622
  0
TEXT
  5
3E
330
17
100
AcDbEntity
  8
STATION_LABEL
100
AcDbText
 10
40.0
 20
0.0
 30
0.0
 40
1.0
  1
Station 8
 11
40.0
 21
0.0
 31
0.0
100
AcDbText
  0
LWPOLYLINE
  5
3F
330
17
100
AcDbEntity
  8
GENERATED_PROFILE
100
AcDbPolyline
 90
256
 70
0
 10
43.62357615
 20
-0.13677282
 10
43.63574393
 20
-0.13677282
 10
43.64791171
 20
-0.13677282
 10
43.66007949
 20
-0.13677282
 10
43.67224727
 20
-0.13677282
 10
43.68441505
 20
-0.13677282
 10
43.69658283
 20
-0.13677282
 10
43.70875061
 20
-0.13677282
 10
43.72091838
 20
-0.13677282
 10
43.73308617
 20
-0.13677282
 10
43.74525395
 20
-0.13677282
 10
43.75742173
 20
-0.13677282
 10
43.7695895
 20
-0.13677282
 10
43.78175728
 20
-0.13677282
 10
43.79392506
 20
-0.13677282
 10
43.80609284
 20
-0.13677282
 10
43.81826062
 20
-0.13677282
 10
43.8304284
 20
-0.13677282
 10
43.84259618
 20
-0.13677282
 10
43.85476396
 20
-0.13677282
 10
43.86693174
 20
-0.13677282
 10
43.87909952
 20
-0.13677282
 10
43.8912673
 20
-0.13677282
 10
43.90343508
 20
-0.13677282
 10
43.91560286
 20
-0.13677282
 10
43.92777064
 20
-0.13677282
 10
43.93993842
 20
-0.13677282
 10
43.9521062
 20
-0.13677282
 10
43.96427397
 20
-0.13677282
 10
43.97644175
 20
-0.13677282
 10
43.98860953
 20
-0.13677282
 10
44.00077732
 20
-0.13677282
 10
44.0129451
 20
-0.13677282
 10
44.02511287
 20
-0.13677282
 10
44.03728065
 20
-0.13677282
 10
44.04944843
 20
-0.13677282
 10
44.06161621
 20
-0.13677282
 10
44.07378399
 20
-0.13677282
 10
44.08595177
 20
-0.13677282
 10
44.09811955
 20
-0.13677282
 10
44.11028733
 20
-0.13677282
 10
44.12245511
 20
-0.13677282
 10
44.13462289
 20
-0.13677282
 10
44.14679067
 20
-0.13677282
 10
44.15895844
 20
-0.13677282
 10
44.16883603
 20
-0.13329965
 10
44.17584749
 20
-0.12547989
 10
44.18285894
 20
-0.11766012
 10
44.1898704
 20
-0.10984036
 10
44.19688186
 20
-0.1020206
 10
44.20389332
 20
-0.09420083
 10
44.21090477
 20
-0.08638107
 10
44.21791623
 20
-0.07856131
 10
44.22492769
 20
-0.07074155
 10
44.23193915
 20
-0.06292178
 10
44.23895061
 20
-0.05510202
 10
44.24596206
 20
-0.04728226
 10
44.25297352
 20
-0.03946249
 10
44.25998498
 20
-0.03164273
 10
44.26699644
 20
-0.02382297
 10
44.2740079
 20
-0.01600321
 10
44.28101936
 20
-0.00818344
 10
44.28803081
 20
-0.00036368
 10
44.29504227
 20
0.00745609
 10
44.30205373
 20
0.01527585
 10
44.30906518
 20
0.02309561
 10
44.31607664
 20
0.03091538
 10
44.3230881
 20
0.03873514
 10
44.33009956
 20
0.0465549
 10
44.33711101
 20
0.05437466
 10
44.34412247
 20
0.06219443
 10
44.35113393
 20
0.07001419
 10
44.35814539
 20
0.07783395
 10
44.36515684
 20
0.08565372
 10
44.3721683
 20
0.09347348
 10
44.37917976
 20
0.10129324
 10
44.38619122
 20
0.109113
 10
44.39320268
 20
0.11693277
 10
44.40021413
 20
0.12475253
 10
44.40986269
 20
0.12857302
 10
44.42203047
 20
0.12857302
 10
44.43419826
 20
0.12857302
 10
44.44636604
 20
0.12857302
 10
44.45853382
 20
0.12857302
 10
44.47070159
 20
0.12857302
 10
44.48286937
 20
0.12857302
 10
44.49503715
 20
0.12857302
 10
44.50720493
 20
0.12857302
 10
44.51937271
 20
0.12857302
 10
44.53154049
 20
0.12857302
 10
44.54370827
 20
0.12857302
 10
44.55587605
 20
0.12857302
 10
44.56804383
 20
0.12857302
 10
44.58021161
 20
0.12857302
 10
44.59237939
 20
0.12857302
 10
44.604547170000004
 20
0.12857302
 10
44.61671495
 20
0.12857302
 10
44.62888273
 20
0.12857302
 10
44.64105051
 20
0.12857302
 10
44.65321829
 20
0.12857302
 10
44.66538606
 20
0.12857302
 10
44.67755384
 20
0.12857302
 10
44.68972163
 20
0.12857302
 10
44.70188941
 20
0.12857302
 10
44.71405718
 20
0.12857302
 10
44.72622496
 20
0.12857302
 10
44.73839274
 20
0.12857302
 10
44.75056052
 20
0.12857302
 10
44.7627283
 20
0.12857302
 10
44.77489608
 20
0.12857302
 10
44.78706386
 20
0.12857302
 10
44.79923164
 20
0.12857302
 10
44.81139942
 20
0.12857302
 10
44.8235672
 20
0.12857302
 10
44.83573498
 20
0.12857302
 10
44.84790276
 20
0.12857302
 10
44.86007053
 20
0.12857302
 10
44.87223832
 20
0.12857302
 10
44.8844061
 20
0.12857302
 10
44.89657388
 20
0.12857302
 10
44.90874165
 20
0.12857302
 10
44.92090943
 20
0.12857302
 10
44.93307721
 20
0.12857302
 10
44.94524499
 20
0.12857302
 10
44.95741277
 20
0.12857302
 10
44.96958055
 20
0.12857302
 10
44.98174833
 20
0.12857302
 10
44.99391611
 20
0.12857302
 10
45.00608389
 20
0.12857302
 10
45.01825167
 20
0.12857302
 10
45.03041945
 20
0.12857302
 10
45.04258723
 20
0.12857302
 10
45.05475501
 20
0.12857302
 10
45.06692279
 20
0.12857302
 10
45.07909057
 20
0.12857302
 10
45.09125835
 20
0.12857302
 10
45.10342612
 20
0.12857302
 10
45.1155939
 20
0.12857302
 10
45.12776168
 20
0.12857302
 10
45.13992947
 20
0.12857302
 10
45.15209724
 20
0.12857302
 10
45.16426502
 20
0.12857302
 10
45.1764328
 20
0.12857302
 10
45.18860058
 20
0.12857302
 10
45.20076836
 20
0.12857302
 10
45.21293614
 20
0.12857302
 10
45.22510392
 20
0.12857302
 10
45.2372717
 20
0.12857302
 10
45.24943948
 20
0.12857302
 10
45.26160726
 20
0.12857302
 10
45.27377504
 20
0.12857302
 10
45.28594282
 20
0.12857302
 10
45.29811059
 20
0.12857302
 10
45.31027837
 20
0.12857302
 10
45.32244616
 20
0.12857302
 10
45.33461394
 20
0.12857302
 10
45.34678171
 20
0.12857302
 10
45.35894949
 20
0.12857302
 10
45.37111727
 20
0.12857302
 10
45.38328505
 20
0.12857302
 10
45.395452829999996
 20
0.12857302
 10
45.40762061
 20
0.12857302
 10
45.41978839
 20
0.12857302
 10
45.43195617
 20
0.12857302
 10
45.44412395
 20
0.12857302
 10
45.45629173
 20
0.12857302
 10
45.46845951
 20
0.12857302
 10
45.48062729
 20
0.12857302
 10
45.49279507
 20
0.12857302
 10
45.50496285
 20
0.12857302
 10
45.51713063
 20
0.12857302
 10
45.52929841
 20
0.12857302
 10
45.54146618
 20
0.12857302
 10
45.55363396
 20
0.12857302
 10
45.56580174
 20
0.12857302
 10
45.57796953
 20
0.12857302
 10
45.59013731
 20
0.12857302
 10
45.59978587
 20
0.12475253
 10
45.60679732
 20
0.11693277
 10
45.61380878
 20
0.109113
 10
45.62082024
 20
0.10129324
 10
45.6278317
 20
0.09347348
 10
45.63484316
 20
0.08565372
 10
45.64185461
 20
0.07783395
 10
45.64886607
 20
0.07001419
 10
45.65587753
 20
0.06219443
 10
45.66288899
 20
0.05437466
 10
45.66990044
 20
0.0465549
 10
45.6769119
 20
0.03873514
 10
45.68392336
 20
0.03091538
 10
45.69093482
 20
0.02309561
 10
45.69794627
 20
0.01527585
 10
45.70495773
 20
0.00745609
 10
45.71196919
 20
-0.00036368
 10
45.71898064
 20
-0.00818344
 10
45.7259921
 20
-0.01600321
 10
45.73300356
 20
-0.02382297
 10
45.74001502
 20
-0.03164273
 10
45.74702648
 20
-0.03946249
 10
45.75403794
 20
-0.04728226
 10
45.76104939
 20
-0.05510202
 10
45.76806085
 20
-0.06292178
 10
45.77507231
 20
-0.07074155
 10
45.78208377
 20
-0.07856131
 10
45.78909523
 20
-0.08638107
 10
45.79610668
 20
-0.09420083
 10
45.80311814
 20
-0.1020206
 10
45.8101296
 20
-0.10984036
 10
45.81714106
 20
-0.11766012
 10
45.82415251
 20
-0.12547989
 10
45.83116397
 20
-0.13329965
 10
45.84104156
 20
-0.13677282
 10
45.85320933
 20
-0.13677282
 10
45.86537711
 20
-0.13677282
 10
45.87754489
 20
-0.13677282
 10
45.88971267
 20
-0.13677282
 10
45.90188045
 20
-0.13677282
 10
45.91404823
 20
-0.13677282
 10
45.92621601
 20
-0.13677282
 10
45.93838379
 20
-0.13677282
 10
45.95055157
 20
-0.13677282
 10
45.96271935
 20
-0.13677282
 10
45.97488713
 20
-0.13677282
 10
45.9870549
 20
-0.13677282
 10
45.99922268
 20
-0.13677282
 10
46.01139047
 20
-0.13677282
 10
46.02355825
 20
-0.13677282
 10
46.03572603
 20
-0.13677282
 10
46.0478938
 20
-0.13677282
 10
46.06006158
 20
-0.13677282
 10
46.07222936
 20
-0.13677282
 10
46.08439714
 20
-0.13677282
 10
46.09656492
 20
-0.13677282
 10
46.1087327
 20
-0.13677282
 10
46.12090048
 20
-0.13677282
 10
46.13306826
 20
-0.13677282
 10
46.14523604
 20
-0.13677282
 10
46.15740382
 20
-0.13677282
 10
46.1695716
 20
-0.13677282
 10
46.18173938
 20
-0.13677282
 10
46.19390716
 20
-0.13677282
 10
46.20607494
 20
-0.13677282
 10
46.21824272
 20
-0.13677282
 10
46.2304105
 20
-0.13677282
 10
46.24257827
 20
-0.13677282
 10
46.25474605
 20
-0.13677282
 10
46.26691383
 20
-0.13677282
 10
46.27908162
 20
-0.13677282
 10
46.29124939
 20
-0.13677282
 10
46.30341717
 20
-0.13677282
 10
46.31558495
 20
-0.13677282
 10
46.32775273
 20
-0.13677282
 10
46.33992051
 20
-0.13677282
 10
46.35208829
 20
-0.13677282
 10
46.36425607
 20
-0.13677282
 10
46.37642385
 20
-0.13677282
  0
TEXT
  5
40
330
17
100
AcDbEntity
  8
STATION_LABEL
100
AcDbText
 10
45.0
 20
0.0
 30
0.0
 40
1.0
  1
Station 9
 11
45.0
 21
0.0
 31
0.0
100
AcDbText
  0
LWPOLYLINE
  5
41
330
17
100
AcDbEntity
  8
GENERATED_PROFILE
100
AcDbPolyline
 90
256
 70
0
 10
48.57652317
 20
-0.15386942
 10
48.58923153
 20
-0.15386942
 10
48.60193989
 20
-0.15386942
 10
48.61464825
 20
-0.15386942
 10
48.62735661
 20
-0.15386942
 10
48.64006497
 20
-0.15386942
 10
48.65277333
 20
-0.15386942
 10
48.66548169
 20
-0.15386942
 10
48.67819005
 20
-0.15386942
 10
48.69089841
 20
-0.15386942
 10
48.70360677
 20
-0.15386942
 10
48.71631513
 20
-0.15386942
 10
48.72902349
 20
-0.15386942
 10
48.74173185
 20
-0.15386942
 10
48.7544402
 20
-0.15386942
 10
48.76714856
 20
-0.15386942
 10
48.77985692
 20
-0.15386942
 10
48.79256529
 20
-0.15386942
 10
48.80527365
 20
-0.15386942
 10
48.81798201
 20
-0.15386942
 10
48.83069036
 20
-0.15386942
 10
48.84339872
 20
-0.15386942
 10
48.85610708
 20
-0.15386942
 10
48.86881544
 20
-0.15386942
 10
48.88152381
 20
-0.15386942
 10
48.89423216
 20
-0.15386942
 10
48.90694052
 20
-0.15386942
 10
48.91964888
 20
-0.15386942
 10
48.93235724
 20
-0.15386942
 10
48.9450656
 20
-0.15386942
 10
48.95777396
 20
-0.15386942
 10
48.97048232
 20
-0.15386942
 10
48.98319068
 20
-0.15386942
 10
48.99589904
 20
-0.15386942
 10
49.0086074
 20
-0.15386942
 10
49.02131576
 20
-0.15386942
 10
49.03402412
 20
-0.15386942
 10
49.04673248
 20
-0.15386942
 10
49.05944084
 20
-0.15386942
 10
49.0721492
 20
-0.15386942
 10
49.08485756
 20
-0.15386942
 10
49.09756592
 20
-0.15386942
 10
49.11027428
 20
-0.15386942
 10
49.122982640000004
 20
-0.15386942
 10
49.135691
 20
-0.15386942
 10
49.14582288
 20
-0.1499621
 10
49.15273038
 20
-0.14116487
 10
49.15963788
 20
-0.13236764
 10
49.16654538
 20
-0.12357041
 10
49.17345288
 20
-0.11477317
 10
49.18036038
 20
-0.10597594
 10
49.18726787
 20
-0.09717871
 10
49.194175369999996
 20
-0.08838147
 10
49.20108287
 20
-0.07958424
 10
49.20799037
 20
-0.070787
 10
49.21489787
 20
-0.06198977
 10
49.22180536
 20
-0.05319254
 10
49.22871286
 20
-0.0443953
 10
49.23562036
 20
-0.03559807
 10
49.24252786
 20
-0.02680084
 10
49.24943535
 20
-0.01800361
 10
49.25634285
 20
-0.00920637
 10
49.26325035
 20
-0.00040914
 10
49.27015784
 20
0.0083881
 10
49.27706534
 20
0.01718533
 10
49.28397284
 20
0.02598256
 10
49.29088034
 20
0.0347798
 10
49.29778783
 20
0.04357703
 10
49.30469533
 20
0.05237426
 10
49.31160283
 20
0.06117149
 10
49.31851033
 20
0.06996873
 10
49.32541783
 20
0.07876597
 10
49.33232533
 20
0.0875632
 10
49.33923282
 20
0.09636043
 10
49.34614032
 20
0.10515766
 10
49.35304782
 20
0.1139549
 10
49.35995532
 20
0.12275213
 10
49.36686282
 20
0.13154936
 10
49.37377031
 20
0.1403466
 10
49.38364455
 20
0.14464465
 10
49.39635291
 20
0.14464465
 10
49.40906128
 20
0.14464465
 10
49.42176963
 20
0.14464465
 10
49.43447799
 20
0.14464465
 10
49.44718635
 20
0.14464465
 10
49.45989471
 20
0.14464465
 10
49.47260307
 20
0.14464465
 10
49.48531143
 20
0.14464465
 10
49.49801979
 20
0.14464465
 10
49.51072815
 20
0.14464465
 10
49.52343651
 20
0.14464465
 10
49.53614487
 20
0.14464465
 10
49.54885323
 20
0.14464465
 10
49.56156159
 20
0.14464465
 10
49.57426995
 20
0.14464465
 10
49.58697831
 20
0.14464465
 10
49.59968667
 20
0.14464465
 10
49.61239503
 20
0.14464465
 10
49.62510339
 20
0.14464465
 10
49.63781175
 20
0.14464465
 10
49.65052011
 20
0.14464465
 10
49.66322847
 20
0.14464465
 10
49.67593683
 20
0.14464465
 10
49.68864519
 20
0.14464465
 10
49.70135355
 20
0.14464465
 10
49.71406191
 20
0.14464465
 10
49.72677027
 20
0.14464465
 10
49.73947862
 20
0.14464465
 10
49.75218698
 20
0.14464465
 10
49.76489534
 20
0.14464465
 10
49.77760371
 20
0.14464465
 10
49.79031207
 20
0.14464465
 10
49.80302043
 20
0.14464465
 10
49.81572878
 20
0.14464465
 10
49.82843714
 20
0.14464465
 10
49.8411455
 20
0.14464465
 10
49.85385386
 20
0.14464465
 10
49.86656223
 20
0.14464465
 10
49.87927058
 20
0.14464465
 10
49.89197894
 20
0.14464465
 10
49.9046873
 20
0.14464465
 10
49.91739566
 20
0.14464465
 10
49.93010402
 20
0.14464465
 10
49.94281238
 20
0.14464465
 10
49.95552074
 20
0.14464465
 10
49.9682291
 20
0.14464465
 10
49.98093746
 20
0.14464465
 10
49.99364582
 20
0.14464465
 10
50.00635418
 20
0.14464465
 10
50.01906254
 20
0.14464465
 10
50.0317709
 20
0.14464465
 10
50.04447926
 20
0.14464465
 10
50.05718762
 20
0.14464465
 10
50.06989598
 20
0.14464465
 10
50.08260434
 20
0.14464465
 10
50.0953127
 20
0.14464465
 10
50.10802106
 20
0.14464465
 10
50.12072942
 20
0.14464465
 10
50.13343777
 20
0.14464465
 10
50.14614614
 20
0.14464465
 10
50.1588545
 20
0.14464465
 10
50.17156286
 20
0.14464465
 10
50.18427122
 20
0.14464465
 10
50.19697957
 20
0.14464465
 10
50.20968793
 20
0.14464465
 10
50.22239629
 20
0.14464465
 10
50.23510466
 20
0.14464465
 10
50.24781302
 20
0.14464465
 10
50.26052138
 20
0.14464465
 10
50.27322973
 20
0.14464465
 10
50.28593809
 20
0.14464465
 10
50.29864645
 20
0.14464465
 10
50.31135481
 20
0.14464465
 10
50.32406317
 20
0.14464465
 10
50.33677153
 20
0.14464465
 10
50.34947989
 20
0.14464465
 10
50.36218825
 20
0.14464465
 10
50.37489661
 20
0.14464465
 10
50.38760497
 20
0.14464465
 10
50.40031333
 20
0.14464465
 10
50.41302169
 20
0.14464465
 10
50.42573005
 20
0.14464465
 10
50.43843841
 20
0.14464465
 10
50.45114677
 20
0.14464465
 10
50.46385513
 20
0.14464465
 10
50.47656349
 20
0.14464465
 10
50.48927185
 20
0.14464465
 10
50.50198021
 20
0.14464465
 10
50.51468857
 20
0.14464465
 10
50.52739693
 20
0.14464465
 10
50.54010529
 20
0.14464465
 10
50.55281365
 20
0.14464465
 10
50.56552201
 20
0.14464465
 10
50.57823037
 20
0.14464465
 10
50.59093872
 20
0.14464465
 10
50.60364709
 20
0.14464465
 10
50.61635545
 20
0.14464465
 10
50.62622969
 20
0.1403466
 10
50.63313718
 20
0.13154936
 10
50.64004468
 20
0.12275213
 10
50.64695218
 20
0.1139549
 10
50.65385968
 20
0.10515766
 10
50.66076718
 20
0.09636043
 10
50.66767467
 20
0.0875632
 10
50.67458217
 20
0.07876597
 10
50.68148967
 20
0.06996873
 10
50.68839717
 20
0.06117149
 10
50.69530467
 20
0.05237426
 10
50.70221217
 20
0.04357703
 10
50.70911966
 20
0.0347798
 10
50.71602716
 20
0.02598256
 10
50.72293466
 20
0.01718533
 10
50.72984216
 20
0.0083881
 10
50.73674965
 20
-0.00040914
 10
50.74365715
 20
-0.00920637
 10
50.75056465
 20
-0.01800361
 10
50.75747214
 20
-0.02680084
 10
50.76437964
 20
-0.03559807
 10
50.77128714
 20
-0.0443953
 10
50.77819464
 20
-0.05319254
 10
50.78510213
 20
-0.06198977
 10
50.79200963
 20
-0.070787
 10
50.79891713
 20
-0.07958424
 10
50.805824630000004
 20
-0.08838147
 10
50.81273213
 20
-0.09717871
 10
50.81963962
 20
-0.10597594
 10
50.82654712
 20
-0.11477317
 10
50.83345462
 20
-0.12357041
 10
50.84036212
 20
-0.13236764
 10
50.84726962
 20
-0.14116487
 10
50.85417712
 20
-0.1499621
 10
50.864309
 20
-0.15386942
 10
50.877017359999996
 20
-0.15386942
 10
50.88972572
 20
-0.15386942
 10
50.90243408
 20
-0.15386942
 10
50.91514244
 20
-0.15386942
 10
50.9278508
 20
-0.15386942
 10
50.94055916
 20
-0.15386942
 10
50.95326752
 20
-0.15386942
 10
50.96597588
 20
-0.15386942
 10
50.97868424
 20
-0.15386942
 10
50.9913926
 20
-0.15386942
 10
51.00410096
 20
-0.15386942
 10
51.01680932
 20
-0.15386942
 10
51.02951768
 20
-0.15386942
 10
51.04222604
 20
-0.15386942
 10
51.0549344
 20
-0.15386942
 10
51.06764276
 20
-0.15386942
 10
51.08035112
 20
-0.15386942
 10
51.09305948
 20
-0.15386942
 10
51.10576784
 20
-0.15386942
 10
51.11847619
 20
-0.15386942
 10
51.13118456
 20
-0.15386942
 10
51.14389292
 20
-0.15386942
 10
51.15660128
 20
-0.15386942
 10
51.16930964
 20
-0.15386942
 10
51.18201799
 20
-0.15386942
 10
51.19472635
 20
-0.15386942
 10
51.20743471
 20
-0.15386942
 10
51.22014308
 20
-0.15386942
 10
51.23285144
 20
-0.15386942
 10
51.2455598
 20
-0.15386942
 10
51.25826815
 20
-0.15386942
 10
51.27097651
 20
-0.15386942
 10
51.28368487
 20
-0.15386942
 10
51.29639323
 20
-0.15386942
 10
51.30910159
 20
-0.15386942
 10
51.32180995
 20
-0.15386942
 10
51.33451831
 20
-0.15386942
 10
51.34722667
 20
-0.15386942
 10
51.35993503
 20
-0.15386942
 10
51.37264339
 20
-0.15386942
 10
51.38535175
 20
-0.15386942
 10
51.39806011
 20
-0.15386942
 10
51.41076847
 20
-0.15386942
 10
51.42347683
 20
-0.15386942
  0
TEXT
  5
42
330
17
100
AcDbEntity
  8
STATION_LABEL
100
AcDbText
 10
50.0
 20
0.0
 30
0.0
 40
1.0
  1
Station 10
 11
50.0
 21
0.0
 31
0.0
100
AcDbText
  0
LWPOLYLINE
  5
43
330
17
100
AcDbEntity
  8
GENERATED_PROFILE
100
AcDbPolyline
 90
256
 70
0
 10
53.52947019
 20
-0.17096603
 10
53.54271913
 20
-0.17096603
 10
53.55596807
 20
-0.17096603
 10
53.56921701
 20
-0.17096603
 10
53.58246595
 20
-0.17096603
 10
53.595714889999996
 20
-0.17096603
 10
53.60896383
 20
-0.17096603
 10
53.62221277
 20
-0.17096603
 10
53.63546171
 20
-0.17096603
 10
53.64871065
 20
-0.17096603
 10
53.66195959
 20
-0.17096603
 10
53.67520853
 20
-0.17096603
 10
53.68845747
 20
-0.17096603
 10
53.70170641
 20
-0.17096603
 10
53.71495535
 20
-0.17096603
 10
53.72820429
 20
-0.17096603
 10
53.74145323
 20
-0.17096603
 10
53.75470217
 20
-0.17096603
 10
53.76795111
 20
-0.17096603
 10
53.78120005
 20
-0.17096603
 10
53.79444899
 20
-0.17096603
 10
53.80769793
 20
-0.17096603
 10
53.82094687
 20
-0.17096603
 10
53.83419581
 20
-0.17096603
 10
53.84744475
 20
-0.17096603
 10
53.86069369
 20
-0.17096603
 10
53.87394263
 20
-0.17096603
 10
53.88719157
 20
-0.17096603
 10
53.90044051
 20
-0.17096603
 10
53.91368945
 20
-0.17096603
 10
53.92693839
 20
-0.17096603
 10
53.94018733
 20
-0.17096603
 10
53.95343627
 20
-0.17096603
 10
53.96668521
 20
-0.17096603
 10
53.97993415
 20
-0.17096603
 10
53.99318309
 20
-0.17096603
 10
54.00643203
 20
-0.17096603
 10
54.01968097
 20
-0.17096603
 10
54.03292991
 20
-0.17096603
 10
54.04617885
 20
-0.17096603
 10
54.05942779
 20
-0.17096603
 10
54.07267673
 20
-0.17096603
 10
54.08592567
 20
-0.17096603
 10
54.09917461
 20
-0.17096603
 10
54.11242355
 20
-0.17096603
 10
54.12280974
 20
-0.16662456
 10
54.12961328
 20
-0.15684986
 10
54.13641682
 20
-0.14707515
 10
54.14322036
 20
-0.13730045
 10
54.1500239
 20
-0.12752575
 10
54.15682743
 20
-0.11775104
 10
54.16363097
 20
-0.10797634
 10
54.17043451
 20
-0.09820163
 10
54.17723804
 20
-0.08842693
 10
54.18404158
 20
-0.07865223
 10
54.19084512
 20
-0.06887753
 10
54.19764866
 20
-0.05910282
 10
54.20445219
 20
-0.04932811
 10
54.21125573
 20
-0.03955341
 10
54.21805927
 20
-0.02977871
 10
54.22486281
 20
-0.02000401
 10
54.23166635
 20
-0.0102293
 10
54.23846988
 20
-0.0004546
 10
54.24527342
 20
0.00932011
 10
54.25207696
 20
0.01909481
 10
54.2588805
 20
0.02886951
 10
54.26568404
 20
0.03864422
 10
54.27248757
 20
0.04841892
 10
54.27929111
 20
0.05819363
 10
54.28609465
 20
0.06796833
 10
54.29289819
 20
0.07774303
 10
54.29970173
 20
0.08751774
 10
54.30650527
 20
0.09729244
 10
54.3133088
 20
0.10706715
 10
54.32011234
 20
0.11684185
 10
54.32691588
 20
0.12661655
 10
54.33371942
 20
0.13639125
 10
54.34052296
 20
0.14616596
 10
54.34732649
 20
0.15594067
 10
54.35742641
 20
0.16071628
 10
54.37067535
 20
0.16071628
 10
54.38392429
 20
0.16071628
 10
54.39717323
 20
0.16071628
 10
54.41042217
 20
0.16071628
 10
54.42367111
 20
0.16071628
 10
54.43692005
 20
0.16071628
 10
54.45016899
 20
0.16071628
 10
54.46341793
 20
0.16071628
 10
54.47666687
 20
0.16071628
 10
54.48991581
 20
0.16071628
 10
54.50316475
 20
0.16071628
 10
54.51641369
 20
0.16071628
 10
54.52966263
 20
0.16071628
 10
54.54291157
 20
0.16071628
 10
54.55616051
 20
0.16071628
 10
54.56940945
 20
0.16071628
 10
54.58265839
 20
0.16071628
 10
54.59590733
 20
0.16071628
 10
54.60915627
 20
0.16071628
 10
54.62240521
 20
0.16071628
 10
54.63565415
 20
0.16071628
 10
54.64890309
 20
0.16071628
 10
54.66215203
 20
0.16071628
 10
54.67540097
 20
0.16071628
 10
54.68864991
 20
0.16071628
 10
54.70189885
 20
0.16071628
 10
54.71514779
 20
0.16071628
 10
54.72839673
 20
0.16071628
 10
54.74164567
 20
0.16071628
 10
54.75489461
 20
0.16071628
 10
54.76814355
 20
0.16071628
 10
54.78139249
 20
0.16071628
 10
54.79464143
 20
0.16071628
 10
54.80789037
 20
0.16071628
 10
54.82113931
 20
0.16071628
 10
54.83438825
 20
0.16071628
 10
54.84763719
 20
0.16071628
 10
54.86088613
 20
0.16071628
 10
54.87413507
 20
0.16071628
 10
54.88738401
 20
0.16071628
 10
54.90063295
 20
0.16071628
 10
54.91388189
 20
0.16071628
 10
54.92713083
 20
0.16071628
 10
54.94037977
 20
0.16071628
 10
54.95362871
 20
0.16071628
 10
54.96687765
 20
0.16071628
 10
54.98012659
 20
0.16071628
 10
54.99337553
 20
0.16071628
 10
55.00662447
 20
0.16071628
 10
55.01987341
 20
0.16071628
 10
55.03312235
 20
0.16071628
 10
55.04637129
 20
0.16071628
 10
55.05962023
 20
0.16071628
 10
55.07286917
 20
0.16071628
 10
55.08611811
 20
0.16071628
 10
55.09936705
 20
0.16071628
 10
55.11261599
 20
0.16071628
 10
55.12586493
 20
0.16071628
 10
55.13911387
 20
0.16071628
 10
55.15236281
 20
0.16071628
 10
55.16561175
 20
0.16071628
 10
55.17886069
 20
0.16071628
 10
55.19210963
 20
0.16071628
 10
55.20535857
 20
0.16071628
 10
55.21860751
 20
0.16071628
 10
55.23185645
 20
0.16071628
 10
55.24510539
 20
0.16071628
 10
55.25835433
 20
0.16071628
 10
55.27160327
 20
0.16071628
 10
55.28485221
 20
0.16071628
 10
55.29810115
 20
0.16071628
 10
55.31135009
 20
0.16071628
 10
55.32459903
 20
0.16071628
 10
55.33784797
 20
0.16071628
 10
55.35109691
 20
0.16071628
 10
55.36434585
 20
0.16071628
 10
55.37759479
 20
0.16071628
 10
55.39084373
 20
0.16071628
 10
55.40409267
 20
0.16071628
 10
55.41734161
 20
0.16071628
 10
55.43059055
 20
0.16071628
 10
55.44383949
 20
0.16071628
 10
55.45708843
 20
0.16071628
 10
55.47033737
 20
0.16071628
 10
55.48358631
 20
0.16071628
 10
55.49683525
 20
0.16071628
 10
55.51008419
 20
0.16071628
 10
55.52333313
 20
0.16071628
 10
55.53658207
 20
0.16071628
 10
55.54983101
 20
0.16071628
 10
55.56307995
 20
0.16071628
 10
55.57632889
 20
0.16071628
 10
55.58957783
 20
0.16071628
 10
55.60282677
 20
0.16071628
 10
55.61607571
 20
0.16071628
 10
55.62932465
 20
0.16071628
 10
55.64257359
 20
0.16071628
 10
55.65267351
 20
0.15594067
 10
55.65947704
 20
0.14616596
 10
55.66628058
 20
0.13639125
 10
55.67308412
 20
0.12661655
 10
55.67988766
 20
0.11684185
 10
55.6866912
 20
0.10706715
 10
55.69349473
 20
0.09729244
 10
55.70029827
 20
0.08751774
 10
55.70710181
 20
0.07774303
 10
55.71390535
 20
0.06796833
 10
55.72070889
 20
0.05819363
 10
55.72751243
 20
0.04841892
 10
55.73431596
 20
0.03864422
 10
55.7411195
 20
0.02886951
 10
55.74792304
 20
0.01909481
 10
55.75472658
 20
0.00932011
 10
55.76153012
 20
-0.0004546
 10
55.76833365
 20
-0.0102293
 10
55.77513719
 20
-0.02000401
 10
55.78194073
 20
-0.02977871
 10
55.78874427
 20
-0.03955341
 10
55.79554781
 20
-0.04932811
 10
55.80235134
 20
-0.05910282
 10
55.80915488
 20
-0.06887753
 10
55.81595842
 20
-0.07865223
 10
55.82276196
 20
-0.08842693
 10
55.82956549
 20
-0.09820163
 10
55.83636903
 20
-0.10797634
 10
55.84317257
 20
-0.11775104
 10
55.8499761
 20
-0.12752575
 10
55.85677964
 20
-0.13730045
 10
55.86358318
 20
-0.14707515
 10
55.87038672
 20
-0.15684986
 10
55.87719026
 20
-0.16662456
 10
55.88757645
 20
-0.17096603
 10
55.90082539
 20
-0.17096603
 10
55.91407433
 20
-0.17096603
 10
55.92732327
 20
-0.17096603
 10
55.94057221
 20
-0.17096603
 10
55.95382115
 20
-0.17096603
 10
55.96707009
 20
-0.17096603
 10
55.98031903
 20
-0.17096603
 10
55.99356797
 20
-0.17096603
 10
56.00681691
 20
-0.17096603
 10
56.02006585
 20
-0.17096603
 10
56.03331479
 20
-0.17096603
 10
56.04656373
 20
-0.17096603
 10
56.05981267
 20
-0.17096603
 10
56.07306161
 20
-0.17096603
 10
56.08631055
 20
-0.17096603
 10
56.09955949
 20
-0.17096603
 10
56.11280843
 20
-0.17096603
 10
56.12605737
 20
-0.17096603
 10
56.13930631
 20
-0.17096603
 10
56.15255525
 20
-0.17096603
 10
56.16580419
 20
-0.17096603
 10
56.17905313
 20
-0.17096603
 10
56.19230207
 20
-0.17096603
 10
56.20555101
 20
-0.17096603
 10
56.21879995
 20
-0.17096603
 10
56.23204889
 20
-0.17096603
 10
56.24529783
 20
-0.17096603
 10
56.25854677
 20
-0.17096603
 10
56.27179571
 20
-0.17096603
 10
56.28504465
 20
-0.17096603
 10
56.29829359
 20
-0.17096603
 10
56.31154253
 20
-0.17096603
 10
56.32479147
 20
-0.17096603
 10
56.33804041
 20
-0.17096603
 10
56.35128935
 20
-0.17096603
 10
56.36453829
 20
-0.17096603
 10
56.37778723
 20
-0.17096603
 10
56.39103617
 20
-0.17096603
 10
56.404285110000004
 20
-0.17096603
 10
56.41753405
 20
-0.17096603
 10
56.43078299
 20
-0.17096603
 10
56.44403193
 20
-0.17096603
 10
56.45728087
 20
-0.17096603
 10
56.47052981
 20
-0.17096603
  0
TEXT
  5
44
330
17
100
AcDbEntity
  8
STATION_LABEL
100
AcDbText
 10
55.0
 20
0.0
 30
0.0
 40
1.0
  1
Station 11
 11
55.0
 21
0.0
 31
0.0
100
AcDbText
  0
LWPOLYLINE
  5
45
330
17
100
AcDbEntity
  8
GENERATED_PROFILE
100
AcDbPolyline
 90
256
 70
0
 10
58.48241721
 20
-0.18806263
 10
58.49620672
 20
-0.18806263
 10
58.50999625
 20
-0.18806263
 10
58.52378577
 20
-0.18806263
 10
58.53757529
 20
-0.18806263
 10
58.55136481
 20
-0.18806263
 10
58.56515433
 20
-0.18806263
 10
58.57894385
 20
-0.18806263
 10
58.59273337
 20
-0.18806263
 10
58.60652289
 20
-0.18806263
 10
58.62031241
 20
-0.18806263
 10
58.63410193
 20
-0.18806263
 10
58.64789145
 20
-0.18806263
 10
58.66168097
 20
-0.18806263
 10
58.67547049
 20
-0.18806263
 10
58.68926001
 20
-0.18806263
 10
58.70304953
 20
-0.18806263
 10
58.71683905
 20
-0.18806263
 10
58.73062857
 20
-0.18806263
 10
58.744418089999996
 20
-0.18806263
 10
58.75820761
 20
-0.18806263
 10
58.77199713
 20
-0.18806263
 10
58.78578665
 20
-0.18806263
 10
58.79957617
 20
-0.18806263
 10
58.8133657
 20
-0.18806263
 10
58.82715522
 20
-0.18806263
 10
58.84094474
 20
-0.18806263
 10
58.85473425
 20
-0.18806263
 10
58.86852377
 20
-0.18806263
 10
58.88231329
 20
-0.18806263
 10
58.89610281
 20
-0.18806263
 10
58.90989234
 20
-0.18806263
 10
58.92368186
 20
-0.18806263
 10
58.93747138
 20
-0.18806263
 10
58.9512609
 20
-0.18806263
 10
58.96505042
 20
-0.18806263
 10
58.97883994
 20
-0.18806263
 10
58.99262945
 20
-0.18806263
 10
59.00641897
 20
-0.18806263
 10
59.0202085
 20
-0.18806263
 10
59.03399802
 20
-0.18806263
 10
59.04778754
 20
-0.18806263
 10
59.06157706
 20
-0.18806263
 10
59.07536658
 20
-0.18806263
 10
59.0891561
 20
-0.18806263
 10
59.0997966
 20
-0.18328702
 10
59.10649617
 20
-0.17253485
 10
59.11319575
 20
-0.16178267
 10
59.11989533
 20
-0.1510305
 10
59.12659491
 20
-0.14027832
 10
59.13329449
 20
-0.12952614
 10
59.13999406
 20
-0.11877397
 10
59.14669364
 20
-0.1080218
 10
59.15339322
 20
-0.09726963
 10
59.1600928
 20
-0.08651745
 10
59.16679238
 20
-0.07576528
 10
59.17349195
 20
-0.0650131
 10
59.18019153
 20
-0.05426092
 10
59.18689111
 20
-0.04350875
 10
59.19359069
 20
-0.03275658
 10
59.200290269999996
 20
-0.02200441
 10
59.20698985
 20
-0.01125223
 10
59.21368942
 20
-0.00050006
 10
59.220389
 20
0.01025212
 10
59.22708858
 20
0.02100429
 10
59.23378816
 20
0.03175646
 10
59.24048774
 20
0.04250864
 10
59.24718731
 20
0.05326081
 10
59.25388689
 20
0.06401299
 10
59.26058647
 20
0.07476516
 10
59.26728605
 20
0.08551734
 10
59.27398563
 20
0.09626951
 10
59.28068521
 20
0.10702168
 10
59.28738478
 20
0.11777386
 10
59.29408436
 20
0.12852603
 10
59.30078394
 20
0.13927821
 10
59.30748352
 20
0.15003038
 10
59.31418309
 20
0.16078256
 10
59.32088267
 20
0.17153473
 10
59.33120826
 20
0.17678791
 10
59.34499778
 20
0.17678791
 10
59.35878731
 20
0.17678791
 10
59.37257683
 20
0.17678791
 10
59.38636635
 20
0.17678791
 10
59.40015587
 20
0.17678791
 10
59.41394539
 20
0.17678791
 10
59.42773491
 20
0.17678791
 10
59.44152443
 20
0.17678791
 10
59.45531395
 20
0.17678791
 10
59.46910347
 20
0.17678791
 10
59.48289299
 20
0.17678791
 10
59.49668251
 20
0.17678791
 10
59.51047203
 20
0.17678791
 10
59.52426155
 20
0.17678791
 10
59.53805107
 20
0.17678791
 10
59.55184059
 20
0.17678791
 10
59.56563011
 20
0.17678791
 10
59.57941963
 20
0.17678791
 10
59.59320915
 20
0.17678791
 10
59.60699867
 20
0.17678791
 10
59.62078819
 20
0.17678791
 10
59.63457771
 20
0.17678791
 10
59.64836724
 20
0.17678791
 10
59.66215676
 20
0.17678791
 10
59.67594628
 20
0.17678791
 10
59.68973579
 20
0.17678791
 10
59.70352531
 20
0.17678791
 10
59.71731483
 20
0.17678791
 10
59.73110435
 20
0.17678791
 10
59.74489387
 20
0.17678791
 10
59.7586834
 20
0.17678791
 10
59.77247292
 20
0.17678791
 10
59.78626244
 20
0.17678791
 10
59.80005196
 20
0.17678791
 10
59.81384148
 20
0.17678791
 10
59.82763099
 20
0.17678791
 10
59.84142051
 20
0.17678791
 10
59.85521004
 20
0.17678791
 10
59.86899956
 20
0.17678791
 10
59.88278908
 20
0.17678791
 10
59.8965786
 20
0.17678791
 10
59.91036812
 20
0.17678791
 10
59.92415764
 20
0.17678791
 10
59.93794716
 20
0.17678791
 10
59.95173668
 20
0.17678791
 10
59.9655262
 20
0.17678791
 10
59.97931572
 20
0.17678791
 10
59.99310524
 20
0.17678791
 10
60.00689476
 20
0.17678791
 10
60.02068428
 20
0.17678791
 10
60.0344738
 20
0.17678791
 10
60.04826332
 20
0.17678791
 10
60.06205284
 20
0.17678791
 10
60.07584236
 20
0.17678791
 10
60.08963188
 20
0.17678791
 10
60.1034214
 20
0.17678791
 10
60.11721092
 20
0.17678791
 10
60.13100044
 20
0.17678791
 10
60.14478996
 20
0.17678791
 10
60.15857949
 20
0.17678791
 10
60.17236901
 20
0.17678791
 10
60.18615852
 20
0.17678791
 10
60.19994804
 20
0.17678791
 10
60.21373756
 20
0.17678791
 10
60.22752708
 20
0.17678791
 10
60.2413166
 20
0.17678791
 10
60.25510613
 20
0.17678791
 10
60.26889565
 20
0.17678791
 10
60.28268517
 20
0.17678791
 10
60.29647469
 20
0.17678791
 10
60.31026421
 20
0.17678791
 10
60.32405372
 20
0.17678791
 10
60.33784324
 20
0.17678791
 10
60.35163276
 20
0.17678791
 10
60.36542229
 20
0.17678791
 10
60.37921181
 20
0.17678791
 10
60.39300133
 20
0.17678791
 10
60.40679085
 20
0.17678791
 10
60.42058037
 20
0.17678791
 10
60.43436989
 20
0.17678791
 10
60.44815941
 20
0.17678791
 10
60.46194893
 20
0.17678791
 10
60.47573845
 20
0.17678791
 10
60.48952797
 20
0.17678791
 10
60.50331749
 20
0.17678791
 10
60.51710701
 20
0.17678791
 10
60.53089653
 20
0.17678791
 10
60.54468605
 20
0.17678791
 10
60.55847557
 20
0.17678791
 10
60.57226509
 20
0.17678791
 10
60.58605461
 20
0.17678791
 10
60.59984413
 20
0.17678791
 10
60.61363365
 20
0.17678791
 10
60.62742317
 20
0.17678791
 10
60.64121269
 20
0.17678791
 10
60.65500222
 20
0.17678791
 10
60.66879174
 20
0.17678791
 10
60.67911733
 20
0.17153473
 10
60.68581691
 20
0.16078256
 10
60.69251648
 20
0.15003038
 10
60.69921606
 20
0.13927821
 10
60.70591564
 20
0.12852603
 10
60.71261522
 20
0.11777386
 10
60.71931479
 20
0.10702168
 10
60.72601437
 20
0.09626951
 10
60.73271395
 20
0.08551734
 10
60.73941353
 20
0.07476516
 10
60.74611311
 20
0.06401299
 10
60.75281269
 20
0.05326081
 10
60.75951226
 20
0.04250864
 10
60.76621184
 20
0.03175646
 10
60.77291142
 20
0.02100429
 10
60.779611
 20
0.01025212
 10
60.78631058
 20
-0.00050006
 10
60.79301015
 20
-0.01125223
 10
60.799709730000004
 20
-0.02200441
 10
60.80640931
 20
-0.03275658
 10
60.81310889
 20
-0.04350875
 10
60.81980847
 20
-0.05426092
 10
60.82650805
 20
-0.0650131
 10
60.83320762
 20
-0.07576528
 10
60.8399072
 20
-0.08651745
 10
60.84660678
 20
-0.09726963
 10
60.85330636
 20
-0.1080218
 10
60.86000594
 20
-0.11877397
 10
60.86670551
 20
-0.12952614
 10
60.87340509
 20
-0.14027832
 10
60.88010467
 20
-0.1510305
 10
60.88680425
 20
-0.16178267
 10
60.89350383
 20
-0.17253485
 10
60.9002034
 20
-0.18328702
 10
60.9108439
 20
-0.18806263
 10
60.92463342
 20
-0.18806263
 10
60.93842294
 20
-0.18806263
 10
60.95221246
 20
-0.18806263
 10
60.96600198
 20
-0.18806263
 10
60.9797915
 20
-0.18806263
 10
60.99358103
 20
-0.18806263
 10
61.00737055
 20
-0.18806263
 10
61.02116006
 20
-0.18806263
 10
61.03494958
 20
-0.18806263
 10
61.0487391
 20
-0.18806263
 10
61.06252862
 20
-0.18806263
 10
61.07631814
 20
-0.18806263
 10
61.09010766
 20
-0.18806263
 10
61.10389719
 20
-0.18806263
 10
61.11768671
 20
-0.18806263
 10
61.13147623
 20
-0.18806263
 10
61.14526575
 20
-0.18806263
 10
61.15905526
 20
-0.18806263
 10
61.17284478
 20
-0.18806263
 10
61.1866343
 20
-0.18806263
 10
61.20042383
 20
-0.18806263
 10
61.21421335
 20
-0.18806263
 10
61.22800287
 20
-0.18806263
 10
61.24179239
 20
-0.18806263
 10
61.255581910000004
 20
-0.18806263
 10
61.26937143
 20
-0.18806263
 10
61.28316095
 20
-0.18806263
 10
61.29695047
 20
-0.18806263
 10
61.31073999
 20
-0.18806263
 10
61.32452951
 20
-0.18806263
 10
61.33831903
 20
-0.18806263
 10
61.35210855
 20
-0.18806263
 10
61.36589807
 20
-0.18806263
 10
61.37968759
 20
-0.18806263
 10
61.39347711
 20
-0.18806263
 10
61.40726663
 20
-0.18806263
 10
61.42105615
 20
-0.18806263
 10
61.43484567
 20
-0.18806263
 10
61.44863519
 20
-0.18806263
 10
61.46242471
 20
-0.18806263
 10
61.47621423
 20
-0.18806263
 10
61.49000375
 20
-0.18806263
 10
61.50379328
 20
-0.18806263
 10
61.51758279
 20
-0.18806263
  0
TEXT
  5
46
330
17
100
AcDbEntity
  8
STATION_LABEL
100
AcDbText
 10
60.0
 20
0.0
 30
0.0
 40
1.0
  1
Station 12
 11
60.0
 21
0.0
 31
0.0
100
AcDbText
  0
LWPOLYLINE
  5
47
330
17
100
AcDbEntity
  8
GENERATED_PROFILE
100
AcDbPolyline
 90
256
 70
0
 10
63.43536422
 20
-0.20515923
 10
63.44969432
 20
-0.20515923
 10
63.46402443
 20
-0.20515923
 10
63.47835453
 20
-0.20515923
 10
63.49268463
 20
-0.20515923
 10
63.50701473
 20
-0.20515923
 10
63.52134483
 20
-0.20515923
 10
63.53567493
 20
-0.20515923
 10
63.55000503
 20
-0.20515923
 10
63.56433514
 20
-0.20515923
 10
63.57866523
 20
-0.20515923
 10
63.59299533
 20
-0.20515923
 10
63.60732543
 20
-0.20515923
 10
63.62165553
 20
-0.20515923
 10
63.63598563
 20
-0.20515923
 10
63.65031573
 20
-0.20515923
 10
63.66464583
 20
-0.20515923
 10
63.67897594
 20
-0.20515923
 10
63.69330604
 20
-0.20515923
 10
63.70763614
 20
-0.20515923
 10
63.72196624
 20
-0.20515923
 10
63.73629634
 20
-0.20515923
 10
63.75062644
 20
-0.20515923
 10
63.76495654
 20
-0.20515923
 10
63.77928664
 20
-0.20515923
 10
63.79361674
 20
-0.20515923
 10
63.80794684
 20
-0.20515923
 10
63.82227694
 20
-0.20515923
 10
63.83660704
 20
-0.20515923
 10
63.85093714
 20
-0.20515923
 10
63.86526724
 20
-0.20515923
 10
63.87959735
 20
-0.20515923
 10
63.89392745
 20
-0.20515923
 10
63.90825755
 20
-0.20515923
 10
63.92258765
 20
-0.20515923
 10
63.93691774
 20
-0.20515923
 10
63.95124784
 20
-0.20515923
 10
63.96557794
 20
-0.20515923
 10
63.97990804
 20
-0.20515923
 10
63.99423815
 20
-0.20515923
 10
64.00856825
 20
-0.20515923
 10
64.02289835
 20
-0.20515923
 10
64.03722845
 20
-0.20515923
 10
64.05155855
 20
-0.20515923
 10
64.06588865
 20
-0.20515923
 10
64.07678345
 20
-0.19994947
 10
64.08337907
 20
-0.18821983
 10
64.08997469
 20
-0.17649018
 10
64.09657031
 20
-0.16476054
 10
64.10316593
 20
-0.1530309
 10
64.10976155
 20
-0.14130125
 10
64.11635716
 20
-0.12957161
 10
64.12295278
 20
-0.11784196
 10
64.1295484
 20
-0.10611232
 10
64.13614402
 20
-0.09438267
 10
64.14273964
 20
-0.08265303
 10
64.14933525000001
 20
-0.07092338
 10
64.15593087
 20
-0.05919374
 10
64.16252649
 20
-0.0474641
 10
64.16912211
 20
-0.03573445
 10
64.17571773
 20
-0.02400481
 10
64.18231335
 20
-0.01227516
 10
64.18890896
 20
-0.00054552
 10
64.19550458
 20
0.01118413
 10
64.2021002
 20
0.02291378
 10
64.20869582
 20
0.03464342
 10
64.21529144
 20
0.04637306
 10
64.22188705
 20
0.0581027
 10
64.22848267
 20
0.06983235
 10
64.23507829
 20
0.08156199
 10
64.24167391
 20
0.09329164
 10
64.24826953
 20
0.10502129
 10
64.25486514
 20
0.11675093
 10
64.26146076
 20
0.12848058
 10
64.26805638
 20
0.14021022
 10
64.27465199
 20
0.15193986
 10
64.28124761
 20
0.1636695
 10
64.28784323
 20
0.17539915
 10
64.29443885
 20
0.1871288
 10
64.30499012
 20
0.19285954
 10
64.31932022
 20
0.19285954
 10
64.33365033
 20
0.19285954
 10
64.34798043
 20
0.19285954
 10
64.36231053
 20
0.19285954
 10
64.37664063
 20
0.19285954
 10
64.39097073
 20
0.19285954
 10
64.40530082
 20
0.19285954
 10
64.41963092
 20
0.19285954
 10
64.43396103
 20
0.19285954
 10
64.44829113
 20
0.19285954
 10
64.46262123
 20
0.19285954
 10
64.47695133
 20
0.19285954
 10
64.49128143
 20
0.19285954
 10
64.50561153
 20
0.19285954
 10
64.51994163
 20
0.19285954
 10
64.53427174
 20
0.19285954
 10
64.54860184
 20
0.19285954
 10
64.56293193
 20
0.19285954
 10
64.57726203
 20
0.19285954
 10
64.59159213
 20
0.19285954
 10
64.60592223
 20
0.19285954
 10
64.62025233
 20
0.19285954
 10
64.63458244
 20
0.19285954
 10
64.64891254
 20
0.19285954
 10
64.66324263999999
 20
0.19285954
 10
64.67757274
 20
0.19285954
 10
64.69190284
 20
0.19285954
 10
64.70623294
 20
0.19285954
 10
64.72056304
 20
0.19285954
 10
64.73489314
 20
0.19285954
 10
64.74922324
 20
0.19285954
 10
64.76355334
 20
0.19285954
 10
64.77788344
 20
0.19285954
 10
64.79221354
 20
0.19285954
 10
64.80654364
 20
0.19285954
 10
64.82087374
 20
0.19285954
 10
64.83520384
 20
0.19285954
 10
64.84953395
 20
0.19285954
 10
64.86386405
 20
0.19285954
 10
64.87819415
 20
0.19285954
 10
64.89252425
 20
0.19285954
 10
64.90685435
 20
0.19285954
 10
64.92118445
 20
0.19285954
 10
64.93551454
 20
0.19285954
 10
64.94984465
 20
0.19285954
 10
64.96417475
 20
0.19285954
 10
64.97850485
 20
0.19285954
 10
64.99283495
 20
0.19285954
 10
65.00716505
 20
0.19285954
 10
65.02149515
 20
0.19285954
 10
65.03582525
 20
0.19285954
 10
65.05015535
 20
0.19285954
 10
65.06448546
 20
0.19285954
 10
65.07881555
 20
0.19285954
 10
65.09314565
 20
0.19285954
 10
65.10747575
 20
0.19285954
 10
65.12180585
 20
0.19285954
 10
65.13613595
 20
0.19285954
 10
65.15046605
 20
0.19285954
 10
65.16479616
 20
0.19285954
 10
65.17912626
 20
0.19285954
 10
65.19345636
 20
0.19285954
 10
65.20778646
 20
0.19285954
 10
65.22211656
 20
0.19285954
 10
65.23644666
 20
0.19285954
 10
65.25077676
 20
0.19285954
 10
65.26510686
 20
0.19285954
 10
65.27943696
 20
0.19285954
 10
65.29376706
 20
0.19285954
 10
65.30809716
 20
0.19285954
 10
65.32242726
 20
0.19285954
 10
65.33675736000001
 20
0.19285954
 10
65.35108746
 20
0.19285954
 10
65.36541756
 20
0.19285954
 10
65.37974767
 20
0.19285954
 10
65.39407777
 20
0.19285954
 10
65.40840787
 20
0.19285954
 10
65.42273797
 20
0.19285954
 10
65.43706807
 20
0.19285954
 10
65.45139816
 20
0.19285954
 10
65.46572826
 20
0.19285954
 10
65.48005837
 20
0.19285954
 10
65.49438847
 20
0.19285954
 10
65.50871857
 20
0.19285954
 10
65.52304867
 20
0.19285954
 10
65.53737877
 20
0.19285954
 10
65.55170887
 20
0.19285954
 10
65.56603897
 20
0.19285954
 10
65.58036908
 20
0.19285954
 10
65.59469918
 20
0.19285954
 10
65.60902927
 20
0.19285954
 10
65.62335937
 20
0.19285954
 10
65.63768947
 20
0.19285954
 10
65.65201957
 20
0.19285954
 10
65.66634967
 20
0.19285954
 10
65.68067978
 20
0.19285954
 10
65.69500988
 20
0.19285954
 10
65.70556115
 20
0.1871288
 10
65.71215677
 20
0.17539915
 10
65.71875239
 20
0.1636695
 10
65.72534801
 20
0.15193986
 10
65.73194362
 20
0.14021022
 10
65.73853924
 20
0.12848058
 10
65.74513486
 20
0.11675093
 10
65.75173047
 20
0.10502129
 10
65.75832609
 20
0.09329164
 10
65.76492171
 20
0.08156199
 10
65.77151733
 20
0.06983235
 10
65.77811295
 20
0.0581027
 10
65.78470856
 20
0.04637306
 10
65.79130418
 20
0.03464342
 10
65.7978998
 20
0.02291378
 10
65.80449542
 20
0.01118413
 10
65.81109104
 20
-0.00054552
 10
65.81768665
 20
-0.01227516
 10
65.82428227
 20
-0.02400481
 10
65.83087789
 20
-0.03573445
 10
65.83747351
 20
-0.0474641
 10
65.84406913
 20
-0.05919374
 10
65.85066474999999
 20
-0.07092338
 10
65.85726036
 20
-0.08265303
 10
65.86385598
 20
-0.09438267
 10
65.8704516
 20
-0.10611232
 10
65.87704722
 20
-0.11784196
 10
65.88364284
 20
-0.12957161
 10
65.89023845
 20
-0.14130125
 10
65.89683407
 20
-0.1530309
 10
65.90342969
 20
-0.16476054
 10
65.91002531
 20
-0.17649018
 10
65.91662093
 20
-0.18821983
 10
65.92321655
 20
-0.19994947
 10
65.93411135
 20
-0.20515923
 10
65.94844145
 20
-0.20515923
 10
65.96277155
 20
-0.20515923
 10
65.97710165
 20
-0.20515923
 10
65.99143175
 20
-0.20515923
 10
66.00576185
 20
-0.20515923
 10
66.02009196
 20
-0.20515923
 10
66.03442206
 20
-0.20515923
 10
66.04875216
 20
-0.20515923
 10
66.06308226
 20
-0.20515923
 10
66.07741235
 20
-0.20515923
 10
66.09174245
 20
-0.20515923
 10
66.10607255
 20
-0.20515923
 10
66.12040265
 20
-0.20515923
 10
66.13473276
 20
-0.20515923
 10
66.14906286
 20
-0.20515923
 10
66.16339296
 20
-0.20515923
 10
66.17772306
 20
-0.20515923
 10
66.19205316
 20
-0.20515923
 10
66.20638326
 20
-0.20515923
 10
66.22071336
 20
-0.20515923
 10
66.23504346
 20
-0.20515923
 10
66.24937356
 20
-0.20515923
 10
66.26370366
 20
-0.20515923
 10
66.27803376
 20
-0.20515923
 10
66.29236386
 20
-0.20515923
 10
66.30669396
 20
-0.20515923
 10
66.32102406
 20
-0.20515923
 10
66.33535417
 20
-0.20515923
 10
66.34968427
 20
-0.20515923
 10
66.36401437
 20
-0.20515923
 10
66.37834447
 20
-0.20515923
 10
66.39267457
 20
-0.20515923
 10
66.40700467
 20
-0.20515923
 10
66.42133477
 20
-0.20515923
 10
66.43566486
 20
-0.20515923
 10
66.44999497
 20
-0.20515923
 10
66.46432507
 20
-0.20515923
 10
66.47865517
 20
-0.20515923
 10
66.49298527
 20
-0.20515923
 10
66.50731537
 20
-0.20515923
 10
66.52164547
 20
-0.20515923
 10
66.53597557
 20
-0.20515923
 10
66.55030568
 20
-0.20515923
 10
66.56463578
 20
-0.20515923
  0
TEXT
  5
48
330
17
100
AcDbEntity
  8
STATION_LABEL
100
AcDbText
 10
65.0
 20
0.0
 30
0.0
 40
1.0
  1
Station 13
 11
65.0
 21
0.0
 31
0.0
100
AcDbText
  0
LWPOLYLINE
  5
49
330
17
100
AcDbEntity
  8
GENERATED_PROFILE
100
AcDbPolyline
 90
256
 70
0
 10
68.38831124
 20
-0.22225583
 10
68.40318192
 20
-0.22225583
 10
68.41805261
 20
-0.22225583
 10
68.43292329
 20
-0.22225583
 10
68.44779397
 20
-0.22225583
 10
68.46266465
 20
-0.22225583
 10
68.47753533
 20
-0.22225583
 10
68.49240601
 20
-0.22225583
 10
68.50727669
 20
-0.22225583
 10
68.52214738
 20
-0.22225583
 10
68.53701806
 20
-0.22225583
 10
68.55188874
 20
-0.22225583
 10
68.56675942
 20
-0.22225583
 10
68.5816301
 20
-0.22225583
 10
68.59650077
 20
-0.22225583
 10
68.61137145000001
 20
-0.22225583
 10
68.62624213
 20
-0.22225583
 10
68.64111282
 20
-0.22225583
 10
68.6559835
 20
-0.22225583
 10
68.67085418
 20
-0.22225583
 10
68.68572486
 20
-0.22225583
 10
68.70059554
 20
-0.22225583
 10
68.71546622
 20
-0.22225583
 10
68.7303369
 20
-0.22225583
 10
68.74520759
 20
-0.22225583
 10
68.76007827
 20
-0.22225583
 10
68.77494895
 20
-0.22225583
 10
68.78981963
 20
-0.22225583
 10
68.80469031
 20
-0.22225583
 10
68.81956099
 20
-0.22225583
 10
68.83443167
 20
-0.22225583
 10
68.84930235
 20
-0.22225583
 10
68.86417303
 20
-0.22225583
 10
68.87904371
 20
-0.22225583
 10
68.89391439
 20
-0.22225583
 10
68.90878507
 20
-0.22225583
 10
68.92365575
 20
-0.22225583
 10
68.93852643
 20
-0.22225583
 10
68.95339711
 20
-0.22225583
 10
68.9682678
 20
-0.22225583
 10
68.98313848
 20
-0.22225583
 10
68.99800916
 20
-0.22225583
 10
69.01287984
 20
-0.22225583
 10
69.02775052
 20
-0.22225583
 10
69.0426212
 20
-0.22225583
 10
69.05377031
 20
-0.21661193
 10
69.06026197
 20
-0.20390482
 10
69.06675363
 20
-0.1911977
 10
69.07324529
 20
-0.17849059
 10
69.07973695
 20
-0.16578347
 10
69.08622861
 20
-0.15307635
 10
69.09272026
 20
-0.14036924
 10
69.09921192
 20
-0.12766212
 10
69.10570358
 20
-0.11495501
 10
69.11219524
 20
-0.10224789
 10
69.1186869
 20
-0.08954078
 10
69.12517855
 20
-0.07683367
 10
69.13167021
 20
-0.06412655
 10
69.13816187
 20
-0.05141944
 10
69.14465353
 20
-0.03871232
 10
69.15114518
 20
-0.02600521
 10
69.15763684
 20
-0.01329809
 10
69.1641285
 20
-0.00059098
 10
69.17062015
 20
0.01211614
 10
69.17711181
 20
0.02482326
 10
69.18360347
 20
0.03753037
 10
69.19009513
 20
0.05023749
 10
69.19658678
 20
0.0629446
 10
69.20307844
 20
0.07565171
 10
69.2095701
 20
0.08835882
 10
69.21606176
 20
0.10106594
 10
69.22255342
 20
0.11377306
 10
69.22904508
 20
0.12648017
 10
69.23553673
 20
0.13918729
 10
69.24202839
 20
0.1518944
 10
69.24852005
 20
0.16460152
 10
69.25501171
 20
0.17730863
 10
69.26150337
 20
0.19001575
 10
69.26799502
 20
0.20272287
 10
69.27877198
 20
0.20893116
 10
69.29364266
 20
0.20893116
 10
69.30851335
 20
0.20893116
 10
69.32338402
 20
0.20893116
 10
69.3382547
 20
0.20893116
 10
69.35312538
 20
0.20893116
 10
69.36799606
 20
0.20893116
 10
69.38286674
 20
0.20893116
 10
69.39773742
 20
0.20893116
 10
69.41260811
 20
0.20893116
 10
69.42747879
 20
0.20893116
 10
69.44234947
 20
0.20893116
 10
69.45722015
 20
0.20893116
 10
69.47209083
 20
0.20893116
 10
69.48696151
 20
0.20893116
 10
69.50183219
 20
0.20893116
 10
69.51670288
 20
0.20893116
 10
69.53157356
 20
0.20893116
 10
69.54644424
 20
0.20893116
 10
69.56131492
 20
0.20893116
 10
69.5761856
 20
0.20893116
 10
69.59105628
 20
0.20893116
 10
69.60592696
 20
0.20893116
 10
69.62079764
 20
0.20893116
 10
69.63566832
 20
0.20893116
 10
69.650539
 20
0.20893116
 10
69.66540968
 20
0.20893116
 10
69.68028036
 20
0.20893116
 10
69.69515104
 20
0.20893116
 10
69.71002172
 20
0.20893116
 10
69.7248924
 20
0.20893116
 10
69.73976309
 20
0.20893116
 10
69.75463377
 20
0.20893116
 10
69.76950445
 20
0.20893116
 10
69.78437513
 20
0.20893116
 10
69.79924581
 20
0.20893116
 10
69.81411649
 20
0.20893116
 10
69.82898717
 20
0.20893116
 10
69.84385786
 20
0.20893116
 10
69.85872853
 20
0.20893116
 10
69.87359921
 20
0.20893116
 10
69.88846989
 20
0.20893116
 10
69.90334057
 20
0.20893116
 10
69.91821125
 20
0.20893116
 10
69.93308193
 20
0.20893116
 10
69.94795262
 20
0.20893116
 10
69.9628233
 20
0.20893116
 10
69.97769398
 20
0.20893116
 10
69.99256466
 20
0.20893116
 10
70.00743534
 20
0.20893116
 10
70.02230602
 20
0.20893116
 10
70.0371767
 20
0.20893116
 10
70.05204738
 20
0.20893116
 10
70.06691807
 20
0.20893116
 10
70.08178875
 20
0.20893116
 10
70.09665943
 20
0.20893116
 10
70.11153011
 20
0.20893116
 10
70.12640079
 20
0.20893116
 10
70.14127147
 20
0.20893116
 10
70.15614214
 20
0.20893116
 10
70.17101283
 20
0.20893116
 10
70.18588351
 20
0.20893116
 10
70.20075419
 20
0.20893116
 10
70.21562487
 20
0.20893116
 10
70.23049555
 20
0.20893116
 10
70.24536623
 20
0.20893116
 10
70.26023691
 20
0.20893116
 10
70.2751076
 20
0.20893116
 10
70.28997828
 20
0.20893116
 10
70.30484896
 20
0.20893116
 10
70.31971964
 20
0.20893116
 10
70.33459032
 20
0.20893116
 10
70.349461
 20
0.20893116
 10
70.36433168
 20
0.20893116
 10
70.37920236
 20
0.20893116
 10
70.39407304
 20
0.20893116
 10
70.40894372
 20
0.20893116
 10
70.4238144
 20
0.20893116
 10
70.43868508
 20
0.20893116
 10
70.45355576
 20
0.20893116
 10
70.46842644
 20
0.20893116
 10
70.48329712
 20
0.20893116
 10
70.49816781
 20
0.20893116
 10
70.51303849
 20
0.20893116
 10
70.52790917
 20
0.20893116
 10
70.54277985
 20
0.20893116
 10
70.55765053
 20
0.20893116
 10
70.57252121
 20
0.20893116
 10
70.58739189
 20
0.20893116
 10
70.60226258
 20
0.20893116
 10
70.61713326
 20
0.20893116
 10
70.63200394
 20
0.20893116
 10
70.64687462
 20
0.20893116
 10
70.6617453
 20
0.20893116
 10
70.67661598
 20
0.20893116
 10
70.69148665
 20
0.20893116
 10
70.70635734
 20
0.20893116
 10
70.72122802
 20
0.20893116
 10
70.73200498
 20
0.20272287
 10
70.73849663
 20
0.19001575
 10
70.74498829
 20
0.17730863
 10
70.75147995
 20
0.16460152
 10
70.75797161
 20
0.1518944
 10
70.76446327
 20
0.13918729
 10
70.77095492
 20
0.12648017
 10
70.77744658
 20
0.11377306
 10
70.78393824
 20
0.10106594
 10
70.7904299
 20
0.08835882
 10
70.79692156
 20
0.07565171
 10
70.80341322
 20
0.0629446
 10
70.80990487
 20
0.05023749
 10
70.81639653
 20
0.03753037
 10
70.82288819
 20
0.02482326
 10
70.82937985
 20
0.01211614
 10
70.8358715
 20
-0.00059098
 10
70.84236316
 20
-0.01329809
 10
70.84885482
 20
-0.02600521
 10
70.85534647
 20
-0.03871232
 10
70.86183813
 20
-0.05141944
 10
70.86832979
 20
-0.06412655
 10
70.87482145
 20
-0.07683367
 10
70.8813131
 20
-0.08954078
 10
70.88780476
 20
-0.10224789
 10
70.89429642
 20
-0.11495501
 10
70.90078808
 20
-0.12766212
 10
70.90727974
 20
-0.14036924
 10
70.91377139
 20
-0.15307635
 10
70.92026305
 20
-0.16578347
 10
70.92675471
 20
-0.17849059
 10
70.93324637
 20
-0.1911977
 10
70.93973803
 20
-0.20390482
 10
70.94622969
 20
-0.21661193
 10
70.9573788
 20
-0.22225583
 10
70.97224948
 20
-0.22225583
 10
70.98712016
 20
-0.22225583
 10
71.00199084
 20
-0.22225583
 10
71.01686152
 20
-0.22225583
 10
71.0317322
 20
-0.22225583
 10
71.04660289
 20
-0.22225583
 10
71.06147357
 20
-0.22225583
 10
71.07634425
 20
-0.22225583
 10
71.09121493
 20
-0.22225583
 10
71.10608561
 20
-0.22225583
 10
71.12095629
 20
-0.22225583
 10
71.13582697
 20
-0.22225583
 10
71.15069765
 20
-0.22225583
 10
71.16556833
 20
-0.22225583
 10
71.18043901
 20
-0.22225583
 10
71.19530969
 20
-0.22225583
 10
71.21018037
 20
-0.22225583
 10
71.22505105
 20
-0.22225583
 10
71.23992173
 20
-0.22225583
 10
71.25479241
 20
-0.22225583
 10
71.2696631
 20
-0.22225583
 10
71.28453378
 20
-0.22225583
 10
71.29940446
 20
-0.22225583
 10
71.31427514
 20
-0.22225583
 10
71.32914582
 20
-0.22225583
 10
71.3440165
 20
-0.22225583
 10
71.35888718
 20
-0.22225583
 10
71.37375787
 20
-0.22225583
 10
71.38862854999999
 20
-0.22225583
 10
71.40349923
 20
-0.22225583
 10
71.4183699
 20
-0.22225583
 10
71.43324058
 20
-0.22225583
 10
71.44811126
 20
-0.22225583
 10
71.46298194
 20
-0.22225583
 10
71.47785262
 20
-0.22225583
 10
71.49272331
 20
-0.22225583
 10
71.50759399
 20
-0.22225583
 10
71.52246467
 20
-0.22225583
 10
71.53733535
 20
-0.22225583
 10
71.55220603
 20
-0.22225583
 10
71.56707671
 20
-0.22225583
 10
71.58194739
 20
-0.22225583
 10
71.59681808
 20
-0.22225583
 10
71.61168876
 20
-0.22225583
  0
TEXT
  5
4A
330
17
100
AcDbEntity
  8
STATION_LABEL
100
AcDbText
 10
70.0
 20
0.0
 30
0.0
 40
1.0
  1
Station 14
 11
70.0
 21
0.0
 31
0.0
100
AcDbText
  0
LWPOLYLINE
  5
4B
330
17
100
AcDbEntity
  8
GENERATED_PROFILE
100
AcDbPolyline
 90
256
 70
0
 10
73.34125826
 20
-0.23935244
 10
73.35666952
 20
-0.23935244
 10
73.37208079
 20
-0.23935244
 10
73.38749205
 20
-0.23935244
 10
73.40290331
 20
-0.23935244
 10
73.41831457
 20
-0.23935244
 10
73.43372583
 20
-0.23935244
 10
73.44913709
 20
-0.23935244
 10
73.46454835
 20
-0.23935244
 10
73.47995962
 20
-0.23935244
 10
73.49537088
 20
-0.23935244
 10
73.51078214
 20
-0.23935244
 10
73.5261934
 20
-0.23935244
 10
73.54160466
 20
-0.23935244
 10
73.55701592
 20
-0.23935244
 10
73.57242718
 20
-0.23935244
 10
73.58783844
 20
-0.23935244
 10
73.60324971
 20
-0.23935244
 10
73.61866097
 20
-0.23935244
 10
73.63407223
 20
-0.23935244
 10
73.64948349
 20
-0.23935244
 10
73.66489475
 20
-0.23935244
 10
73.68030601
 20
-0.23935244
 10
73.69571727
 20
-0.23935244
 10
73.71112853
 20
-0.23935244
 10
73.72653979
 20
-0.23935244
 10
73.74195105
 20
-0.23935244
 10
73.75736231
 20
-0.23935244
 10
73.77277357
 20
-0.23935244
 10
73.78818483
 20
-0.23935244
 10
73.80359609
 20
-0.23935244
 10
73.81900736
 20
-0.23935244
 10
73.83441862
 20
-0.23935244
 10
73.84982988
 20
-0.23935244
 10
73.86524114
 20
-0.23935244
 10
73.8806524
 20
-0.23935244
 10
73.89606366
 20
-0.23935244
 10
73.91147492
 20
-0.23935244
 10
73.92688618
 20
-0.23935244
 10
73.94229745
 20
-0.23935244
 10
73.95770871
 20
-0.23935244
 10
73.97311997
 20
-0.23935244
 10
73.98853123
 20
-0.23935244
 10
74.00394249
 20
-0.23935244
 10
74.01935375
 20
-0.23935244
 10
74.03075716
 20
-0.23327438
 10
74.03714486
 20
-0.2195898
 10
74.04353256
 20
-0.20590521
 10
74.04992026
 20
-0.19222063
 10
74.05630796
 20
-0.17853605
 10
74.06269566
 20
-0.16485146
 10
74.06908335
 20
-0.15116688
 10
74.07547105
 20
-0.13748229
 10
74.08185875
 20
-0.12379771
 10
74.08824645
 20
-0.11011312
 10
74.09463415
 20
-0.09642854
 10
74.10102184
 20
-0.08274395
 10
74.10740954
 20
-0.06905936
 10
74.11379724
 20
-0.05537478
 10
74.12018494
 20
-0.04169019
 10
74.12657264
 20
-0.02800561
 10
74.13296034
 20
-0.01432102
 10
74.13934803
 20
-0.00063644
 10
74.14573573
 20
0.01304815
 10
74.15212343
 20
0.02673274
 10
74.15851113
 20
0.04041732
 10
74.16489883
 20
0.05410191
 10
74.17128652
 20
0.06778649
 10
74.17767422
 20
0.08147108
 10
74.18406192
 20
0.09515566
 10
74.19044962
 20
0.10884025
 10
74.19683732
 20
0.12252484
 10
74.20322502
 20
0.13620942
 10
74.20961271
 20
0.14989401
 10
74.21600041
 20
0.16357859
 10
74.22238811
 20
0.17726317
 10
74.22877581
 20
0.19094775
 10
74.23516351
 20
0.20463234
 10
74.2415512
 20
0.21831693
 10
74.25255383
 20
0.22500279
 10
74.26796509
 20
0.22500279
 10
74.28337636
 20
0.22500279
 10
74.29878762
 20
0.22500279
 10
74.31419888
 20
0.22500279
 10
74.32961014
 20
0.22500279
 10
74.3450214
 20
0.22500279
 10
74.36043266
 20
0.22500279
 10
74.37584392
 20
0.22500279
 10
74.39125519
 20
0.22500279
 10
74.40666645
 20
0.22500279
 10
74.42207771
 20
0.22500279
 10
74.43748897
 20
0.22500279
 10
74.45290023
 20
0.22500279
 10
74.46831149
 20
0.22500279
 10
74.48372275
 20
0.22500279
 10
74.49913402
 20
0.22500279
 10
74.51454528
 20
0.22500279
 10
74.52995654
 20
0.22500279
 10
74.5453678
 20
0.22500279
 10
74.56077906
 20
0.22500279
 10
74.57619032
 20
0.22500279
 10
74.59160158
 20
0.22500279
 10
74.60701285
 20
0.22500279
 10
74.62242411
 20
0.22500279
 10
74.63783537
 20
0.22500279
 10
74.65324663
 20
0.22500279
 10
74.66865789
 20
0.22500279
 10
74.68406915
 20
0.22500279
 10
74.69948041
 20
0.22500279
 10
74.71489167
 20
0.22500279
 10
74.73030293
 20
0.22500279
 10
74.74571419
 20
0.22500279
 10
74.76112545
 20
0.22500279
 10
74.77653671
 20
0.22500279
 10
74.79194797
 20
0.22500279
 10
74.80735923
 20
0.22500279
 10
74.82277049
 20
0.22500279
 10
74.83818176
 20
0.22500279
 10
74.85359302
 20
0.22500279
 10
74.86900428
 20
0.22500279
 10
74.88441554
 20
0.22500279
 10
74.8998268
 20
0.22500279
 10
74.91523806
 20
0.22500279
 10
74.93064932
 20
0.22500279
 10
74.94606059
 20
0.22500279
 10
74.96147185
 20
0.22500279
 10
74.97688311
 20
0.22500279
 10
74.99229437
 20
0.22500279
 10
75.00770563
 20
0.22500279
 10
75.02311689
 20
0.22500279
 10
75.03852815
 20
0.22500279
 10
75.05393941
 20
0.22500279
 10
75.06935068
 20
0.22500279
 10
75.08476194
 20
0.22500279
 10
75.1001732
 20
0.22500279
 10
75.11558446
 20
0.22500279
 10
75.13099572
 20
0.22500279
 10
75.14640698
 20
0.22500279
 10
75.16181824
 20
0.22500279
 10
75.17722951
 20
0.22500279
 10
75.19264077
 20
0.22500279
 10
75.20805203
 20
0.22500279
 10
75.22346329
 20
0.22500279
 10
75.23887455
 20
0.22500279
 10
75.25428581
 20
0.22500279
 10
75.26969707
 20
0.22500279
 10
75.28510833
 20
0.22500279
 10
75.30051959
 20
0.22500279
 10
75.31593085
 20
0.22500279
 10
75.33134211
 20
0.22500279
 10
75.34675337
 20
0.22500279
 10
75.36216463
 20
0.22500279
 10
75.37757589
 20
0.22500279
 10
75.39298715
 20
0.22500279
 10
75.40839842
 20
0.22500279
 10
75.42380968
 20
0.22500279
 10
75.43922094
 20
0.22500279
 10
75.4546322
 20
0.22500279
 10
75.47004346
 20
0.22500279
 10
75.48545472
 20
0.22500279
 10
75.50086598
 20
0.22500279
 10
75.51627725
 20
0.22500279
 10
75.53168851
 20
0.22500279
 10
75.54709977
 20
0.22500279
 10
75.56251103
 20
0.22500279
 10
75.57792229
 20
0.22500279
 10
75.59333355
 20
0.22500279
 10
75.60874481
 20
0.22500279
 10
75.62415608
 20
0.22500279
 10
75.63956734
 20
0.22500279
 10
75.6549786
 20
0.22500279
 10
75.67038986
 20
0.22500279
 10
75.68580112
 20
0.22500279
 10
75.70121238
 20
0.22500279
 10
75.71662364
 20
0.22500279
 10
75.73203491
 20
0.22500279
 10
75.74744617
 20
0.22500279
 10
75.7584488
 20
0.21831693
 10
75.76483649
 20
0.20463234
 10
75.77122419
 20
0.19094775
 10
75.77761189
 20
0.17726317
 10
75.78399959
 20
0.16357859
 10
75.79038729
 20
0.14989401
 10
75.79677498
 20
0.13620942
 10
75.80316268
 20
0.12252484
 10
75.80955038
 20
0.10884025
 10
75.81593808
 20
0.09515566
 10
75.82232578
 20
0.08147108
 10
75.82871348
 20
0.06778649
 10
75.83510117
 20
0.05410191
 10
75.84148887
 20
0.04041732
 10
75.84787657
 20
0.02673274
 10
75.85426427
 20
0.01304815
 10
75.86065197
 20
-0.00063644
 10
75.86703966
 20
-0.01432102
 10
75.87342736
 20
-0.02800561
 10
75.87981506
 20
-0.04169019
 10
75.88620276
 20
-0.05537478
 10
75.89259046
 20
-0.06905936
 10
75.89897816
 20
-0.08274395
 10
75.90536585
 20
-0.09642854
 10
75.91175355
 20
-0.11011312
 10
75.91814125
 20
-0.12379771
 10
75.92452895
 20
-0.13748229
 10
75.93091665
 20
-0.15116688
 10
75.93730434
 20
-0.16485146
 10
75.94369204
 20
-0.17853605
 10
75.95007974
 20
-0.19222063
 10
75.95646744
 20
-0.20590521
 10
75.96285514
 20
-0.2195898
 10
75.96924284
 20
-0.23327438
 10
75.98064625
 20
-0.23935244
 10
75.99605751
 20
-0.23935244
 10
76.01146877
 20
-0.23935244
 10
76.02688003
 20
-0.23935244
 10
76.04229129
 20
-0.23935244
 10
76.05770255
 20
-0.23935244
 10
76.07311382
 20
-0.23935244
 10
76.08852508
 20
-0.23935244
 10
76.10393634
 20
-0.23935244
 10
76.1193476
 20
-0.23935244
 10
76.13475886
 20
-0.23935244
 10
76.15017012
 20
-0.23935244
 10
76.16558138
 20
-0.23935244
 10
76.18099264
 20
-0.23935244
 10
76.19640391
 20
-0.23935244
 10
76.21181517
 20
-0.23935244
 10
76.22722643
 20
-0.23935244
 10
76.24263769
 20
-0.23935244
 10
76.25804895
 20
-0.23935244
 10
76.27346021
 20
-0.23935244
 10
76.28887147
 20
-0.23935244
 10
76.30428273
 20
-0.23935244
 10
76.31969399
 20
-0.23935244
 10
76.33510525
 20
-0.23935244
 10
76.35051651
 20
-0.23935244
 10
76.36592777
 20
-0.23935244
 10
76.38133903
 20
-0.23935244
 10
76.39675029
 20
-0.23935244
 10
76.41216156
 20
-0.23935244
 10
76.42757282
 20
-0.23935244
 10
76.44298408
 20
-0.23935244
 10
76.45839534
 20
-0.23935244
 10
76.4738066
 20
-0.23935244
 10
76.48921786
 20
-0.23935244
 10
76.50462912
 20
-0.23935244
 10
76.52004038
 20
-0.23935244
 10
76.53545165
 20
-0.23935244
 10
76.55086291
 20
-0.23935244
 10
76.56627417
 20
-0.23935244
 10
76.58168543
 20
-0.23935244
 10
76.59709669
 20
-0.23935244
 10
76.61250795
 20
-0.23935244
 10
76.62791921
 20
-0.23935244
 10
76.64333048
 20
-0.23935244
 10
76.65874174
 20
-0.23935244
  0
TEXT
  5
4C
330
17
100
AcDbEntity
  8
STATION_LABEL
100
AcDbText
 10
75.0
 20
0.0
 30
0.0
 40
1.0
  1
Station 15
 11
75.0
 21
0.0
 31
0.0
100
AcDbText
  0
LWPOLYLINE
  5
4D
330
17
100
AcDbEntity
  8
GENERATED_PROFILE
100
AcDbPolyline
 90
256
 70
0
 10
78.29420528
 20
-0.25644904
 10
78.31015712
 20
-0.25644904
 10
78.32610897
 20
-0.25644904
 10
78.34206081
 20
-0.25644904
 10
78.35801265
 20
-0.25644904
 10
78.37396449
 20
-0.25644904
 10
78.38991633
 20
-0.25644904
 10
78.40586817
 20
-0.25644904
 10
78.42182001
 20
-0.25644904
 10
78.43777186
 20
-0.25644904
 10
78.4537237
 20
-0.25644904
 10
78.46967554
 20
-0.25644904
 10
78.48562738
 20
-0.25644904
 10
78.50157922
 20
-0.25644904
 10
78.51753106
 20
-0.25644904
 10
78.5334829
 20
-0.25644904
 10
78.54943474
 20
-0.25644904
 10
78.56538659
 20
-0.25644904
 10
78.58133843
 20
-0.25644904
 10
78.59729027
 20
-0.25644904
 10
78.61324211
 20
-0.25644904
 10
78.62919395
 20
-0.25644904
 10
78.64514579
 20
-0.25644904
 10
78.66109763
 20
-0.25644904
 10
78.67704948
 20
-0.25644904
 10
78.69300132
 20
-0.25644904
 10
78.70895316
 20
-0.25644904
 10
78.724905
 20
-0.25644904
 10
78.74085684
 20
-0.25644904
 10
78.75680868
 20
-0.25644904
 10
78.77276052
 20
-0.25644904
 10
78.78871237
 20
-0.25644904
 10
78.80466421
 20
-0.25644904
 10
78.82061605
 20
-0.25644904
 10
78.83656789
 20
-0.25644904
 10
78.85251973
 20
-0.25644904
 10
78.86847157
 20
-0.25644904
 10
78.88442341
 20
-0.25644904
 10
78.90037525
 20
-0.25644904
 10
78.9163271
 20
-0.25644904
 10
78.93227894
 20
-0.25644904
 10
78.94823078
 20
-0.25644904
 10
78.96418262
 20
-0.25644904
 10
78.98013446
 20
-0.25644904
 10
78.9960863
 20
-0.25644904
 10
79.00774402
 20
-0.24993684
 10
79.01402776
 20
-0.23527479
 10
79.0203115
 20
-0.22061273
 10
79.02659524
 20
-0.20595068
 10
79.03287898
 20
-0.19128862
 10
79.03916272
 20
-0.17662656
 10
79.04544645
 20
-0.16196451
 10
79.05173019
 20
-0.14730245
 10
79.05801393
 20
-0.1326404
 10
79.06429767
 20
-0.11797834
 10
79.07058141
 20
-0.10331629
 10
79.07686514
 20
-0.08865423
 10
79.08314888
 20
-0.07399217
 10
79.08943262
 20
-0.05933012
 10
79.09571636
 20
-0.04466806
 10
79.1020001
 20
-0.03000601
 10
79.10828384
 20
-0.01534395
 10
79.11456757
 20
-0.0006819
 10
79.12085131
 20
0.01398016
 10
79.12713505
 20
0.02864222
 10
79.13341879
 20
0.04330427
 10
79.13970253
 20
0.05796633
 10
79.14598626
 20
0.07262838
 10
79.15227
 20
0.08729044
 10
79.15855374
 20
0.10195249
 10
79.16483748
 20
0.11661455
 10
79.17112122
 20
0.13127661
 10
79.17740496
 20
0.14593866
 10
79.18368869
 20
0.16060072
 10
79.18997243
 20
0.17526277
 10
79.19625617
 20
0.18992483
 10
79.20253991
 20
0.20458688
 10
79.20882365
 20
0.21924894
 10
79.21510738
 20
0.233911
 10
79.22633569
 20
0.24107442
 10
79.24228753
 20
0.24107442
 10
79.25823938
 20
0.24107442
 10
79.27419122
 20
0.24107442
 10
79.29014306
 20
0.24107442
 10
79.3060949
 20
0.24107442
 10
79.32204674
 20
0.24107442
 10
79.33799858
 20
0.24107442
 10
79.35395042
 20
0.24107442
 10
79.36990227
 20
0.24107442
 10
79.38585411
 20
0.24107442
 10
79.40180595
 20
0.24107442
 10
79.41775779
 20
0.24107442
 10
79.43370963
 20
0.24107442
 10
79.44966147
 20
0.24107442
 10
79.46561331
 20
0.24107442
 10
79.48156516
 20
0.24107442
 10
79.497517
 20
0.24107442
 10
79.51346884
 20
0.24107442
 10
79.52942068
 20
0.24107442
 10
79.54537252
 20
0.24107442
 10
79.56132436
 20
0.24107442
 10
79.5772762
 20
0.24107442
 10
79.59322805
 20
0.24107442
 10
79.60917989
 20
0.24107442
 10
79.62513173
 20
0.24107442
 10
79.64108357
 20
0.24107442
 10
79.65703541
 20
0.24107442
 10
79.67298725
 20
0.24107442
 10
79.68893909
 20
0.24107442
 10
79.70489093
 20
0.24107442
 10
79.72084278
 20
0.24107442
 10
79.73679462
 20
0.24107442
 10
79.75274646
 20
0.24107442
 10
79.7686983
 20
0.24107442
 10
79.78465014
 20
0.24107442
 10
79.80060198
 20
0.24107442
 10
79.81655382
 20
0.24107442
 10
79.83250567
 20
0.24107442
 10
79.84845751
 20
0.24107442
 10
79.86440935
 20
0.24107442
 10
79.88036119
 20
0.24107442
 10
79.89631303
 20
0.24107442
 10
79.91226487
 20
0.24107442
 10
79.92821671
 20
0.24107442
 10
79.94416856
 20
0.24107442
 10
79.9601204
 20
0.24107442
 10
79.97607224
 20
0.24107442
 10
79.99202408
 20
0.24107442
 10
80.00797592
 20
0.24107442
 10
80.02392776
 20
0.24107442
 10
80.0398796
 20
0.24107442
 10
80.05583144
 20
0.24107442
 10
80.07178329
 20
0.24107442
 10
80.08773513
 20
0.24107442
 10
80.10368697
 20
0.24107442
 10
80.11963881
 20
0.24107442
 10
80.13559065
 20
0.24107442
 10
80.15154249
 20
0.24107442
 10
80.16749433
 20
0.24107442
 10
80.18344618
 20
0.24107442
 10
80.19939802
 20
0.24107442
 10
80.21534986
 20
0.24107442
 10
80.2313017
 20
0.24107442
 10
80.24725354
 20
0.24107442
 10
80.26320538
 20
0.24107442
 10
80.27915722
 20
0.24107442
 10
80.29510907
 20
0.24107442
 10
80.31106091
 20
0.24107442
 10
80.32701275
 20
0.24107442
 10
80.34296459
 20
0.24107442
 10
80.35891643
 20
0.24107442
 10
80.37486827
 20
0.24107442
 10
80.39082011
 20
0.24107442
 10
80.40677195
 20
0.24107442
 10
80.4227238
 20
0.24107442
 10
80.43867564
 20
0.24107442
 10
80.45462748
 20
0.24107442
 10
80.47057932
 20
0.24107442
 10
80.48653116
 20
0.24107442
 10
80.502483
 20
0.24107442
 10
80.51843484
 20
0.24107442
 10
80.53438669
 20
0.24107442
 10
80.55033853
 20
0.24107442
 10
80.56629037
 20
0.24107442
 10
80.58224221
 20
0.24107442
 10
80.59819405
 20
0.24107442
 10
80.61414589
 20
0.24107442
 10
80.63009773
 20
0.24107442
 10
80.64604958
 20
0.24107442
 10
80.66200142
 20
0.24107442
 10
80.67795326
 20
0.24107442
 10
80.6939051
 20
0.24107442
 10
80.70985694
 20
0.24107442
 10
80.72580878
 20
0.24107442
 10
80.74176062
 20
0.24107442
 10
80.75771247
 20
0.24107442
 10
80.77366431
 20
0.24107442
 10
80.78489262
 20
0.233911
 10
80.79117635
 20
0.21924894
 10
80.79746009
 20
0.20458688
 10
80.80374383
 20
0.18992483
 10
80.81002757
 20
0.17526277
 10
80.81631131
 20
0.16060072
 10
80.82259504
 20
0.14593866
 10
80.82887878
 20
0.13127661
 10
80.83516252
 20
0.11661455
 10
80.84144626
 20
0.10195249
 10
80.84773
 20
0.08729044
 10
80.85401374
 20
0.07262838
 10
80.86029747
 20
0.05796633
 10
80.86658121
 20
0.04330427
 10
80.87286495
 20
0.02864222
 10
80.87914869
 20
0.01398016
 10
80.88543243
 20
-0.0006819
 10
80.89171616
 20
-0.01534395
 10
80.8979999
 20
-0.03000601
 10
80.90428364
 20
-0.04466806
 10
80.91056738
 20
-0.05933012
 10
80.91685112
 20
-0.07399217
 10
80.92313486
 20
-0.08865423
 10
80.92941859
 20
-0.10331629
 10
80.93570233
 20
-0.11797834
 10
80.94198607
 20
-0.1326404
 10
80.94826981
 20
-0.14730245
 10
80.95455355
 20
-0.16196451
 10
80.96083728
 20
-0.17662656
 10
80.96712102
 20
-0.19128862
 10
80.97340476
 20
-0.20595068
 10
80.9796885
 20
-0.22061273
 10
80.98597224
 20
-0.23527479
 10
80.99225598
 20
-0.24993684
 10
81.0039137
 20
-0.25644904
 10
81.01986554
 20
-0.25644904
 10
81.03581738
 20
-0.25644904
 10
81.05176922
 20
-0.25644904
 10
81.06772106
 20
-0.25644904
 10
81.0836729
 20
-0.25644904
 10
81.09962475
 20
-0.25644904
 10
81.11557659
 20
-0.25644904
 10
81.13152843
 20
-0.25644904
 10
81.14748027
 20
-0.25644904
 10
81.16343211
 20
-0.25644904
 10
81.17938395
 20
-0.25644904
 10
81.19533579
 20
-0.25644904
 10
81.21128763
 20
-0.25644904
 10
81.22723948
 20
-0.25644904
 10
81.24319132
 20
-0.25644904
 10
81.25914316
 20
-0.25644904
 10
81.275095
 20
-0.25644904
 10
81.29104684
 20
-0.25644904
 10
81.30699868
 20
-0.25644904
 10
81.32295052
 20
-0.25644904
 10
81.33890237
 20
-0.25644904
 10
81.35485421
 20
-0.25644904
 10
81.37080605
 20
-0.25644904
 10
81.38675789
 20
-0.25644904
 10
81.40270973
 20
-0.25644904
 10
81.41866157
 20
-0.25644904
 10
81.43461341
 20
-0.25644904
 10
81.45056526
 20
-0.25644904
 10
81.4665171
 20
-0.25644904
 10
81.48246894
 20
-0.25644904
 10
81.49842078
 20
-0.25644904
 10
81.51437262
 20
-0.25644904
 10
81.53032446
 20
-0.25644904
 10
81.5462763
 20
-0.25644904
 10
81.56222814
 20
-0.25644904
 10
81.57817999
 20
-0.25644904
 10
81.59413183
 20
-0.25644904
 10
81.61008367
 20
-0.25644904
 10
81.62603551
 20
-0.25644904
 10
81.64198735
 20
-0.25644904
 10
81.65793919
 20
-0.25644904
 10
81.67389103
 20
-0.25644904
 10
81.68984288
 20
-0.25644904
 10
81.70579472
 20
-0.25644904
  0
TEXT
  5
4E
330
17
100
AcDbEntity
  8
STATION_LABEL
100
AcDbText
 10
80.0
 20
0.0
 30
0.0
 40
1.0
  1
Station 16
 11
80.0
 21
0.0
 31
0.0
100
AcDbText
  0
ENDSEC
  0
SECTION
  2
OBJECTS
  0
DICTIONARY
  5
A
330
0
100
AcDbDictionary
281
1
  3
ACAD_COLOR
350
B
  3
ACAD_GROUP
350
C
  3
ACAD_LAYOUT
350
D
  3
ACAD_MATERIAL
350
E
  3
ACAD_MLEADERSTYLE
350
F
  3
ACAD_MLINESTYLE
350
10
  3
ACAD_PLOTSETTINGS
350
11
  3
ACAD_PLOTSTYLENAME
350
12
  3
ACAD_SCALELIST
350
14
  3
ACAD_TABLESTYLE
350
15
  3
ACAD_VISUALSTYLE
350
16
  3
EZDXF_META
350
2D
  0
DICTIONARY
  5
B
330
A
100
AcDbDictionary
281
1
  0
DICTIONARY
  5
C
330
A
100
AcDbDictionary
281
1
  0
DICTIONARY
  5
D
330
A
100
AcDbDictionary
281
1
  3
Model
350
1A
  3
Layout1
350
1E
  0
DICTIONARY
  5
E
330
A
100
AcDbDictionary
281
1
  3
ByBlock
350
1F
  3
ByLayer
350
20
  3
Global
350
21
  0
DICTIONARY
  5
F
330
A
100
AcDbDictionary
281
1
  3
Standard
350
2C
  0
DICTIONARY
  5
10
330
A
100
AcDbDictionary
281
1
  3
Standard
350
22
  0
DICTIONARY
  5
11
330
A
100
AcDbDictionary
281
1
  0
ACDBDICTIONARYWDFLT
  5
12
330
A
100
AcDbDictionary
281
1
  3
Normal
350
13
100
AcDbDictionaryWithDefault
340
13
  0
ACDBPLACEHOLDER
  5
13
330
12
  0
DICTIONARY
  5
14
330
A
100
AcDbDictionary
281
1
  0
DICTIONARY
  5
15
330
A
100
AcDbDictionary
281
1
  0
DICTIONARY
  5
16
330
A
100
AcDbDictionary
281
1
  0
LAYOUT
  5
1A
330
D
100
AcDbPlotSettings
  1

  4
A3
  6

 40
7.5
 41
20.0
 42
7.5
 43
20.0
 44
420.0
 45
297.0
 46
0.0
 47
0.0
 48
0.0
 49
0.0
140
0.0
141
0.0
142
1.0
143
1.0
 70
1024
 72
1
 73
0
 74
5
  7

 75
16
 76
0
 77
2
 78
300
147
1.0
148
0.0
149
0.0
100
AcDbLayout
  1
Model
 70
1
 71
0
 10
0.0
 20
0.0
 11
420.0
 21
297.0
 12
0.0
 22
0.0
 32
0.0
 14
1e+20
 24
1e+20
 34
1e+20
 15
-1e+20
 25
-1e+20
 35
-1e+20
146
0.0
 13
0.0
 23
0.0
 33
0.0
 16
1.0
 26
0.0
 36
0.0
 17
0.0
 27
1.0
 37
0.0
 76
1
330
17
  0
LAYOUT
  5
1E
330
D
100
AcDbPlotSettings
  1

  4
A3
  6

 40
7.5
 41
20.0
 42
7.5
 43
20.0
 44
420.0
 45
297.0
 46
0.0
 47
0.0
 48
0.0
 49
0.0
140
0.0
141
0.0
142
1.0
143
1.0
 70
0
 72
1
 73
0
 74
5
  7

 75
16
 76
0
 77
2
 78
300
147
1.0
148
0.0
149
0.0
100
AcDbLayout
  1
Layout1
 70
1
 71
1
 10
0.0
 20
0.0
 11
420.0
 21
297.0
 12
0.0
 22
0.0
 32
0.0
 14
1e+20
 24
1e+20
 34
1e+20
 15
-1e+20
 25
-1e+20
 35
-1e+20
146
0.0
 13
0.0
 23
0.0
 33
0.0
 16
1.0
 26
0.0
 36
0.0
 17
0.0
 27
1.0
 37
0.0
 76
1
330
1B
  0
MATERIAL
  5
1F
102
{ACAD_REACTORS
330
E
102
}
330
E
100
AcDbMaterial
  1
ByBlock
  2

 70
0
 40
1.0
 71
1
 41
1.0
 91
-1023410177
 42
1.0
 72
1
  3

 73
1
 74
1
 75
1
 44
0.5
 73
0
 45
1.0
 46
1.0
 77
1
  4

 78
1
 79
1
170
1
 48
1.0
171
1
  6

172
1
173
1
174
1
140
1.0
141
1.0
175
1
  7

176
1
177
1
178
1
143
1.0
179
1
  8

270
1
271
1
272
1
145
1.0
146
1.0
273
1
  9

274
1
275
1
276
1
 42
1.0
 72
1
  3

 73
1
 74
1
 75
1
 94
63
  0
MATERIAL
  5
20
102
{ACAD_REACTORS
330
E
102
}
330
E
100
AcDbMaterial
  1
ByLayer
  2

 70
0
 40
1.0
 71
1
 41
1.0
 91
-1023410177
 42
1.0
 72
1
  3

 73
1
 74
1
 75
1
 44
0.5
 73
0
 45
1.0
 46
1.0
 77
1
  4

 78
1
 79
1
170
1
 48
1.0
171
1
  6

172
1
173
1
174
1
140
1.0
141
1.0
175
1
  7

176
1
177
1
178
1
143
1.0
179
1
  8

270
1
271
1
272
1
145
1.0
146
1.0
273
1
  9

274
1
275
1
276
1
 42
1.0
 72
1
  3

 73
1
 74
1
 75
1
 94
63
  0
MATERIAL
  5
21
102
{ACAD_REACTORS
330
E
102
}
330
E
100
AcDbMaterial
  1
Global
  2

 70
0
 40
1.0
 71
1
 41
1.0
 91
-1023410177
 42
1.0
 72
1
  3

 73
1
 74
1
 75
1
 44
0.5
 73
0
 45
1.0
 46
1.0
 77
1
  4

 78
1
 79
1
170
1
 48
1.0
171
1
  6

172
1
173
1
174
1
140
1.0
141
1.0
175
1
  7

176
1
177
1
178
1
143
1.0
179
1
  8

270
1
271
1
272
1
145
1.0
146
1.0
273
1
  9

274
1
275
1
276
1
 42
1.0
 72
1
  3

 73
1
 74
1
 75
1
 94
63
  0
MLINESTYLE
  5
22
102
{ACAD_REACTORS
330
10
102
}
330
10
100
AcDbMlineStyle
  2
Standard
 70
0
  3

 62
256
 51
90.0
 52
90.0
 71
2
 49
0.5
 62
256
  6
BYLAYER
 49
-0.5
 62
256
  6
BYLAYER
  0
MLEADERSTYLE
  5
2C
102
{ACAD_REACTORS
330
F
102
}
330
F
100
AcDbMLeaderStyle
179
2
170
2
171
1
172
0
 90
2
 40
0.0
 41
0.0
173
1
 91
-1056964608
 92
-2
290
1
 42
2.0
291
1
 43
8.0
  3
Standard
 44
4.0
300

342
29
174
1
175
1
176
0
178
1
 93
-1056964608
 45
4.0
292
0
297
0
 46
4.0
 94
-1056964608
 47
1.0
 49
1.0
140
1.0
294
1
141
0.0
177
0
142
1.0
295
0
296
0
143
3.75
271
0
272
9
273
9
  0
DICTIONARY
  5
2D
330
A
100
AcDbDictionary
280
1
281
1
  3
CREATED_BY_EZDXF
350
2E
  3
WRITTEN_BY_EZDXF
350
51
  0
DICTIONARYVAR
  5
2E
330
2D
100
DictionaryVariables
280
0
  1
1.4.4 @ 2026-08-04T12:12:10.063070+00:00
  0
DICTIONARYVAR
  5
51
330
2D
100
DictionaryVariables
280
0
  1
1.4.4 @ 2026-08-04T12:12:10.095747+00:00
  0
ENDSEC
  0
EOF
